<?xml version="1.0" encoding="utf-8"?>
<!-- Generator: Adobe Illustrator 16.0.2, SVG Export Plug-In . SVG Version: 6.00 Build 0)  -->
<!DOCTYPE svg PUBLIC "-//W3C//DTD SVG 1.1//EN" "http://www.w3.org/Graphics/SVG/1.1/DTD/svg11.dtd">
<svg version="1.1" id="Layer_1" xmlns="http://www.w3.org/2000/svg" xmlns:xlink="http://www.w3.org/1999/xlink" x="0px" y="0px"
	 width="512px" height="512px" viewBox="0 0 512 512" enable-background="new 0 0 512 512" xml:space="preserve">
<g>
	<g>
		<path d="M284.444,256.144L506.424,34.162c7.814-7.815,7.814-20.486,0-28.3c-7.814-7.815-20.486-7.815-28.301,0l-221.98,221.98
			L34.163,5.862c-7.815-7.815-20.486-7.815-28.301,0c-7.814,7.815-7.815,20.486,0,28.3l221.98,221.98L5.862,478.124
			c-7.815,7.814-7.815,20.486,0,28.301c3.907,3.906,9.029,5.86,14.151,5.86c5.122,0,10.243-1.954,14.15-5.86l221.98-221.98
			l221.98,221.98c3.906,3.906,9.028,5.86,14.15,5.86s10.244-1.954,14.15-5.86c7.814-7.814,7.814-20.486,0-28.301L284.444,256.144z"
			/>
	</g>
</g>
</svg>
