<?xml version="1.0"?>
<svg xmlns="http://www.w3.org/2000/svg" id="Layer_1" data-name="Layer 1" viewBox="0 0 512 512" width="512px" height="512px" class=""><g><title>Thrash</title><path d="M188.679,27.521A95.787,95.787,0,0,0,82.915,122.763v47.8a7,7,0,0,0,3.222-.837,6.667,6.667,0,0,0,3.541-5.646l1.7-37.313a7,7,0,0,1,7.352-6.673c.057,0,1.552.076,4.22.122A95.908,95.908,0,0,1,188.679,27.521Z" style="fill:#F9F9F9" data-original="#D4E1F4" class="active-path" data-old_color="#D4E1F4"/><path d="M111.424,238.593q-.063-.334-.158-.66l-5.145-17.7a7,7,0,0,0-5.691-5.7,18.855,18.855,0,0,1-15.018-23.04,12.136,12.136,0,0,1,8.567-8.981,20.762,20.762,0,0,0,29.685-17.8l1.387-30.464c2.286.021,5.081.018,8.3-.039-.337-.285-.679-.561-1.015-.85-11.7.832-21.257.946-27.289.889l-1.387,30.464a20.712,20.712,0,0,1-29.685,17.8,12.136,12.136,0,0,0-8.567,8.981,18.855,18.855,0,0,0,15.018,23.04,7,7,0,0,1,5.691,5.7l5.145,17.7q.094.326.158.66a88.584,88.584,0,0,0,97.233,71.777A88.82,88.82,0,0,1,111.424,238.593Z" style="fill:#F9F9F9" data-original="#D4E1F4" class="active-path" data-old_color="#D4E1F4"/><path d="M159.95,343.575V323.229a102.553,102.553,0,0,1-20-5.858v26.2a89.9,89.9,0,0,0,48.707,8.19A89.185,89.185,0,0,1,159.95,343.575Z" style="fill:#F9F9F9" data-original="#D4E1F4" class="active-path" data-old_color="#D4E1F4"/><path d="M48.048,412.437q.207-.884.447-1.76c4.092-14.9,15.66-26.755,30.945-31.71l61.2-19.842q-4.275-1.683-8.414-3.757l-72.784,23.6c-15.285,4.955-26.853,16.809-30.945,31.71q-.242.877-.447,1.76A43.4,43.4,0,0,0,27,422.383v44.6H47v-44.6A43.4,43.4,0,0,1,48.048,412.437Z" style="fill:#F9F9F9" data-original="#D4E1F4" class="active-path" data-old_color="#D4E1F4"/><rect x="361.728" y="271.496" width="20" height="23.322" style="fill:#F9F9F9" data-original="#D4E1F4" class="active-path" data-old_color="#D4E1F4"/><path d="M343.12,469.463V346.308h-20V469.463A14.352,14.352,0,0,0,337.456,483.8h20A14.352,14.352,0,0,1,343.12,469.463Z" style="fill:#F9F9F9" data-original="#D4E1F4" class="active-path" data-old_color="#D4E1F4"/><path d="M327.118,320.562a11.759,11.759,0,0,1,11.745-11.745h-20a11.746,11.746,0,0,0,0,23.491h20A11.759,11.759,0,0,1,327.118,320.562Z" style="fill:#F9F9F9" data-original="#D4E1F4" class="active-path" data-old_color="#D4E1F4"/><path d="M20,480.979H316.6v-14H27v-44.6a43.352,43.352,0,0,1,1.049-9.947c.137-.59.286-1.175.446-1.759,4.092-14.9,15.66-26.755,30.945-31.711l72.784-23.6a103.994,103.994,0,0,0,92.867,0l72.784,23.6a48.5,48.5,0,0,1,14.062,7.261L320.306,375a62.49,62.49,0,0,0-18.113-9.355l-70.829-22.964V310.367a102.707,102.707,0,0,0,48.222-68.847l4.155-14.3a32.871,32.871,0,0,0,21.76-39.063,26.181,26.181,0,0,0-17.06-18.723V122.763a109.763,109.763,0,1,0-219.526,0v46.66a26.186,26.186,0,0,0-17.1,18.736,32.87,32.87,0,0,0,21.759,39.066l4.156,14.3a102.7,102.7,0,0,0,48.221,68.846v32.319L55.122,365.649C35.34,372.062,20.339,387.51,15,406.968c-.209.761-.4,1.526-.581,2.29A57.147,57.147,0,0,0,13,422.383v51.6A7,7,0,0,0,20,480.979ZM187.542,124.791c8.931,9.5,36.974,34.724,86.9,39.855v3.605c-19.325-.456-76.463-4.654-121.938-36.9l.632-.082A298.247,298.247,0,0,0,187.542,124.791ZM82.915,122.763a95.763,95.763,0,1,1,191.526,0v27.785c-36.664-4.161-60.155-20.4-71.319-30.248,18.726-6.144,34.674-14.221,47.671-24.189A7,7,0,1,0,242.273,85c-26.564,20.374-63.982,28.839-90.694,32.354a327.734,327.734,0,0,1-52.85,2.737,7,7,0,0,0-7.352,6.672l-1.7,37.313a6.667,6.667,0,0,1-3.541,5.647,7,7,0,0,1-3.222.837Zm8.509,115.83c-.042-.223-.1-.444-.158-.661l-5.145-17.7a7,7,0,0,0-5.691-5.7,18.857,18.857,0,0,1-15.018-23.042,12.137,12.137,0,0,1,8.567-8.98,20.762,20.762,0,0,0,29.685-17.8l1.387-30.463c6.033.052,15.592-.057,27.289-.89,31.215,26.77,69.543,38.645,96.493,43.9,29.771,5.8,51.952,5.033,52.877,5,.155-.006.308-.025.461-.041a12.245,12.245,0,0,1,9.731,9.274,18.857,18.857,0,0,1-15.017,23.042,7,7,0,0,0-5.692,5.7l-5.144,17.7c-.064.218-.116.438-.158.661a88.762,88.762,0,0,1-174.467,0Zm87.233,86.36a102.4,102.4,0,0,0,38.707-7.582v26.2a90.042,90.042,0,0,1-77.414,0v-26.2A102.4,102.4,0,0,0,178.657,324.953Z" style="fill:#000000" data-original="#0635C9" class="" data-old_color="#0635C9"/><path d="M390.118,403.783a7,7,0,0,0-7,7v45.074a7,7,0,0,0,14,0V410.783A7,7,0,0,0,390.118,403.783Z" style="fill:#E51A2E" data-original="#1AE5BE" class="" data-old_color="#1AE5BE"/><path d="M424.256,403.783a7,7,0,0,0-7,7v45.074a7,7,0,1,0,14,0V410.783A7,7,0,0,0,424.256,403.783Z" style="fill:#E51A2E" data-original="#1AE5BE" class="" data-old_color="#1AE5BE"/><path d="M355.98,403.783a7,7,0,0,0-7,7v45.074a7,7,0,0,0,14,0V410.783A7,7,0,0,0,355.98,403.783Z" style="fill:#E51A2E" data-original="#1AE5BE" class="" data-old_color="#1AE5BE"/><path d="M432.509,294.817V270.93A13.449,13.449,0,0,0,419.074,257.5H361.162a13.449,13.449,0,0,0-13.434,13.434v23.887H318.863a25.742,25.742,0,0,0-9.743,49.57V469.463A28.369,28.369,0,0,0,337.456,497.8H442.78a28.369,28.369,0,0,0,28.336-28.336V344.387a25.742,25.742,0,0,0-9.743-49.57ZM361.728,271.5h56.781v23.321H361.728ZM442.78,483.8H337.456a14.352,14.352,0,0,1-14.336-14.336V346.308h134V469.463A14.351,14.351,0,0,1,442.78,483.8Zm30.338-163.237a11.758,11.758,0,0,1-11.745,11.746H318.863a11.746,11.746,0,0,1,0-23.491h142.51A11.758,11.758,0,0,1,473.118,320.562Z" style="fill:#E51A2E" data-original="#1AE5BE" class="" data-old_color="#1AE5BE"/></g> </svg>
