<svg height="512pt" viewBox="0 0 512 512" width="512pt" xmlns="http://www.w3.org/2000/svg" xmlns:xlink="http://www.w3.org/1999/xlink"><linearGradient id="a" gradientUnits="userSpaceOnUse" x1="0" x2="512" y1="256" y2="256"><stop offset="0" stop-color="#00f38d"/><stop offset="1" stop-color="#009eff"/></linearGradient><path d="m512 256c0 141.386719-114.613281 256-256 256s-256-114.613281-256-256 114.613281-256 256-256 256 114.613281 256 256zm0 0" fill="url(#a)"/><g fill="#fff"><path d="m364.640625 172.65625v-80.800781h-217.28125v80.800781l-53.503906 39.90625v164.816406c0 21.375 17.390625 38.765625 38.765625 38.765625h246.753906c21.378906 0 38.769531-17.390625 38.769531-38.765625v-164.816406zm-233.371094 45.90625 16.09375-12v23.972656zm259.695313 158.816406c0 6.386719-5.199219 11.585938-11.585938 11.585938h-246.753906c-6.390625 0-11.589844-5.199219-11.589844-11.585938v-132.554687l134.367188 99.945312.597656.445313 134.964844-100.390625zm-53.503906-126.628906-81.460938 60.59375-81.460938-60.59375v-131.714844h162.921876zm27.179687-20.214844v-23.972656l16.09375 12zm0 0"/><path d="m256.015625 164.984375c9.230469 0 16.738281-7.507813 16.738281-16.734375 0-9.230469-7.511718-16.738281-16.738281-16.738281-9.230469 0-16.738281 7.507812-16.738281 16.738281 0 9.226562 7.507812 16.734375 16.738281 16.734375zm0 0"/><path d="m235.386719 203.699219c1.324219-.535157 2.550781-.394531 3.65625.421875.683593.5 1.796875 1.644531 1.695312 3.707031l-9.316406 33.113281c-.148437.523438-.269531 1.074219-.355469 1.632813-1.773437 11.628906 3.011719 23.183593 12.488282 30.152343 5.464843 4.019532 11.921874 6.140626 18.667968 6.140626 4.757813 0 9.542969-1.105469 13.84375-3.207032l9.453125-4.609375-11.917969-24.425781-9.453124 4.609375c-1.960938.957031-3.519532.308594-4.492188-.40625-.855469-.628906-1.851562-1.757813-1.777344-3.578125l9.3125-33.09375c.152344-.53125.269532-1.078125.355469-1.636719 1.789063-11.746093-2.960937-23.355469-12.398437-30.296875-9.289063-6.828125-21.5625-7.898437-32.035157-2.789062-.328125.160156-.652343.335937-.96875.519531l-7.292969 4.324219 13.855469 23.382812zm0 0"/></g></svg>