<svg height="480pt" viewBox="0 -88 480 480" width="480pt" xmlns="http://www.w3.org/2000/svg"><path d="m8 8.046875 232 232 232-232v-.078125h-464zm0 0" fill="#9bc9ff"/><path d="m479.953125 7.742188c-.039063-.820313-.203125-1.628907-.488281-2.398438-.140625-.375-.3125-.738281-.511719-1.085938-.234375-.414062-.5-.804687-.800781-1.167968-.28125-.375-.59375-.722656-.9375-1.042969-.28125-.214844-.574219-.414063-.878906-.589844-.804688-.535156-1.703126-.910156-2.648438-1.113281-.371094-.105469-.746094-.183594-1.128906-.230469-.199219 0-.367188-.113281-.566406-.113281h-463.992188c-.199219 0-.367188.105469-.558594.113281-.433594.050781-.863281.140625-1.28125.261719-.777344.183594-1.523437.488281-2.207031.90625-.445313.242188-.867187.53125-1.257813.855469-.261718.25-.507812.519531-.734374.800781-.390626.464844-.730469.972656-1.007813 1.511719-.136719.277343-.28125.535156-.394531.796875-.351563.894531-.542969 1.84375-.558594 2.800781v287.921875c0 4.417969 3.582031 8 8 8h464c4.417969 0 8-3.582031 8-8v-288c-.011719-.078125-.027344-.152344-.046875-.226562zm-15.953125 268.832031-124.609375-124.605469 124.609375-124.609375zm-11.199219-260.605469-212.800781 212.800781-212.800781-212.800781zm-312.191406 136-124.609375 124.605469v-249.214844zm-113.410156 136 124.722656-124.6875 82.398437 82.398438c3.125 3.125 8.1875 3.125 11.3125 0l82.398438-82.398438 124.769531 124.6875zm0 0" fill="#1e81ce"/></svg>