<?xml version="1.0" encoding="iso-8859-1"?>
<!-- Generator: Adobe Illustrator 19.0.0, SVG Export Plug-In . SVG Version: 6.00 Build 0)  -->
<svg version="1.1" id="Capa_1" xmlns="http://www.w3.org/2000/svg" xmlns:xlink="http://www.w3.org/1999/xlink" x="0px" y="0px"
	 viewBox="0 0 512 512" style="enable-background:new 0 0 512 512;" xml:space="preserve">
<path style="fill:#FFA000;" d="M496,288h-96c-6.048,0-11.584,3.424-14.304,8.832L358.112,352H153.92l-27.584-55.168
	C123.616,291.424,118.08,288,112,288H16c-8.832,0-16,7.168-16,16v176c0,17.664,14.368,32,32,32h448c17.664,0,32-14.336,32-32V304
	C512,295.168,504.832,288,496,288z"/>
<path style="fill:#4CAF50;" d="M331.328,164.672c-6.24-6.24-16.384-6.24-22.624,0L272,201.376V16c0-8.832-7.168-16-16-16
	s-16,7.168-16,16v185.376l-36.672-36.704c-6.24-6.24-16.384-6.24-22.624,0s-6.24,16.384,0,22.624l64,64
	c3.104,3.136,7.2,4.704,11.296,4.704c4.096,0,8.192-1.568,11.328-4.672l64-64C337.568,181.056,337.568,170.944,331.328,164.672z"/>
<g>
</g>
<g>
</g>
<g>
</g>
<g>
</g>
<g>
</g>
<g>
</g>
<g>
</g>
<g>
</g>
<g>
</g>
<g>
</g>
<g>
</g>
<g>
</g>
<g>
</g>
<g>
</g>
<g>
</g>
</svg>
