<?xml version="1.0" encoding="iso-8859-1"?>
<!-- Generator: Adobe Illustrator 19.0.0, SVG Export Plug-In . SVG Version: 6.00 Build 0)  -->
<svg version="1.1" id="Capa_1" xmlns="http://www.w3.org/2000/svg" xmlns:xlink="http://www.w3.org/1999/xlink" x="0px" y="0px"
	 viewBox="0 0 512 512" style="enable-background:new 0 0 512 512;" xml:space="preserve">
<polygon style="fill:#FFDC40;" points="512,502 0,502 0,177.697 88.036,122.538 423.962,122.536 512,177.697 "/>
<g>
	<polygon style="fill:#FFAB15;" points="423.962,122.536 256,122.537 256,502 512,502 512,177.697 	"/>
	<polygon style="fill:#FFAB15;" points="423.962,122.536 88.036,122.538 0,177.697 255.989,433.708 512,177.697 	"/>
</g>
<polygon style="fill:#FF9400;" points="256,433.697 512,177.697 423.962,122.536 256,122.537 "/>
<polygon style="fill:#E6F9FF;" points="86,263.704 255.989,433.708 426,263.697 426,10 86,10 "/>
<polygon style="fill:#CCEFFF;" points="256,10 256,433.697 426,263.697 426,10 "/>
<path style="fill:#FFEA84;" d="M442,502L298.426,358.426c-23.431-23.431-61.421-23.431-84.853,0L70,502H442z"/>
<path style="fill:#FFDC40;" d="M256,502h186L298.426,358.426C286.71,346.71,271.355,340.852,256,340.852V502z"/>
<g>
	<rect x="140" y="85" style="fill:#7D8AFF;" width="230" height="30"/>
	<rect x="140" y="145" style="fill:#7D8AFF;" width="230" height="30"/>
	<rect x="141" y="205" style="fill:#7D8AFF;" width="170" height="30"/>
</g>
<g>
	<rect x="256" y="85" style="fill:#6E76E5;" width="114" height="30"/>
	<rect x="256" y="145" style="fill:#6E76E5;" width="114" height="30"/>
	<rect x="256" y="205" style="fill:#6E76E5;" width="55" height="30"/>
</g>
<g>
</g>
<g>
</g>
<g>
</g>
<g>
</g>
<g>
</g>
<g>
</g>
<g>
</g>
<g>
</g>
<g>
</g>
<g>
</g>
<g>
</g>
<g>
</g>
<g>
</g>
<g>
</g>
<g>
</g>
</svg>
