<?xml version="1.0" encoding="utf-8"?>
<!-- Generator: Adobe Illustrator 16.0.2, SVG Export Plug-In . SVG Version: 6.00 Build 0)  -->
<!DOCTYPE svg PUBLIC "-//W3C//DTD SVG 1.1//EN" "http://www.w3.org/Graphics/SVG/1.1/DTD/svg11.dtd">
<svg version="1.1" id="Layer_1" xmlns="http://www.w3.org/2000/svg" xmlns:xlink="http://www.w3.org/1999/xlink" x="0px" y="0px"
	 width="512px" height="512px" viewBox="0 0 512 512" enable-background="new 0 0 512 512" xml:space="preserve">
<path fill="#FFFFFF" d="M428.324,39.977H59.965c-11.02,0-19.988,8.969-19.988,19.992v255.464C16.711,307.184,0,284.965,0,258.906
	V59.969C0,26.903,26.903,0,59.965,0h311.828C397.852,0,420.071,16.711,428.324,39.977z M425.239,292.211l-28.27,28.27l38.32,38.32
	H286.84v39.98h148.82l-38.691,38.688l28.27,28.27L512,378.973L425.239,292.211z M139.922,358.852h105.941v39.926H139.922
	c-33.066,0-59.965-26.848-59.965-59.914V139.922c0-33.066,26.898-59.965,59.965-59.965H451.75c33.066,0,59.965,26.898,59.965,59.965
	V321.82l-39.977-39.977V150.067L295.836,280.906L119.934,150.067v188.796C119.934,349.887,128.903,358.852,139.922,358.852z
	 M295.836,231.083l149.43-111.148H146.406L295.836,231.083z"/>
</svg>
