<?xml version="1.0" encoding="utf-8"?>
<!-- Generator: Adobe Illustrator 16.0.2, SVG Export Plug-In . SVG Version: 6.00 Build 0)  -->
<!DOCTYPE svg PUBLIC "-//W3C//DTD SVG 1.1//EN" "http://www.w3.org/Graphics/SVG/1.1/DTD/svg11.dtd">
<svg version="1.1" id="Layer_1" xmlns="http://www.w3.org/2000/svg" xmlns:xlink="http://www.w3.org/1999/xlink" x="0px" y="0px"
	 width="494.797px" height="494.102px" viewBox="0 0 494.797 494.102" enable-background="new 0 0 494.797 494.102"
	 xml:space="preserve">
<path fill="#FFFFFF" d="M396.07,344.722c-3.446,0-6.773,0.012-10.019,0.024c-3.075,0.011-6.074,0.021-9.033,0.021
	c-4.483,0-8.154-0.026-11.55-0.081c-2.809-0.058-5.86,0.18-8.805,0.398c-2.502,0.186-5.088,0.378-7.311,0.378
	c-3.482,0-4.646-0.493-4.893-0.624c-1.734-2.145-1.35-9.486-1.093-14.368c0.136-2.572,0.276-5.232,0.243-7.746
	c-0.168-13.132-0.134-26.545-0.1-39.517c0.014-5.469,0.028-10.948,0.028-16.441v-6.143h-33.228v117.45h91.9v-33.353H396.07z"/>
<g>
	<path fill="#FFFFFF" d="M337.835,465.916c-74.105,0-134.394-60.288-134.394-134.393c0-74.105,60.288-134.394,134.394-134.394
		c74.104,0,134.393,60.288,134.393,134.394C472.228,405.628,411.939,465.916,337.835,465.916z M337.835,224.376
		c-59.081,0-107.146,48.066-107.146,107.147c0,59.08,48.065,107.146,107.146,107.146c59.08,0,107.146-48.066,107.146-107.146
		C444.981,272.442,396.915,224.376,337.835,224.376z"/>
</g>
<path fill="none" d="M455.943,182.076c-20.254,0-40.496,0-60.732,0c23.484,9.624,44.227,24.559,60.733,43.317
	c-0.001-12.397-0.001-24.794-0.001-37.191C455.943,186.241,455.943,184.28,455.943,182.076z"/>
<path fill="none" d="M455.495,142.109c0-16.645,0.332-32.935-0.163-49.199c-0.199-6.57-4.262-12.531-10.789-13.537
	c-10.044-1.549-20.375-1.237-31.321-1.749c0,13.52,0,25.737,0,37.987c-13.164,0-25.623,0-38.892,0c0-12.718,0-25.256,0-37.8
	c-85.065,0-169.32,0-254.188,0c0,12.701,0,25.101,0,37.565c-13.312,0-26.006,0-39.284,0c0-12.824,0-25.216,0-37.847
	c-8.067,0-15.558-0.283-23.021,0.065C46.422,78.13,39.49,85.389,39.205,96.884c-0.201,8.161-0.041,16.33-0.043,24.496
	c0,6.793,0,13.587,0,20.729C178.215,142.109,316.729,142.109,455.495,142.109z"/>
<path fill="#FFFFFF" d="M395.211,182.076c20.236,0,40.479,0,60.732,0c0,2.204,0,4.166,0,6.126c0,12.397,0,24.794,0.001,37.191
	c18.784,21.347,32.076,47.637,37.679,76.669c0.391,0.951,0.784,1.9,1.156,2.86c0.017-69.572,0.048-139.145-0.052-208.717
	c-0.045-31.445-25.649-56.13-53.624-57.302c-8.92-0.373-17.869-0.059-27.155-0.059c0-13.608,0-26.227,0-38.845
	c-12.998,0-25.997,0-38.995,0c0,12.461,0,24.922,0,37.771c-85.07,0-169.584,0-254.969,0c0-12.583,0-25.178,0-37.771
	C106.986,0,93.988,0,80.99,0c0,12.564,0,25.129,0,38.577c-4.547,0-9.131,0.241-13.683-0.039
	C38.832,36.787,15.881,49.362,5.371,72.863C3.195,77.732,1.771,82.938,0,87.989c0,135.316,0,270.633,0,405.95
	c1.497,0.056,2.995,0.16,4.492,0.16c85.256,0.006,170.511,0.002,255.766-0.004c-15.721-10.384-29.477-23.498-40.594-38.67
	c-51.294,0.025-102.588,0.013-153.881,0.012c-20.586-0.001-26.621-5.982-26.621-26.371c0-80.151,0-160.302,0-240.453
	c0-2.111,0-4.222,0-6.537c77.583,0,154.968,0,232.35,0c19.077-7.817,39.957-12.138,61.85-12.138S376.134,174.258,395.211,182.076z
	 M39.205,96.884c0.285-11.496,7.217-18.754,18.633-19.289c7.463-0.349,14.953-0.065,23.021-0.065c0,12.63,0,25.022,0,37.847
	c13.278,0,25.973,0,39.284,0c0-12.465,0-24.865,0-37.565c84.867,0,169.122,0,254.188,0c0,12.543,0,25.082,0,37.8
	c13.269,0,25.728,0,38.892,0c0-12.25,0-24.468,0-37.987c10.946,0.512,21.277,0.2,31.321,1.749
	c6.527,1.006,10.59,6.967,10.789,13.537c0.495,16.265,0.163,32.555,0.163,49.199c-138.766,0-277.28,0-416.333,0
	c0-7.142,0-13.936,0-20.729C39.164,113.214,39.004,105.045,39.205,96.884z"/>
<path fill="#FFFFFF" d="M189.16,222.383c-12.59,0-24.857,0-37.702,0c0,12.78,0,25.157,0,37.762c12.089,0,23.903,0,35.889,0
	c0.591-1.179,1.195-2.35,1.813-3.512C189.16,245.133,189.16,233.852,189.16,222.383z"/>
<path fill="#FFFFFF" d="M173.543,299.817c-7.391,0-14.713,0-22.024,0c0,12.758,0,25.151,0,37.757c6.283,0,12.476,0,18.669,0
	c-0.039-1.462-0.061-2.93-0.061-4.401C170.127,321.741,171.307,310.586,173.543,299.817z"/>
<path fill="#FFFFFF" d="M111.719,222.398c-12.682,0-24.93,0-37.451,0c0,12.662,0,25.067,0,37.775c12.494,0,24.9,0,37.451,0
	C111.719,247.452,111.719,234.955,111.719,222.398z"/>
<path fill="#FFFFFF" d="M111.868,299.411c-12.543,0-24.804,0-37.526,0c0,12.895,0,25.444,0,37.978c12.737,0,25.118,0,37.526,0
	C111.868,324.554,111.868,312.121,111.868,299.411z"/>
<path fill="#FFFFFF" d="M151.535,376.981c0,12.964,0,25.339,0,37.616c12.775,0,25.162,0,37.546,0c0-1.688,0-3.356,0-5.033
	c-5.444-10.261-9.827-21.169-13-32.583C167.902,376.981,159.784,376.981,151.535,376.981z"/>
<path fill="#FFFFFF" d="M111.742,414.568c0-12.769,0-25.154,0-37.558c-12.671,0-24.931,0-37.366,0c0,12.984,0,25.364,0,37.558
	C87.156,414.568,99.548,414.568,111.742,414.568z"/>
</svg>
