<?xml version="1.0" encoding="utf-8"?>
<!-- Generator: Adobe Illustrator 16.0.2, SVG Export Plug-In . SVG Version: 6.00 Build 0)  -->
<!DOCTYPE svg PUBLIC "-//W3C//DTD SVG 1.1//EN" "http://www.w3.org/Graphics/SVG/1.1/DTD/svg11.dtd">
<svg version="1.1" id="Layer_1" xmlns="http://www.w3.org/2000/svg" xmlns:xlink="http://www.w3.org/1999/xlink" x="0px" y="0px"
	 width="494.798px" height="494.102px" viewBox="1755.509 -544.875 494.798 494.102"
	 enable-background="new 1755.509 -544.875 494.798 494.102" xml:space="preserve">
<path fill="none" d="M2211.453-362.798c-20.254,0-40.496,0-60.732,0c23.484,9.624,44.228,24.559,60.733,43.317
	c-0.001-12.397-0.001-24.794-0.001-37.191C2211.453-358.633,2211.453-360.594,2211.453-362.798z"/>
<path fill="none" d="M2211.005-402.765c0-16.645,0.332-32.935-0.163-49.199c-0.199-6.57-4.262-12.531-10.789-13.537
	c-10.044-1.549-20.375-1.237-31.321-1.749c0,13.52,0,25.737,0,37.987c-13.164,0-25.623,0-38.892,0c0-12.718,0-25.256,0-37.8
	c-85.065,0-169.32,0-254.188,0c0,12.701,0,25.101,0,37.565c-13.312,0-26.006,0-39.284,0c0-12.824,0-25.216,0-37.847
	c-8.066,0-15.558-0.283-23.021,0.064c-11.416,0.534-18.349,7.793-18.633,19.289c-0.201,8.161-0.041,16.33-0.043,24.496
	c0,6.793,0,13.587,0,20.729C1933.725-402.765,2072.239-402.765,2211.005-402.765z"/>
<path fill="#FFFFFF" d="M2150.721-362.798c20.236,0,40.479,0,60.732,0c0,2.204,0,4.166,0,6.126c0,12.397,0,24.794,0.001,37.191
	c18.784,21.347,32.075,47.637,37.679,76.669c0.391,0.951,0.784,1.9,1.156,2.86c0.017-69.572,0.048-139.145-0.053-208.717
	c-0.045-31.445-25.648-56.13-53.623-57.302c-8.92-0.373-17.869-0.06-27.155-0.06c0-13.607,0-26.227,0-38.845
	c-12.998,0-25.997,0-38.995,0c0,12.461,0,24.922,0,37.771c-85.07,0-169.584,0-254.969,0c0-12.583,0-25.178,0-37.771
	c-12.998,0-25.996,0-38.994,0c0,12.564,0,25.129,0,38.577c-4.547,0-9.131,0.241-13.684-0.039
	c-28.476-1.751-51.427,10.824-61.937,34.325c-2.177,4.87-3.601,10.075-5.371,15.126c0,135.315,0,270.633,0,405.95
	c1.497,0.056,2.995,0.16,4.492,0.16c85.256,0.006,170.511,0.002,255.766-0.004c-15.721-10.384-29.478-23.498-40.594-38.67
	c-51.294,0.025-102.588,0.013-153.881,0.012c-20.587-0.001-26.621-5.982-26.621-26.371c0-80.151,0-160.302,0-240.453
	c0-2.111,0-4.222,0-6.537c77.583,0,154.968,0,232.35,0c19.077-7.817,39.957-12.138,61.851-12.138
	C2110.764-374.937,2131.645-370.616,2150.721-362.798z M1794.715-447.99c0.285-11.496,7.217-18.754,18.633-19.289
	c7.463-0.349,14.953-0.064,23.021-0.064c0,12.63,0,25.021,0,37.847c13.277,0,25.973,0,39.284,0c0-12.465,0-24.865,0-37.565
	c84.866,0,169.122,0,254.188,0c0,12.543,0,25.082,0,37.8c13.27,0,25.729,0,38.893,0c0-12.25,0-24.468,0-37.987
	c10.946,0.512,21.276,0.2,31.321,1.749c6.526,1.006,10.59,6.967,10.789,13.537c0.494,16.265,0.162,32.555,0.162,49.199
	c-138.766,0-277.279,0-416.332,0c0-7.142,0-13.936,0-20.729C1794.674-431.66,1794.514-439.829,1794.715-447.99z"/>
<path fill="#FFFFFF" d="M1944.67-322.491c-12.59,0-24.857,0-37.702,0c0,12.78,0,25.157,0,37.762c12.089,0,23.903,0,35.89,0
	c0.591-1.179,1.194-2.35,1.813-3.512C1944.67-299.741,1944.67-311.022,1944.67-322.491z"/>
<path fill="#FFFFFF" d="M1929.053-245.057c-7.391,0-14.713,0-22.023,0c0,12.758,0,25.151,0,37.757c6.282,0,12.476,0,18.669,0
	c-0.039-1.462-0.062-2.93-0.062-4.401C1925.637-223.133,1926.816-234.288,1929.053-245.057z"/>
<path fill="#FFFFFF" d="M1867.229-322.476c-12.682,0-24.93,0-37.45,0c0,12.662,0,25.067,0,37.775c12.493,0,24.899,0,37.45,0
	C1867.229-297.422,1867.229-309.919,1867.229-322.476z"/>
<path fill="#FFFFFF" d="M1867.378-245.463c-12.543,0-24.804,0-37.526,0c0,12.895,0,25.444,0,37.978c12.737,0,25.118,0,37.526,0
	C1867.378-220.32,1867.378-232.753,1867.378-245.463z"/>
<path fill="#FFFFFF" d="M1907.045-167.893c0,12.964,0,25.339,0,37.616c12.775,0,25.162,0,37.546,0c0-1.688,0-3.356,0-5.033
	c-5.443-10.261-9.827-21.169-13-32.583C1923.412-167.893,1915.294-167.893,1907.045-167.893z"/>
<path fill="#FFFFFF" d="M1867.252-130.306c0-12.769,0-25.154,0-37.558c-12.671,0-24.931,0-37.366,0c0,12.984,0,25.364,0,37.558
	C1842.666-130.306,1855.058-130.306,1867.252-130.306z"/>
<path fill="#FFFFFF" d="M2102.613-291.353c0,3.944,0,6.352,0,7.228c18.707,7.608,36.708,14.929,55.672,22.642
	c1.854-1.952,5.386-5.656,9.636-10.116c-2.554-1.874-5.739-4.211-9.944-7.296c6.668-6.153,12.041-11.119,17.226-15.902
	c12.101,12.357,23.795,24.299,35.913,36.677c-4.311,3.714-9.68,8.34-15.404,13.273c-2.981-2.553-5.527-4.733-9.423-8.068
	c-2.842,4.514-5.655,8.987-9.093,14.448c18.063,24.156,25.072,53.963,18.228,86.66c-5.262,25.121-18.19,45.704-38.395,61.497
	c-41.936,32.788-99.607,30.642-138.47-4.988c-35.42-32.473-50.814-93.115-11.948-146.533c-3.858-3.128-7.859-6.373-12.242-9.929
	c-2.054,2.305-4.708,5.283-9.531,10.693c-2.394-3.518-4.465-6.901-6.882-10.02c-2.282-2.941-4.927-5.604-6.937-7.857
	c11.881-11.967,23.5-23.67,35.811-36.073c4.438,4.938,9.312,10.358,14.571,16.21c-2.251,2.123-4.915,4.64-7.555,7.125
	c7.95,12.649,8.803,12.131,21.289,5.894c13.791-6.881,28.472-11.995,43.827-18.317c0-0.586,0-3.233,0-6.68
	c-10.308,0-20.208,0-29.886,0c-4.594-19.268,1.491-36.18,16.409-46.951c14.73-10.633,32.819-11.207,48.384-1.532
	c15.979,9.934,22.678,26.178,19.213,47.919C2123.396-291.353,2113.532-291.353,2102.613-291.353z M2103.527-92.691
	c33.492-2.045,66.75-35.792,69.197-69.998c-4.244-0.313-8.496-0.623-12.746-0.933c0-7.813,0-15.102,0-22.425
	c4.733-0.458,8.677-0.844,12.589-1.222c-2.913-34.737-38.593-69.752-69.832-68.774c-0.362,4.152-0.73,8.342-1.091,12.467
	c-7.843,0-14.85,0-22.013,0c-0.432-4.824-0.803-8.98-1.173-13.109c-35.754,4.001-70.307,39.547-68.813,70.203
	c4.15,0.397,8.348,0.798,12.493,1.192c0,7.788,0,14.801,0,21.965c-4.837,0.404-9.034,0.75-13.249,1.102
	c4.347,35.94,36.504,67.787,70.057,69.786c0.354-4.503,0.709-9.015,1.059-13.472c7.846,0,14.868,0,22.236,0
	C2102.707-101.127,2103.117-96.893,2103.527-92.691z M2104.557-314.954c-9.123-10.283-20.206-10.039-27.005,0
	C2086.42-314.954,2095.174-314.954,2104.557-314.954z"/>
<path fill="#FFFFFF" d="M2105.697-224.932c0,5.748-0.004,10.98,0,16.215c0.012,10.636-0.674,20.168,9.639,28.855
	c11.831,9.963,8.895,31.486-2.838,42.053c-12.76,11.491-32.227,11.014-44.115-1.081c-11.203-11.396-12.654-31.901-0.949-42.322
	c7.623-6.792,8.858-13.65,8.685-22.672c-0.42-21.741-0.137-21.759,21.435-21.477C2099.97-225.331,2102.385-225.112,2105.697-224.932
	z"/>
</svg>
