<?xml version="1.0" encoding="utf-8"?>
<!-- Generator: Adobe Illustrator 16.0.2, SVG Export Plug-In . SVG Version: 6.00 Build 0)  -->
<!DOCTYPE svg PUBLIC "-//W3C//DTD SVG 1.1//EN" "http://www.w3.org/Graphics/SVG/1.1/DTD/svg11.dtd">
<svg version="1.1" id="Layer_1" xmlns="http://www.w3.org/2000/svg" xmlns:xlink="http://www.w3.org/1999/xlink" x="0px" y="0px"
	 width="512px" height="512px" viewBox="0 0 512 512" enable-background="new 0 0 512 512" xml:space="preserve">
<path fill="#FFFFFF" d="M156.674,207.927c-19.803-16.715-32.405-41.705-32.405-69.587c0-50.203,40.844-91.048,91.048-91.048
	c10.874,0,21.307,1.919,30.983,5.431c9.728-2.442,19.903-3.747,30.377-3.747c9.979,0,19.688,1.185,28.995,3.41
	c-22.742-23.896-54.84-38.815-90.355-38.815c-68.796,0-124.769,55.973-124.769,124.769c0,42.613,21.481,80.299,54.175,102.821
	c-30.527,10.532-58.505,27.932-82.012,51.438C21.949,333.359-0.5,387.559-0.5,445.204h33.721
	c0-92.286,69.012-168.751,158.136-180.517C175.118,249.443,162.949,229.916,156.674,207.927z"/>
<path fill="#FFFFFF" d="M347.824,71.775c-9.311-2.225-19.018-3.41-28.996-3.41c-10.476,0-20.648,1.305-30.377,3.748
	c-54.164,13.601-94.392,62.7-94.392,121.022c0,11.849,1.666,23.314,4.767,34.181c6.274,21.989,18.444,41.517,34.683,56.761
	c4.597,4.315,9.517,8.291,14.725,11.879c-30.527,10.53-58.505,27.933-82.012,51.438c-40.762,40.762-63.211,94.959-63.211,152.604
	h33.721c0-100.406,81.689-182.097,182.096-182.097c68.796,0,124.77-55.973,124.77-124.769
	C443.598,134.319,402.683,84.883,347.824,71.775z M318.828,284.184c-10.873,0-21.307-1.92-30.982-5.432
	c-16.642-6.041-31.035-16.805-41.559-30.662c-11.606-15.283-18.506-34.327-18.506-54.955c0-50.204,40.845-91.048,91.048-91.048
	c3.785,0,7.517,0.236,11.182,0.687c17.953,2.209,34.304,9.665,47.471,20.781c19.798,16.715,32.396,41.702,32.396,69.58
	C409.876,243.338,369.031,284.184,318.828,284.184z"/>
<path fill="#FFFFFF" d="M391.09,110.939"/>
<path fill="#FFFFFF" d="M411.641,315.178c1.15,0,2.301,0,3.45,0c0.679,0.084,1.356,0.168,2.035,0.249
	c4.668,0.563,9.403,0.785,13.987,1.74c21.477,4.476,38.949,15.506,52.33,32.871c9.476,12.298,15.239,26.212,17.239,41.632
	c0.447,3.463,0.666,6.956,0.988,10.436c0,0.92,0,1.84,0,2.76c-0.086,0.792-0.166,1.586-0.26,2.378
	c-0.559,4.666-0.783,9.401-1.738,13.985c-4.476,21.474-15.5,38.948-32.864,52.329c-12.297,9.478-26.208,15.241-41.628,17.243
	c-3.462,0.449-6.956,0.667-10.437,0.99c-0.92,0-1.84,0-2.759,0c-0.736-0.086-1.476-0.168-2.209-0.255
	c-4.669-0.547-9.405-0.759-13.993-1.699c-19.916-4.082-36.531-13.931-49.696-29.42c-11.09-13.047-17.807-28.114-20.05-45.118
	c-0.442-3.349-0.658-6.727-0.979-10.09c0-1.149,0-2.3,0-3.449c0.084-0.733,0.166-1.471,0.255-2.205
	c0.558-4.609,0.797-9.285,1.729-13.816c4.063-19.733,13.826-36.206,29.121-49.309c13.053-11.183,28.149-17.964,45.214-20.25
	C404.781,315.723,408.22,315.505,411.641,315.178z M471.388,352.499c-36.597,36.205-73.123,72.341-109.662,108.49
	c29.136,26.729,77.794,27.705,108.089-4.71C499.315,424.712,495.57,378.249,471.388,352.499z M463.335,344.587
	c-26.832-23.813-73.165-26.838-104.21,3.675c-30.895,30.365-29.226,77.318-5.214,104.581
	C390.361,416.781,426.838,380.691,463.335,344.587z"/>
</svg>
