<?xml version="1.0" encoding="utf-8"?>
<!-- Generator: Adobe Illustrator 16.0.2, SVG Export Plug-In . SVG Version: 6.00 Build 0)  -->
<!DOCTYPE svg PUBLIC "-//W3C//DTD SVG 1.1//EN" "http://www.w3.org/Graphics/SVG/1.1/DTD/svg11.dtd">
<svg version="1.1" id="Layer_1" xmlns="http://www.w3.org/2000/svg" xmlns:xlink="http://www.w3.org/1999/xlink" x="0px" y="0px"
	 width="186.916px" height="251.067px" viewBox="-3.5 -3.5 186.916 251.067" enable-background="new -3.5 -3.5 186.916 251.067"
	 xml:space="preserve">
<g>
	<path fill="#FFFFFF" d="M95.806,78.353c2.561,0,4.511,0,6.462,0c22.821-0.001,45.644-0.008,68.465,0
		c7.476,0.002,9.167,1.648,9.169,9.036c0.014,44.811,0.028,89.621-0.007,134.429c-0.011,13.998-8.013,22.175-21.94,22.195
		c-45.477,0.074-90.954,0.068-136.43,0.004C8.47,244,0.094,235.873,0.075,222.859c-0.098-67.133-0.102-134.264,0-201.396
		C0.093,8.623,8.661,0.175,21.5,0.088c22.154-0.151,44.31-0.071,66.465-0.029c5.64,0.011,7.779,2.191,7.794,7.922
		c0.053,21.322,0.037,42.646,0.047,63.968C95.807,73.768,95.806,75.588,95.806,78.353z M167.813,90.186c-2.11,0-3.896,0.003-5.679,0
		c-23.156-0.046-46.313-0.079-69.469-0.146c-6.885-0.021-8.604-1.765-8.604-8.538c0-21.491-0.081-42.981,0.098-64.472
		c0.033-4.015-0.935-5.502-5.227-5.452c-18.822,0.218-37.648,0.073-56.473,0.11c-7.848,0.017-10.869,3.021-10.872,10.934
		c-0.028,66.303-0.03,132.605-0.012,198.908c0.002,8.136,2.676,10.802,10.782,10.81c45.146,0.037,90.292,0.049,135.438,0.043
		c7.392,0,10.266-2.91,10.269-10.301c0.017-42.146,0.015-84.295,0.005-126.443C168.071,94.018,167.921,92.398,167.813,90.186z"/>
	<path fill="#FFFFFF" d="M90.212,247.567c-22.898,0-45.794-0.018-68.692-0.05c-15.131-0.02-24.923-9.696-24.945-24.653
		c-0.1-68.118-0.1-135.881,0-201.406C-3.405,6.683,6.603-3.311,21.476-3.412C30.305-3.472,39.593-3.5,50.706-3.5
		c9.292,0,18.584,0.02,27.876,0.04l9.39,0.02c7.575,0.015,11.267,3.748,11.288,11.413c0.038,15.551,0.041,31.102,0.043,46.652
		l0.004,20.229h71.428c9.469,0.002,12.665,3.166,12.668,12.535l0.001,2.448c0.013,43.259,0.026,87.991-0.008,131.985
		c-0.013,16.064-9.521,25.669-25.436,25.692C135.378,247.55,112.794,247.567,90.212,247.567z M50.706,3.5
		c-11.097,0-20.369,0.028-29.182,0.088C10.635,3.662,3.59,10.68,3.575,21.468c-0.1,65.518-0.1,133.273,0,201.386
		c0.016,11.046,6.728,17.648,17.954,17.663c45.473,0.064,90.946,0.07,136.419-0.004c11.887-0.018,18.438-6.658,18.446-18.698
		c0.034-43.989,0.021-88.72,0.008-131.977l-0.001-2.448c-0.001-5.432-0.107-5.536-5.67-5.537l-24.266-0.004l-54.16,0.004
		l-0.004-27.228C92.3,39.08,92.297,23.534,92.259,7.99c-0.011-3.802-0.613-4.424-4.301-4.431l-9.391-0.02
		C69.28,3.52,59.993,3.5,50.706,3.5z M136.011,235.883c-37.884,0-75.773-0.013-113.656-0.044
		c-10.006-0.01-14.276-4.289-14.279-14.309C8.057,151.709,8.061,86.645,8.088,22.62c0.003-9.825,4.568-14.412,14.365-14.432
		c6.292-0.012,12.581-0.004,18.87,0.003c3.916,0.005,7.831,0.01,11.747,0.01c7.063,0,16.382-0.014,25.823-0.124l0.246-0.001
		c1.846,0,4.52,0.221,6.417,2.134c1.888,1.904,2.124,4.53,2.105,6.848c-0.137,16.372-0.122,33.025-0.107,49.13
		c0.005,5.104,0.009,10.208,0.009,15.313c0,4.834,0.191,5.023,5.114,5.038c16.871,0.049,33.743,0.08,50.616,0.111l20.638,0.037
		l7.216-0.001l0.163,3.329c0.036,0.734,0.076,1.402,0.114,2.025c0.079,1.299,0.147,2.421,0.146,3.6
		c0.01,42.146,0.012,84.296-0.005,126.442c-0.004,9.286-4.508,13.8-13.769,13.8L136.011,235.883z M29.569,15.181
		c-2.368,0-4.734,0.001-7.103,0.006c-5.928,0.013-7.377,1.472-7.379,7.435c-0.027,64.023-0.031,129.085-0.012,198.906
		c0.001,6.212,1.091,7.305,7.285,7.311c37.881,0.031,75.768,0.044,113.65,0.044l21.785-0.001c5.438,0,6.767-1.335,6.769-6.802
		c0.017-42.146,0.015-84.294,0.005-126.441c0-0.619-0.025-1.26-0.063-1.952l-0.577,0l-20.65-0.037
		c-16.875-0.031-33.75-0.062-50.624-0.111c-8.816-0.027-12.094-3.29-12.094-12.038c0-5.103-0.004-10.205-0.009-15.307
		C80.539,50.073,80.523,33.404,80.66,17c0.008-1.029-0.067-1.558-0.125-1.809c-0.217-0.051-0.642-0.115-1.397-0.115l-0.165,0.001
		c-9.477,0.109-18.821,0.124-25.904,0.124c-3.919,0-7.837-0.005-11.756-0.01C37.399,15.186,33.485,15.181,29.569,15.181z"/>
</g>
<g>
	<path fill="#FFFFFF" d="M143.884,36.163c-4.516,0-8.297,0-12.078,0c-3.784,0-7.567,0-11.607,0c0-4,0-7.392,0-11.436
		c6.393,0,12.514-0.246,18.604,0.085c4.113,0.224,5.178-1.389,5.037-5.185c-0.23-6.291-0.063-12.595-0.063-19.238
		c3.973,0,7.514,0,11.578,0c0,8.009,0,15.767,0,24.142c8.225,0,15.955,0,24.081,0c0,4.021,0,7.418,0,11.359
		c-7.718,0-15.456,0-23.89,0c0,8.393,0,16.285,0,24.521c-4.101,0-7.502,0-11.662,0C143.884,52.428,143.884,44.56,143.884,36.163z"/>
	<path fill="#FFFFFF" d="M159.046,63.911h-18.662V39.663h-23.686V21.228h3.5c1.915,0,3.806-0.022,5.679-0.044
		c1.864-0.022,3.712-0.043,5.547-0.043c2.929,0,5.333,0.057,7.568,0.178c0.577,0.031,1.055,0.003,1.286-0.036
		c0.045-0.249,0.093-0.715,0.063-1.525c-0.164-4.483-0.13-8.864-0.095-13.501c0.016-1.931,0.03-3.883,0.03-5.866v-3.5h18.578v24.142
		h24.081v18.359h-23.89V63.911z M147.384,56.911h4.662V32.391h23.89v-4.359h-24.081V3.89h-4.591
		c-0.005,0.811-0.012,1.617-0.018,2.42c-0.035,4.558-0.068,8.863,0.091,13.19c0.077,2.1-0.075,4.764-1.965,6.725
		c-1.367,1.418-3.282,2.108-5.856,2.108c-0.287,0-0.589-0.008-0.904-0.026c-2.105-0.114-4.389-0.167-7.188-0.167
		c-1.808,0-3.628,0.021-5.465,0.043c-0.75,0.009-1.504,0.018-2.261,0.025v4.455h23.686V56.911z"/>
</g>
</svg>
