<?xml version="1.0" encoding="utf-8"?>
<!-- Generator: Adobe Illustrator 16.0.2, SVG Export Plug-In . SVG Version: 6.00 Build 0)  -->
<!DOCTYPE svg PUBLIC "-//W3C//DTD SVG 1.1//EN" "http://www.w3.org/Graphics/SVG/1.1/DTD/svg11.dtd">
<svg version="1.1" id="Layer_1" xmlns="http://www.w3.org/2000/svg" xmlns:xlink="http://www.w3.org/1999/xlink" x="0px" y="0px"
	 width="512px" height="512px" viewBox="0 0 512 512" enable-background="new 0 0 512 512" xml:space="preserve">
<g id="XMLID_1039_">
	<g id="XMLID_393_">
		<path id="XMLID_868_" fill="#FFFFFF" d="M172.904,393.246c-2.629,0-5.208,1.059-7.067,2.929c-1.858,1.859-2.93,4.429-2.93,7.067
			c0,2.63,1.07,5.209,2.93,7.068s4.438,2.929,7.067,2.929s5.208-1.069,7.067-2.929c1.858-1.859,2.93-4.438,2.93-7.068
			c0-2.639-1.07-5.208-2.93-7.067C178.112,394.305,175.532,393.246,172.904,393.246z"/>
		<path id="XMLID_872_" fill="#FFFFFF" d="M264.229,328.102c0-5.521-4.477-9.997-9.997-9.997H142.599
			c-5.521,0-9.997,4.476-9.997,9.997c0,5.521,4.477,9.996,9.997,9.996h111.633C259.753,338.098,264.229,333.622,264.229,328.102z"/>
		<path id="XMLID_891_" fill="#FFFFFF" d="M130.954,226.134h134.923c5.521,0,9.997-4.476,9.997-9.997
			c0-5.521-4.477-9.997-9.997-9.997H130.954c-5.521,0-9.997,4.476-9.997,9.997C120.957,221.659,125.434,226.134,130.954,226.134z"/>
		<path id="XMLID_913_" fill="#FFFFFF" d="M195.398,148.089c-7.26,0-13.165-4.945-13.165-11.023c0-5.521-4.477-9.997-9.997-9.997
			c-5.52,0-9.996,4.476-9.996,9.997c0,13.844,9.748,25.597,23.161,29.573v1.39c0,5.521,4.477,9.997,9.997,9.997
			c5.52,0,9.996-4.476,9.996-9.997v-1.39c13.413-3.976,23.162-15.728,23.162-29.573c0-17.103-14.876-31.017-33.158-31.017
			c-7.26,0-13.165-4.945-13.165-11.023s5.905-11.023,13.165-11.023c7.259,0,13.164,4.945,13.164,11.023
			c0,5.521,4.477,9.997,9.997,9.997s9.997-4.475,9.997-9.997c0-13.844-9.749-25.597-23.162-29.573v-1.39
			c0-5.521-4.477-9.997-9.996-9.997c-5.521,0-9.997,4.476-9.997,9.997v1.39c-13.413,3.976-23.161,15.728-23.161,29.573
			c0,17.103,14.875,31.017,33.158,31.017c7.259,0,13.164,4.945,13.164,11.023S202.656,148.089,195.398,148.089z"/>
		<path id="XMLID_1103_" fill="#FFFFFF" d="M496.004,308.86l-15.596,11.201c-23.402,16.809-51.004,25.694-79.817,25.694h-34.773
			c-8.277,0-15.014-6.735-15.014-15.013c0-8.278,6.735-15.013,15.014-15.013h16.994c29.136,0,52.946-23.178,53.994-52.062
			l43.675-75.647h21.521c5.52,0,9.996-4.476,9.996-9.997s-4.477-9.997-9.996-9.997h-9.978l18.635-32.277
			c1.325-2.296,1.686-5.024,0.998-7.586c-0.687-2.561-2.361-4.744-4.657-6.07l-38.093-21.993c-4.782-2.76-10.896-1.122-13.655,3.659
			l-37.104,64.267h-9.442c-5.005,0-9.958,0.343-14.835,1.002V10.08c0-5.521-4.477-9.997-9.997-9.997H9.996
			C4.477,0.083,0,4.559,0,10.08v491.839c0,5.521,4.477,9.997,9.996,9.997h373.878c5.521,0,9.997-4.476,9.997-9.997V365.748h6.721
			c33.024,0,64.658-10.182,91.481-29.447l15.596-11.201c4.483-3.222,5.508-9.468,2.287-13.952
			C506.736,306.665,500.49,305.639,496.004,308.86L496.004,308.86z M355.656,364.239l-0.079,0.137l-23.938,17.474l3.163-29.47
			l1.578-2.733C340.827,356.553,347.633,361.801,355.656,364.239z M467.57,122.416l20.778,11.996l-91.347,158.215
			c-4.322,1.991-9.126,3.109-14.188,3.109h-15.31L467.57,122.416z M354.306,278.607c-0.001,0.003-0.003,0.005-0.005,0.007
			l-25.887,44.837c-1.646,2.849-4.323,4.785-7.544,5.453c-3.219,0.67-6.45-0.041-9.094-2.001c-3.705-2.748-5.381-7.415-4.267-11.892
			l14.794-59.453c3.919-15.753,12.07-30.133,23.573-41.587c16.297-16.229,37.782-25.361,60.697-25.896L354.306,278.607z
			 M19.993,491.923V20.077h353.885V173.69c-15.677,5.267-30.053,14.107-42.108,26.113c-14.085,14.026-24.066,31.636-28.866,50.927
			l-2.834,11.393H89.265c-5.521,0-9.997,4.475-9.997,9.996s4.477,9.997,9.997,9.997h205.829l-6.984,28.065
			c-3.07,12.342,1.546,25.209,11.763,32.783c4.488,3.327,9.744,5.336,15.19,5.948l-4.757,44.329H217.89
			c-5.521,0-9.997,4.475-9.997,9.996s4.477,9.997,9.997,9.997h101.397c2.076,0,4.146-0.646,5.895-1.923l43.89-32.033
			c1.126-0.822,2.066-1.871,2.764-3.077l2.044-3.538v119.258L19.993,491.923L19.993,491.923z"/>
	</g>
</g>
</svg>
