<?xml version="1.0" encoding="utf-8"?>
<!-- Generator: Adobe Illustrator 16.0.2, SVG Export Plug-In . SVG Version: 6.00 Build 0)  -->
<!DOCTYPE svg PUBLIC "-//W3C//DTD SVG 1.1//EN" "http://www.w3.org/Graphics/SVG/1.1/DTD/svg11.dtd">
<svg version="1.1" id="Layer_1" xmlns="http://www.w3.org/2000/svg" xmlns:xlink="http://www.w3.org/1999/xlink" x="0px" y="0px"
	 width="512px" height="512px" viewBox="0 0 512 512" enable-background="new 0 0 512 512" xml:space="preserve">
<path fill="#FFFFFF" d="M427,127.57V0H85v127.57L0,190.965V452c0,33.086,26.914,60,60,60h392c33.086,0,60-26.914,60-60V190.965
	L427,127.57z M456.813,199.707L427,221.883v-44.41L456.813,199.707z M387,40v211.637l-131,97.438l-131-97.438V40H387z M85,221.883
	l-29.813-22.176L85,177.473V221.883z M452,472H60c-11.027,0-20-8.973-20-20V238.262l216,160.664l216-160.664V452
	C472,463.027,463.028,472,452,472z M276,173h-40v-40h40V173z M348,173h-40v-40h40V173z M203,173h-40v-40h40V173z"/>
</svg>
