<?xml version="1.0" encoding="utf-8"?>
<!-- Generator: Adobe Illustrator 16.0.2, SVG Export Plug-In . SVG Version: 6.00 Build 0)  -->
<!DOCTYPE svg PUBLIC "-//W3C//DTD SVG 1.1//EN" "http://www.w3.org/Graphics/SVG/1.1/DTD/svg11.dtd">
<svg version="1.1" id="Capa_1" xmlns="http://www.w3.org/2000/svg" xmlns:xlink="http://www.w3.org/1999/xlink" x="0px" y="0px"
	 width="612px" height="792px" viewBox="0 0 612 792" enable-background="new 0 0 612 792" xml:space="preserve">
<g>
	<g>
		<g>
			<path fill="#FFFFFF" d="M519.743,598.962l35.282,32.269c12.099-13.228,22.536-27.917,31.025-43.658l-42.084-22.692
				C537.342,577.165,529.192,588.632,519.743,598.962z"/>
			<path fill="#FFFFFF" d="M450.54,644.709l15.792,45.129c16.887-5.908,33.036-13.925,48.001-23.822l-26.377-39.879
				C476.285,633.856,463.696,640.104,450.54,644.709z"/>
			<polygon fill="#FFFFFF" points="370.547,473.423 320.11,516.442 351.139,552.82 418.359,495.483 418.359,369.703 
				370.547,369.703 			"/>
			<path fill="#FFFFFF" d="M559.085,525.946l46.372,11.646c4.341-17.285,6.543-35.164,6.543-53.139h-47.813
				C564.188,498.505,562.471,512.465,559.085,525.946z"/>
			<path fill="#FFFFFF" d="M540.281,137.813h-28.688V90h-47.813v47.813H148.219V90h-47.813v47.813H71.719
				C32.173,137.813,0,169.985,0,209.531v420.75C0,669.827,32.173,702,71.719,702H153h25.102h64.29
				c-12.577-8.832-24.482-18.816-35.576-29.909c-5.753-5.753-11.194-11.733-16.347-17.903h-12.367H153H71.719
				c-13.182,0-23.906-10.725-23.906-23.906V313.523h142.657c5.153-6.17,10.594-12.15,16.347-17.903
				c11.093-11.093,22.998-21.077,35.576-29.909H47.813v-56.18c0-13.182,10.724-23.906,23.906-23.906h28.688v47.813h47.813v-47.813
				h315.563v47.813h47.813v-47.813h28.688c13.182,0,23.906,10.725,23.906,23.906v43.031H612v-43.031
				C612,169.985,579.827,137.813,540.281,137.813z"/>
			<path fill="#FFFFFF" d="M564.188,348.25c-40.619-50.685-102.541-81.343-169.734-81.343
				c-119.956,0-217.547,97.591-217.547,217.547c0,119.954,97.59,217.546,217.545,217.547c0.007,0,0.014,0,0.022,0
				c6.488,0,13.042-0.29,19.478-0.863l-4.238-47.625c-5.034,0.448-10.16,0.676-15.24,0.676c-0.006,0-0.013,0-0.019,0l-0.001,23.906
				v-23.906c-93.592,0-169.734-76.143-169.734-169.734s76.143-169.734,169.734-169.734c54.964,0,105.391,26.305,136.904,69.328
				h-50.842v47.813H612V300.375h-47.813V348.25z"/>
		</g>
	</g>
</g>
</svg>
