<?xml version="1.0" encoding="utf-8"?>
<!-- Generator: Adobe Illustrator 16.0.2, SVG Export Plug-In . SVG Version: 6.00 Build 0)  -->
<!DOCTYPE svg PUBLIC "-//W3C//DTD SVG 1.1//EN" "http://www.w3.org/Graphics/SVG/1.1/DTD/svg11.dtd">
<svg version="1.1" id="Layer_1" xmlns="http://www.w3.org/2000/svg" xmlns:xlink="http://www.w3.org/1999/xlink" x="0px" y="0px"
	 width="512px" height="512px" viewBox="0 0 512 512" enable-background="new 0 0 512 512" xml:space="preserve">
<g>
	<path fill-rule="evenodd" clip-rule="evenodd" fill="#FFFFFF" d="M-1154.2,458.092c-103.333,0-206.666,0-310.001,0
		c-0.284-0.167-0.554-0.444-0.856-0.484c-23.187-3.188-39.367-22.894-39.281-48.25c0.327-95.267,0.117-190.534,0.114-285.802
		c-0.002-33.31-0.029-66.621,0.039-99.931c0.057-28.154,19.256-47.402,47.32-47.522c13.49-0.058,26.982-0.117,40.472,0.065
		c3.396,0.045,5.288-0.747,6.717-4.125c1.526-3.609,3.92-6.95,6.395-10.04c7.207-9.001,17.185-13.314,28.082-15.911c44,0,88,0,132,0
		c0.61,0.257,1.197,0.625,1.834,0.755c15.613,3.193,26.694,12.001,33.481,26.458c0.651,1.386,3.194,2.641,4.879,2.667
		c13.987,0.21,28.004-0.378,41.959,0.322c7.148,0.358,14.775,1.614,21.166,4.628c17.704,8.348,25.668,23.333,25.675,42.692
		c0.021,51.3,0.016,102.6,0.015,153.899c0,77.782,0.003,155.563-0.016,233.346c-0.003,14.97-5.199,27.544-16.97,37.233
		C-1137.946,453.664-1145.926,456.145-1154.2,458.092z M-1414.188,6.093c-14.309,0-27.946-0.008-41.584,0.001
		c-12.96,0.01-18.426,5.524-18.426,18.604c-0.003,128.291-0.003,256.583,0,384.875c0,13.077,5.46,18.522,18.48,18.521
		c97.802-0.003,195.602-0.003,293.403-0.002c12.432,0,18.111-5.598,18.112-17.887c0-88.47,0.001-176.942,0.002-265.413
		c0-40.653,0.023-81.307-0.017-121.96c-0.011-10.722-6.012-16.641-16.747-16.731c-4.998-0.042-9.997-0.008-14.994-0.008
		c-9.274,0-18.548,0-28.252,0c0,5.228,0.098,9.861-0.021,14.489c-0.232,9.183-6.287,15.447-15.464,15.46
		c-59.646,0.08-119.293,0.078-178.94,0.005c-9.259-0.01-15.283-6.152-15.53-15.363C-1414.291,16.044-1414.188,11.399-1414.188,6.093
		z M-1234.201,5.899c0-4.694,0.029-8.841-0.006-12.988c-0.09-10.747-6.012-16.741-16.65-16.808
		c-7.158-0.044-14.315,0.004-21.474,0.004c-31.791-0.003-63.583-0.032-95.375,0.003c-8.38,0.009-14.733,4.166-15.848,11.541
		c-0.896,5.931-0.182,12.105-0.182,18.248C-1333.892,5.899-1284.34,5.899-1234.201,5.899z"/>
	<path fill-rule="evenodd" clip-rule="evenodd" fill="#FFFFFF" d="M-1384.179,67.092c14.315-0.001,28.632-0.048,42.946,0.014
		c11.1,0.048,16.992,5.917,17.02,16.934c0.046,18.644,0.046,37.287,0,55.93c-0.028,11.311-5.891,17.098-17.343,17.112
		c-28.464,0.035-56.929,0.032-85.393,0.001c-11.45-0.012-17.218-5.767-17.241-17.185c-0.038-18.644-0.045-37.288,0.004-55.931
		c0.028-11.026,5.92-16.831,17.061-16.863C-1412.811,67.062-1398.494,67.092-1384.179,67.092z M-1413.961,126.744
		c20.101,0,39.794,0,59.364,0c0-10.063,0-19.772,0-29.402c-19.974,0-39.552,0-59.364,0
		C-1413.961,107.174-1413.961,116.76-1413.961,126.744z"/>
	<path fill-rule="evenodd" clip-rule="evenodd" fill="#FFFFFF" d="M-1383.979,187.095c14.331-0.001,28.663-0.044,42.995,0.012
		c10.749,0.042,16.733,5.986,16.768,16.71c0.06,18.831,0.055,37.662,0.001,56.492c-0.03,10.749-5.993,16.748-16.71,16.768
		c-28.83,0.047-57.661,0.045-86.49,0c-10.752-0.017-16.726-5.96-16.765-16.708c-0.071-18.999-0.073-37.996,0.005-56.994
		c0.043-10.103,6.126-16.198,16.202-16.259C-1413.31,187.03-1398.646,187.095-1383.979,187.095z M-1413.954,246.731
		c20.069,0,39.756,0,59.353,0c0-10.07,0-19.775,0-29.365c-19.971,0-39.541,0-59.353,0
		C-1413.954,227.22-1413.954,236.804-1413.954,246.731z"/>
	<path fill-rule="evenodd" clip-rule="evenodd" fill="#FFFFFF" d="M-1234.172,67.094c14.308-0.001,28.616-0.031,42.924,0.01
		c10.221,0.028,16.946,5.957,17.01,14.876c0.063,8.902-6.726,15.083-16.816,15.097c-28.782,0.042-57.564,0.041-86.347,0
		c-10.093-0.015-16.847-6.188-16.761-15.123c0.083-8.713,6.801-14.805,16.567-14.846
		C-1263.121,67.048-1248.646,67.094-1234.172,67.094z"/>
	<path fill-rule="evenodd" clip-rule="evenodd" fill="#FFFFFF" d="M-1234.701,217.09c-14.165,0.002-28.331,0.033-42.497-0.008
		c-10.173-0.031-16.967-6.083-16.964-14.997c0-8.938,6.751-14.969,16.951-14.98c28.998-0.032,57.996-0.086,86.993,0.026
		c11.725,0.046,19.22,10.668,14.755,20.776c-2.769,6.264-7.908,9.188-14.741,9.185
		C-1205.037,217.084-1219.868,217.089-1234.701,217.09z"/>
	<path fill-rule="evenodd" clip-rule="evenodd" fill="#FFFFFF" d="M-1234.348,337.092c-14.331,0-28.664,0.039-42.995-0.014
		c-10.104-0.035-16.912-6.225-16.819-15.138c0.092-8.724,6.816-14.815,16.622-14.832c28.829-0.045,57.659-0.042,86.487-0.003
		c10.085,0.015,16.91,6.239,16.814,15.145c-0.095,8.76-6.772,14.788-16.615,14.827
		C-1205.352,337.135-1219.85,337.092-1234.348,337.092z"/>
	<path fill-rule="evenodd" clip-rule="evenodd" fill="#FFFFFF" d="M-1249.428,157.091c-9.498,0-18.996,0.065-28.493-0.018
		c-9.642-0.085-16.378-6.465-16.241-15.208c0.134-8.546,6.777-14.71,16.196-14.748c19.162-0.075,38.324-0.083,57.486,0
		c9.654,0.042,16.378,6.462,16.241,15.203c-0.135,8.546-6.777,14.671-16.196,14.752
		C-1230.1,157.155-1239.764,157.091-1249.428,157.091z"/>
	<path fill-rule="evenodd" clip-rule="evenodd" fill="#FFFFFF" d="M-1249.426,277.091c-9.5,0-19,0.063-28.5-0.019
		c-9.687-0.083-16.361-6.395-16.236-15.185c0.121-8.55,6.766-14.733,16.179-14.77c19.167-0.077,38.333-0.076,57.499-0.002
		c9.642,0.038,16.382,6.457,16.246,15.204c-0.133,8.584-6.73,14.67-16.188,14.752
		C-1230.093,277.155-1239.76,277.091-1249.426,277.091z"/>
	<path fill-rule="evenodd" clip-rule="evenodd" fill="#FFFFFF" d="M-1249.645,397.092c-9.313,0-18.625,0.046-27.938-0.012
		c-9.764-0.063-16.479-6.115-16.58-14.823c-0.105-8.923,6.663-15.125,16.722-15.149c18.791-0.049,37.583-0.046,56.372-0.001
		c10.126,0.023,16.869,6.115,16.83,15.042c-0.039,8.889-6.807,14.883-16.972,14.934
		C-1230.688,397.129-1240.167,397.093-1249.645,397.092z"/>
	<path fill-rule="evenodd" clip-rule="evenodd" fill="#FFFFFF" d="M-1373.157,330.175c0.037,5.692-5.111,8.565-10.253,6.061
		c-3.429-1.67-7.104-3.104-10.829-3.821c-3.48-0.67-6.631,0.822-7.326,4.797c-0.734,4.204,2.37,5.791,5.615,6.781
		c3.585,1.093,7.326,1.674,10.914,2.751c10.811,3.241,14.71,7.654,15.336,17.047c0.663,9.918-3.638,17.827-12.857,21.53
		c-4.333,1.739-5.671,3.997-5.21,8.292c0.371,3.438-0.516,6.557-4.117,8.101c-4.627,1.988-9.725-1.067-9.397-6.459
		c0.356-5.842-1.725-8.555-7.032-10.734c-3.516-1.444-6.506-4.851-8.977-7.975c-2.729-3.455-1.714-8.032,1.647-10.411
		c3.569-2.524,6.943-1.772,9.499,1.484c3.558,4.531,8.191,5.604,13.531,5c3.467-0.392,5.812-2.146,6.35-5.72
		c0.53-3.519-1.846-5.002-4.647-5.913c-4.654-1.512-9.424-2.691-14.022-4.349c-8.601-3.102-12.771-8.965-12.91-17.637
		c-0.145-8.951,4.208-16.423,12.235-19.341c3.764-1.371,4.759-3.346,4.277-6.842c-0.11-0.802-0.073-1.63-0.056-2.447
		c0.112-5.261,2.681-8.407,6.856-8.415c4.162-0.01,6.953,3.024,6.683,8.415c-0.267,5.301,0.815,8.603,6.621,10.332
		C-1375.771,322.329-1373.183,326.42-1373.157,330.175z"/>
</g>
<image overflow="visible" width="512" height="512" xlink:href="CFD69A69.jpg"  transform="matrix(1 0 0 1 -1659.2646 70.9844)">
</image>
<g>
	<path fill-rule="evenodd" clip-rule="evenodd" fill="#FFFFFF" d="M176.768,386.189c17.353,11.622,33.421,22.601,49.729,33.211
		c8.667,5.64,13.1,13.046,12.813,23.511c-0.298,10.95,0.517,21.965-0.393,32.849c-0.382,4.59-2.822,10.204-6.231,13.141
		c-16.877,14.544-36.705,22.547-59.137,22.866c-22.823,0.324-45.659,0.289-68.484,0.028c-22.105-0.255-41.805-7.894-58.485-22.131
		c-4.038-3.447-6.83-10.018-7.437-15.459c-1.141-10.219-0.146-20.662-0.267-31.009c-0.123-10.711,4.463-18.432,13.455-24.231
		c16.284-10.502,32.288-21.439,49.288-32.783c-22.461-21.088-19.915-47.697-16.871-73.234c3.349-28.1,30.004-47.698,58.057-45.814
		c28.328,1.903,50.741,24.942,52.141,53.942c0.41,8.501,0.334,17.056-0.08,25.56C194.128,361.788,188.059,374.794,176.768,386.189z
		 M138.245,489.637c0,0.018,0,0.037,0,0.057c10.653,0,21.364,0.681,31.945-0.205c9.272-0.776,18.823-2.142,27.499-5.308
		c19.036-6.945,19.398-8.299,19.4-28.272c0-2.436-0.27-4.906,0.054-7.298c0.827-6.143-1.544-10.008-6.858-13.378
		c-15.409-9.771-30.542-19.99-45.599-30.302c-5.895-4.036-11.207-7.194-19.139-4.964c-5.282,1.483-11.436-0.35-17.19-0.245
		c-3.07,0.056-6.67,0.229-9.094,1.796c-17.877,11.563-35.552,23.442-53.186,35.375c-1.831,1.24-3.834,3.279-4.318,5.293
		c-6.108,25.478,1.153,37.855,26.565,44.691c6.38,1.715,13.158,2.361,19.79,2.647C118.143,489.955,128.2,489.637,138.245,489.637z
		 M172.849,333.15c-0.28-4.443-0.289-9.627-0.989-14.717c-2.351-17.113-16.443-29.305-33.118-28.934
		c-16.869,0.375-30.921,12.801-32.478,29.807c-0.88,9.633-0.923,19.476-0.053,29.107c1.566,17.336,16.211,29.95,33.362,29.798
		c16.688-0.146,30.255-12.564,32.329-29.805C172.48,343.599,172.519,338.725,172.849,333.15z"/>
	<path fill-rule="evenodd" clip-rule="evenodd" fill="#FFFFFF" d="M443.844,386.207c15.883,10.625,30.692,21.244,46.217,30.687
		c12.01,7.307,17.539,16.776,16.273,30.89c-0.813,9.059,0.55,18.327-0.465,27.344c-0.549,4.898-2.822,10.866-6.393,13.943
		c-16.871,14.535-36.736,22.443-59.178,22.711c-22.821,0.271-45.651,0.295-68.473-0.003c-22.098-0.29-41.737-8.05-58.431-22.265
		c-3.853-3.281-6.653-9.495-7.173-14.639c-1.063-10.541-0.128-21.271-0.251-31.92c-0.12-10.344,4.15-17.936,12.856-23.586
		c16.314-10.59,32.387-21.55,49.243-32.814c-1.869-2.446-3.422-4.531-5.03-6.573c-17.09-21.718-18.076-67.404-1.932-89.775
		c13.774-19.085,38.283-27.575,60.693-21.025c22.077,6.453,38.877,27.259,40.077,50.337c0.505,9.711,0.516,19.503-0.122,29.202
		C460.809,363.177,454.382,375.458,443.844,386.207z M405.712,489.644c0,0.017,0,0.032,0,0.047c10.653,0,21.405,0.897,31.933-0.254
		c10.413-1.139,20.793-3.717,30.833-6.813c11.602-3.577,18.389-11.067,15.661-24.465c-0.712-3.508-0.469-7.328-0.025-10.926
		c0.698-5.653-1.898-8.82-6.437-11.742c-14.835-9.544-29.526-19.319-44.065-29.309c-6.854-4.711-13.232-8.611-22.391-6.125
		c-4.998,1.358-10.814-0.457-16.265-0.513c-2.533-0.025-5.568-0.023-7.537,1.255c-18.367,11.925-36.589,24.076-54.732,36.339
		c-1.791,1.21-3.624,3.438-4.019,5.47c-5.181,26.631,4.677,40.86,31.501,45.506c5.368,0.93,10.871,1.337,16.323,1.465
		C386.227,489.81,395.972,489.644,405.712,489.644z M372.381,333.224c0.455,6.325,0.311,12.48,1.438,18.391
		c2.976,15.615,16.735,26.629,32.441,26.599c15.743-0.03,30.044-10.988,32.029-26.804c1.494-11.889,1.561-24.319-0.148-36.16
		c-2.225-15.406-16.543-25.842-31.978-25.774c-15.431,0.066-28.966,10.704-32.113,25.888
		C372.831,321.254,372.888,327.407,372.381,333.224z"/>
	<path fill-rule="evenodd" clip-rule="evenodd" fill="#FFFFFF" d="M235.23,119.092c-22.776-21.568-20.413-48.297-16.789-73.702
		c4.092-28.671,29.393-46.776,57.535-45.307c27.266,1.424,49.063,22.368,51.89,50.97c1.071,10.841,1.817,22.261-0.44,32.74
		c-2.66,12.35-8.738,23.964-13.957,37.51c12.172,8.108,26.428,18.389,41.457,27.374c12.848,7.682,19.537,17.548,17.99,32.868
		c-0.76,7.539-0.626,15.258-0.005,22.822c0.759,9.247-2.856,15.521-10.234,20.814c-17.061,12.239-35.787,19.391-56.836,19.63
		c-22.232,0.25-44.476,0.321-66.704-0.025c-22.027-0.345-41.578-7.932-58.91-21.522c-5.191-4.072-7.846-8.84-7.647-15.586
		c0.313-10.652,0.315-21.327,0.018-31.979c-0.292-10.474,4.108-17.927,12.791-23.554
		C201.702,141.573,217.805,130.676,235.23,119.092z M272.305,222.574c10.047,0,20.217,0.987,30.105-0.257
		c11.587-1.46,23.074-4.361,34.339-7.567c11.086-3.154,16.081-10.814,13.973-22.721c-0.681-3.836-0.393-7.922-0.038-11.846
		c0.463-5.109-1.37-8.28-5.792-11.124c-16.116-10.365-32.029-21.054-47.825-31.904c-5.473-3.759-10.457-5.938-17.576-4.147
		c-5.343,1.344-11.427-0.518-17.168-0.389c-3.381,0.077-7.322,0.343-10.013,2.076c-17.64,11.37-35.05,23.1-52.403,34.905
		c-2.022,1.376-4.258,3.747-4.677,5.979c-5.107,27.167,5.712,41.976,33.308,45.794c5.41,0.748,10.906,1.057,16.371,1.167
		C254.037,222.728,263.172,222.592,272.305,222.574z M306.323,69.479c-0.37-7.192-0.409-12.066-0.905-16.891
		c-1.701-16.607-13.66-28.48-30.149-30.146c-15.213-1.539-31.337,8.403-33.937,24.189c-2.213,13.444-1.967,27.855,0.293,41.317
		c2.364,14.078,16.998,23.409,31.1,23.37c14.135-0.04,27.695-9.64,31.415-23.398C305.934,81.283,305.817,74.129,306.323,69.479z"/>
	<path fill-rule="evenodd" clip-rule="evenodd" fill="#FFFFFF" d="M38.863,203.391c0-3.543,0.004-7.087,0-10.63
		c-0.021-25.558-0.167-51.118-0.041-76.674c0.188-37.388,23.023-60.24,60.337-60.496c16.675-0.114,33.351-0.02,50.445-0.02
		c0,7.975,0,14.792,0,22.63c-16.939,0-33.351,0.835-49.642-0.202c-23.075-1.469-39.611,14.885-38.767,38.804
		c1.019,28.85,0.241,57.766,0.241,89.125c5.207-4.932,8.943-8.506,12.717-12.039c5.338-4.995,11.32-6.657,16.963-1.153
		c5.8,5.657,3.829,11.668-1.246,16.834c-10.021,10.202-20.033,20.42-30.341,30.33c-6.897,6.632-12.063,6.537-18.992-0.173
		c-10.27-9.949-20.306-20.14-30.342-30.326c-5.137-5.214-6.9-11.22-1.017-16.773c5.704-5.38,11.825-3.822,16.961,1.348
		c3.401,3.424,6.302,7.34,9.428,11.038C36.666,204.473,37.766,203.932,38.863,203.391z"/>
	<path fill-rule="evenodd" clip-rule="evenodd" fill="#FFFFFF" d="M389.601,81.702c4.271,3.369,8.96,6.335,12.71,10.208
		c4.855,5.014,5.438,10.986,0.138,16.195c-5.071,4.984-10.724,4.068-15.459-0.495c-10.963-10.563-21.743-21.32-32.387-32.204
		c-5.304-5.423-5.498-11.502-0.11-17.02C365.128,47.493,375.875,36.7,386.8,26.1c5.091-4.939,11.123-5.568,16.157-0.157
		c4.599,4.945,4.104,10.852-0.535,15.593c-3.799,3.881-8.406,6.969-12.655,10.409c0.522,0.966,1.046,1.932,1.569,2.896
		c2.462,0.277,4.922,0.78,7.383,0.789c16.142,0.064,32.283-0.046,48.425,0.025c35.769,0.155,58.917,23.196,59.003,58.725
		c0.061,25.278,0.03,50.556,0.039,75.833c0.002,2.974,0.002,5.948,0.002,9.525c-7.492,0-14.063,0-21.688,0
		c-0.159-3.274-0.439-6.464-0.447-9.656c-0.061-25.583-0.012-51.165-0.106-76.748c-0.077-21.195-13.471-34.841-34.666-35.071
		c-19.119-0.208-38.242-0.044-57.362-0.044C391.145,79.379,390.373,80.542,389.601,81.702z"/>
	<path fill-rule="evenodd" clip-rule="evenodd" fill="#FFFFFF" d="M194.449,56.205c0,7.399,0,14.16,0,21.408
		c-7.315,0-14.065,0-21.271,0c0-7.357,0-14.124,0-21.408C180.565,56.205,187.333,56.205,194.449,56.205z"/>
	<path fill-rule="evenodd" clip-rule="evenodd" fill="#FFFFFF" d="M505.388,244.467c-7.052,0-13.587,0-20.738,0
		c0-7.175,0-13.94,0-21.293c6.867,0,13.413,0,20.738,0C505.388,229.888,505.388,236.663,505.388,244.467z"/>
	<path fill-rule="evenodd" clip-rule="evenodd" fill="#FFFFFF" d="M327.909,323.566c0,7.444,0,13.976,0,21.083
		c-7.048,0-13.576,0-21.019,0c0-6.812,0-13.547,0-21.083C313.567,323.566,320.336,323.566,327.909,323.566z"/>
	<path fill-rule="evenodd" clip-rule="evenodd" fill="#FFFFFF" d="M282.984,344.766c-7.61,0-14.123,0-21.208,0
		c0-7.214,0-13.96,0-21.392c7.169,0,13.901,0,21.208,0C282.984,330.496,282.984,337.26,282.984,344.766z"/>
	<path fill-rule="evenodd" clip-rule="evenodd" fill="#FFFFFF" d="M239.208,323.561c0,5.688,0.043,10.503-0.022,15.32
		c-0.023,1.755-0.31,3.508-0.523,5.784c-6.925,0-13.466,0-20.792,0c0-6.791,0-13.551,0-21.104
		C224.52,323.561,231.265,323.561,239.208,323.561z"/>
</g>
</svg>
