<?xml version="1.0" encoding="utf-8"?>
<!-- Generator: Adobe Illustrator 16.0.2, SVG Export Plug-In . SVG Version: 6.00 Build 0)  -->
<!DOCTYPE svg PUBLIC "-//W3C//DTD SVG 1.1//EN" "http://www.w3.org/Graphics/SVG/1.1/DTD/svg11.dtd">
<svg version="1.1" id="Layer_1" xmlns="http://www.w3.org/2000/svg" xmlns:xlink="http://www.w3.org/1999/xlink" x="0px" y="0px"
	 width="333.055px" height="356.5px" viewBox="325.897 199.119 333.055 356.5"
	 enable-background="new 325.897 199.119 333.055 356.5" xml:space="preserve">
<g>
	<g>
		<path fill="#FFFFFF" d="M369.02,499.281c0-2.77,0-4.896,0-7.025c-0.008-92.82-0.016-185.643-0.021-278.461
			c0-9.082,1.018-10.113,9.967-10.113c54.66-0.001,109.32,0.027,163.98-0.063c3.769-0.007,6.607,0.998,9.303,3.711
			c24.654,24.828,49.373,49.592,74.205,74.244c3.099,3.075,4.341,6.256,4.311,10.581c-0.163,22.83-0.052,45.66-0.096,68.492
			c-0.007,3.701,0.739,6.369,3.673,9.492c24.891,26.517,25.818,62.708,7.095,89.448c-1.239,1.771-2.322,3.895-4.021,5.063
			c-6.729,4.627-6.979,11.203-6.786,18.449c0.253,9.471,0.477,19.066-0.731,28.42c-2.95,22.857-21.843,39.371-45.018,39.438
			c-69.658,0.193-139.317,0.219-208.975,0.047c-24.318-0.061-44.41-19.449-45.464-43.008c-0.316-7.102,1.109-8.666,8.136-8.703
			c8.166-0.043,16.331-0.01,24.497-0.01C364.865,499.281,366.658,499.281,369.02,499.281z M618.716,293.949
			c-2.318,0-4.278,0-6.237,0c-21.33-0.006-42.66-0.002-63.991-0.025c-6.877-0.008-8.243-1.35-8.252-8.166
			c-0.026-21.664-0.016-43.327-0.019-64.99c-0.001-1.771,0-3.544,0-5.352c-53.509,0-106.368,0-159.354,0
			c0,94.664,0,188.902,0,283.838c2.474,0,4.58,0,6.687,0c51.326,0,102.652-0.004,153.979,0.006c6.296,0.002,7.85,1.428,8.216,7.334
			c1.073,17.322,14.477,31.459,31.274,32.986c17.513,1.592,33.931-9.76,36.865-27.375c1.688-10.129,0.307-20.771,0.307-31.627
			c-14.239,7.354-29.372,10.074-45.299,7.5c-16.054-2.596-29.918-9.764-40.362-22.105c-20.9-24.691-25.322-52.949-9.017-80.656
			c22.143-37.621,56.069-43.77,95.492-28.057c0-20.117,0.003-39.752-0.01-59.387C618.996,296.884,618.86,295.898,618.716,293.949z
			 M525.865,419.9c0.617,32.48,27.401,58.361,59.796,57.775c32.189-0.58,57.726-27.537,57.142-60.322
			c-0.563-31.551-27.688-57.324-59.651-56.68C551.605,361.313,525.269,388.539,525.865,419.9z M342.633,510.666
			c0.287,1.875,0.342,3.02,0.646,4.092c4.095,14.531,17.669,24.871,33.13,24.889c57.959,0.066,115.918,0.029,173.878,0.02
			c0.738,0,1.477-0.182,3.021-0.385c-6.986-7.012-11.965-14.447-13.625-23.506c-0.749-4.096-2.294-5.248-6.484-5.236
			c-61.29,0.164-122.581,0.121-183.871,0.129C347.35,510.666,345.374,510.666,342.633,510.666z M551.799,282.107
			c19.621,0,38.633,0,56.36,0c-18.589-18.68-37.6-37.781-56.36-56.633C551.799,243.835,551.799,262.796,551.799,282.107z"/>
		<path fill="#FFFFFF" d="M470.087,555.619c-31.613,0-63.304-0.039-94.191-0.115c-26.378-0.065-48.785-21.287-49.948-47.307
			c-0.157-3.524-0.101-7.519,2.576-10.332c2.537-2.667,6.32-3.053,10.031-3.072c3.216-0.017,6.433-0.022,9.648-0.022l16.316,0.013
			l-0.021-280.988c0-11.608,2.975-14.613,14.467-14.613l62.295,0.004c30.431,0,66.309-0.008,101.678-0.066
			c5.129,0,9.087,1.602,12.503,5.039c27.127,27.318,51.392,51.596,74.183,74.223c3.887,3.857,5.68,8.244,5.641,13.806
			c-0.104,14.564-0.097,29.38-0.089,43.708c0.005,8.254,0.009,16.508-0.007,24.762c-0.005,2.616,0.349,4.162,2.453,6.402
			c25.385,27.043,28.398,65.265,7.501,95.11c-0.264,0.376-0.519,0.771-0.776,1.169c-1.046,1.613-2.347,3.621-4.381,5.021
			c-4.393,3.02-5.042,6.951-4.838,14.621c0.241,9.003,0.514,19.206-0.767,29.116c-3.233,25.053-24.038,43.288-49.468,43.361
			C546.221,555.564,507.594,555.619,470.087,555.619z M335.087,504.112c-0.101,0.372-0.253,1.344-0.149,3.684
			c0.953,21.289,19.336,38.654,40.98,38.708c30.88,0.076,62.563,0.115,94.169,0.115c37.499,0,76.116-0.055,114.781-0.162
			c20.857-0.06,37.919-14.995,40.567-35.514c1.19-9.217,0.928-19.049,0.696-27.724c-0.17-6.363-0.427-15.979,8.734-22.277
			c0.557-0.383,1.285-1.507,1.928-2.499c0.316-0.487,0.631-0.972,0.955-1.435c18.391-26.265,15.702-59.937-6.688-83.789
			c-3.483-3.709-4.901-7.354-4.892-12.581c0.016-8.246,0.012-16.493,0.007-24.739c-0.008-14.345-0.016-29.179,0.089-43.776
			c0.022-3.183-0.785-5.177-2.98-7.354c-22.808-22.643-47.087-46.936-74.229-74.268c-1.725-1.736-3.37-2.382-6.071-2.382
			c-35.407,0.059-71.289,0.066-101.724,0.066l-62.295-0.004c-3.238,0-4.572,0.179-5.102,0.354c-0.181,0.539-0.365,1.91-0.365,5.26
			l0.021,289.986l-25.316-0.011c-3.2,0-6.401,0.006-9.602,0.022C336.375,503.804,335.445,503.997,335.087,504.112z M584.287,544.228
			c-1.22,0-2.457-0.056-3.675-0.167c-18.951-1.723-34.151-17.711-35.358-37.189c-0.114-1.835-0.334-2.559-0.435-2.804
			c-0.277-0.104-1.104-0.308-3.291-0.309c-28.407-0.006-56.813-0.007-85.221-0.007l-79.944,0.001V210.916h168.354v27.362
			c0,15.824-0.001,31.649,0.019,47.474c0.003,2.113,0.159,3.022,0.268,3.397c0.381,0.11,1.311,0.271,3.489,0.274
			c15.733,0.018,31.466,0.02,47.198,0.022l27.204,0.003l0.309,4.167c0.051,0.676,0.1,1.231,0.142,1.71
			c0.085,0.958,0.151,1.716,0.151,2.547c0.011,16.507,0.011,33.018,0.01,49.813v16.211l-6.166-2.457
			c-12.902-5.144-24.961-7.751-35.84-7.751c-22.66,0-40.865,11.409-54.108,33.909c-14.839,25.215-11.874,51.311,8.573,75.467
			c9.423,11.134,22.088,18.055,37.646,20.57c14.588,2.356,28.891-0.02,42.517-7.056l6.564-3.391v7.389
			c0,3.31,0.136,6.683,0.267,9.945c0.296,7.378,0.602,15.007-0.635,22.422C619.304,531.071,603.308,544.228,584.287,544.228z
			 M456.308,494.752c28.408,0,56.814,0.001,85.223,0.007c8.628,0.003,12.19,3.242,12.706,11.556
			c0.935,15.085,12.624,27.459,27.19,28.783c0.948,0.086,1.911,0.13,2.86,0.13c14.602,0,26.865-9.994,29.159-23.763
			c1.083-6.501,0.809-13.34,0.519-20.581c-0.044-1.096-0.089-2.203-0.128-3.319c-13.425,5.581-27.453,7.252-41.662,4.955
			c-17.737-2.868-32.231-10.822-43.079-23.641c-22.816-26.955-26.176-57.442-9.46-85.846c14.975-25.443,35.789-38.345,61.864-38.345
			c10.24,0,21.318,2.048,33.006,6.093v-3.096c0.001-16.6,0.001-32.921-0.01-49.237l-18.808-0.003
			c-15.735-0.003-31.471-0.005-47.206-0.022c-9.399-0.011-12.735-3.323-12.747-12.66c-0.02-15.829-0.019-31.657-0.019-47.485
			v-18.362H385.363v274.838L456.308,494.752z M454.188,544.185c-25.925,0-51.859-0.01-77.784-0.039
			c-17.386-0.02-32.788-11.603-37.456-28.168c-0.288-1.015-0.411-1.985-0.541-3.013c-0.061-0.473-0.127-1.004-0.222-1.619
			l-0.793-5.181l65.109,0.002c41.816,0,86.354-0.01,130.685-0.129c6.448,0,9.794,2.753,10.923,8.927
			c1.334,7.279,5.27,13.997,12.386,21.14l6.427,6.45l-9.027,1.188c-0.521,0.068-0.941,0.134-1.3,0.19
			c-0.8,0.125-1.489,0.232-2.308,0.232l-36.283,0.009C494.064,544.179,474.128,544.185,454.188,544.185z M348.122,515.167
			c4.102,11.834,15.494,19.964,28.291,19.979c45.861,0.053,91.733,0.04,137.587,0.028l29.729-0.007
			c-4.537-6.01-7.277-12.059-8.473-18.581c-0.146-0.801-0.292-1.223-0.377-1.422c-0.224-0.052-0.704-0.126-1.619-0.126
			c-44.393,0.119-88.936,0.129-130.759,0.129l-33.862-0.001L348.122,515.167z M584.583,482.185
			c-16.633-0.001-32.347-6.443-44.249-18.14c-11.914-11.708-18.65-27.355-18.968-44.06c-0.646-33.898,27.607-63.12,61.694-63.812
			c0.423-0.009,0.843-0.013,1.264-0.013c34.125,0,62.377,27.414,62.978,61.111c0.627,35.164-26.989,64.278-61.56,64.901
			C585.354,482.181,584.971,482.185,584.583,482.185z M584.324,365.162c-0.36,0-0.721,0.004-1.082,0.011
			c-29.215,0.593-53.43,25.615-52.878,54.642c0.56,29.427,24.882,53.368,54.219,53.371c0.333,0,0.662-0.003,0.997-0.009
			c29.609-0.534,53.262-25.54,52.724-55.743C637.79,388.611,613.575,365.162,584.324,365.162z M618.985,286.607h-71.687v-72.034
			L618.985,286.607z M556.299,277.607h41.033l-41.033-41.231V277.607z"/>
	</g>
	<g>
		<path fill="#FFFFFF" d="M494.305,323.654c21.803,0.002,43.604,0,65.404,0.01c1.496,0,3.484-0.492,4.382,0.265
			c1.822,1.538,4.078,3.711,4.209,5.745c0.106,1.666-2.349,3.89-4.165,5.146c-1.159,0.801-3.225,0.357-4.884,0.357
			c-43.438,0.01-86.874,0.008-130.311,0c-7.279-0.002-10.146-1.75-9.972-6.008c0.164-4.027,2.835-5.517,9.931-5.517
			C450.701,323.652,472.503,323.652,494.305,323.654z"/>
		<path fill="#FFFFFF" d="M562.013,339.799c-0.553,0-1.13-0.034-1.701-0.071c-0.362-0.023-0.723-0.051-1.061-0.051
			c-43.436,0.01-86.874,0.008-130.312,0c-3.998-0.001-8.976-0.407-12.007-3.566c-1.751-1.824-2.579-4.222-2.46-7.125
			c0.4-9.833,10.591-9.833,14.427-9.833l26.973-0.001l54.723,0.003c16.373,0.001,32.745,0.002,49.116,0.009
			c0.299,0,0.627-0.034,0.959-0.062c0.53-0.045,1.132-0.096,1.763-0.096c0.692,0,2.802,0,4.56,1.481
			c2.573,2.173,5.557,5.146,5.798,8.896c0.249,3.894-3.177,7.117-6.095,9.136C565.035,339.667,563.228,339.799,562.013,339.799z
			 M559.25,330.677c0.526,0,1.085,0.033,1.649,0.07c0.374,0.024,0.751,0.052,1.113,0.052c0.001,0,0.003,0,0.005,0
			c0.596-0.448,1.075-0.885,1.412-1.234c-0.28-0.354-0.739-0.859-1.485-1.537c-0.179,0.012-0.349,0.027-0.518,0.042
			c-0.52,0.044-1.108,0.094-1.718,0.094c-16.372-0.007-32.743-0.008-49.114-0.009l-54.723-0.003l-26.973,0.001
			c-3.875,0-5.074,0.502-5.372,0.675c-0.021,0.089-0.052,0.254-0.063,0.525c-0.012,0.294,0.008,0.474,0.024,0.568
			c0.29,0.179,1.526,0.755,5.452,0.756C472.376,330.685,515.812,330.688,559.25,330.677z"/>
	</g>
	<g>
		<path fill="#FFFFFF" d="M460.311,403.039c10.983-0.006,21.968,0.023,32.95-0.021c4.079-0.016,7.429,0.961,7.785,5.73
			c0.273,3.643-2.63,5.846-7.595,5.854c-22.3,0.033-44.601,0.029-66.898-0.002c-4.771-0.006-7.832-2.379-7.546-5.969
			c0.354-4.439,3.394-5.619,7.355-5.602C437.679,403.076,448.995,403.044,460.311,403.039z"/>
		<path fill="#FFFFFF" d="M461.521,419.125c-11.66,0-23.315-0.009-34.974-0.025c-4.014-0.005-7.424-1.309-9.603-3.671
			c-1.776-1.927-2.638-4.468-2.423-7.155c0.233-2.931,1.848-9.744,11.754-9.744h0.106c8.53,0.036,17.067,0.025,25.597,0.018
			l11.581-0.009l14.691,0.005c4.998,0,9.994-0.005,14.991-0.025h0.113c9.952,0,11.901,6.199,12.178,9.896
			c0.206,2.741-0.62,5.201-2.389,7.11c-1.508,1.628-4.412,3.569-9.687,3.578C482.813,419.117,472.165,419.125,461.521,419.125z
			 M426.342,407.529c-2.732,0-2.765,0.397-2.85,1.46c-0.019,0.243,0.023,0.289,0.068,0.338c0.264,0.286,1.191,0.771,2.998,0.772
			c22.295,0.033,44.592,0.035,66.886,0.002c2.131-0.003,3.001-0.563,3.104-0.702l0,0c-0.002,0,0.026-0.095,0.01-0.314
			c-0.085-1.142-0.117-1.567-3.203-1.567c-5.086,0.021-10.095,0.025-15.104,0.025l-14.691-0.005l-11.571,0.009
			c-8.548,0.008-17.097,0.019-25.645-0.018C426.343,407.529,426.343,407.529,426.342,407.529z"/>
	</g>
	<g>
		<path fill="#FFFFFF" d="M460.244,364.727c11.146,0,22.292-0.037,33.438,0.021c4.534,0.021,7.878,2.616,7.68,6.049
			c-0.199,3.442-2.156,5.572-5.745,5.617c-5.959,0.075-11.921-0.041-17.882-0.009c-13.894,0.076-27.785,0.222-41.68,0.275
			c-3.311,0.012-6.633-0.445-9.933-0.296c-4.093,0.187-7.188-0.975-7.204-5.475c-0.016-4.242,2.955-6.125,6.934-6.164
			c10.135-0.098,20.27-0.055,30.403-0.068c1.33-0.002,2.659,0,3.989,0C460.244,364.695,460.244,364.71,460.244,364.727z"/>
		<path fill="#FFFFFF" d="M435.929,381.18c-1.532,0-3.026-0.087-4.471-0.171c-1.807-0.104-3.468-0.202-5.133-0.13
			c-0.338,0.016-0.672,0.023-1,0.023c-6.808,0-10.886-3.729-10.907-9.978c-0.023-6.419,4.447-10.611,11.39-10.68
			c5.748-0.055,11.448-0.066,18.237-0.066l35.021,0.036c4.88,0,9.759,0.007,14.639,0.032c3.826,0.018,7.312,1.399,9.56,3.792
			c1.819,1.936,2.738,4.428,2.589,7.017c-0.342,5.915-4.339,9.784-10.181,9.857c-3.383,0.041-6.768,0.023-10.152,0.006
			c-2.587-0.015-5.175-0.028-7.762-0.015c-5.975,0.032-11.95,0.078-17.925,0.124c-7.92,0.061-15.841,0.121-23.762,0.151H435.929z
			 M427.517,371.854c1.529,0,3.021,0.087,4.464,0.171c1.376,0.08,2.677,0.155,3.948,0.155h0.11
			c7.908-0.03,15.817-0.091,23.727-0.151c5.981-0.046,11.963-0.091,17.944-0.124c2.621-0.014,5.238-0.001,7.86,0.015
			c3.33,0.018,6.662,0.038,9.989-0.006c0.945-0.012,1.23-0.015,1.31-1.377c0.004-0.067,0.009-0.151-0.163-0.335
			c-0.41-0.436-1.453-0.947-3.045-0.954c-4.867-0.025-9.73-0.032-14.595-0.032l-23.322,0.012v-0.05l-4.737,0.003l-6.962-0.001
			c-6.764,0-12.438,0.011-18.15,0.066c-2.482,0.024-2.479,0.813-2.477,1.647c0.001,0.419,0.051,0.655,0.083,0.765
			c0.174,0.077,0.688,0.245,1.824,0.245c0.194,0,0.392-0.005,0.592-0.014C426.451,371.865,426.983,371.854,427.517,371.854z"/>
	</g>
	<g>
		<path fill="#FFFFFF" d="M460.073,452.75c-10.979-0.002-21.956,0.012-32.935-0.008c-5.591-0.01-8.354-1.883-8.116-5.721
			c0.302-4.908,3.812-5.588,7.811-5.584c22.288,0.025,44.576-0.018,66.864,0.031c5.279,0.012,8.076,2.529,7.334,6.443
			c-0.727,3.832-3.484,4.873-7.027,4.857C482.694,452.724,471.383,452.753,460.073,452.75z"/>
		<path fill="#FFFFFF" d="M494.082,457.269h-0.098c-5.055-0.021-10.113-0.025-15.171-0.025l-37.512,0.009
			c-4.724,0-9.446-0.002-14.171-0.011c-4.709-0.008-8.059-1.143-10.241-3.468c-1.195-1.274-2.575-3.528-2.358-7.03
			c0.274-4.473,2.626-9.807,12.268-9.807c6.125,0.007,12.213,0.009,18.299,0.009l20.55-0.002c9.354,0,18.705,0.004,28.06,0.024
			c5.512,0.013,8.423,2.138,9.895,3.918c1.753,2.121,2.41,4.914,1.851,7.863C504.85,451.931,502.569,457.269,494.082,457.269z
			 M478.813,448.244c5.069,0,10.14,0.005,15.208,0.025l0.061,4.5v-4.5c2.301,0,2.377-0.399,2.528-1.195
			c0.056-0.298,0.038-0.465,0.026-0.504c-0.087-0.087-0.924-0.597-2.949-0.602c-9.348-0.021-18.692-0.024-28.04-0.024l-20.55,0.002
			c-6.09,0-12.181-0.002-18.27-0.009c-2.468,0-3.046,0.335-3.143,0.408c0.009,0.001-0.129,0.257-0.172,0.952
			c-0.011,0.171-0.004,0.287,0.004,0.358c0.251,0.147,1.195,0.582,3.629,0.586c4.72,0.009,9.437,0.011,14.155,0.011L478.813,448.244
			z"/>
	</g>
</g>
<path fill="#FFFFFF" d="M588.519,459.681c-2.444,0-4.21,0-6.21,0c-0.159-1.117-0.517-2.098-0.394-3.012
	c0.486-3.625-0.915-5.139-4.612-5.975c-9.689-2.191-14.371-8.553-13.781-18.594c3.17,0,6.436-0.232,9.627,0.15
	c0.888,0.105,1.866,1.924,2.272,3.137c1.629,4.854,5,7.301,10.154,6.973c4.116-0.262,6.953-2.191,7.71-6.449
	c0.869-4.891-1.65-7.951-5.783-9.889c-3.912-1.834-7.952-3.396-11.884-5.191c-7.317-3.342-10.781-9.025-10.373-17.123
	c0.382-7.568,4.321-12.869,11.308-14.731c5.995-1.599,6.53-5.41,6.133-10.438c2.173-0.182,3.938-0.33,5.516-0.463
	c0.414,0.381,0.885,0.631,0.861,0.818c-0.772,6.223,2.442,9.07,7.935,11.457c6.322,2.748,8.834,8.631,8.507,15.902
	c-3.859,0-7.618,0-11.56,0c-1.37-3.934-1.705-8.998-7.737-9.369c-3.587-0.221-6.902,0.404-8.14,4.225
	c-1.255,3.871-1.06,7.902,2.902,10.172c4.017,2.303,8.404,3.949,12.616,5.912c9.078,4.23,12.766,9.861,12.18,18.598
	c-0.442,6.633-3.779,11.746-9.889,13.729C590.539,451.25,586.612,452.914,588.519,459.681z"/>
</svg>
