<?xml version="1.0" encoding="utf-8"?>
<!-- Generator: Adobe Illustrator 16.0.2, SVG Export Plug-In . SVG Version: 6.00 Build 0)  -->
<!DOCTYPE svg PUBLIC "-//W3C//DTD SVG 1.1//EN" "http://www.w3.org/Graphics/SVG/1.1/DTD/svg11.dtd">
<svg version="1.1" id="Capa_1" xmlns="http://www.w3.org/2000/svg" xmlns:xlink="http://www.w3.org/1999/xlink" x="0px" y="0px"
	 width="406.845px" height="528px" viewBox="52.578 -8 406.845 528" enable-background="new 52.578 -8 406.845 528"
	 xml:space="preserve">
<g>
	<path fill="#FFFFFF" d="M440.713,5.954c-4.164-1.909-8.595-2.877-13.171-2.877c-7.829,0-15.343,2.884-21.108,8.077L378.49,35.896
		L338.53,0.152C332.662-5.105,325.092-8,317.213-8S301.764-5.105,295.9,0.148L256,35.835L216.093,0.151
		C210.224-5.105,202.653-8,194.773-8s-15.451,2.895-21.315,8.147l-39.979,35.752l-27.961-24.734
		c-5.829-5.181-13.331-8.034-21.123-8.034c-9.083,0-17.751,3.892-23.783,10.677c-5.234,5.889-8.087,13.471-8.033,21.295v441.748
		c-0.05,8.505,3.215,16.521,9.193,22.57c5.979,6.05,13.956,9.409,22.46,9.459h0.19c7.807,0,15.32-2.856,21.144-8.034l27.944-24.743
		l39.96,35.746c5.868,5.257,13.438,8.151,21.317,8.151s15.449-2.895,21.313-8.147l39.9-35.691l39.903,35.684
		c5.869,5.256,13.441,8.15,21.319,8.15c7.879,0,15.45-2.896,21.315-8.146l39.979-35.752l27.96,24.734
		c5.83,5.184,13.333,8.038,21.128,8.038c9.08,0,17.747-3.891,23.776-10.671c5.238-5.89,8.094-13.477,8.039-21.306V35.145
		C459.556,22.543,452.219,11.095,440.713,5.954z M92.443,52.893l19.928,17.66c5.846,5.179,13.367,8.031,21.177,8.031
		c7.874,0,15.44-2.893,21.301-8.142l39.936-35.723l39.896,35.683c5.869,5.257,13.44,8.152,21.319,8.152s15.451-2.895,21.314-8.147
		l39.907-35.688l39.94,35.712c5.85,5.258,13.403,8.154,21.27,8.154c7.802,0,15.311-2.855,21.138-8.036l19.872-17.644v285.902
		l0.104,120.288l-19.918-17.651c-5.846-5.179-13.366-8.031-21.177-8.031c-7.873,0-15.439,2.893-21.302,8.142l-39.936,35.724
		l-39.896-35.683c-5.869-5.257-13.439-8.151-21.319-8.151c-7.879,0-15.451,2.895-21.314,8.147l-39.907,35.688l-39.94-35.712
		c-5.85-5.258-13.404-8.153-21.27-8.153c-7.802,0-15.31,2.854-21.136,8.034l-19.874,17.64v-46.112L92.443,52.893z"/>
	<path fill="#FFFFFF" d="M142.353,275.986h227.295c11.022,0,19.989-8.967,19.989-19.989s-8.967-19.989-19.989-19.989H142.353
		c-11.022,0-19.989,8.967-19.989,19.989S131.331,275.986,142.353,275.986z"/>
	<path fill="#FFFFFF" d="M142.353,204.053h119.394c11.022,0,19.989-8.967,19.989-19.989s-8.967-19.989-19.989-19.989H142.353
		c-11.022,0-19.989,8.967-19.989,19.989S131.331,204.053,142.353,204.053z"/>
	<path fill="#FFFFFF" d="M142.353,347.92h227.295c11.022,0,19.989-8.967,19.989-19.988c0-11.022-8.967-19.989-19.989-19.989H142.353
		c-11.022,0-19.989,8.967-19.989,19.989C122.364,338.953,131.331,347.92,142.353,347.92z"/>
</g>
</svg>
