<?xml version="1.0" encoding="utf-8"?>
<!-- Generator: Adobe Illustrator 16.0.2, SVG Export Plug-In . SVG Version: 6.00 Build 0)  -->
<!DOCTYPE svg PUBLIC "-//W3C//DTD SVG 1.1//EN" "http://www.w3.org/Graphics/SVG/1.1/DTD/svg11.dtd">
<svg version="1.1" id="Layer_1" xmlns="http://www.w3.org/2000/svg" xmlns:xlink="http://www.w3.org/1999/xlink" x="0px" y="0px"
	 width="398.357px" height="475.275px" viewBox="-414 139.513 398.357 475.275"
	 enable-background="new -414 139.513 398.357 475.275" xml:space="preserve">
<g>
	<path fill="#FFFFFF" d="M-217.763,493.142c-18.478,0-36.957,0.051-55.435-0.025c-7.532-0.031-11.762-3.719-11.821-9.928
		c-0.048-4.891,2.843-8.672,7.663-9.652c2.098-0.426,4.294-0.506,6.445-0.508c35.625-0.035,71.25-0.043,106.875-0.02
		c2.151,0.002,4.344,0.086,6.449,0.488c4.926,0.945,7.814,4.563,7.846,9.473c0.033,4.902-2.779,8.588-7.646,9.662
		c-1.925,0.424-3.956,0.5-5.938,0.504c-18.146,0.037-36.291,0.02-54.438,0.02C-217.763,493.152-217.763,493.146-217.763,493.142z"/>
	<path fill="#FFFFFF" d="M-192.057,499.16l-30.402-0.018c-3.756,0.002-7.513,0.006-11.27,0.008
		c-13.166,0.01-26.33,0.021-39.494-0.033c-10.719-0.045-17.704-6.273-17.795-15.871c-0.076-7.793,4.935-14.059,12.467-15.588
		c2.709-0.551,5.379-0.627,7.635-0.629c35.628-0.033,71.258-0.043,106.885-0.02c2.088,0.002,4.834,0.07,7.574,0.596
		c7.676,1.473,12.666,7.488,12.717,15.326c0.052,7.785-4.798,13.893-12.354,15.561c-2.547,0.561-5.078,0.641-7.219,0.645
		C-172.894,499.156-182.475,499.16-192.057,499.16z M-211.763,487.158l19.706,0.002c9.573,0,19.146-0.004,28.72-0.023
		c1.501-0.004,3.229-0.049,4.66-0.363c2.044-0.451,2.951-1.613,2.937-3.764c-0.014-2.111-0.932-3.227-2.977-3.619
		c-1.741-0.334-3.669-0.379-5.324-0.381c-35.617-0.023-71.242-0.016-106.863,0.02c-1.662,0.002-3.587,0.049-5.258,0.389
		c-1.915,0.389-2.877,1.639-2.857,3.713c0.014,1.385,0.039,3.963,5.847,3.986c13.146,0.055,26.288,0.043,39.435,0.033
		c5.326-0.004,10.65-0.008,15.976-0.008L-211.763,487.158z"/>
	<path fill="#FFFFFF" d="M-217.255,443.835c-18.646,0-37.293,0.027-55.938-0.014c-6.377-0.016-10.076-2.318-11.424-6.854
		c-2.097-7.061,2.635-13.008,10.707-13.096c11.818-0.133,23.641-0.031,35.461-0.031c25.14,0.002,50.278,0.004,75.418,0.008
		c1.166,0,2.338-0.051,3.496,0.049c6.111,0.537,9.931,4.615,9.795,10.412c-0.127,5.553-3.887,9.324-10.078,9.428
		c-11.983,0.195-23.973,0.107-35.959,0.125c-7.159,0.012-14.317,0.002-21.478,0.002
		C-217.255,443.855-217.255,443.845-217.255,443.835z"/>
	<path fill="#FFFFFF" d="M-203.822,449.869l-19.433-0.031l-25.96,0.006c-7.998,0-15.994-0.004-23.992-0.021
		c-12.061-0.029-15.929-6.996-17.161-11.145c-1.495-5.035-0.69-10.174,2.208-14.104c3.094-4.193,8.264-6.637,14.184-6.701
		c4.193-0.047,8.695-0.068,14.166-0.068c3.566,0,7.131,0.01,10.696,0.018c3.555,0.01,7.109,0.02,10.665,0.02l76.235,0.002
		c0.317-0.004,0.634-0.008,0.95-0.008c0.877,0,1.568,0.025,2.242,0.084c9.209,0.809,15.488,7.605,15.28,16.529
		c-0.204,8.848-6.773,15.135-15.977,15.287c-7.071,0.115-14.198,0.131-20.239,0.131l-12.12-0.008l-3.69,0.004
		C-198.452,449.867-201.139,449.869-203.822,449.869z M-211.255,437.867l7.433,0.002c2.678,0,5.357-0.002,8.035-0.006l3.71-0.004
		l12.12,0.008c5.992,0,13.059-0.016,20.041-0.129c3.631-0.061,4.141-1.938,4.178-3.566c0.023-0.969,0.092-3.908-4.322-4.297
		c-0.309-0.027-0.684-0.039-1.203-0.039l-0.818,0.006c-0.316,0.004-0.633,0.008-0.949,0.008l-75.419-0.008
		c-3.565,0-7.13-0.01-10.694-0.02c-3.556-0.008-7.11-0.018-10.666-0.018c-5.425,0-9.884,0.021-14.033,0.068
		c-2.123,0.023-3.822,0.688-4.66,1.824c-0.836,1.135-0.658,2.563-0.361,3.563c0.283,0.953,0.758,2.551,5.686,2.563
		c7.988,0.018,15.975,0.021,23.965,0.021l37.96-0.008V437.867z"/>
	<path fill="#FFFFFF" d="M-393.623,218.613l46.918-0.002l-0.004-11.6c-0.004-3.798-0.006-7.39,0.006-10.982
		c0.018-4.75,0.777-5.658,0.863-5.746c0.084-0.084,0.945-0.825,5.548-0.833c17.342-0.026,34.687-0.031,52.028-0.031l58.271,0.003
		c46.55,0,93.101,0.001,139.651,0.027c4.979,0.003,6.168,0.799,6.413,1.043c0.239,0.237,1.019,1.389,1.024,6.252
		c0.004,3.6,0.003,7.2,0.002,10.775l-0.002,10.934h46.966v-58.771h-357.685V218.613z M-387.623,165.682
		c115.188,0,230.25,0,345.685,0c0,15.516,0,30.919,0,46.771c-11.359,0-22.746,0-34.966,0c0-5.188,0.007-10.452,0-15.717
		c-0.014-10.292-2.965-13.281-13.434-13.287c-55.826-0.031-111.652-0.026-167.477-0.028c-27.495-0.001-54.99-0.012-82.486,0.029
		c-9.674,0.015-12.367,2.797-12.402,12.557c-0.019,5.313-0.002,10.625-0.002,16.604c-11.949,0-23.225,0-34.918,0.001
		C-387.623,197.053-387.623,181.521-387.623,165.682z"/>
	<path fill="#FFFFFF" d="M-28.723,152.572c-0.238-0.244-1.406-1.039-6.445-1.04c-120.484-0.024-240.969-0.022-361.453-0.01
		c-4.669,0-5.316,0.633-5.332,5.209c-0.068,20.728-0.063,42.243,0.019,63.95c0.021,5.819,0.502,6.292,6.438,6.327l1.89,0.011
		c5.928,0.036,11.855,0.071,17.784,0.071c6.612,0,12.395-0.046,17.678-0.14l0.496-0.004c2.297,0,5.645,0.292,8.17,2.824
		c2.572,2.579,2.863,6.04,2.857,8.418c-0.119,50.297-0.113,101.439-0.107,150.898l0.008,75.713
		c0.008,43.373,0.016,88.223-0.037,132.336c-0.005,4.277,1.412,4.816,2.447,5.213c0.545,0.207,1.043,0.313,1.477,0.313
		c1.184,0,2.521-0.914,3.977-2.715c5.063-6.27,10.264-12.586,15.291-18.695l4.061-4.934c0.781-0.949,1.588-1.873,2.506-2.92
		c0.437-0.5,0.9-1.029,1.401-1.609l4.651-5.377l4.519,5.488c2.415,2.932,4.786,5.826,7.133,8.689
		c5.509,6.719,10.712,13.066,16.067,19.434c1.479,1.76,2.955,2.768,4.051,2.768c1.098,0,2.574-1.008,4.051-2.766
		c4.184-4.98,8.388-10.109,12.454-15.07c2.407-2.938,4.815-5.873,7.234-8.801c0.85-1.029,1.71-1.959,2.622-2.943
		c0.402-0.434,0.818-0.883,1.252-1.361l4.564-5.039l4.432,5.152c0.531,0.617,1.018,1.178,1.471,1.701
		c0.96,1.104,1.785,2.055,2.586,3.027c2.111,2.561,4.213,5.137,6.314,7.711c4.344,5.32,8.836,10.82,13.346,16.111
		c0.711,0.834,2.121,2.234,3.567,2.234c1.104-0.002,2.431-0.799,3.737-2.25c0.902-1.002,1.775-2.086,2.699-3.232
		c0.423-0.523,0.846-1.049,1.273-1.566l24.105-29.297l4.655,5.348c0.503,0.578,0.971,1.109,1.411,1.609
		c0.959,1.09,1.799,2.045,2.607,3.025c2.289,2.775,4.57,5.561,6.852,8.344c4.085,4.986,8.309,10.143,12.505,15.158
		c1.53,1.828,3.04,2.877,4.142,2.877c1.139,0,2.709-1.084,4.312-2.975c2.237-2.641,4.481-5.393,6.649-8.053
		c1.152-1.412,2.305-2.824,3.463-4.232c2.627-3.191,5.259-6.383,7.96-9.658l9.486-11.51l6.081,7.105
		c0.957,1.111,1.779,2.066,2.58,3.041c1.85,2.248,3.688,4.51,5.524,6.773c4.362,5.373,8.872,10.928,13.478,16.164
		c1.264,1.436,3.154,2.686,4.6,3.039c0.959,0.232,1.792-0.031,2.554-0.795c1.175-1.178,1.847-3.234,1.843-5.643
		c-0.162-95.459-0.15-192.514-0.14-286.373l0.005-82.613h13.328c3.342,0,6.684,0.004,10.025,0.009
		c8.188,0.013,16.371,0.023,24.557-0.034c6.632-0.045,7.316-0.721,7.328-7.224c0.033-20.322,0.021-41.02,0.006-60.478
		C-27.662,154.064-28.473,152.826-28.723,152.572z M-91.102,586.867l-10.594-12.605c-1.582-1.883-3.066-3.662-4.491-5.369
		c-2.952-3.539-5.74-6.879-8.516-10.076c-1.669-1.924-3.306-3.025-4.489-3.025c-1.171,0-2.767,1.109-4.379,3.047
		c-5.203,6.25-10.289,12.443-15.675,18.998c-2.386,2.906-4.8,5.844-7.255,8.826l-4.555,5.531l-4.646-5.457
		c-0.851-0.998-1.68-1.965-2.492-2.912c-1.753-2.043-3.407-3.973-5.056-5.965c-2.068-2.5-4.124-5.016-6.179-7.529
		c-3.156-3.863-6.421-7.857-9.675-11.717c-1.518-1.797-3.019-2.83-4.119-2.83c-1.139,0-2.696,1.084-4.274,2.975
		c-4.067,4.871-8.171,9.863-12.14,14.693c-2.414,2.936-4.827,5.871-7.248,8.801c-0.811,0.982-1.654,1.939-2.59,3.002
		c-0.424,0.48-0.869,0.982-1.338,1.521l-4.652,5.342l-9.012-10.939c-5.871-7.129-11.605-14.092-17.336-21.055
		c-2.615-3.178-4.491-4.309-5.376-4.309c-0.903,0-2.825,1.162-5.511,4.422l-26.495,32.186l-12.252-14.879
		c-4.935-5.994-9.768-11.861-14.596-17.732c-2.423-2.947-4.181-3.998-5.017-3.998c-0.854,0-2.648,1.076-5.127,4.098
		c-2.424,2.955-4.855,5.904-7.543,9.164l-14.86,18.043V197.786h247.485V586.867z M-35.938,218.453h-46.966l0.002-10.934
		c0.001-3.575,0.002-7.175-0.002-10.775c-0.006-4.863-0.785-6.015-1.024-6.252c-0.245-0.244-1.435-1.04-6.413-1.043
		c-46.551-0.026-93.102-0.027-139.651-0.027l-58.271-0.003c-17.342,0-34.687,0.005-52.028,0.031
		c-4.603,0.007-5.464,0.748-5.548,0.833c-0.086,0.088-0.846,0.996-0.863,5.746c-0.012,3.592-0.01,7.184-0.006,10.982l0.004,11.6
		l-46.918,0.002v-58.931h357.685V218.453z"/>
	<path fill="#FFFFFF" d="M-301.406,556c7.283,8.855,14.574,17.703,22.214,26.982c7.495-9.104,14.679-17.832,21.864-26.559
		c7.228-8.779,12.994-8.809,20.15-0.113c7.188,8.734,14.38,17.465,21.842,26.525c1.465-1.682,2.68-3.016,3.828-4.406
		c6.475-7.834,12.893-15.715,19.407-23.518c5.655-6.771,11.951-6.846,17.585-0.166c5.37,6.367,10.579,12.871,15.891,19.289
		c2.379,2.875,4.832,5.688,7.493,8.813c7.919-9.615,15.392-18.768,22.95-27.848c5.749-6.906,12.081-6.945,18.01-0.117
		c4.135,4.762,8.131,9.643,13.07,15.52c0-123.236,0-244.922,0-366.616c-78.76,0-157.123,0-235.485,0c0,121.999,0,243.546,0,366.606
		c4.492-5.455,8.136-9.865,11.765-14.289C-313.966,547.75-308.214,547.716-301.406,556z M-325.461,552.296
		c-0.375,0.457-0.75,0.914-1.126,1.373V209.786h223.485v344.118c-0.848-0.996-1.692-1.98-2.539-2.955
		c-4.125-4.75-8.684-7.158-13.551-7.158c-3.406,0-8.531,1.277-13.602,7.369c-5.229,6.281-10.326,12.488-15.725,19.061
		c-0.898,1.092-1.799,2.189-2.705,3.291c-0.947-1.109-1.87-2.203-2.779-3.303c-2.055-2.482-4.094-4.977-6.133-7.473
		c-3.186-3.898-6.479-7.928-9.795-11.859c-4.944-5.863-9.957-7.094-13.291-7.094c-3.377,0-8.459,1.264-13.486,7.283
		c-4.096,4.906-8.215,9.918-12.198,14.764c-2.107,2.564-4.216,5.129-6.329,7.689c-5.863-7.117-11.588-14.068-17.311-21.021
		c-3.068-3.729-7.924-8.684-14.642-8.684c-6.751,0-11.665,5.02-14.774,8.795l-17.232,20.934l-2.988-3.629
		c-4.933-5.99-9.764-11.855-14.589-17.725c-4.634-5.637-9.307-8.377-14.286-8.377C-316.063,543.812-320.774,546.587-325.461,552.296
		z"/>
	<path fill="#FFFFFF" d="M-338.587,587.117l14.86-18.043c2.688-3.26,5.119-6.209,7.543-9.164c2.479-3.021,4.273-4.098,5.127-4.098
		c0.836,0,2.594,1.051,5.017,3.998c4.828,5.871,9.661,11.738,14.596,17.732l12.252,14.879l26.495-32.186
		c2.686-3.26,4.607-4.422,5.511-4.422c0.885,0,2.761,1.131,5.376,4.309c5.73,6.963,11.465,13.926,17.336,21.055l9.012,10.939
		l4.652-5.342c0.469-0.539,0.914-1.041,1.338-1.521c0.936-1.063,1.779-2.02,2.59-3.002c2.421-2.93,4.834-5.865,7.248-8.801
		c3.969-4.83,8.072-9.822,12.14-14.693c1.578-1.891,3.136-2.975,4.274-2.975c1.101,0,2.602,1.033,4.119,2.83
		c3.254,3.859,6.519,7.854,9.675,11.717c2.055,2.514,4.11,5.029,6.179,7.529c1.648,1.992,3.303,3.922,5.056,5.965
		c0.813,0.947,1.642,1.914,2.492,2.912l4.646,5.457l4.555-5.531c2.455-2.982,4.869-5.92,7.255-8.826
		c5.386-6.555,10.472-12.748,15.675-18.998c1.612-1.938,3.208-3.047,4.379-3.047c1.184,0,2.82,1.102,4.489,3.025
		c2.775,3.197,5.563,6.537,8.516,10.076c1.425,1.707,2.909,3.486,4.491,5.369l10.594,12.605V197.786h-247.485V587.117z
		 M-332.587,203.786c78.362,0,156.726,0,235.485,0c0,121.694,0,243.38,0,366.616c-4.939-5.877-8.936-10.758-13.07-15.52
		c-5.929-6.828-12.261-6.789-18.01,0.117c-7.559,9.08-15.031,18.232-22.95,27.848c-2.661-3.125-5.114-5.938-7.493-8.813
		c-5.312-6.418-10.521-12.922-15.891-19.289c-5.634-6.68-11.93-6.605-17.585,0.166c-6.515,7.803-12.933,15.684-19.407,23.518
		c-1.148,1.391-2.363,2.725-3.828,4.406c-7.462-9.061-14.654-17.791-21.842-26.525c-7.156-8.695-12.923-8.666-20.15,0.113
		c-7.186,8.727-14.369,17.455-21.864,26.559c-7.64-9.279-14.931-18.127-22.214-26.982c-6.808-8.283-12.56-8.25-19.416,0.104
		c-3.629,4.424-7.272,8.834-11.765,14.289C-332.587,447.332-332.587,325.785-332.587,203.786z"/>
	<path fill="#FFFFFF" d="M-15.658,159.297c-0.01-14.037-5.662-19.763-19.508-19.766c-120.486-0.023-240.971-0.022-361.457-0.01
		c-11.299,0.001-17.293,5.938-17.33,17.169c-0.068,20.755-0.063,42.3,0.019,64.033c0.044,12.399,5.881,18.209,18.368,18.283
		l1.889,0.011c5.951,0.036,11.902,0.071,17.855,0.071c6.396,0,12.033-0.043,17.199-0.131c-0.117,50.053-0.111,100.924-0.105,150.127
		l0.008,75.717c0.008,43.367,0.016,88.213-0.037,132.318c-0.012,10.375,5.523,14.664,10.172,16.438
		c1.916,0.73,3.852,1.102,5.753,1.102c4.987,0,9.466-2.414,13.31-7.174c5.03-6.227,10.212-12.521,15.223-18.609l3.147-3.826
		c0.862,1.053,1.722,2.1,2.577,3.145c5.533,6.75,10.76,13.125,16.163,19.551c4.896,5.822,9.901,7.045,13.237,7.043
		c3.338,0,8.344-1.223,13.237-7.047c4.229-5.037,8.458-10.193,12.546-15.182c2.063-2.516,4.124-5.031,6.195-7.541
		c1.907,2.316,3.807,4.643,5.705,6.969c4.383,5.369,8.916,10.922,13.509,16.309c4.544,5.33,9.415,6.449,12.7,6.449
		c4.614-0.002,8.99-2.152,12.652-6.219c1.122-1.246,2.141-2.51,3.127-3.732c0.396-0.492,0.793-0.984,1.194-1.473l15.071-18.316
		c2.008,2.439,4.01,4.883,6.013,7.326c4.104,5.01,8.348,10.189,12.583,15.252c4.966,5.934,9.999,7.178,13.348,7.178
		c3.353,0,8.41-1.252,13.465-7.217c2.311-2.729,4.59-5.523,6.795-8.227c1.139-1.396,2.278-2.795,3.426-4.188
		c2.627-3.191,5.256-6.381,7.955-9.652l0.375-0.457c1.58,1.928,3.151,3.861,4.723,5.797c4.436,5.463,9.021,11.111,13.783,16.525
		c2.904,3.301,6.925,5.83,10.755,6.77c1.159,0.283,2.342,0.428,3.513,0.428c3.867,0,7.557-1.563,10.389-4.4
		c3.459-3.467,5.359-8.488,5.35-14.141c-0.162-95.449-0.15-192.498-0.14-286.352l0.005-70.615h1.328
		c3.336,0,6.672,0.004,10.01,0.009c8.217,0.011,16.436,0.021,24.654-0.034c13.109-0.09,19.225-6.192,19.246-19.204
		C-15.631,199.468-15.643,178.762-15.658,159.297z M-21.664,219.793c-0.017,9.787-3.365,13.146-13.287,13.214
		c-11.832,0.082-23.664,0.022-35.496,0.025c-1.944,0-3.89,0-6.455,0c0,2.779,0,4.896,0,7.014c0,118.654-0.066,237.309,0.135,355.963
		c0.016,8.549-5.7,13.775-11.823,12.275c-2.815-0.689-5.729-2.689-7.678-4.904c-6.599-7.502-12.78-15.371-19.132-23.09
		c-1.148-1.396-2.344-2.752-3.942-4.623c-4.489,5.447-8.698,10.545-12.899,15.65c-3.39,4.115-6.72,8.281-10.166,12.348
		c-5.728,6.76-11.992,6.809-17.633,0.068c-6.521-7.795-12.918-15.693-19.384-23.535c-1.146-1.391-2.36-2.725-3.915-4.512
		c-6.729,8.178-13.164,16.002-19.602,23.822c-1.377,1.672-2.699,3.395-4.147,5.002c-5.067,5.627-11.378,5.699-16.329-0.107
		c-6.701-7.859-13.154-15.93-19.726-23.9c-1.153-1.4-2.36-2.754-3.974-4.629c-1.379,1.523-2.595,2.766-3.696,4.1
		c-6.581,7.963-13.075,15.998-19.72,23.908c-5.486,6.531-11.777,6.555-17.287,0.002c-7.7-9.154-15.234-18.449-23.24-28.172
		c-1.51,1.746-2.691,3.055-3.811,4.414c-6.455,7.852-12.934,15.684-19.319,23.59c-3.25,4.023-7.263,6.141-12.259,4.236
		c-4.741-1.809-6.314-5.785-6.309-10.824c0.071-59.326,0.032-118.652,0.031-177.979c-0.001-60.326-0.038-120.652,0.105-180.977
		c0.01-4.311-1.4-5.298-5.416-5.226c-12.496,0.224-24.996,0.133-37.494,0.06c-9.188-0.055-12.371-3.172-12.403-12.305
		c-0.079-21.331-0.089-42.662-0.019-63.992c0.026-7.945,3.39-11.188,11.332-11.189c120.484-0.012,240.969-0.013,361.453,0.01
		c10.625,0.002,13.502,2.998,13.51,13.77C-21.643,179.466-21.632,199.63-21.664,219.793z"/>
	<path fill="#FFFFFF" d="M-35.168,145.532c-120.484-0.023-240.969-0.022-361.453-0.01c-7.942,0.001-11.306,3.244-11.332,11.189
		c-0.07,21.33-0.061,42.661,0.019,63.992c0.032,9.133,3.216,12.25,12.403,12.305c12.498,0.073,24.998,0.164,37.494-0.06
		c4.016-0.072,5.426,0.915,5.416,5.226c-0.144,60.324-0.106,120.65-0.105,180.977c0.001,59.326,0.04,118.652-0.031,177.979
		c-0.006,5.039,1.567,9.016,6.309,10.824c4.996,1.904,9.009-0.213,12.259-4.236c6.386-7.906,12.864-15.738,19.319-23.59
		c1.119-1.359,2.301-2.668,3.811-4.414c8.006,9.723,15.54,19.018,23.24,28.172c5.51,6.553,11.801,6.529,17.287-0.002
		c6.645-7.91,13.139-15.945,19.72-23.908c1.102-1.334,2.317-2.576,3.696-4.1c1.613,1.875,2.82,3.229,3.974,4.629
		c6.571,7.971,13.024,16.041,19.726,23.9c4.951,5.807,11.262,5.734,16.329,0.107c1.448-1.607,2.771-3.33,4.147-5.002
		c6.438-7.82,12.873-15.645,19.602-23.822c1.555,1.787,2.77,3.121,3.915,4.512c6.466,7.842,12.863,15.74,19.384,23.535
		c5.641,6.74,11.905,6.691,17.633-0.068c3.446-4.066,6.776-8.232,10.166-12.348c4.201-5.105,8.41-10.203,12.899-15.65
		c1.599,1.871,2.794,3.227,3.942,4.623c6.352,7.719,12.533,15.588,19.132,23.09c1.948,2.215,4.862,4.215,7.678,4.904
		c6.123,1.5,11.839-3.727,11.823-12.275c-0.201-118.654-0.135-237.309-0.135-355.963c0-2.117,0-4.234,0-7.014
		c2.565,0,4.511,0,6.455,0c11.832-0.003,23.664,0.057,35.496-0.025c9.922-0.068,13.271-3.427,13.287-13.214
		c0.032-20.164,0.021-40.328,0.006-60.492C-21.666,148.53-24.543,145.534-35.168,145.532z M-27.664,219.784
		c-0.012,6.503-0.696,7.179-7.328,7.224c-8.186,0.057-16.369,0.046-24.557,0.034c-3.342-0.004-6.684-0.009-10.025-0.009h-13.328
		l-0.005,82.613c-0.011,93.859-0.022,190.914,0.14,286.373c0.004,2.408-0.668,4.465-1.843,5.643
		c-0.762,0.764-1.595,1.027-2.554,0.795c-1.445-0.354-3.336-1.604-4.6-3.039c-4.605-5.236-9.115-10.791-13.478-16.164
		c-1.837-2.264-3.675-4.525-5.524-6.773c-0.801-0.975-1.623-1.93-2.58-3.041l-6.081-7.105l-9.486,11.51
		c-2.701,3.275-5.333,6.467-7.96,9.658c-1.158,1.408-2.311,2.82-3.463,4.232c-2.168,2.66-4.412,5.412-6.649,8.053
		c-1.603,1.891-3.173,2.975-4.312,2.975c-1.102,0-2.611-1.049-4.142-2.877c-4.196-5.016-8.42-10.172-12.505-15.158
		c-2.281-2.783-4.563-5.568-6.852-8.344c-0.809-0.98-1.648-1.936-2.607-3.025c-0.44-0.5-0.908-1.031-1.411-1.609l-4.655-5.348
		l-24.105,29.297c-0.428,0.518-0.851,1.043-1.273,1.566c-0.924,1.146-1.797,2.23-2.699,3.232c-1.307,1.451-2.633,2.248-3.737,2.25
		c-1.446,0-2.856-1.4-3.567-2.234c-4.51-5.291-9.002-10.791-13.346-16.111c-2.102-2.574-4.203-5.15-6.314-7.711
		c-0.801-0.973-1.626-1.924-2.586-3.027c-0.453-0.523-0.939-1.084-1.471-1.701l-4.432-5.152l-4.564,5.039
		c-0.434,0.479-0.85,0.928-1.252,1.361c-0.912,0.984-1.772,1.914-2.622,2.943c-2.419,2.928-4.827,5.863-7.234,8.801
		c-4.066,4.961-8.271,10.09-12.454,15.07c-1.477,1.758-2.953,2.766-4.051,2.766c-1.096,0-2.572-1.008-4.051-2.768
		c-5.355-6.367-10.559-12.715-16.067-19.434c-2.347-2.863-4.718-5.758-7.133-8.689l-4.519-5.488l-4.651,5.377
		c-0.501,0.58-0.965,1.109-1.401,1.609c-0.918,1.047-1.725,1.971-2.506,2.92l-4.061,4.934c-5.027,6.109-10.228,12.426-15.291,18.695
		c-1.455,1.801-2.793,2.715-3.977,2.715c-0.434,0-0.932-0.105-1.477-0.313c-1.035-0.396-2.452-0.936-2.447-5.213
		c0.053-44.113,0.045-88.963,0.037-132.336l-0.008-75.713c-0.006-49.459-0.012-100.602,0.107-150.898
		c0.006-2.379-0.285-5.84-2.857-8.418c-2.525-2.532-5.873-2.824-8.17-2.824l-0.496,0.004c-5.283,0.094-11.065,0.14-17.678,0.14
		c-5.929,0-11.856-0.035-17.784-0.071l-1.89-0.011c-5.937-0.035-6.418-0.508-6.438-6.327c-0.081-21.707-0.087-43.222-0.019-63.95
		c0.016-4.576,0.663-5.208,5.332-5.209c120.484-0.012,240.969-0.014,361.453,0.01c5.039,0.001,6.207,0.796,6.445,1.04
		c0.25,0.254,1.061,1.492,1.064,6.734C-27.643,178.764-27.631,199.462-27.664,219.784z"/>
	<path fill="#FFFFFF" d="M-232.634,364.849c3.378,1.244,6.979,1.889,10.979,2.939c0,3.396-0.537,6.826,0.2,9.959
		c0.444,1.889,2.87,3.309,4.405,4.939c1.303-1.643,3.407-3.139,3.738-4.959c0.609-3.34,0.174-6.869,0.174-9.871
		c4.964-1.391,9.246-2.211,13.236-3.777c12.25-4.805,19.802-16.283,19.599-29.234c-0.2-12.773-7.552-22.512-20.58-27.125
		c-2.974-1.053-6.095-1.711-9.033-2.848c-1.184-0.459-2.92-1.699-2.94-2.617c-0.219-9.221-0.133-18.451-0.133-28.033
		c6.904,1.783,9.957,6.174,11.945,11.801c2.23,6.307,6.585,8.643,11.846,6.703c4.654-1.719,6.635-6.814,4.513-12.631
		c-3.207-8.791-9.153-14.982-18.234-17.785c-3.151-0.973-6.417-1.572-10.126-2.461c0-1.828,0.048-3.631-0.01-5.43
		c-0.107-3.293,0.458-7.377-4.479-7.313c-4.584,0.059-4.104,3.936-4.189,7.078c-0.051,1.811-0.01,3.621-0.01,5.635
		c-4.225,1.031-7.858,1.654-11.317,2.811c-11.295,3.777-18.188,12.768-18.69,24.023c-0.625,13.955,4.502,22.764,16.453,27.957
		c3.5,1.521,7.213,2.557,10.707,4.09c1.135,0.498,2.674,1.859,2.692,2.85c0.196,10.242,0.121,20.49,0.121,32.379
		c-3.88-2.613-7.202-3.906-9.05-6.326c-2.559-3.354-4.256-7.451-5.877-11.414c-2.528-6.18-6.324-8.512-11.89-6.764
		c-4.539,1.426-6.894,6.236-5.628,11.857C-251.521,353.23-243.828,360.724-232.634,364.849z M-212.703,322.646
		c10.737,2.217,15.645,7.676,15.063,16.35c-0.501,7.502-6.839,13.566-15.063,14.111
		C-212.703,343.05-212.703,333.011-212.703,322.646z M-222.007,300.703c-8.612-1.996-12.69-6.246-12.796-13.117
		c-0.107-6.957,3.994-11.43,12.796-13.424C-222.007,283.197-222.007,291.919-222.007,300.703z"/>
</g>
</svg>
