<?xml version="1.0" encoding="utf-8"?>
<!-- Generator: Adobe Illustrator 16.0.2, SVG Export Plug-In . SVG Version: 6.00 Build 0)  -->
<!DOCTYPE svg PUBLIC "-//W3C//DTD SVG 1.1//EN" "http://www.w3.org/Graphics/SVG/1.1/DTD/svg11.dtd">
<svg version="1.1" id="Capa_1" xmlns="http://www.w3.org/2000/svg" xmlns:xlink="http://www.w3.org/1999/xlink" x="0px" y="0px"
	 width="512px" height="512px" viewBox="0 0 512 512" enable-background="new 0 0 512 512" xml:space="preserve">
<g>
	<path fill="#FFFFFF" d="M420.263,422c1.706-47.779,11.458-73.007,19.438-93.641c7.469-19.309,13.917-35.983,8.01-60
		c-6.452-26.229-28.462-49.086-57.71-54.887V98.787L291.213,0H0v512h512v-90H420.263z M418.578,275.527
		c3.65,14.841-0.082,24.492-6.856,42.011c-8.412,21.749-19.67,50.896-21.468,104.463h-30.51
		c-1.8-53.426-13.039-82.671-21.438-104.496c-6.771-17.593-10.5-27.284-6.886-41.977C335.52,258.866,351.805,242,375,242
		C398.195,242,414.48,258.866,418.578,275.527L418.578,275.527z M300,51.213L338.786,90H300V51.213z M30,482V30h240v90h90v93.472
		c-28.914,5.73-51.178,28.329-57.71,54.889c-5.865,23.841,0.567,40.56,8.019,59.918c7.975,20.722,17.72,46.056,19.428,93.721H240v60
		H30z M482,482c-6.17,0-206.949,0-212,0v-30h212V482z"/>
	<path fill="#FFFFFF" d="M60,182h120v30H60V182z"/>
	<path fill="#FFFFFF" d="M60,242h180v30H60V242z"/>
	<path fill="#FFFFFF" d="M105,362c-24.813,0-45,20.188-45,45s20.187,45,45,45c24.813,0,45-20.188,45-45S129.813,362,105,362z
		 M105,422c-8.271,0-15-6.729-15-15s6.729-15,15-15c8.271,0,15,6.729,15,15S113.271,422,105,422z"/>
</g>
</svg>
