<?xml version="1.0" encoding="utf-8"?>
<!-- Generator: Adobe Illustrator 16.0.2, SVG Export Plug-In . SVG Version: 6.00 Build 0)  -->
<!DOCTYPE svg PUBLIC "-//W3C//DTD SVG 1.1//EN" "http://www.w3.org/Graphics/SVG/1.1/DTD/svg11.dtd">
<svg version="1.1" id="Layer_1" xmlns="http://www.w3.org/2000/svg" xmlns:xlink="http://www.w3.org/1999/xlink" x="0px" y="0px"
	 width="512px" height="512.847px" viewBox="0 0 512 512.847" enable-background="new 0 0 512 512.847" xml:space="preserve">
<g>
	<path fill-rule="evenodd" clip-rule="evenodd" fill="#FFFFFF" d="M511.337,248.113c-12.914,0-25.022,0-38.342,0
		c0-19.856,0-39.515,0-59.982c-144.613,0-288.021,0-432.245,0c-0.163,2.854-0.475,5.772-0.476,8.691
		c-0.038,83.115-0.052,166.229-0.052,249.344c0,18.6,6.727,25.502,25.302,25.534c46.142,0.086,92.282,0.028,138.423,0.028
		c3.614,0.004,7.229,0.004,11.528,0.004c0,13.428,0,26.003,0,39.17c-3.385,0.15-6.363,0.397-9.341,0.397
		c-47.669,0.021-95.337,0.079-143.006-0.007c-37.286-0.068-62.978-25.352-63.022-62.523c-0.14-115.507-0.14-231.012,0-346.516
		c0.046-37.12,25.801-62.332,63.116-62.498c6.657-0.029,13.312-0.003,20.724-0.003c0-13.519,0-26.226,0-39.585
		c13.661,0,26.549,0,40.337,0c0,13.079,0,25.78,0,39.023c88.154,0,175.412,0,263.938,0c0-12.881,0-25.809,0-39.189
		c13.639,0,26.016,0,39.661,0c0,13.124,0,26.059,0,39.779c9.135,0,17.022-0.124,24.906,0.021
		c32.907,0.603,58.76,26.098,58.964,58.853c0.295,47.667,0.089,95.336,0.073,143.006
		C511.822,243.468,511.559,245.28,511.337,248.113z M84.23,80.046c-9.982,0-18.542-0.397-27.049,0.113
		c-8.503,0.51-16.232,7.33-16.546,15.677c-0.637,16.986-0.191,34.013-0.191,51.374c144.183,0,287.549,0,431.39,0
		c0-17.287,0.403-34.009-0.175-50.696c-0.278-8.013-5.564-14.535-13.24-15.675c-9.69-1.439-19.757-0.347-30.744-0.347
		c0,13.138,0,25.505,0,38.324c-13.449,0-25.789,0-39.333,0c0-13.174,0-25.822,0-38.289c-88.666,0-176.121,0-264.449,0
		c0,13.215,0,25.619,0,38.185c-13.537,0-26.188,0-39.663,0C84.23,105.671,84.23,93.27,84.23,80.046z"/>
	<path fill-rule="evenodd" clip-rule="evenodd" fill="#FFFFFF" d="M254.913,512.847c7.398-32.519,13.451-63.333,21.779-93.52
		c3.025-10.957,9.837-21.978,17.733-30.298c42.653-44.947,86.186-89.056,129.433-133.438c1.255-1.286,2.733-2.354,3.761-3.231
		c28.154,28.278,56.083,56.33,84.381,84.755c-20.053,20.659-40.646,41.888-61.253,63.103
		c-21.272,21.895-42.902,43.454-63.721,65.771c-14.496,15.538-31.291,25.284-52.43,29.145
		C308.354,499.935,282.46,506.633,254.913,512.847z M428.178,308.118c-36.297,37.354-72.165,74.26-106.912,110.017
		c9.873,9.936,18.99,19.105,28.564,28.736c35.323-36.337,71.176-73.222,106.981-110.053
		C447.047,327.03,438.024,317.986,428.178,308.118z"/>
	<path fill-rule="evenodd" clip-rule="evenodd" fill="#FFFFFF" d="M195.451,349.291c-13.046,0-25.43,0-38.607,0
		c0-12.873,0-25.699,0-39.124c12.772,0,25.366,0,38.607,0C195.451,323,195.451,335.601,195.451,349.291z"/>
	<path fill-rule="evenodd" clip-rule="evenodd" fill="#FFFFFF" d="M195.639,230.215c0,13.619,0,25.692,0,38.408
		c-13.016,0-25.616,0-38.926,0c0-12.586,0-25.162,0-38.408C169.707,230.215,182.582,230.215,195.639,230.215z"/>
	<path fill-rule="evenodd" clip-rule="evenodd" fill="#FFFFFF" d="M275.284,268.834c-13.105,0-25.466,0-38.376,0
		c0-13.045,0-25.627,0-38.72c12.799,0,25.172,0,38.376,0C275.284,242.809,275.284,255.363,275.284,268.834z"/>
	<path fill-rule="evenodd" clip-rule="evenodd" fill="#FFFFFF" d="M316.883,230.177c12.792,0,25.172,0,38.269,0
		c0,12.84,0,25.422,0,38.564c-12.753,0-25.153,0-38.269,0C316.883,255.968,316.883,243.364,316.883,230.177z"/>
	<path fill-rule="evenodd" clip-rule="evenodd" fill="#FFFFFF" d="M236.813,349.154c0-13.202,0-25.824,0-39.009
		c12.795,0,25.142,0,38.398,0c0,12.787,0,25.609,0,39.009C262.634,349.154,250.292,349.154,236.813,349.154z"/>
	<path fill-rule="evenodd" clip-rule="evenodd" fill="#FFFFFF" d="M77.202,229.951c12.896,0,24.997,0,37.859,0
		c0,12.912,0,25.469,0,38.668c-12.375,0-24.708,0-37.859,0C77.202,256.072,77.202,243.489,77.202,229.951z"/>
	<path fill-rule="evenodd" clip-rule="evenodd" fill="#FFFFFF" d="M115.197,349.294c-12.841,0-24.952,0-37.929,0
		c0-12.926,0-25.763,0-39.184c12.579,0,24.925,0,37.929,0C115.197,323.004,115.197,335.647,115.197,349.294z"/>
	<path fill-rule="evenodd" clip-rule="evenodd" fill="#FFFFFF" d="M195.288,428.977c-13.176,0-25.576,0-38.603,0
		c0-12.791,0-25.119,0-38.228c12.567,0,25.176,0,38.603,0C195.288,402.984,195.288,415.528,195.288,428.977z"/>
	<path fill-rule="evenodd" clip-rule="evenodd" fill="#FFFFFF" d="M115.29,390.778c0,12.944,0,25.276,0,38.138
		c-12.905,0-25.223,0-38.183,0c0-12.654,0-24.993,0-38.138C89.481,390.778,102.021,390.778,115.29,390.778z"/>
</g>
</svg>
