<?xml version="1.0" encoding="utf-8"?>
<!-- Generator: Adobe Illustrator 16.0.2, SVG Export Plug-In . SVG Version: 6.00 Build 0)  -->
<!DOCTYPE svg PUBLIC "-//W3C//DTD SVG 1.1//EN" "http://www.w3.org/Graphics/SVG/1.1/DTD/svg11.dtd">
<svg version="1.1" id="Layer_1" xmlns="http://www.w3.org/2000/svg" xmlns:xlink="http://www.w3.org/1999/xlink" x="0px" y="0px"
	 width="512px" height="512px" viewBox="0 0 512 512" enable-background="new 0 0 512 512" xml:space="preserve">
<path fill="#FFFFFF" d="M308.027,292.237c-2.112,5.436-2.902,11.388-2.285,17.214c0.963,9.07-5.611,17.203-14.682,18.166
	c-9.089,0.961-17.204-5.627-18.165-14.684c-1.171-11.041,0.33-22.334,4.341-32.658c3.304-8.503,12.875-12.718,21.376-9.414
	C307.115,274.164,311.33,283.734,308.027,292.237L308.027,292.237z M495.466,475.347c-4.227,0-8.453-1.612-11.678-4.837
	l-64.681-64.681c-55.436,42.624-135.389,32.248-178.02-24.415c-8.826,0-215.037,0-224.572,0C7.395,381.414,0,374.02,0,364.899
	c0-9.121,7.395-16.516,16.516-16.516h8.258v-88.771c0-9.122,7.395-16.516,16.516-16.516h90.835c9.121,0,16.516,7.394,16.516,16.516
	v88.771h24.773V156.391c0-9.121,7.395-16.516,16.516-16.516h90.835c9.121,0,16.516,7.395,16.516,16.516v30.954
	c7.911-3.015,16.199-5.259,24.773-6.636V53.168c0-9.121,7.395-16.515,16.516-16.515h90.836c9.12,0,16.515,7.395,16.515,16.515
	v180.166c24.046,34.439,28.795,77.501,15.233,115.049h3.347c9.121,0,16.516,7.395,16.516,16.516c0,9.12-7.395,16.516-16.516,16.516
	h-21.225c-0.267,0.354-0.54,0.704-0.811,1.058l64.681,64.682C517.581,457.591,510.044,475.347,495.466,475.347z M355.084,69.684
	v110.069c21.254,2.164,40.969,9.615,57.805,21.012V69.684H355.084z M115.609,348.384v-72.255H57.804v72.255H115.609z
	 M223.209,348.384c-18.189-50.362-2.744-107.983,41.039-142.348v-33.13h-57.804v175.478H223.209z M342.181,398.963
	c51.511,0,93.416-41.906,93.416-93.416c0-51.51-41.905-93.416-93.416-93.416c-51.509,0-93.416,41.906-93.416,93.416
	C248.765,357.057,290.672,398.963,342.181,398.963z"/>
</svg>
