<?xml version="1.0" encoding="utf-8"?>
<!-- Generator: Adobe Illustrator 16.0.2, SVG Export Plug-In . SVG Version: 6.00 Build 0)  -->
<!DOCTYPE svg PUBLIC "-//W3C//DTD SVG 1.1//EN" "http://www.w3.org/Graphics/SVG/1.1/DTD/svg11.dtd">
<svg version="1.1" id="Layer_1" xmlns="http://www.w3.org/2000/svg" xmlns:xlink="http://www.w3.org/1999/xlink" x="0px" y="0px"
	 width="323.982px" height="347.499px" viewBox="330.401 203.619 323.982 347.499"
	 enable-background="new 330.401 203.619 323.982 347.499" xml:space="preserve">
<path fill-rule="evenodd" clip-rule="evenodd" d="M369.02,499.281c0-2.77,0-4.896,0-7.025c-0.008-92.82-0.016-185.643-0.021-278.462
	c0-9.082,1.018-10.113,9.967-10.113c54.66-0.001,109.32,0.028,163.98-0.062c3.769-0.007,6.608,0.998,9.303,3.711
	c24.654,24.827,49.373,49.592,74.205,74.243c3.099,3.076,4.341,6.256,4.311,10.582c-0.163,22.83-0.052,45.66-0.096,68.492
	c-0.007,3.701,0.739,6.369,3.673,9.492c24.891,26.516,25.818,62.709,7.095,89.449c-1.24,1.771-2.323,3.893-4.021,5.061
	c-6.729,4.627-6.979,11.205-6.786,18.451c0.253,9.469,0.477,19.066-0.731,28.42c-2.951,22.857-21.843,39.371-45.018,39.436
	c-69.658,0.193-139.317,0.219-208.975,0.047c-24.318-0.061-44.41-19.449-45.463-43.008c-0.317-7.1,1.109-8.666,8.135-8.703
	c8.166-0.043,16.331-0.01,24.497-0.01C364.865,499.281,366.658,499.281,369.02,499.281z M618.716,293.949c-2.319,0-4.278,0-6.238,0
	c-21.33-0.006-42.66-0.002-63.991-0.025c-6.877-0.008-8.243-1.35-8.252-8.166c-0.026-21.664-0.015-43.328-0.018-64.991
	c-0.001-1.772,0-3.544,0-5.352c-53.509,0-106.368,0-159.354,0c0,94.665,0,188.903,0,283.838c2.474,0,4.58,0,6.687,0
	c51.326,0,102.652-0.004,153.979,0.006c6.296,0.002,7.85,1.428,8.216,7.334c1.073,17.322,14.477,31.459,31.275,32.986
	c17.512,1.592,33.93-9.76,36.865-27.375c1.688-10.129,0.306-20.77,0.306-31.627c-14.239,7.354-29.372,10.074-45.298,7.5
	c-16.054-2.596-29.918-9.764-40.363-22.105c-20.9-24.691-25.322-52.949-9.016-80.656c22.142-37.621,56.069-43.77,95.492-28.057
	c0-20.117,0.003-39.752-0.01-59.387C618.996,296.885,618.86,295.898,618.716,293.949z M525.865,419.9
	c0.617,32.48,27.402,58.361,59.796,57.775c32.19-0.58,57.726-27.537,57.142-60.322c-0.563-31.551-27.688-57.324-59.652-56.68
	C551.605,361.313,525.269,388.539,525.865,419.9z M342.633,510.666c0.287,1.875,0.342,3.02,0.645,4.092
	c4.095,14.531,17.669,24.871,33.13,24.889c57.959,0.066,115.918,0.029,173.878,0.018c0.738,0,1.477-0.182,3.021-0.385
	c-6.987-7.01-11.965-14.447-13.625-23.506c-0.749-4.094-2.294-5.248-6.485-5.236c-61.29,0.164-122.581,0.121-183.871,0.129
	C347.35,510.666,345.374,510.666,342.633,510.666z M551.799,282.107c19.621,0,38.633,0,56.36,0
	c-18.589-18.68-37.599-37.782-56.36-56.633C551.799,243.836,551.799,262.797,551.799,282.107z"/>
<path fill-rule="evenodd" clip-rule="evenodd" d="M494.305,323.654c21.802,0.002,43.604,0,65.404,0.01
	c1.496,0,3.484-0.492,4.382,0.264c1.822,1.539,4.078,3.711,4.209,5.746c0.106,1.666-2.349,3.889-4.165,5.146
	c-1.159,0.801-3.225,0.357-4.884,0.357c-43.438,0.01-86.874,0.008-130.311,0c-7.279-0.002-10.145-1.75-9.971-6.008
	c0.164-4.027,2.835-5.516,9.93-5.516C450.701,323.652,472.503,323.652,494.305,323.654z"/>
<path fill-rule="evenodd" clip-rule="evenodd" d="M460.311,403.039c10.983-0.006,21.967,0.023,32.95-0.021
	c4.079-0.016,7.428,0.961,7.785,5.729c0.273,3.643-2.63,5.846-7.595,5.854c-22.3,0.033-44.6,0.029-66.898-0.002
	c-4.771-0.006-7.832-2.379-7.546-5.969c0.354-4.439,3.393-5.619,7.355-5.602C437.679,403.076,448.995,403.045,460.311,403.039z"/>
<path fill-rule="evenodd" clip-rule="evenodd" d="M460.244,364.727c11.146,0,22.292-0.037,33.438,0.02
	c4.534,0.021,7.878,2.617,7.679,6.049c-0.199,3.443-2.156,5.572-5.745,5.617c-5.959,0.076-11.921-0.041-17.882-0.008
	c-13.893,0.076-27.785,0.221-41.679,0.275c-3.311,0.012-6.633-0.445-9.933-0.295c-4.093,0.186-7.188-0.975-7.204-5.475
	c-0.016-4.242,2.955-6.125,6.934-6.164c10.134-0.098,20.269-0.055,30.403-0.068c1.33-0.002,2.659,0,3.989,0
	C460.244,364.695,460.244,364.711,460.244,364.727z"/>
<path fill-rule="evenodd" clip-rule="evenodd" d="M460.073,452.75c-10.979-0.002-21.956,0.012-32.934-0.008
	c-5.591-0.01-8.354-1.883-8.117-5.721c0.302-4.908,3.812-5.588,7.811-5.584c22.288,0.025,44.576-0.018,66.864,0.031
	c5.28,0.012,8.076,2.529,7.334,6.443c-0.726,3.832-3.484,4.873-7.027,4.859C482.694,452.725,471.383,452.754,460.073,452.75z"/>
<path fill-rule="evenodd" clip-rule="evenodd" d="M588.519,459.682c-2.445,0-4.21,0-6.21,0c-0.16-1.119-0.517-2.098-0.394-3.012
	c0.486-3.625-0.915-5.139-4.612-5.975c-9.69-2.191-14.371-8.553-13.782-18.594c3.17,0,6.436-0.232,9.627,0.15
	c0.888,0.105,1.867,1.924,2.273,3.137c1.629,4.854,5,7.301,10.154,6.973c4.116-0.262,6.953-2.191,7.71-6.449
	c0.869-4.891-1.65-7.951-5.783-9.889c-3.912-1.834-7.952-3.396-11.884-5.191c-7.317-3.342-10.781-9.025-10.373-17.123
	c0.382-7.568,4.321-12.869,11.308-14.732c5.995-1.598,6.53-5.41,6.132-10.438c2.173-0.182,3.939-0.33,5.516-0.463
	c0.414,0.381,0.885,0.631,0.861,0.818c-0.772,6.223,2.443,9.07,7.935,11.457c6.322,2.748,8.834,8.631,8.507,15.902
	c-3.86,0-7.618,0-11.56,0c-1.37-3.934-1.705-8.998-7.737-9.369c-3.587-0.221-6.902,0.404-8.14,4.225
	c-1.255,3.871-1.059,7.902,2.903,10.172c4.016,2.303,8.404,3.949,12.616,5.912c9.078,4.23,12.765,9.861,12.18,18.598
	c-0.443,6.633-3.78,11.746-9.889,13.729C590.539,451.25,586.612,452.914,588.519,459.682z"/>
</svg>
