<?xml version="1.0" encoding="utf-8"?>
<!-- Generator: Adobe Illustrator 16.0.2, SVG Export Plug-In . SVG Version: 6.00 Build 0)  -->
<!DOCTYPE svg PUBLIC "-//W3C//DTD SVG 1.1//EN" "http://www.w3.org/Graphics/SVG/1.1/DTD/svg11.dtd">
<svg version="1.1" id="Layer_1" xmlns="http://www.w3.org/2000/svg" xmlns:xlink="http://www.w3.org/1999/xlink" x="0px" y="0px"
	 width="179.917px" height="244.067px" viewBox="0 0 179.917 244.067" enable-background="new 0 0 179.917 244.067"
	 xml:space="preserve">
<path fill-rule="evenodd" clip-rule="evenodd" fill="#FFFFFF" d="M95.806,78.353c2.56,0,4.511,0,6.462,0
	c22.822-0.001,45.644-0.008,68.465,0c7.476,0.002,9.167,1.648,9.169,9.036c0.013,44.81,0.028,89.621-0.007,134.429
	c-0.011,13.998-8.013,22.174-21.94,22.195c-45.477,0.074-90.954,0.068-136.43,0.004C8.47,244,0.094,235.873,0.075,222.859
	c-0.098-67.133-0.102-134.264,0-201.396C0.093,8.623,8.661,0.175,21.5,0.088C43.654-0.063,65.81,0.017,87.965,0.059
	c5.64,0.011,7.779,2.191,7.794,7.922c0.053,21.322,0.037,42.645,0.047,63.967C95.807,73.768,95.806,75.588,95.806,78.353z
	 M167.813,90.186c-2.111,0-3.895,0.003-5.679,0c-23.156-0.046-46.313-0.079-69.469-0.147c-6.884-0.021-8.603-1.764-8.603-8.538
	c0-21.491-0.081-42.981,0.098-64.471c0.033-4.015-0.935-5.502-5.227-5.453c-18.822,0.218-37.648,0.074-56.473,0.111
	c-7.848,0.016-10.869,3.021-10.872,10.933c-0.028,66.303-0.03,132.606-0.012,198.909c0.002,8.135,2.676,10.801,10.782,10.809
	c45.146,0.037,90.292,0.049,135.438,0.043c7.392,0,10.266-2.91,10.269-10.301c0.016-42.146,0.015-84.295,0.005-126.443
	C168.071,94.018,167.922,92.398,167.813,90.186z"/>
<path fill-rule="evenodd" clip-rule="evenodd" fill="#FFFFFF" d="M143.885,36.163c-4.517,0-8.298,0-12.079,0
	c-3.784,0-7.567,0-11.608,0c0-4,0-7.391,0-11.435c6.393,0,12.514-0.246,18.604,0.085c4.113,0.223,5.178-1.389,5.038-5.185
	c-0.231-6.291-0.063-12.595-0.063-19.238c3.972,0,7.513,0,11.578,0c0,8.009,0,15.766,0,24.141c8.224,0,15.955,0,24.081,0
	c0,4.021,0,7.418,0,11.36c-7.717,0-15.456,0-23.89,0c0,8.392,0,16.285,0,24.52c-4.1,0-7.501,0-11.662,0
	C143.885,52.428,143.885,44.56,143.885,36.163z"/>
</svg>
