<?xml version="1.0" encoding="utf-8"?>
<!-- Generator: Adobe Illustrator 16.0.2, SVG Export Plug-In . SVG Version: 6.00 Build 0)  -->
<!DOCTYPE svg PUBLIC "-//W3C//DTD SVG 1.1//EN" "http://www.w3.org/Graphics/SVG/1.1/DTD/svg11.dtd">
<svg version="1.1" id="Layer_1" xmlns="http://www.w3.org/2000/svg" xmlns:xlink="http://www.w3.org/1999/xlink" x="0px" y="0px"
	 width="595.279px" height="841.891px" viewBox="0 0 595.279 841.891" enable-background="new 0 0 595.279 841.891"
	 xml:space="preserve">
<path d="M517.237,250.955L393.22,126.938c-2.325-2.326-5.475-3.634-8.77-3.634H124.016c-27.346,0-49.605,22.248-49.605,49.607
	v496.067c0,27.358,22.26,49.605,49.606,49.605h347.247c27.346,0,49.606-22.247,49.606-49.606V259.723
	C520.87,256.429,519.562,253.281,517.237,250.955z M396.853,165.646l81.677,81.677h-56.874c-13.686,0-24.803-11.13-24.803-24.803
	V165.646z M496.067,668.979c0,13.673-11.118,24.803-24.803,24.803H124.017c-13.686,0-24.803-11.13-24.803-24.803V172.912
	c0-13.673,11.118-24.803,24.803-24.803H372.05v74.41c0,27.358,22.26,49.606,49.606,49.606h74.41V668.979z"/>
<path d="M434.058,470.552H161.222c-6.854,0-12.402,5.548-12.402,12.402c0,6.855,5.548,12.402,12.402,12.402h272.837
	c6.855,0,12.402-5.547,12.402-12.402C446.46,476.1,440.913,470.552,434.058,470.552z"/>
<path d="M434.058,396.142H161.222c-6.854,0-12.402,5.547-12.402,12.402c0,6.855,5.548,12.402,12.402,12.402h272.837
	c6.855,0,12.402-5.547,12.402-12.402C446.46,401.689,440.913,396.142,434.058,396.142z"/>
<path d="M434.058,544.962H161.222c-6.854,0-12.402,5.547-12.402,12.402c0,6.854,5.548,12.402,12.402,12.402h272.837
	c6.855,0,12.402-5.548,12.402-12.402C446.46,550.509,440.913,544.962,434.058,544.962z"/>
<path d="M310.042,619.372h-148.82c-6.854,0-12.402,5.547-12.402,12.402c0,6.854,5.548,12.402,12.402,12.402h148.82
	c6.854,0,12.401-5.548,12.401-12.402C322.443,624.919,316.897,619.372,310.042,619.372z"/>
<path d="M186.025,321.732h-24.803c-6.854,0-12.402,5.547-12.402,12.402s5.548,12.402,12.402,12.402h12.402
	c0,6.855,5.547,12.402,12.402,12.402c6.854,0,12.401-5.547,12.401-12.402v-2.285c14.403-5.138,24.802-18.774,24.802-34.921
	c0-20.516-16.688-37.205-37.205-37.205c-6.83,0-12.401-5.559-12.401-12.402c0-6.842,5.571-12.402,12.401-12.402h24.804
	c6.854,0,12.401-5.547,12.401-12.402s-5.547-12.402-12.401-12.402h-12.402c0-6.855-5.547-12.402-12.402-12.402
	c-6.854,0-12.401,5.547-12.401,12.402v2.285c-14.403,5.138-24.803,18.775-24.803,34.922c0,20.516,16.689,37.205,37.205,37.205
	c6.831,0,12.402,5.559,12.402,12.402S192.856,321.732,186.025,321.732z"/>
</svg>
