<?xml version="1.0" encoding="utf-8"?>
<!-- Generator: Adobe Illustrator 16.0.2, SVG Export Plug-In . SVG Version: 6.00 Build 0)  -->
<!DOCTYPE svg PUBLIC "-//W3C//DTD SVG 1.1//EN" "http://www.w3.org/Graphics/SVG/1.1/DTD/svg11.dtd">
<svg version="1.1" id="Layer_1" xmlns="http://www.w3.org/2000/svg" xmlns:xlink="http://www.w3.org/1999/xlink" x="0px" y="0px"
	 width="386.357px" height="463.276px" viewBox="-520.195 35.873 386.357 463.276"
	 enable-background="new -520.195 35.873 386.357 463.276" xml:space="preserve">
<g>
	<path fill-rule="evenodd" clip-rule="evenodd" fill="#FFFFFF" d="M-231.538,466.027c-4.489,5.447-8.698,10.545-12.899,15.65
		c-3.39,4.115-6.72,8.281-10.166,12.348c-5.728,6.76-11.992,6.809-17.633,0.068c-6.521-7.795-12.919-15.693-19.384-23.535
		c-1.146-1.391-2.36-2.725-3.915-4.512c-6.729,8.178-13.164,16.002-19.602,23.822c-1.376,1.672-2.699,3.395-4.147,5.002
		c-5.067,5.627-11.378,5.699-16.329-0.107c-6.701-7.859-13.155-15.93-19.726-23.9c-1.153-1.4-2.36-2.754-3.973-4.629
		c-1.38,1.523-2.595,2.766-3.697,4.1c-6.581,7.963-13.075,15.998-19.719,23.908c-5.487,6.531-11.778,6.555-17.288,0.002
		c-7.7-9.154-15.234-18.449-23.24-28.172c-1.51,1.746-2.692,3.055-3.811,4.414c-6.454,7.852-12.933,15.684-19.319,23.59
		c-3.25,4.023-7.262,6.141-12.259,4.236c-4.741-1.809-6.314-5.785-6.308-10.824c0.071-59.326,0.032-118.652,0.031-177.979
		c-0.001-60.326-0.038-120.652,0.106-180.977c0.01-4.31-1.401-5.297-5.417-5.225c-12.495,0.223-24.996,0.133-37.494,0.059
		c-9.187-0.054-12.37-3.171-12.403-12.304c-0.079-21.331-0.089-42.662-0.019-63.992c0.027-7.945,3.39-11.188,11.332-11.189
		c120.485-0.012,240.97-0.013,361.454,0.01c10.625,0.002,13.502,2.998,13.51,13.77c0.015,20.164,0.026,40.328-0.007,60.492
		c-0.016,9.787-3.365,13.146-13.287,13.214c-11.832,0.081-23.664,0.022-35.496,0.025c-1.944,0-3.889,0-6.454,0
		c0,2.779,0,4.896,0,7.014c-0.001,118.654-0.067,237.309,0.134,355.963c0.015,8.549-5.7,13.775-11.823,12.275
		c-2.816-0.689-5.729-2.689-7.678-4.904c-6.598-7.502-12.78-15.371-19.132-23.09C-228.744,469.254-229.939,467.898-231.538,466.027z
		 M-209.297,460.762c0-123.236,0-244.923,0-366.617c-78.76,0-157.123,0-235.485,0c0,121.998,0,243.546,0,366.607
		c4.492-5.455,8.136-9.865,11.765-14.289c6.856-8.355,12.608-8.387,19.416-0.105c7.282,8.857,14.574,17.705,22.213,26.984
		c7.495-9.104,14.679-17.832,21.864-26.559c7.228-8.779,12.995-8.809,20.151-0.113c7.187,8.734,14.38,17.465,21.842,26.525
		c1.465-1.682,2.68-3.016,3.828-4.406c6.475-7.834,12.893-15.715,19.407-23.518c5.655-6.771,11.951-6.846,17.585-0.166
		c5.37,6.367,10.579,12.871,15.891,19.289c2.378,2.875,4.832,5.688,7.493,8.813c7.918-9.615,15.392-18.768,22.95-27.848
		c5.749-6.906,12.081-6.945,18.01-0.117C-218.233,450.004-214.236,454.885-209.297,460.762z M-464.901,102.97
		c0-5.979-0.016-11.291,0.003-16.604c0.035-9.76,2.728-12.542,12.402-12.557c27.496-0.041,54.991-0.03,82.486-0.029
		c55.825,0.002,111.65-0.003,167.477,0.028c10.468,0.006,13.42,2.995,13.433,13.287c0.007,5.265,0.001,10.529,0.001,15.717
		c12.219,0,23.606,0,34.965,0c0-15.852,0-31.255,0-46.771c-115.435,0-230.497,0-345.685,0c0,15.84,0,31.371,0,46.93
		C-488.125,102.97-476.85,102.97-464.901,102.97z"/>
	<path fill-rule="evenodd" clip-rule="evenodd" fill="#FFFFFF" d="M-331.85,148.541c0-2.013-0.041-3.825,0.009-5.635
		c0.086-3.143-0.395-7.02,4.189-7.079c4.937-0.063,4.372,4.021,4.479,7.314c0.058,1.798,0.01,3.6,0.01,5.429
		c3.709,0.889,6.975,1.489,10.126,2.461c9.081,2.802,15.027,8.995,18.234,17.785c2.122,5.816,0.142,10.912-4.513,12.63
		c-5.26,1.941-9.614-0.396-11.845-6.702c-1.989-5.627-5.041-10.017-11.946-11.801c0,9.583-0.086,18.812,0.133,28.033
		c0.021,0.919,1.757,2.158,2.941,2.617c2.938,1.138,6.059,1.795,9.033,2.849c13.028,4.612,20.38,14.351,20.58,27.125
		c0.203,12.95-7.348,24.429-19.599,29.234c-3.99,1.565-8.272,2.387-13.236,3.777c0,3.002,0.435,6.531-0.173,9.871
		c-0.332,1.82-2.436,3.316-3.739,4.959c-1.535-1.631-3.961-3.051-4.405-4.939c-0.737-3.133-0.201-6.564-0.201-9.959
		c-4-1.051-7.601-1.695-10.979-2.94c-11.194-4.126-18.887-11.619-21.577-23.567c-1.266-5.621,1.089-10.432,5.628-11.857
		c5.565-1.748,9.361,0.585,11.889,6.763c1.622,3.963,3.319,8.062,5.878,11.415c1.847,2.42,5.17,3.713,9.049,6.326
		c0-11.888,0.076-22.136-0.121-32.378c-0.019-0.992-1.557-2.352-2.692-2.85c-3.494-1.534-7.207-2.569-10.707-4.091
		c-11.951-5.192-17.078-14.002-16.454-27.956c0.503-11.256,7.396-20.246,18.691-24.023
		C-339.709,150.196-336.075,149.572-331.85,148.541z M-322.822,211.367c0,10.365,0,20.405,0,30.461
		c8.225-0.546,14.563-6.61,15.064-14.112C-307.177,219.042-312.084,213.583-322.822,211.367z M-332.125,162.883
		c-8.802,1.994-12.904,6.466-12.796,13.424c0.106,6.871,4.184,11.121,12.796,13.117
		C-332.125,180.64-332.125,171.917-332.125,162.883z"/>
	<path fill-rule="evenodd" clip-rule="evenodd" fill="#FFFFFF" d="M-329.958,383.502c-18.478,0-36.957,0.051-55.435-0.025
		c-7.532-0.031-11.762-3.719-11.821-9.928c-0.047-4.891,2.843-8.672,7.663-9.652c2.098-0.426,4.294-0.506,6.445-0.508
		c35.625-0.035,71.25-0.043,106.875-0.021c2.152,0.002,4.345,0.086,6.45,0.49c4.926,0.945,7.814,4.561,7.846,9.471
		c0.032,4.904-2.78,8.588-7.647,9.662c-1.925,0.424-3.956,0.5-5.938,0.504c-18.146,0.037-36.291,0.021-54.437,0.021
		C-329.958,383.512-329.958,383.506-329.958,383.502z"/>
	<path fill-rule="evenodd" clip-rule="evenodd" fill="#FFFFFF" d="M-329.45,334.195c-18.646,0-37.293,0.027-55.939-0.014
		c-6.376-0.016-10.076-2.318-11.423-6.854c-2.097-7.059,2.634-13.006,10.706-13.094c11.819-0.133,23.641-0.033,35.461-0.033
		c25.14,0.002,50.279,0.004,75.419,0.008c1.165,0,2.337-0.051,3.495,0.049c6.112,0.537,9.931,4.615,9.796,10.412
		c-0.128,5.553-3.887,9.324-10.078,9.428c-11.984,0.195-23.973,0.107-35.959,0.125c-7.16,0.012-14.318,0.002-21.478,0.002
		C-329.45,334.215-329.45,334.205-329.45,334.195z"/>
</g>
</svg>
