<?xml version="1.0" encoding="utf-8"?>
<!-- Generator: Adobe Illustrator 16.0.2, SVG Export Plug-In . SVG Version: 6.00 Build 0)  -->
<!DOCTYPE svg PUBLIC "-//W3C//DTD SVG 1.1//EN" "http://www.w3.org/Graphics/SVG/1.1/DTD/svg11.dtd">
<svg version="1.1" id="Layer_1" xmlns="http://www.w3.org/2000/svg" xmlns:xlink="http://www.w3.org/1999/xlink" x="0px" y="0px"
	 width="423.531px" height="440.889px" viewBox="0 0 423.531 440.889" enable-background="new 0 0 423.531 440.889"
	 xml:space="preserve">
<path fill-rule="evenodd" clip-rule="evenodd" fill="#FFFFFF" d="M353.036,406.002c0,11.938,0,23.215,0,34.887
	c-105.93,0-211.472,0-317.563,0c0-11.324,0-22.727,0-34.896c-3.623,0-6.715,0.059-9.805-0.01
	C11.74,405.672,0.137,394.34,0.099,380.416c-0.129-47.487-0.129-94.975-0.014-142.462c0.037-14.989,11.965-26.005,27.751-26.016
	c50.821-0.034,101.642-0.013,152.462-0.013c59.484,0,118.969-0.002,178.453,0.002c18.759,0.001,29.446,10.656,29.45,29.375
	c0.008,44.822-0.494,89.654,0.239,134.464c0.308,18.773-13.323,32.008-30.224,30.258
	C356.757,405.871,355.267,406.002,353.036,406.002z M194.328,229.567c-54.644,0-109.287-0.002-163.93,0.002
	c-10.553,0.001-12.994,2.427-12.994,12.908c-0.002,44.48,0.001,88.962,0.008,133.443c0.001,10.02,2.716,12.723,12.801,12.723
	c109.289,0.004,218.578,0.004,327.867,0c10.037,0,12.755-2.729,12.756-12.793c0.007-44.482,0.006-88.965,0.001-133.447
	c-0.001-10.255-2.524-12.84-12.578-12.842C303.616,229.554,248.971,229.558,194.328,229.567z M53.211,423.549
	c94.237,0,187.972,0,281.817,0c0-5.9,0-11.477,0-17.295c-94.044,0-187.775,0-281.817,0
	C53.211,412.076,53.211,417.652,53.211,423.549z"/>
<path fill-rule="evenodd" clip-rule="evenodd" fill="#FFFFFF" d="M353.344,106.658c0-6.715,0-12.151,0-18.485
	c6.847,0,13.663,0.439,20.404-0.086c17.035-1.328,30.378-14.635,32.192-31.561c1.738-16.207-8.589-31.954-24.356-37.136
	c-22.969-7.55-46.178,9.539-46.352,34.431c-0.176,25.159,0.093,50.321,0.081,75.481c-0.009,19.162-0.138,38.324-0.254,57.485
	c-0.015,2.287-0.287,4.572-0.454,7.062c-5.572,0-10.692,0-16.735,0c0-2.125,0-4.197,0-6.268c0.004-42.323,0.01-84.646,0.012-126.969
	c0.001-20.928,1.194-25.028,12.562-42.497c-1.62-0.138-2.995-0.358-4.37-0.358c-72.985-0.016-145.97-0.047-218.954,0.008
	c-21.588,0.017-36.697,15.188-36.736,36.888c-0.079,44.324-0.025,88.648-0.025,132.972c0,1.962,0,3.923,0,6.169
	c-5.899,0-11.304,0-17.096,0c-0.085-1.711-0.235-3.322-0.235-4.933c-0.012-45.157-0.064-90.314,0.011-135.471
	c0.05-29.881,23.287-53.273,53.265-53.311c87.981-0.111,175.963-0.098,263.944-0.004c26.761,0.028,49.557,19.814,52.817,45.369
	c3.502,27.44-13.044,52.523-39.821,58.697C373.817,106.314,363.784,105.86,353.344,106.658z"/>
<path fill-rule="evenodd" clip-rule="evenodd" fill="#FFFFFF" d="M115.119,70.291c0-5.641,0-11.083,0-16.909
	c58.427,0,116.806,0,175.611,0c0,5.374,0,10.935,0,16.909C232.388,70.291,173.894,70.291,115.119,70.291z"/>
<path fill-rule="evenodd" clip-rule="evenodd" fill="#FFFFFF" d="M106.191,123.277c0-5.778,0-11.221,0-16.985
	c35.049,0,69.907,0,105.163,0c0,5.503,0,11.048,0,16.985C176.416,123.277,141.592,123.277,106.191,123.277z"/>
<path fill-rule="evenodd" clip-rule="evenodd" fill="#FFFFFF" d="M193.947,167.153c0,5.67,0,10.952,0,16.593
	c-29.197,0-58.228,0-87.604,0c0-5.412,0-10.808,0-16.593C135.442,167.153,164.473,167.153,193.947,167.153z"/>
<path fill-rule="evenodd" clip-rule="evenodd" fill="#FFFFFF" d="M247.554,106.1c11.588,0,22.732,0,34.288,0
	c0,5.677,0,11.235,0,17.181c-11.368,0-22.757,0-34.288,0C247.554,117.458,247.554,111.787,247.554,106.1z"/>
<path fill-rule="evenodd" clip-rule="evenodd" fill="#FFFFFF" d="M282.025,167.21c0,5.455,0,10.724,0,16.446
	c-11.431,0-22.797,0-34.542,0c0-5.197,0-10.597,0-16.446C258.717,167.21,270.083,167.21,282.025,167.21z"/>
<path fill-rule="evenodd" clip-rule="evenodd" fill="#FFFFFF" d="M247.246,327.535c0-17.541,0-34.674,0-52.217
	c29.069,0,58.108,0,87.563,0c0,17.157,0,34.52,0,52.217C305.821,327.535,276.782,327.535,247.246,327.535z M317.609,292.855
	c-17.608,0-34.944,0-52.568,0c0,5.771,0,11.299,0,16.955c17.686,0,35.025,0,52.568,0
	C317.609,304.031,317.609,298.624,317.609,292.855z"/>
<path fill-rule="evenodd" clip-rule="evenodd" fill="#FFFFFF" d="M317.609,282.855c0,5.769,0,11.176,0,16.955
	c-17.543,0-34.883,0-52.568,0c0-5.656,0-11.184,0-16.955C282.665,282.855,300,282.855,317.609,282.855z"/>
</svg>
