<?xml version="1.0" encoding="utf-8"?>
<!-- Generator: Adobe Illustrator 16.0.2, SVG Export Plug-In . SVG Version: 6.00 Build 0)  -->
<!DOCTYPE svg PUBLIC "-//W3C//DTD SVG 1.1//EN" "http://www.w3.org/Graphics/SVG/1.1/DTD/svg11.dtd">
<svg version="1.1" id="Layer_1" xmlns="http://www.w3.org/2000/svg" xmlns:xlink="http://www.w3.org/1999/xlink" x="0px" y="0px"
	 width="512px" height="512px" viewBox="0 0 512 512" enable-background="new 0 0 512 512" xml:space="preserve">
<path fill="#FFFFFF" d="M453.333,512H58.666C26.304,512,0,485.696,0,453.333V58.667C0,26.304,26.304,0,58.666,0h394.667
	C485.695,0,512,26.304,512,58.667v394.667C512,485.696,485.695,512,453.333,512z M58.666,32C43.968,32,32,43.968,32,58.667v394.667
	C32,468.032,43.968,480,58.666,480h394.667C468.031,480,480,468.032,480,453.333V58.667C480,43.968,468.031,32,453.333,32H58.666z"
	/>
<path fill="#FFFFFF" d="M256,512c-8.832,0-16-7.168-16-16V16c0-8.832,7.168-16,16-16s16,7.168,16,16v480
	C272,504.832,264.832,512,256,512z"/>
<path fill="#FFFFFF" d="M496,272H16c-8.832,0-16-7.168-16-16s7.168-16,16-16h480c8.831,0,16,7.168,16,16S504.831,272,496,272z"/>
<path fill="#FFFFFF" d="M128,192c-8.832,0-16-7.168-16-16v-74.667c0-8.832,7.168-16,16-16s16,7.168,16,16V176
	C144,184.832,136.832,192,128,192z"/>
<path fill="#FFFFFF" d="M165.333,154.667H90.666c-8.832,0-16-7.168-16-16s7.168-16,16-16h74.667c8.832,0,16,7.168,16,16
	S174.165,154.667,165.333,154.667z"/>
<path fill="#FFFFFF" d="M101.333,426.667c-4.096,0-8.192-1.558-11.307-4.693c-6.251-6.251-6.251-16.384,0-22.635l53.333-53.333
	c6.251-6.251,16.385-6.251,22.635,0c6.251,6.25,6.251,16.383,0,22.635l-53.333,53.333
	C109.525,425.109,105.429,426.667,101.333,426.667z"/>
<path fill="#FFFFFF" d="M154.666,426.667c-4.096,0-8.191-1.558-11.307-4.693l-53.333-53.333c-6.251-6.252-6.251-16.385,0-22.635
	c6.251-6.251,16.384-6.251,22.635,0l53.333,53.333c6.251,6.25,6.251,16.384,0,22.635
	C162.858,425.109,158.763,426.667,154.666,426.667z"/>
<path fill="#FFFFFF" d="M432,426.667h-96c-8.832,0-16-7.168-16-16s7.168-16.001,16-16.001h96c8.831,0,16,7.169,16,16.001
	S440.831,426.667,432,426.667z"/>
<path fill="#FFFFFF" d="M432,362.666h-96c-8.832,0-16-7.168-16-16s7.168-16,16-16h96c8.831,0,16,7.168,16,16
	S440.831,362.666,432,362.666z"/>
<path fill-rule="evenodd" clip-rule="evenodd" fill="#FFFFFF" d="M376.887,80.041c0-4.98-0.084-9.624,0.023-14.262
	c0.119-5.115,3.154-8.486,7.297-8.35c3.963,0.13,6.762,3.38,6.879,8.267c0.113,4.636,0.025,9.278,0.025,14.637
	c4.926,0,9.518-0.058,14.105,0.015c5.412,0.086,8.619,2.69,8.678,6.898c0.059,4.334-3.363,7.167-8.857,7.194
	c-9.494,0.045-18.99-0.089-28.482,0.063c-7.172,0.115-13.004,4.43-15.27,10.873c-2.098,5.969-0.391,13.108,5.1,16.991
	c2.938,2.078,6.887,3.185,10.525,3.697c4.41,0.621,8.975,0.101,13.471,0.163c17.561,0.242,30.314,12.16,31.26,29.17
	c0.863,15.517-11.07,28.688-27.908,30.813c-0.656,0.082-1.309,0.207-2.617,0.416c0,4.557,0.057,9.162-0.014,13.766
	c-0.086,5.52-3.008,8.99-7.311,8.848c-4.115-0.135-6.805-3.484-6.893-8.766c-0.074-4.473-0.016-8.945-0.016-14.139
	c-4.922,0-9.512,0.059-14.102-0.014c-5.414-0.086-8.617-2.689-8.676-6.898c-0.061-4.334,3.361-7.168,8.857-7.193
	c9.494-0.046,18.99,0.088,28.48-0.063c7.172-0.114,13.006-4.43,15.27-10.873c2.1-5.969,0.393-13.108-5.098-16.991
	c-2.938-2.078-6.889-3.185-10.525-3.697c-4.41-0.621-8.975-0.102-13.473-0.163c-17.559-0.241-30.313-12.16-31.258-29.17
	c-0.863-15.516,11.068-28.687,27.908-30.812C374.924,80.375,375.576,80.251,376.887,80.041z"/>
</svg>
