<?xml version="1.0" encoding="utf-8"?>
<!-- Generator: Adobe Illustrator 16.0.2, SVG Export Plug-In . SVG Version: 6.00 Build 0)  -->
<!DOCTYPE svg PUBLIC "-//W3C//DTD SVG 1.1//EN" "http://www.w3.org/Graphics/SVG/1.1/DTD/svg11.dtd">
<svg version="1.1" id="Layer_1" xmlns="http://www.w3.org/2000/svg" xmlns:xlink="http://www.w3.org/1999/xlink" x="0px" y="0px"
	 width="486.143px" height="486.146px" viewBox="54.568 177.872 486.143 486.146"
	 enable-background="new 54.568 177.872 486.143 486.146" xml:space="preserve">
<g>
	<path d="M374.397,619.354c-1.02-0.385-2.16-0.58-3.391-0.58c-1.517,0-2.981,0.293-4.158,0.528l-0.583,0.115
		c-5.339,1.021-10.712,2.228-15.909,3.394c-10.679,2.396-21.721,4.873-32.53,5.728c-23.31,1.842-44.709,2.738-65.423,2.738
		c-26.913,0-51.795-1.509-76.067-4.612c-18.266-2.335-32.54-6.508-44.922-13.131c-13.726-7.34-22.134-17.271-25.707-30.363
		c-4.246-15.554-2.155-30.941,0.45-43.944c13.033-65.017,76.718-114.046,148.137-114.046c5.435,0,10.911,0.292,16.279,0.868
		c20.288,2.179,39.838,8.196,58.109,17.886c1.797,0.953,3.835,1.096,4.89,1.096c2.573,0,4.608-0.812,5.89-2.348
		c3.411-4.095,6.609-8.39,9.995-12.936c1.141-1.53,2.313-3.104,3.536-4.73l3.66-4.86l-34.283-15.508
		c30.563-20.885,48.575-49.383,53.585-84.832c5.619-39.762-5.829-74.587-34.025-103.51c-23.136-23.732-54.135-36.802-87.289-36.802
		c-34.189,0-67.135,14.462-90.389,39.678c-23.291,25.256-34.173,55.131-32.346,88.793c2.193,40.394,20.613,72.871,54.794,96.671
		c-33.999,12.747-62.603,34.551-82.818,63.158c-20.638,29.204-31.513,64.061-31.448,100.8c0.048,27.485,8.08,47.808,24.553,62.128
		c22.965,19.967,50.078,30.413,80.585,31.048c19.484,0.406,40.658,0.604,64.731,0.604c23.363,0,47.114-0.184,70.082-0.361
		l10.995-0.084c22.321-0.17,41.645-3.57,59.074-10.393c5.147-2.014,9.977-4.655,14.646-7.209c2.047-1.119,4.163-2.277,6.238-3.343
		l8.188-4.199l-8.077-4.408C392.666,626.503,382.712,622.497,374.397,619.354z M162.613,302.672
		c-0.078-24.397,9.498-47.482,26.963-65.002c17.458-17.514,40.497-27.159,64.873-27.159l0.214,0
		c50.596,0.118,91.732,41.379,91.7,91.979c-0.032,50.762-40.468,90.539-92.086,90.556
		C203.037,393.043,162.774,353.347,162.613,302.672z"/>
	<path d="M495.613,445.693c-19.104-19.016-44.311-29.488-70.973-29.488c-26.783,0.001-52.057,10.54-71.163,29.675
		c-19.104,19.133-29.604,44.416-29.565,71.193c0.039,26.723,10.587,51.942,29.7,71.013c19.108,19.067,44.351,29.567,71.079,29.567
		h0.252c26.757-0.066,51.982-10.672,71.03-29.862c19.045-19.188,29.486-44.515,29.4-71.313
		C525.288,489.851,514.72,464.712,495.613,445.693z M424.565,586.604c-18.389-0.001-35.815-7.311-49.068-20.581
		c-13.266-13.284-20.559-30.747-20.534-49.172c0.051-38.148,31.16-69.373,69.349-69.606l0.421-0.001
		c38.215,0,69.432,31.171,69.588,69.486c0.075,18.385-7.164,35.833-20.383,49.13c-13.264,13.344-30.752,20.71-49.244,20.744H424.565
		z"/>
	<polygon points="443.871,516.49 474.737,485.968 455.747,466.219 424.629,497.783 394.158,466.917 373.776,486.25 405.815,517.488 
		374.142,548.467 393.468,568.127 424.781,536.106 455.936,567.761 475.902,547.518 	"/>
</g>
</svg>
