<?xml version="1.0" encoding="utf-8"?>
<!-- Generator: Adobe Illustrator 16.0.2, SVG Export Plug-In . SVG Version: 6.00 Build 0)  -->
<!DOCTYPE svg PUBLIC "-//W3C//DTD SVG 1.1//EN" "http://www.w3.org/Graphics/SVG/1.1/DTD/svg11.dtd">
<svg version="1.1" id="Layer_1" xmlns="http://www.w3.org/2000/svg" xmlns:xlink="http://www.w3.org/1999/xlink" x="0px" y="0px"
	 width="595.279px" height="841.891px" viewBox="0 0 595.279 841.891" enable-background="new 0 0 595.279 841.891"
	 xml:space="preserve">
<path fill-rule="evenodd" clip-rule="evenodd" d="M296.161,689.479c-75.309,0-150.617,0.109-225.926-0.042
	C29.842,689.358,0.22,660.119,0.162,619.88C-0.02,493.323-0.023,366.769,0.159,240.216c0.058-38.622,27.24-66.377,65.754-67.903
	c9.789-0.388,19.619-0.502,29.402-0.089c9.373,0.394,12.476-4.165,12.901-12.824c0.476-9.668,0.575-19.687,3.257-28.842
	c4.512-15.396,13.577-19.834,30.979-17.782c11.527,1.358,21.223,11.609,22.41,24.537c0.689,7.521,0.492,15.136,0.463,22.708
	c-0.031,8.351,3.91,12.044,12.281,12.01c26.736-0.108,53.473,0.037,80.209,0.094c9.051,0.021,12.678-4.917,12.746-13.491
	c0.064-8.458-0.248-16.996,0.786-25.354c1.731-14.013,11.052-20.982,26.334-20.845c14.94,0.135,25.768,8.777,26.966,22.283
	c0.708,7.965,0.528,16.031,0.384,24.046c-0.156,8.693,3.227,13.312,12.509,13.26c27.181-0.152,54.366-0.152,81.544,0.083
	c8.755,0.076,11.95-4.164,11.765-12.298c-0.151-6.68-0.215-13.374,0.008-20.05c0.548-16.509,10.614-26.833,26.477-27.409
	c17.005-0.618,26.424,7.705,27.965,25.27c0.543,6.188,0.318,12.473,0.031,18.696c-0.521,11.224,4.275,15.606,15.813,16.117
	c17.111,0.756,34.962,0.919,51.01,6.018c28.948,9.197,41.888,33.993,42.146,61.932c1.173,126.543,1.371,253.115,0.011,379.657
	c-0.426,39.452-26.357,68.377-69.557,69.118c-76.176,1.313-152.391,0.366-228.591,0.366
	C296.161,689.51,296.161,689.494,296.161,689.479z M297.003,633.682c70.84,0,141.679,0.011,212.518,0
	c27.426-0.005,28.113-0.68,28.116-27.389c0.003-114.5-0.016-229.003,0-343.503c0.005-36.864,0.042-36.52-36.807-36.335
	c-11.909,0.06-15.956,5.228-15.52,16.2c0.285,7.109,0.204,14.253-0.126,21.363c-0.551,11.92-6.007,20.171-18.147,23.205
	c-12.392,3.095-24.931,1.545-30.129-10.292c-4.701-10.706-5.345-23.631-5.766-35.65c-0.383-10.91-4.1-15.056-15.057-14.738
	c-19.588,0.567-39.204,0.004-58.805,0.167c-36.438,0.305-31.583-3.308-32.258,30.891c-0.044,2.226-0.052,4.461-0.253,6.675
	c-1.301,14.271-12.266,24.123-26.855,24.191c-15.822,0.073-25.264-7.958-26.766-23.523c-0.768-7.958-0.891-16.03-0.608-24.026
	c0.362-10.39-4.475-14.424-14.513-14.289c-18.707,0.256-37.422,0.055-56.134,0.05c-33.19-0.008-33.19-0.005-34.702,32.456
	c-0.685,14.654-7.604,24.252-20.267,28.11c-21.351,6.505-36.419-8.179-36.751-35.821c-0.297-24.764-0.297-24.764-24.91-24.746
	c-0.891,0.001-1.781,0-2.672,0.002c-23.305,0.061-26.109,2.826-26.111,26.233c-0.021,118.061-0.021,236.123-0.004,354.184
	c0.004,23.571,3.059,26.559,27.335,26.574C153.542,633.702,225.273,633.682,297.003,633.682z"/>
<path fill-rule="evenodd" clip-rule="evenodd" d="M386.194,398.922c10.394,10.191,19.54,19.161,28.103,27.556
	c-47.522,46.744-94.488,92.939-143.898,141.532c-19.301-19.981-41.659-43.129-64.027-66.276c-2.467-2.549-4.77-5.312-7.505-7.538
	c-8.001-6.509-7.917-11.999-0.292-19.548c22.1-21.877,21.83-22.196,44.194-0.156c8.233,8.112,16.708,16.031,24.359,24.673
	c7.142,8.061,12.32,5.323,18.595-1.017c29.107-29.421,58.445-58.617,87.762-87.833C377.206,406.612,381.304,403.284,386.194,398.922
	z"/>
</svg>
