<?xml version="1.0" encoding="iso-8859-1"?>
<!-- Generator: Adobe Illustrator 19.0.0, SVG Export Plug-In . SVG Version: 6.00 Build 0)  -->
<svg version="1.1" id="Layer_1" xmlns="http://www.w3.org/2000/svg" xmlns:xlink="http://www.w3.org/1999/xlink" x="0px" y="0px"
	 viewBox="0 0 512.123 512.123" style="enable-background:new 0 0 512.123 512.123;" xml:space="preserve">
<g>
	<g>
		<path d="M499.918,55.471c-0.244-0.366-0.488-0.732-0.61-0.976c-0.854-1.465-2.075-2.685-3.295-3.661
			c-10.009-10.619-23.801-17.087-38.325-17.087H54.435C25.631,33.747,0,60.964,0,91.355v275.223
			c0,28.804,24.044,51.261,54.435,51.261h57.608c9.642,0,15.989-6.346,15.989-15.988s-6.346-15.988-15.989-15.988H60.049
			l164.89-142.921l21.358,16.599c3.173,1.587,6.346,3.173,9.642,3.173c3.173,0,6.346-1.587,9.642-4.76l19.406-15.256l163.792,142.92
			h-64.686c-9.642,0-15.989,6.346-15.989,15.988c0,9.642,6.346,15.988,15.989,15.988h73.596c30.391,0,54.435-22.458,54.435-51.261
			V91.233C512.001,77.685,507.363,65.236,499.918,55.471z M32.099,367.92c0-0.488-0.122-0.976-0.122-1.465V93.674l167.331,129.252
			L32.099,367.92z M273.637,211.208l-17.576,14.402L49.308,66.456c1.709-0.61,3.417-0.854,5.126-0.854h403.254
			c0.244,0,0.61,0,0.854,0L273.637,211.208z M480.024,366.456c0,1.465-0.122,2.807-0.366,4.027L310.497,222.436L479.902,89.401
			c0,0.61,0.122,1.22,0.122,1.831V366.456z"/>
	</g>
</g>
<g>
	<g>
		<path d="M356.754,339.116c-6.347-6.224-15.989-6.224-22.335,0.123L233.604,440.052l-67.249-67.249
			c-6.346-6.346-15.989-6.346-22.457,0c-6.346,6.346-6.346,15.988,0,22.457l78.356,78.356c3.173,3.173,6.346,4.76,11.229,4.76
			c4.76,0,8.055-1.587,11.229-4.76l112.042-112.042C363.1,355.227,363.1,345.585,356.754,339.116z"/>
	</g>
</g>
<g>
</g>
<g>
</g>
<g>
</g>
<g>
</g>
<g>
</g>
<g>
</g>
<g>
</g>
<g>
</g>
<g>
</g>
<g>
</g>
<g>
</g>
<g>
</g>
<g>
</g>
<g>
</g>
<g>
</g>
</svg>
