<svg height="512pt" viewBox="-71 0 512 512" width="512pt" xmlns="http://www.w3.org/2000/svg"><path d="m302.484375 0h-234.96875c-37.226563 0-67.515625 30.289062-67.515625 67.523438v424.144531c0 7.601562 4.199219 14.457031 10.964844 17.886719 6.730468 3.417968 14.703125 2.773437 20.800781-1.6875l62.878906-45.976563c2.128907-1.558594 5.015625-1.589844 7.179688-.078125l62.6875 43.730469c6.164062 4.300781 13.429687 6.457031 20.695312 6.457031 7.074219 0 14.148438-2.042969 20.21875-6.132812l65.390625-44.097657c2.195313-1.484375 5.085938-1.402343 7.195313.199219l59.9375 45.46875c6.078125 4.613281 14.097656 5.371094 20.929687 1.980469 6.859375-3.40625 11.121094-10.292969 11.121094-17.96875v-423.925781c0-37.234376-30.289062-67.523438-67.515625-67.523438zm37.515625 471.335938-43.859375-33.273438c-12.335937-9.355469-29.253906-9.832031-42.09375-1.171875l-65.394531 44.097656c-2.097656 1.414063-4.902344 1.394531-6.980469-.054687l-62.6875-43.730469c-6.222656-4.339844-13.460937-6.503906-20.695313-6.503906-7.503906 0-15.003906 2.328125-21.351562 6.972656l-46.9375 34.320313v-404.46875c0-20.6875 16.828125-37.519532 37.515625-37.519532h234.96875c20.6875 0 37.515625 16.832032 37.515625 37.519532zm0 0"/><path d="m172.230469 162.191406h58.296875c8.285156 0 15-6.71875 15-15 0-8.285156-6.714844-15.003906-15-15.003906h-30.328125v-35.003906c0-8.285156-6.714844-15-15-15-8.285157 0-15 6.714844-15 15v35.046875c-25.175781 1.070312-45.332031 21.886719-45.332031 47.324219v25.941406c0 26.117187 21.246093 47.367187 47.363281 47.367187h25.9375c9.570312 0 17.359375 7.789063 17.359375 17.359375v25.941406c0 9.574219-7.789063 17.363282-17.359375 17.363282h-58.300781c-8.28125 0-15 6.71875-15 15.003906s6.71875 15 15 15h30.332031v35.003906c0 8.285156 6.714843 15 15 15 8.28125 0 15-6.714844 15-15v-35.046875c25.175781-1.066406 45.328125-21.886719 45.328125-47.324219v-25.941406c0-26.117187-21.246094-47.363281-47.359375-47.363281h-25.9375c-9.574219 0-17.363281-7.789063-17.363281-17.363281v-25.941406c0-9.574219 7.789062-17.363282 17.363281-17.363282zm0 0"/></svg>