<?xml version="1.0" encoding="utf-8"?>
<!-- Generator: Adobe Illustrator 16.0.2, SVG Export Plug-In . SVG Version: 6.00 Build 0)  -->
<!DOCTYPE svg PUBLIC "-//W3C//DTD SVG 1.1//EN" "http://www.w3.org/Graphics/SVG/1.1/DTD/svg11.dtd">
<svg version="1.1" id="Layer_1" xmlns="http://www.w3.org/2000/svg" xmlns:xlink="http://www.w3.org/1999/xlink" x="0px" y="0px"
	 width="486.143px" height="486.146px" viewBox="54.568 177.872 486.143 486.146"
	 enable-background="new 54.568 177.872 486.143 486.146" xml:space="preserve">
<g>
	<g>
		<path d="M531.342,187.24c-12.486-12.491-32.743-12.491-45.233,0L63.936,609.415c-12.49,12.491-12.49,32.744,0,45.233
			c6.245,6.245,14.431,9.369,22.616,9.369c8.184,0,16.372-3.121,22.617-9.369L531.34,232.476
			C543.834,219.982,543.834,199.732,531.342,187.24z"/>
	</g>
</g>
<g>
	<g>
		<path d="M192.785,185.021c-53,0-96.119,43.12-96.119,96.118s43.12,96.118,96.119,96.118c52.999,0,96.118-43.119,96.118-96.118
			S245.784,185.021,192.785,185.021z M192.785,324.828c-24.091,0-43.69-19.599-43.69-43.691c0-24.09,19.599-43.688,43.69-43.688
			c24.089,0,43.69,19.599,43.69,43.688C236.474,305.229,216.875,324.828,192.785,324.828z"/>
	</g>
</g>
<g>
	<g>
		<path d="M402.492,464.635c-52.998,0-96.117,43.118-96.117,96.117c0,53,43.119,96.119,96.117,96.119
			c53.002,0,96.119-43.119,96.119-96.119C498.612,507.753,455.494,464.635,402.492,464.635z M402.492,604.441
			c-24.088,0-43.689-19.598-43.689-43.689c0-24.09,19.6-43.688,43.689-43.688c24.092,0,43.691,19.598,43.691,43.688
			C446.184,584.844,426.584,604.441,402.492,604.441z"/>
	</g>
</g>
</svg>
