<?xml version="1.0" encoding="iso-8859-1"?>
<!-- Generator: Adobe Illustrator 19.0.0, SVG Export Plug-In . SVG Version: 6.00 Build 0)  -->
<svg version="1.1" id="Layer_1" xmlns="http://www.w3.org/2000/svg" xmlns:xlink="http://www.w3.org/1999/xlink" x="0px" y="0px"
	 viewBox="0 0 512.124 512.124" style="enable-background:new 0 0 512.124 512.124;" xml:space="preserve">
<g>
	<g>
		<path d="M457.689,104.049h-41.62V40.094c0.001-9.642-6.346-15.988-15.988-15.988H96.053c-9.642,0-15.989,6.346-15.989,15.988
			v63.955h-25.63C20.87,104.049,0,121.624,0,150.428v275.223c0,28.803,24.045,62.367,54.435,62.367h403.254
			c31.977,0,54.435-33.564,54.435-62.367V150.428C512.123,121.624,489.665,104.049,457.689,104.049z M416.069,136.026h26.485
			l-26.485,20.87V136.026z M112.043,56.083h272.049v126.078l-112.041,88.365l-17.575,14.402L112.043,174.594V56.083z
			 M80.065,136.026v13.791l-17.697-13.791H80.065z M32.099,425.652V152.991L199.43,281.997L32.099,427.117
			C32.099,426.628,32.099,426.141,32.099,425.652z M457.813,456.04l-403.378,0.001c-1.953,0-3.906-0.489-5.736-1.342
			l176.363-152.807l10.381,8.899c10.929,9.368,27.077,9.299,37.925-0.164l11.133-9.712L461.108,455.43
			C460.01,455.796,458.911,456.04,457.813,456.04z M480.146,425.773c0,1.342-0.122,2.685-0.366,4.15L309.764,281.022
			l170.138-133.645c0.244,1.342,0.244,2.441,0.244,3.173V425.773z"/>
	</g>
</g>
<g>
</g>
<g>
</g>
<g>
</g>
<g>
</g>
<g>
</g>
<g>
</g>
<g>
</g>
<g>
</g>
<g>
</g>
<g>
</g>
<g>
</g>
<g>
</g>
<g>
</g>
<g>
</g>
<g>
</g>
</svg>
