<?xml version="1.0" encoding="utf-8"?>
<!-- Generator: Adobe Illustrator 16.0.2, SVG Export Plug-In . SVG Version: 6.00 Build 0)  -->
<!DOCTYPE svg PUBLIC "-//W3C//DTD SVG 1.1//EN" "http://www.w3.org/Graphics/SVG/1.1/DTD/svg11.dtd">
<svg version="1.1" id="Layer_1" xmlns="http://www.w3.org/2000/svg" xmlns:xlink="http://www.w3.org/1999/xlink" x="0px" y="0px"
	 width="455.509px" height="514.943px" viewBox="0 0 455.509 514.943" enable-background="new 0 0 455.509 514.943"
	 xml:space="preserve">
<g>
	<path fill-rule="evenodd" clip-rule="evenodd" fill="#F4C223" d="M1.832,0.11c18.311-0.036,36.621-0.103,54.932-0.104
		C165.136-0.004,273.507,0,381.878,0.005c1.83,0,3.66,0.069,5.49,0.105c2.547,2.448,1.635,5.632,1.637,8.52
		c0.052,75.666,0.041,151.332,0.041,226.998c-0.001,7.667,0.057,15.333-0.021,22.999c-0.072,7.206-1.624,8.569-8.389,6.557
		c-15.001-4.463-30.243-6.086-45.896-5.846c-28.089,0.432-53.496,8.982-76.347,24.794c-31.524,21.813-51.539,51.663-59.357,89.323
		c-6.181,29.772-2.953,58.665,9.161,86.557c8.501,19.574,20.8,36.365,36.891,50.387c1.35,1.176,2.958,2.316,2.398,4.545
		c-39.197-0.027-78.394-0.056-117.59-0.083c-2.645-0.799-4.604-2.562-6.509-4.469c-33.55-33.576-67.128-67.124-100.67-100.708
		c-6.585-6.593-12.736-13.604-19.255-20.261c-2.225-2.271-3.369-4.89-3.312-8.068c0.027-1.497-0.019-2.997-0.019-4.496
		c0-122.577-0.008-245.155,0.043-367.732C0.176,6.078-0.795,2.727,1.832,0.11z"/>
	<path fill-rule="evenodd" clip-rule="evenodd" fill="#12997D" d="M332.78,510.469c-6.098-1.55-12.422-1.882-18.482-3.742
		c-44.749-13.74-73.088-43.154-81.557-89.266c-11.641-63.374,31.771-122.104,95.327-131.023
		c58.995-8.28,115.395,32.621,125.591,91.073c0.596,3.413,1.228,6.819,1.842,10.23c0.003,6.883,0.006,13.766,0.008,20.648
		c-0.328,14.931-4.275,28.964-11.416,41.954c-16.658,30.306-41.455,50.343-75.363,58.559c-5.033,1.22-10.231,0.757-15.299,1.591
		C346.547,510.485,339.664,510.478,332.78,510.469z"/>
	<g>
		<path fill-rule="evenodd" clip-rule="evenodd" fill="#FFFFFF" d="M334.979,444.697c-3.049,0.618-6.094,1.251-9.146,1.843
			c-9.208,1.793-18.419,3.564-27.628,5.345c-0.224,0.042-0.449,0.181-0.673-0.003c-0.164-0.301,0.035-0.552,0.143-0.792
			c5.611-12.585,6.463-25.577,3.539-38.955c-1.205-5.505-2.329-11.049-3.1-16.629c-1.993-14.389,5.791-29.544,18.365-36.225
			c0.304-0.654,0.917-0.928,1.507-1.225c4.848-2.43,9.948-3.821,15.404-3.752c1.323,0.018,2.646-0.004,3.968,0.006
			c0.57,0.004,1.143-0.002,1.609,0.406c3.58,0.711,7.131,1.497,10.456,3.083c11.723,5.584,18.639,14.81,21.136,27.519
			c1.681,8.556,2.857,17.226,5.328,25.61c2.398,8.122,6.532,15.323,12.064,21.724c1.337,1.548,1.344,1.56-0.599,1.938
			c-10.888,2.123-21.776,4.235-32.667,6.351c-0.279,0.054-0.563,0.069-0.846,0.102c-0.863,0.622-1.854,0.834-2.886,1.029
			c-4.452,0.849-8.896,1.749-13.347,2.597C336.724,444.836,335.859,444.991,334.979,444.697z"/>
		<path fill-rule="evenodd" clip-rule="evenodd" fill="#FFFFFF" d="M338.966,354.717c-1.699,0-3.398,0.039-5.098-0.002
			c-6.239-0.156-11.966,1.615-17.39,4.566c0.033-1.485-0.441-2.893-0.689-4.332c-1.047-6.109,2.831-11.89,8.895-13.187
			c6.027-1.285,11.972,2.46,13.43,8.503C338.466,351.734,338.686,353.232,338.966,354.717z"/>
		<path fill-rule="evenodd" clip-rule="evenodd" fill="#FFFFFF" d="M334.979,444.697c6.286-1.218,12.573-2.437,18.859-3.654
			c-0.714,0.679-0.223,1.425-0.089,2.129c1.153,6.144-3.265,11.388-9.434,11.178c-4.033-0.137-7.597-3.258-8.495-7.362
			C335.65,446.202,335.875,445.23,334.979,444.697z"/>
		<path fill-rule="evenodd" clip-rule="evenodd" fill="#FFFFFF" d="M317.293,428.438c-0.283,4.035-1.144,7.728-3.103,11.106
			c-0.455,0.787-0.891,1.055-1.801,0.453c-2.645-1.744-2.654-1.692-1.318-4.471c1.84-3.821,1.874-7.807,0.993-11.863
			c-0.111-0.506-0.199-1.015-0.316-1.521c-0.095-0.411,0.1-0.661,0.458-0.744c0.963-0.227,1.936-0.413,2.904-0.613
			c0.802-0.166,1.099,0.313,1.255,0.981C316.896,424.021,316.996,426.332,317.293,428.438z"/>
	</g>
	<path fill-rule="evenodd" clip-rule="evenodd" fill="#FFFFFF" d="M255.878,36.816c3.104,2.209,6.949,1.981,10.391,3.141
		c41.925,14.12,55.042,66.5,23.626,98.209c-41.217,41.598-83.32,82.323-125.25,123.209c-11.725,11.434-29.625,14.242-43.76,7.307
		c-15.125-7.422-22.977-19.807-22.659-36.775c0.195-10.391,4.689-19.188,12.003-26.43c26.32-26.069,52.743-52.03,79.041-78.119
		c2.337-2.319,3.704-2.866,6.424-0.288c11.076,10.493,11.184,10.392,0.434,20.994c-24.018,23.686-48.08,47.325-72.045,71.065
		c-9.383,9.293-9.312,21.188-0.085,29.377c7.609,6.752,19.313,6.514,27-0.898c10.128-9.768,20.022-19.781,30.032-29.672
		c31.5-31.129,63.102-62.156,94.479-93.409c22.558-22.47,12.66-59.111-18.205-66.983c-13.878-3.541-26.938-0.519-37.297,9.703
		c-43.308,42.736-86.708,85.385-129.428,128.703c-17.677,17.924-22.025,40.069-12.264,63.522
		c9.676,23.248,27.82,35.809,53.195,37.107c17.702,0.906,32.811-5.283,45.349-17.723c36.139-35.857,72.301-71.691,108.268-107.723
		c3.655-3.662,5.503-3.731,9.064,0.033c9.351,9.88,9.574,9.718-0.289,19.508c-33.637,33.383-67.384,66.655-100.895,100.167
		c-12.834,12.832-27.801,21.193-45.712,24.211c-0.85,0.143-1.593,0.293-1.94,1.184c-6.623,0-13.246,0-19.87,0
		c-15.485-0.92-29.183-6.307-41.502-15.779c-37.983-29.209-41.9-86.117-8.046-120.025c40.499-40.558,81.103-81.014,121.549-121.627
		c11.498-11.546,24.188-20.531,41.009-21.987C244.288,36.816,250.083,36.816,255.878,36.816z"/>
</g>
</svg>
