<?xml version="1.0" encoding="utf-8"?>
<!-- Generator: Adobe Illustrator 16.0.2, SVG Export Plug-In . SVG Version: 6.00 Build 0)  -->
<!DOCTYPE svg PUBLIC "-//W3C//DTD SVG 1.1//EN" "http://www.w3.org/Graphics/SVG/1.1/DTD/svg11.dtd">
<svg version="1.1" id="Layer_1" xmlns="http://www.w3.org/2000/svg" xmlns:xlink="http://www.w3.org/1999/xlink" x="0px" y="0px"
	 width="299.538px" height="295.129px" viewBox="0 0 299.538 295.129" enable-background="new 0 0 299.538 295.129"
	 xml:space="preserve">
<g>
	<path fill-rule="evenodd" clip-rule="evenodd" fill="#FBCE47" d="M150.36,246.912c-0.455,0.926,0.017,2.203-1.095,2.88
		c-2.781-1.417-5.805-1.222-8.771-1.229c-15.264-0.038-30.527-0.002-45.791-0.029c-2.638-0.005-5.351,0.249-7.652-1.512
		c-26.809-0.075-53.617-0.153-80.426-0.225C0,246.78,0.017,246.792,0.03,239.982c0.022-10.991,0.111-21.983-0.029-32.974
		c-0.036-2.828,0.904-4.165,3.626-4.908c15.013-4.1,25.989-16.188,25.563-34.719c-0.579-25.134-0.266-50.292-0.115-75.438
		c0.23-38.274,22.951-71.904,57.717-85.776c33.366-13.313,70.223-4.739,95.853,22.493c15.54,16.512,23.653,36.216,24.916,58.877
		c1.002,17.973-0.011,35.954,0.626,53.923c-0.8,2.363-3.025,2.293-4.863,2.739c-32.713,7.951-56.636,38.397-56.741,72.043
		c-0.028,9.056,0.944,17.889,3.977,26.452C151.058,244.107,151.562,245.561,150.36,246.912z"/>
	<path fill-rule="evenodd" clip-rule="evenodd" fill="#40B2A0" d="M150.36,246.912c-3.717-11.118-5.734-22.432-5.202-34.26
		c1.455-32.351,26.579-62.657,58.224-69.857c1.619-0.368,3.204-0.887,4.804-1.335c16.726-2.627,32.827-0.85,48.081,6.841
		c23.271,11.732,37.663,30.418,42.084,56.033c7.177,41.581-18.84,80.194-60.044,89.069c-35.569,7.662-70.886-10.846-85.795-42.599
		C151.883,249.466,151.081,248.208,150.36,246.912z"/>
	<path fill-rule="evenodd" clip-rule="evenodd" fill="#F1BB30" d="M87.051,247.022c19.399-0.021,38.798-0.039,58.197-0.071
		c2.043-0.003,4.188-0.24,4.018,2.842c-4.877,17.274-16.451,26.786-32.531,25.884C99.506,274.711,86.183,259.499,87.051,247.022z"/>
	<path fill-rule="evenodd" clip-rule="evenodd" fill="#FDFDFD" d="M204.17,212.854c2.497,0,5.039-0.306,7.479,0.063
		c5.067,0.768,6.202-1.45,5.882-6.09c-0.389-5.631-0.105-11.311-0.056-16.968c0.043-4.768,3.252-8.508,7.216-8.519
		c3.986-0.01,7.316,3.665,7.39,8.437c0.099,6.488,0.144,12.983-0.021,19.469c-0.072,2.88,0.993,3.73,3.768,3.657
		c6.153-0.162,12.313-0.072,18.471-0.04c5.887,0.031,8.893,2.377,9.029,6.963c0.141,4.762-2.916,7.271-9.142,7.341
		c-5.99,0.067-11.988,0.191-17.97-0.046c-3.342-0.132-4.312,1.018-4.188,4.281c0.231,6.148,0.126,12.313,0.021,18.469
		c-0.095,5.645-2.826,8.86-7.289,8.872c-4.479,0.012-7.265-3.289-7.308-8.8c-0.049-6.157-0.172-12.32,0.049-18.47
		c0.114-3.208-0.801-4.457-4.162-4.332c-6.148,0.228-12.313,0.113-18.469,0.063c-5.689-0.046-8.756-2.687-8.678-7.329
		c0.074-4.45,3.059-6.908,8.492-6.978c1.664-0.021,3.328-0.006,4.992-0.007c1.498,0,2.996,0,4.493,0
		C204.17,212.879,204.17,212.867,204.17,212.854z"/>
</g>
</svg>
