<svg height="512" viewBox="0 0 58 52" width="512" xmlns="http://www.w3.org/2000/svg"><g id="Page-1" fill="none" fill-rule="evenodd"><g id="071---Portfolio" fill-rule="nonzero"><path id="Rectangle-path" d="m9.394 4h9.211v2h-9.211z" fill="#a56a43" transform="matrix(.555 -.832 .832 .555 2.074 13.875)"/><path id="Rectangle-path" d="m42.999.394h2v9.211h-2z" fill="#a56a43" transform="matrix(.832 -.555 .555 .832 4.616 25.246)"/><path id="Shape" d="m6 8h46c3.3137085 0 6 2.6862915 6 6v34c0 2.209139-1.790861 4-4 4h-50c-2.209139 0-4-1.790861-4-4v-34c0-3.3137085 2.6862915-6 6-6z" fill="#a56a43"/><path id="Shape" d="m55.34 9.02c-.8549653.75401486-1.3433153 1.8400469-1.34 2.98v18c-.0032948 1.1032019-.8967981 1.9967052-2 2h-46c-1.10320187-.0032948-1.9967052-.8967981-2-2v-18c.00331529-1.1399531-.48503468-2.22598514-1.34-2.98.98516631-.6686873 2.14933732-1.02421257 3.34-1.02h46c1.1906627-.00421257 2.3548337.3513127 3.34 1.02z" fill="#cb8252"/><rect id="Rectangle-path" fill="#cb8252" height="4" rx="2" width="28" x="15"/><path id="Shape" d="m26 36v-1c0-3-2-4-2-8-.0002496-1.3835524.5727981-2.7053614 1.5828008-3.6509362 1.0100028-.9455748 2.3666635-1.4303783 3.7471992-1.3390638 2.8179445.3094899 4.8785194 2.8043365 4.65 5.63-.2 3.48-1.98 4.53-1.98 7.36v1z" fill="#f29c1f"/><path id="Shape" d="m26 35v-4c0-1.1045695.8954305-2 2-2h2c1.1045695 0 2 .8954305 2 2v14c0 1.6568542-1.3431458 3-3 3s-3-1.3431458-3-3z" fill="#f0c419"/><g fill="#805333"><path id="Shape" d="m6 49h-2c-.55228475 0-1-.4477153-1-1s.44771525-1 1-1h2c.55228475 0 1 .4477153 1 1s-.44771525 1-1 1z"/><path id="Shape" d="m22 49h-12c-.55228475 0-1-.4477153-1-1s.44771525-1 1-1h12c.5522847 0 1 .4477153 1 1s-.4477153 1-1 1z"/><path id="Shape" d="m54 49h-2c-.5522847 0-1-.4477153-1-1s.4477153-1 1-1h2c.5522847 0 1 .4477153 1 1s-.4477153 1-1 1z"/><path id="Shape" d="m48 49h-12c-.5522847 0-1-.4477153-1-1s.4477153-1 1-1h12c.5522847 0 1 .4477153 1 1s-.4477153 1-1 1z"/></g><rect id="Rectangle-path" fill="#f3d55b" height="4" rx="1" width="8" x="25" y="36"/></g></g></svg>