<?xml version="1.0" encoding="iso-8859-1"?>
<!-- Generator: Adobe Illustrator 19.0.0, SVG Export Plug-In . SVG Version: 6.00 Build 0)  -->
<svg version="1.1" id="Capa_1" xmlns="http://www.w3.org/2000/svg" xmlns:xlink="http://www.w3.org/1999/xlink" x="0px" y="0px"
	 viewBox="0 0 402.808 402.808" style="enable-background:new 0 0 402.808 402.808;" xml:space="preserve">
<path style="fill:#D4E1F4;" d="M280.816,343.771v-38.139H72.882H3.918v38.139c0,32.392,26.122,59.037,59.037,59.037h273.241
	C305.371,400.718,280.816,375.641,280.816,343.771z"/>
<path style="fill:#4DCFE0;" d="M344.555,48.588L290.22,0l-54.335,48.588L181.551,0l-54.335,48.588L72.882,0.522V305.11v0.522
	h207.935v38.139c0,31.869,24.555,56.947,55.38,59.037c1.045,0,2.612,0,3.657,0c16.196,0,31.347-6.792,41.796-17.241
	c10.971-10.971,17.241-25.6,17.241-41.796V0.522L344.555,48.588z"/>
<g>
	<path style="fill:#00BBD3;" d="M151.249,166.139h96.653c8.882,0,15.673-6.792,15.673-15.673s-6.792-15.673-15.673-15.673h-96.653
		c-8.882,0-15.673,6.792-15.673,15.673S142.367,166.139,151.249,166.139z"/>
	<path style="fill:#00BBD3;" d="M321.045,207.935H151.249c-8.882,0-15.673,6.792-15.673,15.673s6.792,15.673,15.673,15.673h169.796
		c8.882,0,15.673-6.792,15.673-15.673S329.927,207.935,321.045,207.935z"/>
</g>
<g>
</g>
<g>
</g>
<g>
</g>
<g>
</g>
<g>
</g>
<g>
</g>
<g>
</g>
<g>
</g>
<g>
</g>
<g>
</g>
<g>
</g>
<g>
</g>
<g>
</g>
<g>
</g>
<g>
</g>
</svg>
