<?xml version="1.0" encoding="utf-8"?>
<!-- Generator: Adobe Illustrator 16.0.2, SVG Export Plug-In . SVG Version: 6.00 Build 0)  -->
<!DOCTYPE svg PUBLIC "-//W3C//DTD SVG 1.1//EN" "http://www.w3.org/Graphics/SVG/1.1/DTD/svg11.dtd">
<svg version="1.1" id="Layer_1" xmlns="http://www.w3.org/2000/svg" xmlns:xlink="http://www.w3.org/1999/xlink" x="0px" y="0px"
	 width="595.279px" height="841.891px" viewBox="0 0 595.279 841.891" enable-background="new 0 0 595.279 841.891"
	 xml:space="preserve">
<rect x="32.387" y="63.937" fill="#F4B2B0" width="481.402" height="161.966"/>
<path fill="none" d="M156.21,377.034c-4.094,5.539-6.097,11.05-6.097,16.819c0,6.732,2.032,11.587,6.395,15.285
	c3.181,2.644,7.19,4.828,11.963,6.521v-45.551C162.876,371.301,158.769,373.619,156.21,377.034z"/>
<path fill="none" d="M1423.194,684.753c-14.854,6.156-31.805,2.785-43.179-8.589c-4.995-4.994-11.637-7.746-18.702-7.746
	c-7.064,0-13.708,2.752-18.702,7.746l-14.063,14.063c-3.677,3.675-8.563,5.381-13.377,5.16l-25.311,25.311
	c17.425,12.156,38.903,19.046,61.596,19.046c60.379,0,109.007-48.628,109.007-109.007c0-18.465-4.563-36.124-12.811-51.45v68.862
	C1447.652,664.229,1438.05,678.599,1423.194,684.753z"/>
<path fill="none" d="M1409.604,651.943c1.684-0.698,2.536-1.976,2.536-3.795V598.42l-36.244,36.244
	c10.72,2.577,20.881,8.037,29.231,16.387C1406.417,652.343,1407.919,652.64,1409.604,651.943z"/>
<path fill="none" d="M1351.455,521.326c-59.976,0-109.007,49.032-109.007,109.411c0,22.692,6.89,44.171,19.046,61.596
	l150.646-151.051v-1.521C1394.879,527.992,1373.759,521.326,1351.455,521.326z"/>
<path fill="none" d="M208.048,468.118c-2.032-1.439-5.742-3.463-12.456-5.807v0.003h0.001v52.8
	c8.594-1.654,14.551-5.652,18.104-12.114c2.477-4.475,3.676-9.467,3.676-15.284C217.374,478.854,214.41,472.625,208.048,468.118z"/>
<rect x="52.933" y="84.474" fill="none" width="440.34" height="120.89"/>
<path fill="#B3404A" d="M1412.14,539.762v1.521l0.909-0.912C1412.75,540.162,1412.441,539.967,1412.14,539.762z"/>
<path fill="#B3404A" d="M233.989,676.025c-19.738,19.737-51.857,19.737-71.596,0c-27.943-27.939-73.408-27.942-101.352,0.004
	c-1.492,1.485-3.236,1.832-5.177,1.027c-1.947-0.807-2.933-2.281-2.933-4.39V246.438h440.34v244.945
	c14.875,6.492,28.681,14.978,41.073,25.128V63.937c0.003-11.34-9.191-20.537-20.534-20.537H32.396
	c-11.342,0-20.536,9.197-20.536,20.537V672.67c0,18.603,11.104,35.219,28.29,42.336c17.185,7.113,36.786,3.218,49.938-9.936
	c5.776-5.777,13.46-8.961,21.631-8.961c8.171,0,15.854,3.184,21.63,8.961c17.878,17.878,41.359,26.814,64.843,26.814
	c20.983,0,41.952-7.156,58.934-21.428c-4.494-12.863-7.539-26.402-8.928-40.429C243.047,670.105,237.92,672.098,233.989,676.025z
	 M52.933,84.474h440.34v120.89H52.933V84.474z"/>
<path fill="#B3404A" d="M431.024,368.29H317.376c-11.343,0-20.536,9.196-20.536,20.536s9.193,20.538,20.536,20.538h113.647
	c11.344,0,20.538-9.198,20.538-20.538S442.367,368.29,431.024,368.29z"/>
<path fill="#B3404A" d="M296.84,501.779c0,7.871,4.434,14.703,10.937,18.149c21.364-18.597,47.26-32.121,75.805-38.686h-66.205
	C306.033,481.243,296.84,490.439,296.84,501.779z"/>
<path fill="#B3404A" d="M234.648,438.019c-7.579-5.241-20.384-10.435-39.056-15.831v-51.731c5.933,1.504,10.407,4.729,13.551,9.718
	c2.502,4.07,4.042,8.951,4.578,14.503c0.358,3.684,3.456,6.496,7.156,6.496h23.312c1.938,0,3.794-0.783,5.148-2.173
	c1.353-1.387,2.088-3.263,2.038-5.202c-0.439-16.952-6.184-30.92-17.075-41.515c-9.38-9.119-22.378-14.82-38.706-16.988v-11.079
	c0-3.969-3.218-7.187-7.187-7.187h-12.748c-3.969,0-7.187,3.218-7.187,7.187v11.012c-16.597,1.532-30.029,7.778-40.002,18.616
	c-11.143,12.13-16.792,26.108-16.792,41.542c0,17.29,5.454,31.07,16.175,40.923c9.108,8.492,22.755,14.85,40.618,18.936v58.902
	c-8.397-1.983-14.182-6.002-17.574-12.174c-1.799-3.293-4.128-10.084-5.002-23.749c-0.242-3.784-3.38-6.727-7.174-6.727h-23.537
	c-3.97,0-7.188,3.218-7.188,7.187c0,16.904,2.757,30.014,8.405,40.043c9.703,17.431,27.204,27.746,52.07,30.713v16.949
	c0,3.97,3.218,7.188,7.188,7.188h12.747c3.97,0,7.188-3.218,7.188-7.188v-17.2c14.15-2.14,25.478-5.905,33.756-11.233
	c17.702-11.468,26.605-30.569,26.459-56.729C255.807,462.284,248.691,447.747,234.648,438.019z M168.471,415.659
	c-4.773-1.692-8.783-3.876-11.963-6.521c-4.363-3.698-6.395-8.553-6.395-15.285c0-5.769,2.002-11.28,6.097-16.819
	c2.559-3.416,6.666-5.733,12.261-6.926V415.659z M213.698,503c-3.553,6.462-9.511,10.46-18.104,12.114v-52.8h-0.001v-0.003
	c6.714,2.344,10.424,4.367,12.456,5.807c6.362,4.507,9.326,10.736,9.326,19.598C217.374,493.533,216.175,498.525,213.698,503z"/>
<path fill="#D15241" d="M530.134,534.726c-10.98-8.993-23.21-16.512-36.388-22.263c-19.051-8.314-40.079-12.939-62.182-12.939
	c-12.033,0-23.748,1.369-35,3.957c-25.288,5.815-48.23,17.798-67.157,34.272c-32.805,28.554-53.552,70.608-53.552,117.48
	c0,5.231,0.263,10.401,0.768,15.499c1.23,12.428,3.928,24.423,7.91,35.817c21.227,60.763,79.061,104.393,147.031,104.393
	c85.952,0,155.708-69.757,155.708-155.709C587.273,606.674,565.005,563.287,530.134,534.726z M319.869,655.233
	c0-61.867,50.241-112.109,111.695-112.109c22.854,0,44.495,6.83,62.182,18.89c0.308,0.21,0.624,0.41,0.931,0.624l-0.931,0.935
	L339.385,718.348C326.931,700.493,319.869,678.485,319.869,655.233z M431.565,766.928c-23.252,0-45.26-7.061-63.114-19.516
	l25.936-25.935l62.223-62.22l37.138-37.139l29.999-29.999c2.319,3.325,4.453,6.796,6.389,10.395
	c8.45,15.703,13.125,33.799,13.125,52.719C543.259,717.101,493.432,766.928,431.565,766.928z"/>
</svg>
