<?xml version="1.0" encoding="utf-8"?>
<!-- Generator: Adobe Illustrator 16.0.2, SVG Export Plug-In . SVG Version: 6.00 Build 0)  -->
<!DOCTYPE svg PUBLIC "-//W3C//DTD SVG 1.1//EN" "http://www.w3.org/Graphics/SVG/1.1/DTD/svg11.dtd">
<svg version="1.1" id="Capa_1" xmlns="http://www.w3.org/2000/svg" xmlns:xlink="http://www.w3.org/1999/xlink" x="0px" y="0px"
	 width="657.991px" height="649.016px" viewBox="-1036.719 -569.997 657.991 649.016"
	 enable-background="new -1036.719 -569.997 657.991 649.016" xml:space="preserve">
<g>
	<polygon fill="#F64213" points="-739.079,-358.393 -1036.719,-358.393 -739.079,-61.916 	"/>
	<polygon fill="#ED2400" points="-441.439,-358.393 -739.079,-358.393 -739.079,-61.916 	"/>
	<polygon fill="#FFFF66" points="-511.198,-569.997 -739.079,-569.997 -785.585,-44.718 -511.198,-44.718 	"/>
	<rect x="-966.96" y="-569.997" fill="#FFFF66" width="227.881" height="525.277"/>
	<polygon fill="#093239" points="-615.838,-465.358 -739.079,-465.358 -762.332,-447.918 -739.079,-430.478 -615.838,-430.478 	"/>
	<rect x="-862.32" y="-465.358" fill="#093239" width="123.241" height="34.88"/>
	<polygon fill="#093239" points="-615.838,-395.598 -739.079,-395.598 -762.332,-378.158 -739.079,-360.719 -615.838,-360.719 	"/>
	<rect x="-862.32" y="-395.598" fill="#093239" width="123.241" height="34.879"/>
	<polygon fill="#093239" points="-615.838,-325.839 -739.079,-325.839 -762.332,-308.399 -739.079,-290.959 -615.838,-290.959 	"/>
	<rect x="-862.32" y="-325.839" fill="#093239" width="123.241" height="34.88"/>
	<polygon fill="#FF8151" points="-669.86,-166.555 -669.86,-85.169 -441.439,25.283 -441.439,-358.393 	"/>
	<polygon fill="#FF8151" points="-1036.719,-358.393 -1036.719,25.283 -808.298,-73.542 -808.298,-166.555 	"/>
	<polygon fill="#FF6126" points="-739.079,-108.422 -773.959,-41.569 -739.079,25.283 -441.439,25.283 -669.86,-166.555 	"/>
	<polygon fill="#FF6126" points="-808.298,-166.555 -1036.719,25.283 -739.079,25.283 -739.079,-108.422 	"/>
	<path fill-rule="evenodd" clip-rule="evenodd" fill="#FFFF66" d="M-500.048-148.62c-57.605,0.193-105.703,45.098-106.299,104.982
		c-0.571,57.432,44.687,105.766,104.709,106.414c58.01,0.627,106.151-45.225,106.546-105.074
		C-394.708-100.394-440.634-147.489-500.048-148.62z"/>
	<path fill-rule="evenodd" clip-rule="evenodd" fill="#093239" d="M-378.736-42.19C-379.811,27.192-434.76,79.56-501.62,79.015
		c-67.771-0.553-121.96-55.764-121.056-122.51c0.937-69.129,55.715-121.73,122.858-121.201
		C-432.014-164.165-377.948-108.97-378.736-42.19z M-500.048-148.62c-57.605,0.193-105.703,45.098-106.299,104.982
		c-0.571,57.432,44.687,105.766,104.709,106.414c58.01,0.627,106.151-45.225,106.546-105.074
		C-394.708-100.394-440.634-147.489-500.048-148.62z"/>
	<path fill-rule="evenodd" clip-rule="evenodd" fill="#093239" d="M-488.37-33.996c11.983,0,22.933-0.031,33.882,0.022
		c3.489,0.016,7.03-0.069,10.453,0.483c7.621,1.229,11.724,6.06,11.593,13.065c-0.135,7.131-4.356,12.396-12.019,12.589
		c-19.092,0.478-38.211,0.483-57.306,0.073c-8.063-0.174-12.866-5.715-12.955-14.677c-0.276-27.715-0.266-55.438-0.007-83.153
		c0.083-8.737,5.848-14.462,13.199-14.516c7.898-0.06,12.974,5.443,13.075,15.123c0.208,20.18,0.075,40.366,0.084,60.549
		C-488.369-41.296-488.37-38.153-488.37-33.996z"/>
</g>
</svg>
