<?xml version="1.0" encoding="utf-8"?>
<!-- Generator: Adobe Illustrator 16.0.2, SVG Export Plug-In . SVG Version: 6.00 Build 0)  -->
<!DOCTYPE svg PUBLIC "-//W3C//DTD SVG 1.1//EN" "http://www.w3.org/Graphics/SVG/1.1/DTD/svg11.dtd">
<svg version="1.1" id="Layer_1" xmlns="http://www.w3.org/2000/svg" xmlns:xlink="http://www.w3.org/1999/xlink" x="0px" y="0px"
	 width="299.538px" height="295.129px" viewBox="0 0 299.538 295.129" enable-background="new 0 0 299.538 295.129"
	 xml:space="preserve">
<path fill-rule="evenodd" clip-rule="evenodd" fill="#F4C223" d="M-1059.04,48.206c18.311-0.036,36.621-0.103,54.932-0.104
	c108.372-0.01,216.743-0.006,325.114-0.001c1.83,0,3.66,0.069,5.49,0.105c2.547,2.448,1.635,5.632,1.637,8.52
	c0.052,75.666,0.041,151.332,0.041,226.998c-0.001,7.667,0.057,15.333-0.021,22.999c-0.072,7.206-1.624,8.569-8.389,6.557
	c-15.001-4.463-30.243-6.086-45.896-5.846c-28.089,0.432-53.496,8.982-76.347,24.794c-31.524,21.813-51.539,51.663-59.357,89.323
	c-6.181,29.772-2.953,58.665,9.161,86.557c8.501,19.574,20.8,36.365,36.891,50.387c1.35,1.176,2.958,2.316,2.398,4.545
	c-39.197-0.027-78.394-0.056-117.59-0.083c-2.645-0.799-4.604-2.562-6.509-4.469c-33.55-33.576-67.128-67.124-100.67-100.708
	c-6.585-6.593-12.736-13.604-19.255-20.261c-2.225-2.271-3.369-4.89-3.312-8.068c0.027-1.497-0.019-2.997-0.019-4.496
	c0-122.577-0.008-245.155,0.043-367.732C-1060.696,54.174-1061.667,50.822-1059.04,48.206z"/>
<path fill-rule="evenodd" clip-rule="evenodd" fill="#12997D" d="M-728.092,558.564c-6.098-1.55-12.422-1.882-18.482-3.742
	c-44.749-13.74-73.088-43.154-81.557-89.266c-11.641-63.374,31.771-122.104,95.327-131.023
	c58.995-8.28,115.395,32.621,125.591,91.073c0.596,3.413,1.228,6.819,1.842,10.23c0.003,6.883,0.006,13.766,0.008,20.648
	c-0.328,14.931-4.275,28.964-11.416,41.954c-16.658,30.306-41.455,50.343-75.363,58.559c-5.033,1.22-10.231,0.757-15.299,1.591
	C-714.325,558.581-721.208,558.573-728.092,558.564z"/>
<g>
	<path fill-rule="evenodd" clip-rule="evenodd" fill="#FFFFFF" d="M-725.893,492.793c-3.049,0.618-6.094,1.251-9.146,1.843
		c-9.208,1.793-18.419,3.564-27.628,5.345c-0.224,0.042-0.449,0.181-0.673-0.003c-0.164-0.301,0.035-0.552,0.143-0.792
		c5.611-12.585,6.463-25.577,3.539-38.955c-1.205-5.505-2.329-11.049-3.1-16.629c-1.993-14.389,5.791-29.544,18.365-36.225
		c0.304-0.654,0.917-0.928,1.507-1.225c4.848-2.43,9.948-3.821,15.404-3.752c1.323,0.018,2.646-0.004,3.968,0.006
		c0.57,0.004,1.143-0.002,1.609,0.406c3.58,0.711,7.131,1.497,10.456,3.083c11.723,5.584,18.639,14.81,21.136,27.519
		c1.681,8.556,2.857,17.226,5.328,25.61c2.398,8.122,6.532,15.323,12.064,21.724c1.337,1.548,1.344,1.56-0.599,1.938
		c-10.888,2.123-21.776,4.235-32.667,6.351c-0.279,0.054-0.563,0.069-0.846,0.102c-0.863,0.622-1.854,0.834-2.886,1.029
		c-4.452,0.849-8.896,1.749-13.347,2.597C-724.148,492.932-725.013,493.087-725.893,492.793z"/>
	<path fill-rule="evenodd" clip-rule="evenodd" fill="#FFFFFF" d="M-721.906,402.813c-1.699,0-3.398,0.039-5.098-0.002
		c-6.239-0.156-11.966,1.615-17.39,4.566c0.033-1.485-0.441-2.893-0.689-4.332c-1.047-6.109,2.831-11.89,8.895-13.187
		c6.027-1.285,11.972,2.46,13.43,8.503C-722.406,399.83-722.186,401.328-721.906,402.813z"/>
	<path fill-rule="evenodd" clip-rule="evenodd" fill="#FFFFFF" d="M-725.893,492.793c6.286-1.218,12.573-2.437,18.859-3.654
		c-0.714,0.679-0.223,1.425-0.089,2.129c1.153,6.144-3.265,11.388-9.434,11.178c-4.033-0.137-7.597-3.258-8.495-7.362
		C-725.222,494.298-724.997,493.326-725.893,492.793z"/>
	<path fill-rule="evenodd" clip-rule="evenodd" fill="#FFFFFF" d="M-743.579,476.533c-0.283,4.035-1.144,7.728-3.103,11.106
		c-0.455,0.787-0.891,1.055-1.801,0.453c-2.645-1.744-2.654-1.692-1.318-4.471c1.84-3.821,1.874-7.807,0.993-11.863
		c-0.111-0.506-0.199-1.015-0.316-1.521c-0.095-0.411,0.1-0.661,0.458-0.744c0.963-0.227,1.936-0.413,2.904-0.613
		c0.802-0.166,1.099,0.313,1.255,0.981C-743.976,472.117-743.876,474.428-743.579,476.533z"/>
</g>
<path fill-rule="evenodd" clip-rule="evenodd" fill="#FFFFFF" d="M-785.267,183.266c-15.922,0-31.846-0.001-47.767,0
	c-12.44,0-12.43,0.001-12.427,11.748c0.003,41.093-0.137,82.188,0.154,123.28c0.042,5.97-1.806,7.442-7.612,7.169
	c-9.488-0.444-19.02-0.289-28.523-0.043c-4.336,0.111-6.413-1.156-6.356-5.582c0.228-17.559,0.398-35.118,0.429-52.677
	c0.02-11.69-0.339-23.38-0.341-35.072c-0.004-14.218,0.07-28.435,0.366-42.648c0.092-4.391-0.996-6.349-6.063-6.276
	c-18.133,0.258-36.272,0.101-54.283,0.101c-0.866-1.92,0.586-2.568,1.41-3.37c25.341-24.639,50.709-49.255,76.078-73.867
	c1.783-1.73,3.167-4.041,6.197-1.094c26.399,25.668,52.907,51.232,79.382,76.827C-784.839,182.263-785.053,182.764-785.267,183.266z
	"/>
</svg>
