<?xml version="1.0" encoding="utf-8"?>
<!-- Generator: Adobe Illustrator 16.0.2, SVG Export Plug-In . SVG Version: 6.00 Build 0)  -->
<!DOCTYPE svg PUBLIC "-//W3C//DTD SVG 1.1//EN" "http://www.w3.org/Graphics/SVG/1.1/DTD/svg11.dtd">
<svg version="1.1" id="Layer_1" xmlns="http://www.w3.org/2000/svg" xmlns:xlink="http://www.w3.org/1999/xlink" x="0px" y="0px"
	 width="413.858px" height="413.946px" viewBox="0 0 413.858 413.946" enable-background="new 0 0 413.858 413.946"
	 xml:space="preserve">
<g>
	<path fill-rule="evenodd" clip-rule="evenodd" fill="#3F4650" d="M155.744,401.993c-0.443,5.149-2.75,9.183-7.163,11.953
		c-2.333,0-4.667,0-7,0c-4.54-2.687-7.802-6.147-7.229-11.931C141.479,398.761,148.61,398.794,155.744,401.993z"/>
	<path fill-rule="evenodd" clip-rule="evenodd" fill="#3C434C" d="M201.581,413.946c-2.956-2.114-6.616-3.607-7.014-7.972
		c-1.365-3.195,0.683-4.295,3.17-4.646c4.573-0.646,9.201-0.646,13.776,0.006c2.594,0.37,4.374,1.652,3.134,4.739
		c-0.549,4.246-3.854,6.018-7.066,7.872C205.581,413.946,203.581,413.946,201.581,413.946z"/>
	<path fill-rule="evenodd" clip-rule="evenodd" fill="#3E454E" d="M262.581,413.946c-3.202-1.852-6.513-3.604-7.096-7.829
		c-1.061-2.672,0.143-4.248,2.67-4.673c4.907-0.822,9.875-0.812,14.78,0.004c1.755,0.292,3.698,1.014,2.726,3.626
		c-0.02,4.825-3.844,6.613-7.08,8.872C266.581,413.946,264.581,413.946,262.581,413.946z"/>
	<path fill-rule="evenodd" clip-rule="evenodd" fill="#ED5951" d="M190.666,214.823c-12.986-0.094-25.972-0.207-38.957-0.278
		c-13.573-0.074-19.044-4.863-19.726-18.231c-1.604-31.439-2.956-62.892-4.404-94.339c-1.064-23.127-2.116-46.255-3.187-69.382
		c-0.045-0.973,0.098-2.024-0.753-2.792c-3.882-6.986-1.178-15.881,3.959-20.431c2.679-2.374,4.655-5.142,6.105-8.354
		c3.244-0.835,6.537-1.02,9.883-1.017c40.972,0.036,81.943,0.012,122.915,0.027c12.697,0.005,19.548,6.761,19.013,19.542
		c-1.357,32.438-3.032,64.864-4.543,97.296c-1.207,25.946-2.388,51.895-3.524,77.845c-0.621,14.184-6.378,19.783-20.471,19.842
		c-12.814,0.054-25.628,0.191-38.442,0.292c-1.084,1.132-2.426,1.781-3.973,1.861c-6.645,0.346-13.293,0.35-19.938-0.002
		C193.08,216.621,191.733,215.981,190.666,214.823z"/>
	<path fill-rule="evenodd" clip-rule="evenodd" fill="#ED5951" d="M122.251,244.002c2.889-6.505,7.86-9.293,14.993-9.242
		c17.76,0.127,35.521-0.056,53.28-0.115c1.365-1.041,2.922-1.547,4.622-1.585c6.293-0.141,12.586-0.139,18.879-0.001
		c1.701,0.038,3.255,0.552,4.627,1.577c17.771,0.061,35.544,0.351,53.309,0.076c7.712-0.119,13.122,2.608,16.48,9.485
		c2.951,3.88,2.716,7.797,0.134,11.741c-3.449,7.3-9.23,10.067-17.235,9.929c-17.561-0.304-35.129-0.124-52.694-0.141
		c-9.025,1.75-18.054,1.696-27.085,0.042c-17.552,0-35.107-0.212-52.654,0.095c-8.036,0.14-13.727-2.737-17.166-9.994
		C118.927,251.347,119.07,247.998,122.251,244.002z"/>
	<path fill-rule="evenodd" clip-rule="evenodd" fill="#343C44" d="M191.561,265.768c2.488-2.004,5.432-1.069,8.095-0.939
		c6.328,0.309,12.756-1.264,18.989,0.897c-0.021,6.318-0.04,12.637-0.064,18.955c-0.007,1.981,0.301,3.984-2.582,4.522
		c-1.994,0.372-1.485,2.351-1.486,3.755c-0.026,23.612,0.038,47.225-0.068,70.836c-0.016,3.351,1.237,4.266,4.392,4.211
		c8.81-0.151,17.625-0.08,26.438-0.036c11.11,0.056,19.415,5.81,23.212,16.237c0.899,2.469,1.957,4.237,4.624,5.304
		c2.607,1.042,4.546,3.392,6.04,5.791c1.03,1.656,1.861,3.621,2.113,5.536c0.448,3.407-3.064,1.443-4.268,2.754
		c-0.449,0.489-0.89,0.986-1.333,1.481c-0.313-1.576-1.343-2.128-2.868-2.119c-4.808,0.026-9.616,0.05-14.423-0.005
		c-2.246-0.026-2.813,1.301-2.884,3.167c-5.381-8.734-5.077-10.649,3.421-16.759c2.31-1.661,1.912-3.326,0.818-5.084
		c-2.935-4.717-6.844-8.264-12.74-8.339c-11.463-0.146-22.93-0.001-34.393-0.148c-3.114-0.04-3.989,1.199-3.981,4.131
		c0.012,4.505-0.501,8.787,5.274,10.709c3.717,1.237,4.885,5.228,6.248,8.617c0.778,1.935,0.74,3.846-2.065,3.752
		c-2.319-0.078-2.367,1.972-3.421,3.078c-0.035-1.878-0.642-3.15-2.856-3.126c-4.771,0.053-9.544,0.053-14.315-0.007
		c-2.15-0.027-2.948,1.055-2.908,3.034c-0.211-2.577-4.748-2.561-3.446-6.296c1.388-3.983,3.599-7.038,7.155-9.236
		c3.636-2.246,5.793-9.517,4.091-13.194c-0.748-1.616-2.128-1.389-3.395-1.389c-11.659-0.004-23.32-0.074-34.978,0.112
		c-5.312,0.086-10.956,4.844-12.829,9.774c-0.846,2.228,0.172,2.981,1.794,3.836c2.714,1.429,4.849,3.556,6.391,6.167
		c2.543,4.305,1.478,6.061-3.607,6.244c-7.129,0.007-14.259,0.015-21.391,0.021c-3.608,0.072-3.104-2.335-2.468-4.447
		c1.21-4.017,3.862-6.996,7.61-8.809c2.25-1.089,3.452-2.557,4.312-4.988c3.564-10.084,11.663-15.68,22.44-15.79
		c8.65-0.089,17.306-0.145,25.953,0.028c3.28,0.066,4.308-1.073,4.294-4.312c-0.101-23.459-0.058-46.918-0.035-70.377
		c0.002-2.266,0.097-4.233-3.106-4.526c-2.372-0.217-1.649-2.534-1.673-4.062C191.581,278.412,191.591,272.089,191.561,265.768z"/>
	<path fill-rule="evenodd" clip-rule="evenodd" fill="#404751" d="M288.575,255.938c-0.045-3.914-0.09-7.828-0.135-11.741
		c7.038-0.282,7.046-0.282,7.047-7.439c0.003-21.988-0.005-43.976,0.007-65.964c0.002-2.322,0.393-4.788-2.763-5.501
		c4.442-3.327,14.362-3.307,18.702,0.038c-4.1,0.128-4.804,2.372-4.769,6.165c0.205,21.462,0.094,42.928,0.114,64.392
		c0.002,1.656,0.11,3.321,0.299,4.968c0.866,7.584-4.907,14.601-12.515,15.07C292.574,256.048,290.571,255.94,288.575,255.938z"/>
	<path fill-rule="evenodd" clip-rule="evenodd" fill="#ED5951" d="M311.434,165.33c-6.236-0.013-12.473-0.026-18.706-0.038
		c-7.471-2.284-10.396-7.216-9.069-15.299c0.946-5.765,5.4-9.029,12.38-9.054c3.995-0.015,7.99-0.019,11.985-0.006
		c7.354,0.021,11.719,3.019,12.64,8.654C322.031,157.962,319.175,162.835,311.434,165.33z"/>
	<path fill-rule="evenodd" clip-rule="evenodd" fill="#404751" d="M218.652,234.636c-9.377,0.003-18.753,0.006-28.128,0.009
		c0.048-6.607,0.095-13.215,0.142-19.822c9.289,0.007,18.579,0.014,27.868,0.021C218.573,221.441,218.613,228.039,218.652,234.636z"
		/>
	<path fill-rule="evenodd" clip-rule="evenodd" fill="#404751" d="M122.251,244.002c-1.227,3.91-0.646,7.898-0.511,11.867
		c-1.831,0.03-3.664,0.104-5.495,0.083c-8.985-0.104-14.757-5.681-14.787-14.625c-0.078-23.493-0.028-46.986-0.026-70.479
		c0-2.294,0.504-4.827-2.717-5.535c4.375-3.324,14.292-3.337,18.74-0.026c-3.862,0.269-4.912,2.177-4.867,6.117
		c0.242,21.123,0.113,42.25,0.109,63.376C112.697,244.241,112.694,244.241,122.251,244.002z"/>
	<path fill-rule="evenodd" clip-rule="evenodd" fill="#ED5951" d="M117.455,165.286c-6.249,0.008-12.498,0.017-18.744,0.025
		c-7.59-2.267-10.225-6.634-9.129-15.131c0.766-5.925,5.224-9.211,12.58-9.246c3.812-0.018,7.624-0.012,11.436,0
		c7.601,0.023,12.082,3.06,12.995,8.79C127.76,157.05,124.457,162.674,117.455,165.286z"/>
	<path fill-rule="evenodd" clip-rule="evenodd" fill="#FDFDFD" d="M189.708,89.759c-6.781,0.053-7.143-0.455-5.009-6.046
		c3.519-9.222,12.893-14.208,23.988-12.759c9.227,1.205,15.411,7.506,16.342,16.723c0.456,4.518-0.77,8.589-3.729,12.034
		c-2.273,2.646-4.578,5.292-7.113,7.677c-2.851,2.683-4.474,5.804-4.249,9.691c0.165,2.848-0.939,3.941-3.748,3.671
		c-1.815-0.174-3.656-0.078-5.486-0.095c-1.334-0.012-2.255-0.494-2.295-1.987c-0.144-5.326-0.659-10.68,4.16-14.695
		c3.06-2.549,5.994-5.302,8.666-8.252c3.589-3.962,2.814-10.34-1.323-13.274c-4.275-3.031-11.401-1.816-13.331,3.069
		C194.968,89.6,192.601,90.277,189.708,89.759z"/>
	<path fill-rule="evenodd" clip-rule="evenodd" fill="#FAF8F8" d="M212.134,135.717c-0.099,4.25-3.45,7.379-7.752,7.237
		c-4.297-0.142-7.252-3.419-7.056-7.826c0.182-4.067,3.35-7.112,7.387-7.098C208.826,128.045,212.23,131.571,212.134,135.717z"/>
</g>
</svg>
