<svg height="682pt" viewBox="-101 -21 682 682.66669" width="682pt" xmlns="http://www.w3.org/2000/svg"><path d="m475 640h-480v-508.28125l131.71875-131.71875h348.28125zm0 0" fill="#b3f4ef"/><path d="m127.003906 0h-.285156l-131.71875 131.71875v.28125h132.003906zm0 0" fill="#77e5e0"/><path d="m35 260h40v40h-40zm0 0" fill="#fff"/><path d="m35 180h40v40h-40zm0 0" fill="#fff"/><path d="m235 260c-77.203125 0-140 62.796875-140 140s62.796875 140 140 140 140-62.796875 140-140-62.796875-140-140-140zm-100 140c0-55.140625 44.859375-100 100-100 20.363281 0 39.28125 6.179688 55.097656 16.679688l-138.476562 138.300781c-10.457032-15.78125-16.621094-34.660157-16.621094-54.980469zm100 100c-20.320312 0-39.199219-6.164062-55-16.621094l138.300781-138.476562c10.519531 15.816406 16.699219 34.738281 16.699219 55.097656 0 55.140625-44.859375 100-100 100zm0 0" fill="#e76e54"/></svg>