<?xml version="1.0" encoding="utf-8"?>
<!-- Generator: Adobe Illustrator 16.0.2, SVG Export Plug-In . SVG Version: 6.00 Build 0)  -->
<!DOCTYPE svg PUBLIC "-//W3C//DTD SVG 1.1//EN" "http://www.w3.org/Graphics/SVG/1.1/DTD/svg11.dtd">
<svg version="1.1" id="Layer_1" xmlns="http://www.w3.org/2000/svg" xmlns:xlink="http://www.w3.org/1999/xlink" x="0px" y="0px"
	 width="251px" height="251px" viewBox="0 0 251 251" enable-background="new 0 0 251 251" xml:space="preserve">
<g>
	<path d="M230.161,146.128V45.077c0-13.459-10.949-24.409-24.409-24.409h-25.803V9.93c0-5.153-4.192-9.345-9.344-9.345
		c-5.154,0-9.345,4.192-9.345,9.345v10.74H79.528V9.93c0-5.153-4.192-9.345-9.344-9.345c-5.153,0-9.346,4.192-9.346,9.345v10.74
		H24.993c-13.459,0-24.408,10.949-24.408,24.408v160.678c0,13.458,10.949,24.406,24.408,24.406h121.135
		c11.331,12.789,27.455,20.084,44.562,20.084c32.838,0,59.557-26.718,59.557-59.556C250.246,173.586,242.95,157.462,230.161,146.128
		z M134.913,211.47l-109.92,0.002c-3.153,0-5.718-2.564-5.718-5.717V89.57h192.197v45.343c-6.651-2.51-13.616-3.778-20.782-3.778
		c-32.839,0-59.555,26.716-59.555,59.555C131.135,197.855,132.402,204.82,134.913,211.47z M190.689,231.557
		c-22.535,0-40.865-18.333-40.865-40.867c0-22.535,18.33-40.867,40.865-40.867c22.534,0,40.867,18.332,40.867,40.867
		C231.557,213.224,213.224,231.557,190.689,231.557z M60.838,41.418c-5.815,1.838-10.042,7.286-10.042,13.702
		c0,7.921,6.445,14.366,14.366,14.366s14.366-6.444,14.366-14.366V39.359h81.733v2.059c-5.814,1.838-10.042,7.286-10.042,13.702
		c0,7.921,6.444,14.366,14.366,14.366c7.92,0,14.364-6.444,14.364-14.366V39.359h25.803c3.154,0,5.72,2.564,5.72,5.718V70.88H19.274
		V45.077c0-3.153,2.565-5.718,5.718-5.718h35.845V41.418z"/>
	<path d="M222.404,169.021c-1.767-1.766-4.113-2.739-6.61-2.739c-2.494,0-4.84,0.972-6.607,2.737l-28.54,28.54l-8.455-8.454
		c-1.765-1.767-4.111-2.738-6.606-2.738c-2.496,0-4.843,0.972-6.609,2.737c-1.765,1.766-2.738,4.112-2.738,6.608
		s0.974,4.844,2.738,6.606l15.063,15.064c1.763,1.764,4.11,2.737,6.607,2.737c2.496,0,4.841-0.973,6.607-2.736l35.152-35.149
		C226.045,178.59,226.044,172.663,222.404,169.021z"/>
</g>
</svg>
