<?xml version="1.0" encoding="utf-8"?>
<!-- Generator: Adobe Illustrator 16.0.2, SVG Export Plug-In . SVG Version: 6.00 Build 0)  -->
<!DOCTYPE svg PUBLIC "-//W3C//DTD SVG 1.1//EN" "http://www.w3.org/Graphics/SVG/1.1/DTD/svg11.dtd">
<svg version="1.1" id="Layer_1" xmlns="http://www.w3.org/2000/svg" xmlns:xlink="http://www.w3.org/1999/xlink" x="0px" y="0px"
	 width="251px" height="251px" viewBox="0 0 251 251" enable-background="new 0 0 251 251" xml:space="preserve">
<g>
	<g>
		<g>
			<path d="M114.652,231.203H29.42c-3.167,0-6.052-1.467-7.918-4.026c-1.866-2.562-2.38-5.76-1.41-8.776
				c9.683-30.104,39.214-51.132,71.813-51.132c15.168,0,29.734,4.569,42.124,13.209c4.438,3.096,10.544,2.007,13.64-2.431
				s2.007-10.544-2.43-13.64c-6.133-4.277-12.687-7.767-19.54-10.432c9.12-8.291,15.169-19.901,16.221-32.902
				c13.826-13.47,31.953-20.851,51.382-20.851c15.169,0,29.735,4.567,42.125,13.209c4.438,3.095,10.544,2.007,13.64-2.431
				c3.094-4.438,2.007-10.544-2.431-13.639c-6.134-4.278-12.685-7.768-19.54-10.432c10.06-9.147,16.384-22.332,16.384-36.967
				C243.479,22.414,221.065,0,193.515,0c-27.55,0-49.962,22.414-49.962,49.964c0,14.576,6.272,27.713,16.262,36.856
				c-1.367,0.526-2.724,1.085-4.07,1.678c-6.13,2.698-11.896,6.009-17.255,9.905c-7.396-18.361-25.394-31.355-46.371-31.355
				c-27.55,0-49.963,22.414-49.963,49.964c0,14.533,6.237,27.636,16.174,36.776c-26.572,9.958-48.119,31.344-56.89,58.616
				c-2.909,9.044-1.368,18.636,4.229,26.314c5.596,7.677,14.252,12.081,23.753,12.081h85.231c5.411,0,9.797-4.386,9.797-9.798
				C124.449,235.591,120.063,231.203,114.652,231.203z M193.517,19.593c16.746,0,30.37,13.624,30.37,30.37
				s-13.624,30.37-30.37,30.37c-16.745,0-30.371-13.624-30.371-30.37S176.771,19.593,193.517,19.593z M92.12,86.64
				c16.746,0,30.37,13.624,30.37,30.37c0,16.746-13.624,30.37-30.37,30.37c-16.747,0-30.37-13.624-30.37-30.37
				C61.75,100.264,75.373,86.64,92.12,86.64z"/>
			<path d="M246.732,160.021c-4.399-3.149-10.519-2.136-13.669,2.264l-48.287,67.451c-1.32,1.529-2.973,1.859-3.858,1.917
				c-0.91,0.063-2.681-0.055-4.197-1.5l-31.263-30.018c-3.903-3.748-10.104-3.621-13.851,0.282
				c-3.748,3.902-3.622,10.104,0.28,13.851l31.294,30.048c4.686,4.462,10.942,6.943,17.378,6.943c0.554,0,1.108-0.018,1.662-0.055
				c7.012-0.468,13.56-3.877,17.961-9.355c0.114-0.142,0.224-0.286,0.331-0.435l48.483-67.724
				C252.146,169.291,251.133,163.171,246.732,160.021z"/>
		</g>
	</g>
</g>
</svg>
