<?xml version="1.0" encoding="utf-8"?>
<!-- Generator: Adobe Illustrator 16.0.2, SVG Export Plug-In . SVG Version: 6.00 Build 0)  -->
<!DOCTYPE svg PUBLIC "-//W3C//DTD SVG 1.1//EN" "http://www.w3.org/Graphics/SVG/1.1/DTD/svg11.dtd">
<svg version="1.1" id="Layer_1" xmlns="http://www.w3.org/2000/svg" xmlns:xlink="http://www.w3.org/1999/xlink" x="0px" y="0px"
	 width="346.703px" height="427.001px" viewBox="8 -0.001 346.703 427.001" enable-background="new 8 -0.001 346.703 427.001"
	 xml:space="preserve">
<path fill="#FFFFFF" d="M308.603,62.301c15.465,0,28,12.535,28,28s-12.535,28-28,28H38.2c-15.461,0-28-12.535-28-28s12.539-28,28-28
	H308.603z"/>
<path fill="#EF8075" d="M308.001,118.703V373.5c0,25.09-17.911,43-40.001,43H78.801c-22.09,0-40-17.91-40-43V118.301h269.2V118.703z
	"/>
<path fill="#061119" d="M131.403,154.703c-5.523,0-10,4.477-10,10v189c0,5.52,4.477,10,10,10c5.52,0,10-4.48,10-10v-189
	C141.403,159.18,136.922,154.703,131.403,154.703z"/>
<path fill="#061119" d="M36.403,127.121V373.5c0,14.563,5.336,28.234,14.668,38.051c9.281,9.84,22.203,15.426,35.73,15.449H276
	c13.527-0.023,26.449-5.609,35.73-15.449c9.333-9.816,14.673-23.488,14.673-38.051V127.133c6.504-1.816,12.445-5.246,17.277-9.969
	c10.813-10.965,14-27.348,8.09-41.57S332.005,52.074,316.603,52h-51.2V39.5c0.059-10.512-4.098-20.605-11.543-28.031
	C246.418,4.047,236.313-0.086,225.801,0H137c-10.512-0.086-20.617,4.047-28.059,11.469c-7.445,7.426-11.602,17.52-11.539,28.031V52
	H46.2C25.184,52.219,8.204,69.211,8,90.227C8.102,107.512,19.719,122.605,36.403,127.121z M276,407H86.801
	c-17.102,0-30.398-14.688-30.398-33.5V128h250v245.5C306.402,392.313,293.102,407,276,407z M117.403,39.5
	c-0.066-5.207,1.98-10.219,5.672-13.895C126.77,21.93,131.793,19.91,137,20h88.8c5.207-0.09,10.23,1.93,13.926,5.605
	c3.691,3.672,5.738,8.688,5.676,13.895V52h-128V39.5z M33.465,77.43C36.821,74,41.403,72.047,46.2,72h270.403
	c9.965,0.082,18,8.188,18,18.152c-0.004,4.758-1.906,9.316-5.285,12.668c-3.383,3.352-7.957,5.215-12.715,5.18H46.2
	c-9.922,0.023-17.98-8.004-18-17.922C28.192,85.324,30.086,80.77,33.465,77.43z"/>
<path fill="#061119" d="M230.402,154.703c-5.523,0-10,4.477-10,10v189c0,5.52,4.477,10,10,10c5.52,0,10-4.48,10-10v-189
	C240.402,159.18,235.922,154.703,230.402,154.703z"/>
</svg>
