<?xml version="1.0"?>
<svg xmlns="http://www.w3.org/2000/svg" height="512px" viewBox="-32 0 392 392.00001" width="512px" class=""><g><path d="m231.984375 336h-224v-240h88v-88h136zm0 0" fill="#e4e4e2" data-original="#E4E4E2" class=""/><path d="m95.984375 96h-88l88-88zm0 0" fill="#ebebeb" data-original="#EBEBEB" class=""/><path d="m280.785156 384h-97.601562c-8.53125.011719-15.574219-6.675781-16-15.199219l-7.199219-136.800781h144l-7.199219 136.800781c-.429687 8.523438-7.46875 15.210938-16 15.199219zm0 0" fill="#8aced8" data-original="#8ACED8" class="active-path" style="fill:#D61A1A" data-old_color="#8aced8"/><g fill="#6fbbc6"><path d="m231.984375 360c-4.417969 0-8-3.582031-8-8v-80c0-4.417969 3.582031-8 8-8s8 3.582031 8 8v80c0 4.417969-3.582031 8-8 8zm0 0" data-original="#6FBBC6" class="" data-old_color="#6FBBC6" style="fill:#E81111"/><path d="m199.984375 360c-4.417969 0-8-3.582031-8-8v-80c0-4.417969 3.582031-8 8-8s8 3.582031 8 8v80c0 4.417969-3.582031 8-8 8zm0 0" data-original="#6FBBC6" class="" data-old_color="#6FBBC6" style="fill:#E81111"/><path d="m263.984375 360c-4.417969 0-8-3.582031-8-8v-80c0-4.417969 3.582031-8 8-8s8 3.582031 8 8v80c0 4.417969-3.582031 8-8 8zm0 0" data-original="#6FBBC6" class="" data-old_color="#6FBBC6" style="fill:#E81111"/></g><path d="m151.984375 200h160c4.417969 0 8 3.582031 8 8v16c0 4.417969-3.582031 8-8 8h-160c-4.417969 0-8-3.582031-8-8v-16c0-4.417969 3.582031-8 8-8zm0 0" fill="#8aced8" data-original="#8ACED8" class="active-path" style="fill:#D61A1A" data-old_color="#8aced8"/><path d="m295.984375 200h-128l6.488281-25.945312c.890625-3.558594 4.089844-6.054688 7.757813-6.054688h99.503906c3.671875 0 6.871094 2.496094 7.761719 6.054688zm0 0" fill="#6fbbc6" data-original="#6FBBC6" class="" data-old_color="#6fbbc6" style="fill:#E81111"/><path d="m303.144531 248 .839844-16h-144l.839844 16zm0 0" fill="#6fbbc6" data-original="#6FBBC6" class="" data-old_color="#6fbbc6" style="fill:#E81111"/><path d="m231.984375 360c4.417969 0 8-3.582031 8-8v-80c0-4.417969-3.582031-8-8-8s-8 3.582031-8 8v80c0 4.417969 3.582031 8 8 8zm0 0" data-original="#000000" class=""/><path d="m199.984375 360c4.417969 0 8-3.582031 8-8v-80c0-4.417969-3.582031-8-8-8s-8 3.582031-8 8v80c0 4.417969 3.582031 8 8 8zm0 0" data-original="#000000" class=""/><path d="m263.984375 360c4.417969 0 8-3.582031 8-8v-80c0-4.417969-3.582031-8-8-8s-8 3.582031-8 8v80c0 4.417969 3.582031 8 8 8zm0 0" data-original="#000000" class=""/><path d="m231.984375 0h-136c-.160156 0-.296875.078125-.457031.0898438-.746094.0429682-1.480469.1914062-2.183594.4453122-.238281.070313-.472656.152344-.703125.25-.851563.378906-1.632813.90625-2.304687 1.550782l-88 88c-.644532.664062-1.167969 1.4375-1.542969 2.28125-.113281.246093-.175781.496093-.265625.75-.238282.683593-.382813 1.390624-.4296878 2.113281 0 .175781-.0976562.320312-.0976562.496093v240.023438c0 4.417969 3.582031 8 8 8h149.871094l2.113281 40.425781c.226563 4.25 3.742187 7.582031 8 7.574219h128c4.257813.007812 7.773437-3.324219 8-7.574219l7.589844-144.425781h8.410156c4.417969 0 8-3.582031 8-8v-32c0-4.417969-3.582031-8-8-8h-17.753906l-6.488281-25.945312c-.890626-3.558594-4.089844-6.054688-7.757813-6.054688h-48v-152c0-4.417969-3.582031-8-8-8zm-144 27.3125v60.6875h-60.6875zm-72 300.6875v-224h80c4.417969 0 8-3.582031 8-8v-80h120v144h-48c-3.667969 0-6.867187 2.496094-7.761719 6.054688l-6.488281 25.945312h-17.75c-4.417969 0-8 3.582031-8 8v32c0 4.417969 3.582031 8 8 8h8.40625l4.632813 88zm272.40625 48h-112.796875l-7.160156-136h127.117187zm7.59375-168h16v16h-160v-16zm-14.25-32 4 16h-107.503906l4-16zm0 0" data-original="#000000" class=""/></g> </svg>
