<?xml version="1.0" encoding="utf-8"?>
<!-- Generator: Adobe Illustrator 16.0.2, SVG Export Plug-In . SVG Version: 6.00 Build 0)  -->
<!DOCTYPE svg PUBLIC "-//W3C//DTD SVG 1.1//EN" "http://www.w3.org/Graphics/SVG/1.1/DTD/svg11.dtd">
<svg version="1.1" id="Capa_1" xmlns="http://www.w3.org/2000/svg" xmlns:xlink="http://www.w3.org/1999/xlink" x="0px" y="0px"
	 width="612px" height="792px" viewBox="0 0 612 792" enable-background="new 0 0 612 792" xml:space="preserve">
<g>
	<path fill="#E9E9E0" d="M404.193,90H87.024c-8.831,0-15.989,7.158-15.989,21.048v580.023c0,3.771,7.158,10.929,15.989,10.929
		h437.951c8.83,0,15.989-7.158,15.989-10.929v-459.24c0-7.606-1.017-10.054-2.81-11.857L410.991,92.809
		C409.188,91.017,406.739,90,404.193,90z"/>
	<polygon fill="#D9D7CA" points="409.821,91.65 409.821,221.143 539.314,221.143 	"/>
	<path fill="#A6ABBC" d="M202.179,232.071h-65.572c-6.032,0-10.928-4.896-10.928-10.928c0-6.033,4.896-10.929,10.928-10.929h65.572
		c6.032,0,10.928,4.896,10.928,10.929C213.107,227.175,208.211,232.071,202.179,232.071z"/>
	<path fill="#A6ABBC" d="M234.964,286.714h-98.357c-6.032,0-10.928-4.896-10.928-10.929c0-6.033,4.896-10.928,10.928-10.928h98.357
		c6.033,0,10.929,4.896,10.929,10.928C245.893,281.817,240.997,286.714,234.964,286.714z"/>
	<path fill="#A6ABBC" d="M278.679,286.714c-2.842,0-5.683-1.202-7.759-3.169c-1.967-2.076-3.169-4.918-3.169-7.759
		c0-2.841,1.202-5.683,3.169-7.759c4.043-4.043,11.475-4.043,15.519,0c1.967,2.077,3.169,4.918,3.169,7.759
		c0,2.841-1.202,5.683-3.169,7.759C284.361,285.512,281.52,286.714,278.679,286.714z"/>
	<path fill="#A6ABBC" d="M409.308,286.574h-86.972c-6.001,0-10.872-4.871-10.872-10.872c0-6,4.871-10.871,10.872-10.871h86.972
		c6.001,0,10.872,4.87,10.872,10.871S415.309,286.574,409.308,286.574z"/>
	<path fill="#A6ABBC" d="M136.607,450.643c-2.841,0-5.683-1.201-7.759-3.169c-1.967-2.075-3.169-4.918-3.169-7.76
		c0-2.841,1.202-5.683,3.169-7.759c4.044-4.044,11.475-4.044,15.519,0c1.967,2.076,3.169,4.809,3.169,7.759
		c0,2.842-1.202,5.685-3.169,7.76C142.29,449.44,139.449,450.643,136.607,450.643z"/>
	<path fill="#A6ABBC" d="M267.75,450.643h-87.429c-6.032,0-10.928-4.896-10.928-10.929c0-6.032,4.896-10.928,10.928-10.928h87.429
		c6.033,0,10.929,4.896,10.929,10.928C278.679,445.747,273.783,450.643,267.75,450.643z"/>
	<path fill="#A6ABBC" d="M475.393,286.714h-21.855c-6.033,0-10.929-4.896-10.929-10.929c0-6.033,4.896-10.928,10.929-10.928h21.855
		c6.033,0,10.93,4.896,10.93,10.928C486.322,281.817,481.426,286.714,475.393,286.714z"/>
	<path fill="#A6ABBC" d="M377.036,341.357H136.607c-6.032,0-10.928-4.896-10.928-10.928c0-6.033,4.896-10.929,10.928-10.929h240.429
		c6.032,0,10.928,4.896,10.928,10.929C387.964,336.461,383.068,341.357,377.036,341.357z"/>
	<path fill="#A6ABBC" d="M475.393,341.357h-65.57c-6.032,0-10.93-4.896-10.93-10.928c0-6.033,4.896-10.929,10.93-10.929h65.57
		c6.033,0,10.93,4.896,10.93,10.929C486.321,336.461,481.426,341.357,475.393,341.357z"/>
	<path fill="#A6ABBC" d="M180.321,396h-43.714c-6.032,0-10.928-4.896-10.928-10.929c0-6.032,4.896-10.928,10.928-10.928h43.714
		c6.033,0,10.929,4.896,10.929,10.928C191.25,391.104,186.354,396,180.321,396z"/>
	<path fill="#A6ABBC" d="M333.321,396H224.036c-6.033,0-10.929-4.896-10.929-10.929c0-6.032,4.896-10.928,10.929-10.928h109.286
		c6.031,0,10.929,4.896,10.929,10.928C344.25,391.104,339.354,396,333.321,396z"/>
	<path fill="#A6ABBC" d="M475.393,396h-98.355c-6.033,0-10.929-4.896-10.929-10.929c0-6.032,4.896-10.928,10.929-10.928h98.355
		c6.033,0,10.93,4.896,10.93,10.928C486.321,391.104,481.426,396,475.393,396z"/>
	<path fill="#285293" d="M524.976,702H87.024c-8.831,0-15.989-7.158-15.989-15.988V516.214h469.928v169.798
		C540.964,694.842,533.806,702,524.976,702z"/>
	<g>
		<path fill="#FFFFFF" d="M204.821,611.096c0,9.062-0.973,16.81-2.918,23.234c-1.945,6.425-4.404,11.803-7.398,16.142
			c-2.994,4.34-6.35,7.748-10.087,10.24c-3.738,2.491-7.344,4.351-10.831,5.606c-3.486,1.246-6.677,2.044-9.563,2.394
			c-2.885,0.327-5.027,0.502-6.415,0.502h-41.682V559.098h33.158c9.267,0,17.409,1.477,24.425,4.404
			c7.016,2.928,12.852,6.854,17.485,11.727c4.634,4.875,8.087,10.438,10.382,16.655
			C203.674,598.113,204.821,604.518,204.821,611.096z M151.632,656.067c12.153,0,20.917-3.88,26.294-11.65
			c5.377-7.771,8.065-19.026,8.065-33.769c0-4.579-0.546-9.115-1.64-13.597c-1.104-4.479-3.213-8.535-6.349-12.174
			c-3.137-3.64-7.399-6.579-12.776-8.819c-5.376-2.239-12.349-3.365-20.917-3.365H133.85v83.374H151.632L151.632,656.067z"/>
		<path fill="#FFFFFF" d="M313.834,613.632c0,9.269-1.169,17.431-3.508,24.502c-2.339,7.07-5.585,12.95-9.716,17.628
			c-4.132,4.688-8.962,8.219-14.491,10.611c-5.53,2.394-11.584,3.584-18.152,3.584c-6.567,0-12.623-1.19-18.152-3.584
			c-5.53-2.394-10.36-5.924-14.491-10.611c-4.131-4.688-7.377-10.558-9.716-17.628c-2.338-7.07-3.508-15.246-3.508-24.502
			c0-9.257,1.169-17.409,3.508-24.426c2.339-7.027,5.574-12.874,9.716-17.551c4.131-4.688,8.961-8.24,14.491-10.688
			c5.529-2.448,11.584-3.661,18.152-3.661c6.568,0,12.622,1.213,18.152,3.661c5.529,2.448,10.359,6,14.491,10.688
			c4.131,4.688,7.365,10.534,9.716,17.551C312.653,596.223,313.834,604.364,313.834,613.632z M267.508,655.324
			c3.684,0,7.191-0.723,10.535-2.164c3.333-1.442,6.327-3.814,8.961-7.093c2.634-3.289,4.711-7.596,6.197-12.93
			c1.485-5.333,2.283-11.823,2.393-19.496c-0.098-7.476-0.874-13.823-2.315-19.049c-1.442-5.233-3.433-9.54-5.979-12.928
			c-2.547-3.389-5.432-5.825-8.667-7.322c-3.233-1.498-6.645-2.24-10.24-2.24c-3.683,0-7.2,0.688-10.534,2.087
			c-3.345,1.398-6.327,3.761-8.961,7.094c-2.645,3.344-4.71,7.639-6.197,12.929c-1.486,5.289-2.295,11.748-2.393,19.42
			c0.098,7.476,0.874,13.847,2.317,19.125c1.442,5.278,3.431,9.584,5.978,12.929c2.546,3.345,5.432,5.771,8.667,7.321
			C260.514,654.548,263.923,655.324,267.508,655.324z"/>
		<path fill="#FFFFFF" d="M413.634,658.013c-4.088,3.979-8.721,6.974-13.891,8.961c-5.18,2-10.754,2.983-16.731,2.983
			c-6.579,0-12.622-1.19-18.151-3.584c-5.529-2.395-10.36-5.924-14.491-10.612c-4.131-4.688-7.377-10.557-9.716-17.627
			c-2.339-7.071-3.509-15.246-3.509-24.502c0-9.257,1.17-17.409,3.509-24.426c2.339-7.027,5.573-12.874,9.716-17.551
			c4.131-4.688,8.982-8.24,14.566-10.688c5.574-2.448,11.606-3.661,18.076-3.661c5.979,0,11.553,0.994,16.731,2.983
			c5.181,2,9.803,4.982,13.891,8.962l-12.403,11.06c-2.491-2.896-5.258-4.982-8.296-6.272c-3.038-1.289-6.195-1.945-9.484-1.945
			c-3.685,0-7.202,0.688-10.535,2.088c-3.345,1.398-6.328,3.759-8.962,7.093c-2.646,3.345-4.71,7.64-6.196,12.929
			c-1.486,5.29-2.295,11.749-2.394,19.42c0.099,7.476,0.874,13.847,2.316,19.125s3.433,9.585,5.979,12.929
			c2.547,3.345,5.432,5.771,8.666,7.322c3.234,1.552,6.645,2.316,10.239,2.316c3.596,0,6.951-0.655,10.088-1.944
			c3.137-1.29,6-3.39,8.59-6.273L413.634,658.013z"/>
	</g>
	<path fill="#FFFFFF" d="M483.842,613.719l27.944,53.495h-20.765l-17.486-41.539h-1.497l-18.819,41.539h-20.765l27.944-53.495
		l-29.736-56.632h20.469l19.42,44.829h1.497l21.071-44.829h20.469L483.842,613.719z"/>
</g>
</svg>
