<svg xmlns="http://www.w3.org/2000/svg" height="511pt" version="1.1" viewBox="-53 1 511 511.99906" width="511pt">
<g id="surface1">
<path d="M 276.410156 3.957031 C 274.0625 1.484375 270.84375 0 267.507812 0 L 67.777344 0 C 30.921875 0 0.5 30.300781 0.5 67.152344 L 0.5 444.84375 C 0.5 481.699219 30.921875 512 67.777344 512 L 338.863281 512 C 375.71875 512 406.140625 481.699219 406.140625 444.84375 L 406.140625 144.941406 C 406.140625 141.726562 404.65625 138.636719 402.554688 136.285156 Z M 279.996094 43.65625 L 364.464844 132.328125 L 309.554688 132.328125 C 293.230469 132.328125 279.996094 119.21875 279.996094 102.894531 Z M 338.863281 487.265625 L 67.777344 487.265625 C 44.652344 487.265625 25.234375 468.097656 25.234375 444.84375 L 25.234375 67.152344 C 25.234375 44.027344 44.527344 24.734375 67.777344 24.734375 L 255.261719 24.734375 L 255.261719 102.894531 C 255.261719 132.945312 279.503906 157.0625 309.554688 157.0625 L 381.40625 157.0625 L 381.40625 444.84375 C 381.40625 468.097656 362.113281 487.265625 338.863281 487.265625 Z M 338.863281 487.265625 " style=" stroke:none;fill-rule:nonzero;fill:#77e5e0;fill-opacity:1;" />
<path d="M 305.101562 401.933594 L 101.539062 401.933594 C 94.738281 401.933594 89.171875 407.496094 89.171875 414.300781 C 89.171875 421.101562 94.738281 426.667969 101.539062 426.667969 L 305.226562 426.667969 C 312.027344 426.667969 317.59375 421.101562 317.59375 414.300781 C 317.59375 407.496094 312.027344 401.933594 305.101562 401.933594 Z M 305.101562 401.933594 " style=" stroke:none;fill-rule:nonzero;fill:#b3f4ef;fill-opacity:1;" />
<path d="M 282.347656 204.304688 L 304.730469 181.921875 C 309.554688 177.097656 309.554688 169.304688 304.730469 164.484375 C 299.90625 159.660156 292.117188 159.660156 287.292969 164.484375 L 260.457031 191.320312 C 243.140625 182.664062 223.851562 176.726562 203.320312 176.726562 C 128.375 176.726562 70.125 255.382812 67.652344 258.722656 C 64.4375 263.050781 64.4375 268.984375 67.652344 273.3125 C 69.136719 275.292969 90.78125 304.601562 124.171875 327.605469 L 101.785156 349.988281 C 96.960938 354.8125 96.960938 362.605469 101.785156 367.429688 C 104.257812 369.902344 107.351562 371.015625 110.566406 371.015625 C 113.78125 371.015625 116.875 369.777344 119.347656 367.429688 L 146.183594 340.589844 C 163.5 349.246094 182.792969 355.183594 203.320312 355.183594 C 278.265625 355.183594 336.515625 276.527344 338.988281 273.191406 C 342.203125 268.859375 342.203125 262.925781 338.988281 258.597656 C 337.503906 256.617188 315.738281 227.308594 282.347656 204.304688 Z M 93.5 265.894531 C 108.960938 247.589844 152.988281 201.335938 203.320312 201.335938 C 216.800781 201.335938 229.664062 204.675781 241.78125 209.871094 L 235.476562 216.179688 C 226.199219 210.117188 215.070312 206.65625 203.195312 206.65625 C 170.546875 206.65625 143.835938 233.246094 143.835938 266.019531 C 143.835938 277.890625 147.421875 289.019531 153.355469 298.296875 L 141.855469 309.796875 C 119.59375 294.957031 102.15625 276.035156 93.5 265.894531 Z M 237.949219 265.894531 C 237.949219 284.9375 222.488281 300.519531 203.320312 300.519531 C 198.25 300.519531 193.550781 299.410156 189.222656 297.554688 L 234.855469 251.917969 C 236.835938 256.125 237.949219 260.824219 237.949219 265.894531 Z M 168.691406 265.894531 C 168.691406 246.847656 184.152344 231.265625 203.320312 231.265625 C 208.390625 231.265625 213.089844 232.378906 217.417969 234.234375 L 171.785156 279.867188 C 169.804688 275.664062 168.691406 270.964844 168.691406 265.894531 Z M 203.320312 330.449219 C 189.839844 330.449219 176.976562 327.109375 164.859375 321.917969 L 171.167969 315.609375 C 180.441406 321.667969 191.570312 325.132812 203.445312 325.132812 C 236.09375 325.132812 262.808594 298.542969 262.808594 265.769531 C 262.808594 253.894531 259.21875 242.765625 253.285156 233.492188 L 264.785156 221.988281 C 287.292969 236.707031 304.730469 255.503906 313.386719 265.769531 C 297.683594 284.195312 253.65625 330.449219 203.320312 330.449219 Z M 203.320312 330.449219 " style=" stroke:none;fill-rule:nonzero;fill:#b3f4ef;fill-opacity:1;" />
</g>
</svg>