<?xml version="1.0" encoding="utf-8"?>
<!-- Generator: Adobe Illustrator 16.0.2, SVG Export Plug-In . SVG Version: 6.00 Build 0)  -->
<!DOCTYPE svg PUBLIC "-//W3C//DTD SVG 1.1//EN" "http://www.w3.org/Graphics/SVG/1.1/DTD/svg11.dtd">
<svg version="1.1" id="Layer_1" xmlns="http://www.w3.org/2000/svg" xmlns:xlink="http://www.w3.org/1999/xlink" x="0px" y="0px"
	 width="251px" height="251px" viewBox="0 0 251 251" enable-background="new 0 0 251 251" xml:space="preserve">
<g>
	<g>
		<path d="M184.195,125.945c-4.823-2.293-9.744-4.268-14.752-5.922c16.218-12.173,26.729-31.558,26.729-53.351
			C196.172,29.909,166.264,0,129.5,0C92.737,0,62.828,29.909,62.828,66.672c0,21.817,10.534,41.221,26.783,53.392
			c-14.888,4.901-28.857,12.528-41.083,22.584c-22.419,18.44-38.007,44.162-43.892,72.429c-1.844,8.856,0.365,17.953,6.061,24.957
			C16.365,247.003,24.769,251,33.754,251h120.748c5.415,0,9.805-4.391,9.805-9.805c0-5.415-4.39-9.805-9.805-9.805H33.754
			c-4.186,0-6.711-2.336-7.843-3.729c-1.956-2.404-2.712-5.535-2.077-8.589c10.175-48.874,53.284-84.575,103.066-85.779
			c0.863,0.033,1.729,0.05,2.6,0.05c0.879,0,1.754-0.018,2.625-0.051c15.256,0.356,29.93,3.84,43.652,10.363
			c4.891,2.323,10.738,0.243,13.063-4.646S189.086,128.271,184.195,125.945z M131.893,113.674c-0.797-0.014-1.594-0.021-2.393-0.021
			c-0.791,0-1.582,0.008-2.373,0.022c-24.852-1.24-44.689-21.848-44.689-47.003c0-25.951,21.112-47.063,47.063-47.063
			s47.063,21.112,47.063,47.063C176.563,91.82,156.734,112.425,131.893,113.674z"/>
	</g>
</g>
<g>
	<g>
		<path d="M227.493,171.496l-19.065,19.064l-19.064-19.064c-3.829-3.829-10.037-3.829-13.866,0s-3.829,10.037,0,13.865
			l19.065,19.065l-19.065,19.065c-3.829,3.828-3.829,10.037,0,13.865c3.829,3.83,10.037,3.83,13.866,0l19.064-19.064l19.065,19.064
			c3.829,3.83,10.036,3.83,13.866,0c3.828-3.828,3.828-10.037,0-13.865l-19.065-19.065l19.065-19.065
			c3.828-3.828,3.828-10.036,0-13.865C237.529,167.667,231.322,167.667,227.493,171.496z"/>
	</g>
</g>
</svg>
