<?xml version="1.0" encoding="utf-8"?>
<!-- Generator: Adobe Illustrator 16.0.2, SVG Export Plug-In . SVG Version: 6.00 Build 0)  -->
<!DOCTYPE svg PUBLIC "-//W3C//DTD SVG 1.1//EN" "http://www.w3.org/Graphics/SVG/1.1/DTD/svg11.dtd">
<svg version="1.1" id="Capa_1" xmlns="http://www.w3.org/2000/svg" xmlns:xlink="http://www.w3.org/1999/xlink" x="0px" y="0px"
	 width="612px" height="792px" viewBox="0 0 612 792" enable-background="new 0 0 612 792" xml:space="preserve">
<g>
	<path fill="#E9E9E0" d="M404.193,90H87.024c-8.831,0-15.989,7.158-15.989,21.048v580.023c0,3.771,7.158,10.929,15.989,10.929
		h437.951c8.83,0,15.989-7.158,15.989-10.929v-459.24c0-7.606-1.017-10.054-2.81-11.857L410.991,92.809
		C409.188,91.017,406.739,90,404.193,90z"/>
	<polygon fill="#D9D7CA" points="409.821,91.65 409.821,221.143 539.314,221.143 	"/>
	<path fill="#890FD8" d="M524.976,702H87.024c-8.831,0-15.989-7.158-15.989-15.988V516.214h469.928v169.798
		C540.964,694.842,533.806,702,524.976,702z"/>
	<g>
		<path fill="#FFFFFF" d="M186.015,556.857v85.768c0,5.181-0.951,9.541-2.841,13.07c-1.891,3.53-4.426,6.372-7.617,8.514
			c-3.191,2.142-6.852,3.64-10.983,4.48c-4.131,0.842-8.393,1.268-12.775,1.268c-2.186,0-4.765-0.229-7.694-0.677
			c-2.929-0.448-5.978-1.137-9.114-2.088c-3.137-0.951-6.153-2.021-9.038-3.213s-5.322-2.535-7.322-4.032l7.617-12.099
			c0.994,0.688,2.415,1.421,4.262,2.164c1.847,0.743,3.869,1.442,6.055,2.088c2.186,0.645,4.48,1.213,6.874,1.716
			c2.394,0.502,4.634,0.743,6.721,0.743c5.278,0,9.486-1.027,12.623-3.061c3.136-2.032,4.797-5.508,5.005-10.382v-84.271h18.229
			V556.857z"/>
		<path fill="#FFFFFF" d="M275.225,639.029c0,3.979-0.82,7.847-2.47,11.585c-1.65,3.737-3.956,7.026-6.951,9.857
			c-2.994,2.83-6.667,5.104-11.06,6.798c-4.394,1.693-9.355,2.535-14.939,2.535c-2.394,0-4.853-0.132-7.398-0.372
			c-2.546-0.24-5.104-0.678-7.694-1.268c-2.59-0.601-5.06-1.421-7.399-2.47c-2.338-1.049-4.35-2.317-6.054-3.814l3.136-12.852
			c1.399,0.798,3.159,1.573,5.301,2.316c2.142,0.743,4.35,1.443,6.645,2.088s4.579,1.169,6.874,1.573s4.426,0.602,6.426,0.602
			c6.076,0,10.732-1.421,13.967-4.263c3.235-2.841,4.853-7.049,4.853-12.622c0-3.388-1.137-6.273-3.432-8.666
			c-2.295-2.394-5.158-4.558-8.59-6.503s-7.147-3.88-11.136-5.825c-3.989-1.945-7.716-4.24-11.202-6.874
			c-3.486-2.634-6.372-5.748-8.667-9.333c-2.295-3.584-3.432-8.065-3.432-13.441c0-4.875,0.896-9.213,2.688-12.994
			c1.792-3.781,4.208-7.006,7.246-9.64s6.579-4.655,10.612-6.054c4.033-1.399,8.294-2.088,12.775-2.088
			c4.579,0,9.213,0.427,13.89,1.268c4.677,0.842,8.459,2.219,11.355,4.109c-0.601,1.29-1.29,2.71-2.087,4.262
			s-1.552,2.984-2.241,4.328c-0.688,1.344-1.29,2.47-1.792,3.366c-0.503,0.896-0.798,1.398-0.896,1.497
			c-0.601-0.295-1.268-0.688-2.022-1.191s-1.814-0.994-3.213-1.497s-3.235-0.842-5.53-1.049c-2.295-0.208-5.235-0.153-8.819,0.152
			c-2,0.208-3.88,0.766-5.683,1.716c-1.803,0.951-3.388,2.109-4.787,3.509c-1.399,1.398-2.492,2.961-3.29,4.71
			c-0.798,1.748-1.191,3.421-1.191,5.005c0,3.979,1.137,7.191,3.432,9.64c2.295,2.447,5.137,4.579,8.513,6.426
			c3.377,1.847,7.071,3.639,11.06,5.377c3.989,1.737,7.694,3.868,11.136,6.35c3.442,2.48,6.295,5.606,8.59,9.333
			S275.225,633.15,275.225,639.029z"/>
		<path fill="#FFFFFF" d="M383.396,613.632c0,9.268-1.17,17.431-3.509,24.502c-2.338,7.07-5.584,12.95-9.715,17.628
			c-4.131,4.677-8.962,8.218-14.491,10.611c-5.53,2.394-11.585,3.584-18.152,3.584c-6.568,0-12.623-1.19-18.152-3.584
			c-5.53-2.394-10.36-5.924-14.492-10.611c-4.131-4.688-7.376-10.558-9.715-17.628c-2.339-7.071-3.508-15.246-3.508-24.502
			c0-9.257,1.169-17.409,3.508-24.426c2.338-7.016,5.584-12.874,9.715-17.551c4.131-4.678,8.961-8.24,14.492-10.688
			c5.529-2.448,11.584-3.661,18.152-3.661c6.567,0,12.622,1.213,18.152,3.661c5.529,2.448,10.36,6,14.491,10.688
			s7.377,10.535,9.715,17.551C382.227,596.223,383.396,604.364,383.396,613.632z M337.081,655.324c3.683,0,7.19-0.722,10.535-2.164
			c3.344-1.442,6.327-3.814,8.961-7.093s4.711-7.595,6.197-12.929c1.486-5.333,2.295-11.824,2.393-19.496
			c-0.098-7.476-0.874-13.824-2.316-19.049c-1.442-5.224-3.432-9.54-5.979-12.928c-2.546-3.389-5.431-5.825-8.666-7.322
			c-3.234-1.497-6.645-2.24-10.24-2.24c-3.683,0-7.19,0.688-10.535,2.087c-3.344,1.398-6.327,3.76-8.961,7.093
			s-4.71,7.639-6.196,12.929c-1.498,5.278-2.295,11.748-2.394,19.42c0.099,7.475,0.874,13.847,2.316,19.125
			s3.432,9.584,5.979,12.929c2.546,3.344,5.432,5.77,8.666,7.321C330.076,654.559,333.496,655.324,337.081,655.324z"/>
		<path fill="#FFFFFF" d="M488.289,559.098v110.116H470.06l-43.179-75.898v75.898h-18.229V559.098h18.229l43.179,75.899v-75.899
			H488.289z"/>
	</g>
	<g>
		<path fill="#890FD8" d="M213.107,297.643v-43.714c0-6.022,4.896-10.929,10.929-10.929c6.043,0,10.929-4.896,10.929-10.929
			c0-6.032-4.885-10.928-10.929-10.928c-18.076,0-32.786,14.709-32.786,32.786v43.714c0,12.054-9.803,21.857-21.857,21.857
			c-6.043,0-10.929,4.896-10.929,10.929c0,6.032,4.885,10.928,10.929,10.928c12.054,0,21.857,9.803,21.857,21.857v43.714
			c0,18.076,14.71,32.785,32.786,32.785c6.043,0,10.929-4.896,10.929-10.928c0-6.033-4.885-10.929-10.929-10.929
			c-6.033,0-10.929-4.907-10.929-10.929v-43.714c0-13.114-5.923-24.764-15.103-32.786
			C207.184,322.407,213.107,310.757,213.107,297.643z"/>
		<circle fill="#890FD8" cx="300.536" cy="292.178" r="16.393"/>
		<path fill="#890FD8" d="M431.679,319.5c-12.055,0-21.857-9.803-21.857-21.857v-43.714c0-18.076-14.71-32.786-32.785-32.786
			c-6.044,0-10.929,4.896-10.929,10.928c0,6.033,4.885,10.929,10.929,10.929c6.032,0,10.928,4.907,10.928,10.929v43.714
			c0,13.114,5.924,24.764,15.104,32.786c-9.18,8.021-15.104,19.671-15.104,32.786v43.714c0,6.021-4.896,10.929-10.928,10.929
			c-6.044,0-10.929,4.896-10.929,10.929c0,6.032,4.885,10.928,10.929,10.928c18.075,0,32.785-14.709,32.785-32.785v-43.714
			c0-12.054,9.803-21.857,21.857-21.857c6.043,0,10.929-4.896,10.929-10.928C442.607,324.396,437.722,319.5,431.679,319.5z"/>
		<path fill="#890FD8" d="M300.536,352.286c-6.043,0-10.929,4.896-10.929,10.929V396c0,6.032,4.885,10.929,10.929,10.929
			s10.928-4.896,10.928-10.929v-32.786C311.464,357.182,306.579,352.286,300.536,352.286z"/>
	</g>
</g>
</svg>
