<svg id="Capa_1" enable-background="new 0 0 512 512" height="512" viewBox="0 0 512 512" width="512" xmlns="http://www.w3.org/2000/svg"><g><g><g><path d="m0 18.744h512v349.832h-512z" fill="#ffda2d"/><g><path d="m512 368.576-256-46.51v-303.322h256z" fill="#fdbf00"/></g><path d="m256 167.086-256 201.49h256 256l-113.919-90.481z" fill="#fdbf00"/><g><path d="m256 368.576v-201.49l256 201.49z" fill="#f6a313"/></g><path d="m512 18.744h-512l256 214.629z" fill="#ffe56c"/><g><path d="m256 233.373v-214.629h256z" fill="#ffda2d"/></g></g></g><g><g><g><g><g><g><g><g><g><g><g><g><path d="m386.582 493.256c-69.344 0-125.759-56.415-125.759-125.759s56.415-125.759 125.759-125.759c33.582 0 65.111 13.089 88.777 36.856 23.628 23.73 36.641 55.303 36.641 88.903s-13.013 65.173-36.641 88.902c-23.667 23.768-55.194 36.857-88.777 36.857z" fill="#fa235e"/></g></g></g></g></g></g></g></g></g></g></g><g><path d="m475.359 278.595c-23.666-23.767-55.195-36.856-88.777-36.856-.057 0-.114.002-.171.002v251.514c.057 0 .114.002.171.002 33.583 0 65.111-13.089 88.777-36.857 23.628-23.73 36.641-55.303 36.641-88.903s-13.013-65.173-36.641-88.902z" fill="#c91341"/></g></g><path d="m440.513 352.507h-38.941v-38.942h-29.98v38.942h-38.943v29.98h38.943v38.943h29.98v-38.943h38.941z" fill="#f2f2fc"/><g><path d="m401.572 352.507v-38.942h-15.161v107.865h15.161v-38.943h38.941v-29.98z" fill="#cbe8f8"/></g></g></svg>