<?xml version="1.0" encoding="utf-8"?>
<!-- Generator: Adobe Illustrator 16.0.2, SVG Export Plug-In . SVG Version: 6.00 Build 0)  -->
<!DOCTYPE svg PUBLIC "-//W3C//DTD SVG 1.1//EN" "http://www.w3.org/Graphics/SVG/1.1/DTD/svg11.dtd">
<svg version="1.1" id="Layer_1" xmlns="http://www.w3.org/2000/svg" xmlns:xlink="http://www.w3.org/1999/xlink" x="0px" y="0px"
	 width="251px" height="251px" viewBox="0 0 251 251" enable-background="new 0 0 251 251" xml:space="preserve">
<g>
	<path d="M231.327,146.829V45.243c0-13.539-11.015-24.553-24.554-24.553h-25.926V9.911c0.002-2.514-0.977-4.878-2.754-6.656
		c-1.775-1.776-4.139-2.755-6.654-2.755c-5.187,0-9.408,4.221-9.408,9.409v10.782h-82.14V9.909c0-5.188-4.22-9.409-9.408-9.409
		s-9.409,4.221-9.409,9.409v10.782H25.052C11.514,20.691,0.5,31.705,0.5,45.243v161.53c0,13.539,11.014,24.555,24.552,24.555
		h121.775c11.397,12.857,27.61,20.191,44.804,20.191c33.021,0,59.887-26.865,59.887-59.889
		C251.52,174.438,244.186,158.227,231.327,146.829z M191.631,150.563c22.646,0,41.07,18.424,41.07,41.07
		c0,22.645-18.424,41.068-41.07,41.068s-41.068-18.422-41.068-41.068S168.984,150.563,191.631,150.563z M135.535,212.511H25.052
		c-3.162,0-5.735-2.571-5.735-5.735V89.988h193.192v45.547c-6.678-2.518-13.675-3.789-20.878-3.789
		c-33.023,0-59.888,26.865-59.888,59.887C131.743,198.832,133.016,205.828,135.535,212.511z M61.073,41.554
		c-5.846,1.854-10.095,7.333-10.095,13.785c0,7.971,6.486,14.456,14.457,14.456c7.971,0,14.456-6.485,14.456-14.456v-15.83h82.138
		v2.045c-5.846,1.854-10.094,7.333-10.094,13.785c0,7.971,6.483,14.456,14.455,14.456c7.971,0,14.457-6.485,14.457-14.456v-15.83
		h25.926c3.162,0,5.734,2.572,5.734,5.734v25.926H19.317V45.243c0-3.162,2.573-5.734,5.735-5.734h36.021V41.554z"/>
	<path d="M200.123,213.432c1.777,1.776,4.141,2.756,6.652,2.756c2.506,0,4.867-0.978,6.656-2.758
		c3.662-3.669,3.661-9.637-0.004-13.304l-12.389-12.39v-26.392c0-5.187-4.221-9.407-9.409-9.407c-5.187,0-9.409,4.22-9.409,9.407
		v30.289c0,2.509,0.979,4.87,2.758,6.652L200.123,213.432z"/>
</g>
</svg>
