<?xml version="1.0" encoding="utf-8"?>
<!-- Generator: Adobe Illustrator 16.0.2, SVG Export Plug-In . SVG Version: 6.00 Build 0)  -->
<!DOCTYPE svg PUBLIC "-//W3C//DTD SVG 1.1//EN" "http://www.w3.org/Graphics/SVG/1.1/DTD/svg11.dtd">
<svg version="1.1" id="Layer_1" xmlns="http://www.w3.org/2000/svg" xmlns:xlink="http://www.w3.org/1999/xlink" x="0px" y="0px"
	 width="251px" height="251px" viewBox="0 0 251 251" enable-background="new 0 0 251 251" xml:space="preserve">
<g>
	<path d="M178.038,129.206H71.199c-4.42,0-8.016,3.598-8.016,8.019c0,4.42,3.596,8.016,8.016,8.016h106.838
		c4.419,0,8.017-3.596,8.017-8.016C186.054,132.806,182.457,129.208,178.038,129.206z"/>
	<path d="M178.038,160.366H71.199c-4.42,0-8.016,3.598-8.016,8.018s3.596,8.017,8.016,8.017h106.838
		c4.419,0,8.017-3.597,8.017-8.017S182.457,160.366,178.038,160.366z"/>
	<path d="M178.038,98.569H71.199c-4.42,0-8.016,3.596-8.016,8.017c0,4.42,3.596,8.016,8.016,8.016h106.838
		c4.419,0,8.017-3.596,8.017-8.016C186.054,102.166,182.457,98.569,178.038,98.569z"/>
	<path d="M175.815-0.021H51.403c-10.081,0-18.282,8.203-18.282,18.285v214.347c0,10.083,8.201,18.287,18.282,18.287h150.619
		c10.081,0,18.283-8.204,18.283-18.287V48.32L175.815-0.021z M181.207,42.71v-8.541l7.856,8.541H181.207z M171.611,61.89h29.507
		l0.001,169.822H52.307V19.172h109.704v33.134C162.011,57.59,166.318,61.89,171.611,61.89z"/>
	<path d="M63.183,74.911c0,4.42,3.596,8.018,8.016,8.018h106.839c4.42,0,8.018-3.597,8.018-8.018s-3.598-8.015-8.018-8.015H71.199
		C66.78,66.896,63.184,70.49,63.183,74.911z"/>
</g>
</svg>
