<?xml version="1.0" encoding="utf-8"?>
<!-- Generator: Adobe Illustrator 16.0.2, SVG Export Plug-In . SVG Version: 6.00 Build 0)  -->
<!DOCTYPE svg PUBLIC "-//W3C//DTD SVG 1.1//EN" "http://www.w3.org/Graphics/SVG/1.1/DTD/svg11.dtd">
<svg version="1.1" id="Capa_1" xmlns="http://www.w3.org/2000/svg" xmlns:xlink="http://www.w3.org/1999/xlink" x="0px" y="0px"
	 width="512px" height="512px" viewBox="0 0 512 512" enable-background="new 0 0 512 512" xml:space="preserve">
<g>
	<g>
		<path fill="#51BC78" d="M364.569,256.887c-9.599-4.563-19.393-8.493-29.355-11.785c32.272-24.224,53.188-62.796,53.188-106.163
			c0-73.154-59.517-132.669-132.669-132.669c-73.155,0-132.669,59.516-132.669,132.669c0,43.414,20.961,82.025,53.295,106.244
			c-29.625,9.753-57.422,24.928-81.75,44.941c-44.613,36.696-75.631,87.88-87.34,144.124C3.6,451.872,7.996,469.974,19.33,483.91
			c11.277,13.867,28.001,21.82,45.879,21.82h240.275c10.775,0,19.511-8.734,19.511-19.511c0-10.775-8.734-19.51-19.511-19.51H65.206
			c-8.329,0-13.353-4.649-15.607-7.421c-3.891-4.784-5.397-11.014-4.132-17.089c20.247-97.255,106.029-168.298,205.091-170.692
			c1.717,0.066,3.44,0.1,5.173,0.1c1.75,0,3.492-0.033,5.222-0.102c30.357,0.712,59.555,7.641,86.863,20.622
			c9.732,4.623,21.371,0.487,25.997-9.245S374.302,261.512,364.569,256.887z M260.49,232.468c-1.583-0.028-3.17-0.043-4.758-0.043
			c-1.575,0-3.149,0.016-4.721,0.045c-49.454-2.467-88.928-43.476-88.928-93.531c0-51.639,42.01-93.649,93.649-93.649
			c51.638,0,93.649,42.01,93.649,93.649C349.38,188.981,309.926,229.982,260.49,232.468z"/>
	</g>
</g>
<path fill="#51BC78" d="M491.955,308.717c-0.59-0.603-1.186-1.201-1.775-1.792l-0.856-0.856c-0.475-0.477-0.938-0.92-1.394-1.336
	c-4.394-3.07-9.927-3.771-14.851-2.113c-1.424,0.584-29.692,29.131-42.572,42.004l-22.403,22.384l-5.237,5.234
	c-7.38,7.373-14.76,14.741-22.261,22.229l-5.996,5.984l-8.977,8.961l-3.826-3.842c-3.28-3.295-6.544-6.576-9.796-9.846l-1.598-1.606
	c-8.208-8.255-16.689-16.781-25.037-25.104c-6.371-3.678-14.647-2.811-20.099,2.641c-5.271,5.271-6.271,13.195-3,19.475
	c0.257,0.279,0.511,0.557,0.794,0.84c18.804,18.889,37.612,37.771,56.425,56.655c3.299,3.313,5.184,4.009,6.186,4.009
	c1.016-0.001,2.93-0.708,6.291-4.078c5.624-5.634,11.246-11.27,16.868-16.904c15.131-15.162,30.264-30.327,45.395-45.491
	c18.963-19.005,37.931-38.009,56.892-57.017C496.079,323.297,496.353,314.855,491.955,308.717z"/>
</svg>
