<?xml version="1.0" encoding="utf-8"?>
<!-- Generator: Adobe Illustrator 16.0.2, SVG Export Plug-In . SVG Version: 6.00 Build 0)  -->
<!DOCTYPE svg PUBLIC "-//W3C//DTD SVG 1.1//EN" "http://www.w3.org/Graphics/SVG/1.1/DTD/svg11.dtd">
<svg version="1.1" id="Capa_1" xmlns="http://www.w3.org/2000/svg" xmlns:xlink="http://www.w3.org/1999/xlink" x="0px" y="0px"
	 width="612px" height="792px" viewBox="0 0 612 792" enable-background="new 0 0 612 792" xml:space="preserve">
<g>
	<g>
		<path fill="#E9E9E0" d="M404.193,90H87.024c-8.831,0-15.989,7.158-15.989,21.048v580.023c0,3.771,7.158,10.929,15.989,10.929
			h437.951c8.83,0,15.989-7.158,15.989-10.929v-459.24c0-7.606-1.017-10.054-2.81-11.857L410.991,92.809
			C409.188,91.017,406.739,90,404.193,90z"/>
		<polygon fill="#D9D7CA" points="409.821,91.65 409.821,221.143 539.314,221.143 		"/>
		<path fill="#CC4429" d="M524.976,702H87.024c-8.831,0-15.989-7.158-15.989-15.988V516.214h469.928v169.798
			C540.964,694.842,533.806,702,524.976,702z"/>
		<g>
			<path fill="#FFFFFF" d="M152.135,668.214h-17.934V558.098h31.671c4.677,0,9.311,0.743,13.89,2.241
				c4.579,1.497,8.688,3.737,12.327,6.722c3.64,2.982,6.579,6.601,8.819,10.829c2.241,4.229,3.366,8.983,3.366,14.272
				c0,5.585-0.951,10.634-2.841,15.169c-1.89,4.535-4.536,8.35-7.923,11.432c-3.387,3.082-7.475,5.477-12.251,7.169
				c-4.776,1.694-10.065,2.535-15.835,2.535h-13.3v39.747H152.135L152.135,668.214z M152.135,571.693v43.627h16.437
				c2.186,0,4.35-0.372,6.502-1.126c2.142-0.743,4.109-1.968,5.901-3.661s3.235-4.055,4.328-7.093
				c1.093-3.038,1.64-6.798,1.64-11.278c0-1.792-0.251-3.868-0.743-6.196c-0.503-2.339-1.519-4.579-3.06-6.721
				c-1.552-2.144-3.716-3.936-6.502-5.377c-2.787-1.442-6.481-2.164-11.06-2.164h-13.442v-0.011H152.135z"/>
			<path fill="#FFFFFF" d="M242.536,668.214h-17.934V558.098h31.671c4.678,0,9.312,0.743,13.891,2.241
				c4.579,1.497,8.688,3.737,12.327,6.722c3.639,2.983,6.579,6.601,8.818,10.829c2.24,4.229,3.366,8.983,3.366,14.272
				c0,5.585-0.951,10.634-2.842,15.169s-4.535,8.35-7.923,11.432s-7.477,5.477-12.251,7.169c-4.776,1.694-10.065,2.535-15.835,2.535
				h-13.3v39.747H242.536L242.536,668.214z M242.536,571.693v43.627h16.437c2.186,0,4.349-0.372,6.502-1.126
				c2.142-0.743,4.109-1.968,5.901-3.661s3.234-4.055,4.328-7.093c1.093-3.038,1.639-6.798,1.639-11.278
				c0-1.792-0.251-3.868-0.743-6.196c-0.503-2.339-1.519-4.579-3.06-6.721c-1.552-2.144-3.716-3.936-6.503-5.377
				c-2.787-1.442-6.48-2.164-11.06-2.164h-13.442L242.536,571.693L242.536,571.693z"/>
			<path fill="#FFFFFF" d="M392.837,558.098v12.251h-32.873v97.865h-18.076v-97.865h-32.873v-12.251H392.837z"/>
		</g>
		<path fill="#C8BDB8" d="M431.679,417.857H169.393V243h262.286V417.857L431.679,417.857z M191.25,396h218.571V264.857H191.25V396z"
			/>
		<path fill="#C8BDB8" d="M224.025,472.5c-1.913,0-3.858-0.503-5.617-1.563c-5.18-3.104-6.853-9.814-3.749-14.994l32.786-54.644
			c3.104-5.181,9.814-6.853,14.994-3.749c5.18,3.104,6.853,9.813,3.749,14.994l-32.786,54.644
			C231.358,470.609,227.741,472.5,224.025,472.5z"/>
		<path fill="#C8BDB8" d="M377.047,472.5c-3.716,0-7.333-1.891-9.377-5.301l-32.786-54.644c-3.104-5.18-1.432-11.891,3.749-14.993
			c5.18-3.092,11.892-1.433,14.994,3.748l32.785,54.644c3.104,5.181,1.432,11.891-3.748,14.994
			C380.904,471.997,378.959,472.5,377.047,472.5z"/>
		<path fill="#C8BDB8" d="M300.536,264.857c-6.033,0-10.929-4.885-10.929-10.929v-32.786c0-6.043,4.896-10.929,10.929-10.929
			s10.928,4.885,10.928,10.929v32.786C311.464,259.972,306.568,264.857,300.536,264.857z"/>
		<rect x="191.25" y="264.857" fill="#D3CCC9" width="218.571" height="131.143"/>
	</g>
	<path fill="#FFFFFF" d="M466.713,615.719l27.944,53.495h-20.765l-17.485-41.539h-1.497l-18.83,41.539h-20.764l27.943-53.495
		l-29.736-56.632h20.469l19.42,44.829h1.498l21.07-44.829h20.469L466.713,615.719z"/>
</g>
</svg>
