<svg height="512pt" viewBox="-8 0 512 512.002" width="512pt" xmlns="http://www.w3.org/2000/svg"><path d="m139.308594 148.261719h-47.839844c-50.515625 0-91.46875 40.953125-91.46875 91.46875v152.851562h230.777344v-152.851562c0-50.515625-40.953125-91.46875-91.46875-91.46875zm0 0" fill="#50cbd8"/><path d="m495.992188 350.519531v-22.542969c0-7.019531-5.691407-12.710937-12.710938-12.710937h-16.914062c-3.691407-22.195313-12.414063-42.691406-24.964844-60.261719l11.960937-11.964844c4.964844-4.964843 4.964844-13.011718 0-17.976562l-15.941406-15.9375c-4.960937-4.964844-13.011719-4.964844-17.976563 0l-11.960937 11.960938c-17.574219-12.550782-38.066406-21.273438-60.261719-24.964844v-16.914063c0-7.019531-5.691406-12.710937-12.710937-12.710937h-22.542969c-7.019531 0-12.710938 5.691406-12.710938 12.710937v16.914063c-22.195312 3.691406-42.691406 12.414062-60.265624 24.964844l-11.960938-11.960938c-4.964844-4.964844-13.011719-4.964844-17.976562 0l-15.941407 15.9375c-4.960937 4.964844-4.960937 13.011719 0 17.976562l11.964844 11.964844c-12.554687 17.570313-21.273437 38.066406-24.96875 60.261719h-16.910156c-7.019531 0-12.710938 5.691406-12.710938 12.710937v22.542969c0 7.019531 5.691407 12.710938 12.710938 12.710938h16.910156c3.695313 22.195312 12.414063 42.691406 24.96875 60.261719l-11.964844 11.964843c-4.960937 4.964844-4.960937 13.011719 0 17.976563l15.941407 15.9375c4.964843 4.964844 13.011718 4.964844 17.976562 0l11.960938-11.960938c17.574218 12.550782 38.070312 21.273438 60.265624 24.964844v16.914062c0 7.019532 5.691407 12.710938 12.710938 12.710938h22.542969c7.019531 0 12.710937-5.691406 12.710937-12.710938v-16.914062c22.195313-3.691406 42.6875-12.414062 60.261719-24.964844l11.960937 11.960938c4.964844 4.964844 13.015626 4.964844 17.976563 0l15.941406-15.9375c4.964844-4.964844 4.964844-13.011719 0-17.976563l-11.960937-11.964843c12.550781-17.570313 21.273437-38.066407 24.964844-60.261719h16.914062c7.019531 0 12.710938-5.691407 12.710938-12.710938zm-172.753907 70.671875c-45.253906 0-81.9375-36.6875-81.9375-81.945312 0-45.253906 36.683594-81.9375 81.9375-81.9375 45.253907 0 81.941407 36.683594 81.941407 81.9375 0 45.257812-36.683594 81.945312-81.941407 81.945312zm0 0" fill="#dce1ea"/><path d="m241.300781 339.25c0-45.257812 36.683594-81.941406 81.9375-81.941406v-90.808594h-11.269531c-7.019531 0-12.710938 5.691406-12.710938 12.710938v16.910156c-22.195312 3.695312-42.6875 12.414062-60.265624 24.96875l-11.960938-11.960938c-4.964844-4.964844-13.011719-4.964844-17.976562 0l-15.9375 15.9375c-4.964844 4.964844-4.964844 13.011719 0 17.976563l11.960937 11.960937c-12.554687 17.574219-21.273437 38.070313-24.964844 60.265625h-16.914062c-7.019531 0-12.710938 5.691407-12.710938 12.710938v22.542969c0 7.019531 5.691407 12.710937 12.710938 12.710937h16.910156c3.695313 22.195313 12.414063 42.6875 24.96875 60.261719l-11.964844 11.964844c-4.960937 4.960937-4.960937 13.011718 0 17.972656l15.941407 15.941406c4.964843 4.964844 13.011718 4.964844 17.976562 0l11.960938-11.964844c17.574218 12.554688 38.070312 21.277344 60.265624 24.96875v16.910156c0 7.023438 5.691407 12.714844 12.710938 12.714844h11.269531v-90.8125c-45.253906 0-81.9375-36.6875-81.9375-81.941406zm0 0" fill="#e8ecf4"/><path d="m91.578125 148.261719c-50.574219 0-91.578125 41-91.578125 91.578125v152.742187h115.390625v-244.320312zm0 0" fill="#77dced"/><path d="m193.832031 78.445312c0 43.320313-35.121093 78.441407-78.441406 78.441407-43.324219 0-78.445313-35.121094-78.445313-78.441407 0-43.324218 35.121094-78.445312 78.445313-78.445312 43.320313 0 78.441406 35.121094 78.441406 78.445312zm0 0" fill="#77dced"/><path d="m36.945312 78.445312c0 43.320313 35.121094 78.441407 78.445313 78.441407v-156.886719c-43.324219 0-78.445313 35.121094-78.445313 78.445312zm0 0" fill="#95e6f9"/></svg>