<?xml version="1.0" encoding="utf-8"?>
<!-- Generator: Adobe Illustrator 16.0.2, SVG Export Plug-In . SVG Version: 6.00 Build 0)  -->
<!DOCTYPE svg PUBLIC "-//W3C//DTD SVG 1.1//EN" "http://www.w3.org/Graphics/SVG/1.1/DTD/svg11.dtd">
<svg version="1.1" id="Layer_1" xmlns="http://www.w3.org/2000/svg" xmlns:xlink="http://www.w3.org/1999/xlink" x="0px" y="0px"
	 width="512px" height="512px" viewBox="0 0 512 512" enable-background="new 0 0 512 512" xml:space="preserve">
<g>
	<g>
		<path d="M293.163,43.714c-121.004,0-219.122,98.118-219.122,219.122H1l97.387,97.389l97.389-97.389h-73.041
			c0-94.1,76.328-170.427,170.428-170.427c94.101,0,170.429,76.328,170.429,170.427c0,94.102-76.328,170.43-170.429,170.43
			c-36.886,0-70.85-11.809-98.848-31.773l-34.451,34.939c37.008,28.486,83.145,45.529,133.299,45.529
			c121.005,0,219.123-98.119,219.123-219.125C512.286,141.832,414.168,43.714,293.163,43.714z"/>
	</g>
</g>
</svg>
