<?xml version="1.0" encoding="utf-8"?>
<!-- Generator: Adobe Illustrator 16.0.2, SVG Export Plug-In . SVG Version: 6.00 Build 0)  -->
<!DOCTYPE svg PUBLIC "-//W3C//DTD SVG 1.1//EN" "http://www.w3.org/Graphics/SVG/1.1/DTD/svg11.dtd">
<svg version="1.1" id="Capa_1" xmlns="http://www.w3.org/2000/svg" xmlns:xlink="http://www.w3.org/1999/xlink" x="0px" y="0px"
	 width="612px" height="792px" viewBox="0 0 612 792" enable-background="new 0 0 612 792" xml:space="preserve">
<g>
	<path fill="#E9E9E0" d="M404.193,90H87.024c-8.831,0-15.989,7.158-15.989,21.048v580.023c0,3.771,7.158,10.929,15.989,10.929
		h437.951c8.83,0,15.989-7.158,15.989-10.929v-459.24c0-7.606-1.017-10.054-2.81-11.857L410.991,92.809
		C409.188,91.017,406.739,90,404.193,90z"/>
	<polygon fill="#D9D7CA" points="409.821,91.65 409.821,221.143 539.314,221.143 	"/>
	<path fill="#6A63A8" d="M524.976,702H87.024c-8.831,0-15.989-7.158-15.989-15.988V516.214h469.928v169.798
		C540.964,694.842,533.806,702,524.976,702z"/>
	<g>
		<path fill="#FFFFFF" d="M227.642,669.214l-20.764-39.889c-0.295,0-0.7,0.021-1.191,0.076c-0.502,0.055-1.268,0.076-2.317,0.076
			c-1.049,0-2.634,0-4.787,0s-5.06,0-8.743,0v39.736h-17.934V559.098h31.671c4.677,0,9.311,0.743,13.89,2.241
			c4.579,1.497,8.688,3.737,12.327,6.721s6.579,6.601,8.819,10.83c2.241,4.229,3.366,8.983,3.366,14.272
			c0,7.967-1.847,14.743-5.53,20.316c-3.694,5.585-8.667,9.716-14.939,12.404l25.103,43.331H227.642z M189.84,616.32h16.284
			c2.186,0,4.371-0.372,6.579-1.126c2.186-0.743,4.186-1.967,5.978-3.661c1.792-1.693,3.235-4.055,4.328-7.093
			s1.64-6.797,1.64-11.278c0-1.792-0.251-3.868-0.743-6.196c-0.503-2.339-1.519-4.579-3.06-6.721
			c-1.541-2.143-3.716-3.935-6.502-5.377c-2.798-1.442-6.481-2.164-11.06-2.164H189.84V616.32z"/>
		<path fill="#FFFFFF" d="M348.523,559.098v12.251H315.65v97.865h-18.076v-97.865h-32.873v-12.251H348.523z"/>
		<path fill="#FFFFFF" d="M388.565,572.693v34.665h46.021v12.251h-46.021v49.604h-18.229V559.098h68.883v13.596H388.565z"/>
	</g>
	<g>
		<path fill="#C8BDB8" d="M136.607,232.071h65.572c6.043,0,10.928-4.896,10.928-10.928c0-6.033-4.885-10.929-10.928-10.929h-65.572
			c-6.043,0-10.928,4.896-10.928,10.929C125.679,227.175,130.563,232.071,136.607,232.071z"/>
		<path fill="#C8BDB8" d="M136.607,286.714h98.357c6.043,0,10.929-4.896,10.929-10.929s-4.885-10.928-10.929-10.928h-98.357
			c-6.043,0-10.928,4.896-10.928,10.928S130.563,286.714,136.607,286.714z"/>
		<path fill="#C8BDB8" d="M278.679,286.714c2.841,0,5.683-1.202,7.759-3.169c1.967-2.076,3.169-4.918,3.169-7.759
			s-1.202-5.683-3.169-7.759c-4.153-4.043-11.366-4.043-15.519,0c-1.978,2.077-3.169,4.809-3.169,7.759s1.191,5.683,3.169,7.759
			C272.985,285.512,275.837,286.714,278.679,286.714z"/>
		<path fill="#C8BDB8" d="M322.393,286.714h87.429c6.044,0,10.929-4.896,10.929-10.929s-4.885-10.928-10.929-10.928h-87.429
			c-6.043,0-10.929,4.896-10.929,10.928S316.35,286.714,322.393,286.714z"/>
		<path fill="#C8BDB8" d="M128.848,431.955c-1.978,2.076-3.169,4.809-3.169,7.759c0,2.951,1.191,5.684,3.169,7.76
			c2.066,1.967,4.798,3.169,7.759,3.169c2.951,0,5.683-1.202,7.759-3.169c1.967-2.076,3.169-4.918,3.169-7.76
			c0-2.841-1.202-5.683-3.169-7.759C140.323,427.911,132.892,427.911,128.848,431.955z"/>
		<path fill="#C8BDB8" d="M267.75,428.786h-87.429c-6.043,0-10.928,4.896-10.928,10.928c0,6.033,4.885,10.929,10.928,10.929h87.429
			c6.043,0,10.929-4.896,10.929-10.929C278.679,433.682,273.793,428.786,267.75,428.786z"/>
		<path fill="#C8BDB8" d="M453.536,286.714h21.856c6.044,0,10.929-4.896,10.929-10.929s-4.885-10.928-10.929-10.928h-21.856
			c-6.044,0-10.929,4.896-10.929,10.928S447.492,286.714,453.536,286.714z"/>
		<path fill="#C8BDB8" d="M136.607,341.357h240.429c6.043,0,10.928-4.896,10.928-10.928c0-6.033-4.885-10.929-10.928-10.929H136.607
			c-6.043,0-10.928,4.896-10.928,10.929C125.679,336.461,130.563,341.357,136.607,341.357z"/>
		<path fill="#C8BDB8" d="M475.393,319.5h-65.571c-6.043,0-10.929,4.896-10.929,10.929c0,6.032,4.886,10.928,10.929,10.928h65.571
			c6.044,0,10.929-4.896,10.929-10.928C486.321,324.396,481.437,319.5,475.393,319.5z"/>
		<path fill="#C8BDB8" d="M136.607,396h43.714c6.043,0,10.929-4.896,10.929-10.929c0-6.032-4.885-10.928-10.929-10.928h-43.714
			c-6.043,0-10.928,4.896-10.928,10.928C125.679,391.104,130.563,396,136.607,396z"/>
		<path fill="#C8BDB8" d="M333.321,374.143H224.036c-6.043,0-10.929,4.896-10.929,10.928c0,6.033,4.885,10.929,10.929,10.929
			h109.286c6.044,0,10.929-4.896,10.929-10.929C344.25,379.039,339.365,374.143,333.321,374.143z"/>
		<path fill="#C8BDB8" d="M475.393,374.143h-98.356c-6.044,0-10.929,4.896-10.929,10.928c0,6.033,4.885,10.929,10.929,10.929h98.356
			c6.044,0,10.929-4.896,10.929-10.929C486.321,379.039,481.437,374.143,475.393,374.143z"/>
	</g>
</g>
</svg>
