<svg height="425pt" viewBox="-48 0 425 425" width="425pt" xmlns="http://www.w3.org/2000/svg"><path d="m328.601562 0v425h-328.601562v-425l53.800781 36.601562 55.5-36.601562 55 36.601562 55-36.601562 55.597657 36.601562zm-57.300781 202.5c0-59.09375-47.90625-107-107-107s-107 47.90625-107 107 47.90625 107 107 107c59.09375.003906 107.003907-47.902344 107-107zm0 0" fill="#00efd1"/><path d="m271.300781 202.5c0 59.09375-47.90625 107-107 107s-107-47.90625-107-107 47.90625-107 107-107 107 47.90625 107 107zm0 0" fill="#00acea"/><g fill="#fedb41"><path d="m245.300781 344.5h-162c-5.523437 0-10 4.476562-10 10s4.476563 10 10 10h162c5.523438 0 10-4.476562 10-10s-4.476562-10-10-10zm0 0"/><path d="m100.101562 216.199219c.015626 5.515625 4.480469 9.984375 10 10h11c3.382813 8.914062 8.59375 17.023437 15.296876 23.800781 18.789062 18.804688 46.898437 24.765625 71.703124 15.199219 5.132813-1.988281 7.6875-7.761719 5.699219-12.898438s-7.765625-7.6875-12.902343-5.699219c-17.4375 6.691407-37.183594 2.5-50.398438-10.703124-2.859375-2.875-5.347656-6.101563-7.398438-9.597657h45.398438c5.523438 0 10-4.476562 10-10 0-5.523437-4.476562-10-10-10h-51.601562c-.097657-1.199219-.199219-2.5-.199219-3.699219v-1.800781h57.601562c5.523438 0 10-4.476562 10-10 0-5.523437-4.476562-10-10-10h-52.402343c2.261718-4.253906 5.125-8.164062 8.5-11.601562 13.21875-13.199219 32.960937-17.390625 50.402343-10.699219 5.136719 1.988281 10.910157-.5625 12.898438-5.699219s-.5625-10.914062-5.699219-12.902343c-24.804688-9.527344-52.894531-3.570313-71.699219 15.203124-7.238281 7.222657-12.714843 16.015626-16 25.699219h-10.300781c-5.523438 0-10 4.476563-10 10 0 5.523438 4.476562 10 10 10h6.699219c0 1.800781 0 3.699219.101562 5.5h-6.800781c-2.628906-.011719-5.152344 1.027344-7.011719 2.886719s-2.898437 4.382812-2.886719 7.011719zm0 0"/></g></svg>