<svg height="443pt" viewBox="-55 0 443 443" width="443pt" xmlns="http://www.w3.org/2000/svg"><path d="m333.941406 80.949219v362.050781h-333.941406v-443h252.988281v80.949219zm0 0" fill="#00efd1"/><path d="m333.941406 80.949219h-80.953125v-80.949219zm0 0" fill="#00acea"/><g fill="#fedb41"><path d="m271.96875 359.5h-218c-4.417969 0-8-3.582031-8-8s3.582031-8 8-8h218c4.417969 0 8 3.582031 8 8s-3.582031 8-8 8zm0 0"/><path d="m271.96875 399.5h-218c-4.417969 0-8-3.582031-8-8s3.582031-8 8-8h218c4.417969 0 8 3.582031 8 8s-3.582031 8-8 8zm0 0"/><path d="m161.96875 319.5h-108c-4.417969 0-8-3.582031-8-8s3.582031-8 8-8h108c4.417969 0 8 3.582031 8 8s-3.582031 8-8 8zm0 0"/></g><path d="m199.414062 150.898438c4.121094 1.589843 8.753907-.464844 10.339844-4.589844 1.589844-4.121094-.464844-8.75-4.589844-10.339844-18.109374-6.980469-38.300781-6.15625-55.785156 2.277344-17.480468 8.4375-30.691406 23.730468-36.496094 42.253906h-14.914062c-4.417969 0-8 3.582031-8 8s3.582031 8 8 8h11.886719c-.382813 5.34375-.152344 10.710938.683593 16h-12.570312c-4.417969 0-8 3.582031-8 8s3.582031 8 8 8h17.089844c14.652344 35.121094 54.589844 52.199219 90.105468 38.535156 4.125-1.585937 6.179688-6.214844 4.59375-10.339844-1.589843-4.121093-6.21875-6.179687-10.34375-4.589843-24.964843 9.621093-53.21875-.402344-66.542968-23.605469h51.097656c4.417969 0 8-3.582031 8-8s-3.582031-8-8-8h-57.175781c-1.085938-5.261719-1.382813-10.652344-.886719-16h64.0625c4.417969 0 8-3.582031 8-8s-3.582031-8-8-8h-60.078125c11.367187-27.035156 42.15625-40.144531 69.523437-29.601562zm0 0" fill="#00acea"/></svg>