<?xml version="1.0" encoding="utf-8"?>
<!-- Generator: Adobe Illustrator 16.0.2, SVG Export Plug-In . SVG Version: 6.00 Build 0)  -->
<!DOCTYPE svg PUBLIC "-//W3C//DTD SVG 1.1//EN" "http://www.w3.org/Graphics/SVG/1.1/DTD/svg11.dtd">
<svg version="1.1" id="Layer_1" xmlns="http://www.w3.org/2000/svg" xmlns:xlink="http://www.w3.org/1999/xlink" x="0px" y="0px"
	 width="251px" height="251px" viewBox="0 0 251 251" enable-background="new 0 0 251 251" xml:space="preserve">
<g>
	<path d="M203.876,110.93c2.851-1.881,5.506-4.125,7.909-6.723c7.734-8.361,11.941-19.358,11.847-30.967
		c-0.204-24.165-19.301-43.825-42.584-43.825l-0.326,0.001c-11.561,0.096-22.333,4.91-30.331,13.557
		c-7.735,8.364-11.941,19.361-11.842,30.964c0.094,11.606,4.482,22.534,12.357,30.769c2.276,2.382,4.775,4.451,7.438,6.208
		c-8.974,2.914-17.313,7.675-24.462,14.088c-1.889,1.696-2.916,4.119-2.814,6.65c0.104,2.53,1.324,4.864,3.347,6.403
		c2.33,1.774,4.579,3.734,6.686,5.825c6.235,6.186,11.133,13.395,14.555,21.427c3.074,7.199,4.839,14.83,5.25,22.683
		c0.238,4.519,3.999,8.059,8.561,8.059h72.658c4.726,0,8.57-3.813,8.572-8.504v-12.549
		C250.695,145.141,231.027,119.772,203.876,110.93z M233.551,174.995v4.045h-56.338c-1.049-7-2.984-13.835-5.771-20.361
		c-4.284-10.053-10.415-19.079-18.219-26.824c-0.008-0.006-0.014-0.014-0.021-0.021c7.907-4.758,16.886-7.254,26.24-7.254h3.287
		C210.753,124.58,233.551,147.197,233.551,174.995z M181.112,100.756c-6.677,0-12.988-2.754-17.772-7.756
		c-4.875-5.098-7.592-11.917-7.65-19.203c-0.062-7.283,2.543-14.146,7.331-19.324c4.75-5.135,11.082-7.993,17.81-8.048l0.238-0.001
		c13.894,0.004,25.296,12.096,25.42,26.957c0.062,7.286-2.543,14.149-7.333,19.327c-4.749,5.135-11.083,7.993-17.823,8.048
		L181.112,100.756z"/>
	<path d="M120.29,142.882c-8.864-6.554-18.919-10.915-29.589-12.921c18.917-6.761,32.557-25.456,32.557-47.418
		c0-27.642-21.598-50.13-48.145-50.13c-26.547,0-48.144,22.488-48.144,50.13c0,21.977,13.658,40.683,32.596,47.433
		C26.129,136.298,0.77,165.501,0.77,200.486v7.512c0,4.689,3.845,8.504,8.571,8.504h131.543c2.29,0,4.442-0.885,6.063-2.491
		c1.617-1.606,2.509-3.742,2.508-6.012v-7.513c0-1.521-0.047-3.043-0.14-4.518C147.993,174.891,137.414,155.541,120.29,142.882z
		 M73.139,145.698h3.955c11.984,0,23.379,3.741,32.954,10.819c13.073,9.667,21.149,24.434,22.157,40.517
		c0.052,0.803,0.085,1.626,0.101,2.46H17.921C18.458,169.74,43.021,145.698,73.139,145.698z M75.113,49.419
		c17.095,0,31.002,14.859,31.002,33.123s-13.907,33.123-31.002,33.123c-17.094,0-31.001-14.859-31.001-33.123
		S58.02,49.419,75.113,49.419z"/>
</g>
</svg>
