<?xml version="1.0" encoding="utf-8"?>
<!-- Generator: Adobe Illustrator 16.0.2, SVG Export Plug-In . SVG Version: 6.00 Build 0)  -->
<!DOCTYPE svg PUBLIC "-//W3C//DTD SVG 1.1//EN" "http://www.w3.org/Graphics/SVG/1.1/DTD/svg11.dtd">
<svg version="1.1" id="Capa_1" xmlns="http://www.w3.org/2000/svg" xmlns:xlink="http://www.w3.org/1999/xlink" x="0px" y="0px"
	 width="612px" height="792px" viewBox="0 0 612 792" enable-background="new 0 0 612 792" xml:space="preserve">
<g>
	<path fill="#E9E9E0" d="M404.193,90H87.024c-8.831,0-15.989,7.158-15.989,21.048v580.023c0,3.771,7.158,10.929,15.989,10.929
		h437.951c8.83,0,15.989-7.158,15.989-10.929v-459.24c0-7.606-1.017-10.054-2.81-11.857L410.991,92.809
		C409.188,91.017,406.739,90,404.193,90z"/>
	<polygon fill="#D9D7CA" points="409.821,91.65 409.821,221.143 539.314,221.143 	"/>
	<path fill="#1E6F44" d="M524.976,702H87.024c-8.831,0-15.989-7.158-15.989-15.988V516.214h469.928v169.798
		C540.964,694.842,533.806,702,524.976,702z"/>
	<g>
		<path fill="#FFFFFF" d="M183.713,615.719l27.944,53.495h-20.764l-17.486-41.539h-1.497l-18.83,41.539h-20.764l27.944-53.495
			l-29.737-56.632h20.469l19.42,44.829h1.498l21.07-44.829h20.469L183.713,615.719z"/>
		<path fill="#FFFFFF" d="M256.476,559.098v96.521h50.654v13.595h-68.883V559.098H256.476z"/>
		<path fill="#FFFFFF" d="M387.662,639.029c0,3.979-0.819,7.847-2.47,11.585c-1.65,3.736-3.956,7.016-6.939,9.856
			c-2.983,2.842-6.678,5.104-11.06,6.798c-4.384,1.693-9.366,2.535-14.939,2.535c-2.394,0-4.853-0.132-7.397-0.372
			c-2.548-0.239-5.104-0.678-7.694-1.268c-2.59-0.602-5.061-1.421-7.398-2.47c-2.338-1.05-4.359-2.317-6.055-3.814l3.137-12.852
			c1.389,0.798,3.158,1.572,5.301,2.315s4.351,1.443,6.646,2.088c2.284,0.655,4.579,1.169,6.874,1.573
			c2.284,0.394,4.426,0.603,6.426,0.603c6.076,0,10.732-1.422,13.967-4.264c3.235-2.841,4.854-7.049,4.854-12.622
			c0-3.388-1.147-6.272-3.433-8.666c-2.295-2.394-5.157-4.558-8.59-6.503c-3.432-1.945-7.146-3.88-11.137-5.825
			c-3.988-1.944-7.727-4.239-11.201-6.874c-3.485-2.634-6.372-5.748-8.667-9.333c-2.295-3.584-3.432-8.064-3.432-13.44
			c0-4.875,0.896-9.213,2.688-12.994c1.793-3.781,4.208-7.006,7.246-9.64c3.038-2.635,6.579-4.655,10.611-6.055
			c4.033-1.398,8.295-2.088,12.775-2.088c4.578,0,9.213,0.427,13.891,1.269s8.459,2.219,11.354,4.108
			c-0.601,1.29-1.301,2.71-2.087,4.263c-0.798,1.552-1.552,2.983-2.239,4.327c-0.7,1.345-1.302,2.471-1.793,3.366
			c-0.504,0.896-0.799,1.398-0.896,1.497c-0.602-0.295-1.269-0.688-2.022-1.19c-0.753-0.504-1.824-0.994-3.213-1.497
			c-1.397-0.503-3.233-0.843-5.528-1.05c-2.295-0.208-5.235-0.152-8.819,0.152c-2,0.208-3.88,0.766-5.684,1.716
			c-1.804,0.951-3.389,2.109-4.786,3.509c-1.399,1.398-2.492,2.961-3.29,4.711c-0.798,1.736-1.191,3.421-1.191,5.005
			c0,3.979,1.137,7.19,3.433,9.64c2.283,2.447,5.126,4.579,8.514,6.426c3.388,1.848,7.071,3.64,11.06,5.377
			c3.979,1.737,7.694,3.868,11.138,6.351c3.441,2.479,6.295,5.605,8.59,9.333C386.515,628.354,387.662,633.15,387.662,639.029z"/>
	</g>
	<path fill="#C8BDB8" d="M256.821,264.857v-43.714H125.679v43.714v21.857v21.857v21.857v21.857v21.857V396v21.857v43.714h109.286
		h21.857h229.5v-43.714V396v-21.857v-21.857v-21.857v-21.857v-43.714L256.821,264.857L256.821,264.857z M147.536,243h87.429v21.857
		h-87.429V243z M147.536,286.714h87.429v21.857h-87.429V286.714z M147.536,330.429h87.429v21.857h-87.429V330.429z M147.536,374.143
		h87.429V396h-87.429V374.143z M234.964,439.714h-87.429v-21.855h87.429V439.714z M464.464,439.714H256.821v-21.855h207.643V439.714
		L464.464,439.714z M464.464,396H256.821v-21.857h207.643V396L464.464,396z M464.464,352.286H256.821v-21.857h207.643V352.286
		L464.464,352.286z M256.821,308.571v-21.857h207.643v21.857H256.821z"/>
</g>
<path fill="#FFFFFF" d="M493.192,559.098h18.229v110.116h-18.229v-75.757l-24.655,61.255h-15.835l-24.808-61.255v75.757h-18.229
	V559.098h18.229l32.72,75.311L493.192,559.098z"/>
</svg>
