<?xml version="1.0" encoding="utf-8"?>
<!-- Generator: Adobe Illustrator 16.0.2, SVG Export Plug-In . SVG Version: 6.00 Build 0)  -->
<!DOCTYPE svg PUBLIC "-//W3C//DTD SVG 1.1//EN" "http://www.w3.org/Graphics/SVG/1.1/DTD/svg11.dtd">
<svg version="1.1" id="Capa_1" xmlns="http://www.w3.org/2000/svg" xmlns:xlink="http://www.w3.org/1999/xlink" x="0px" y="0px"
	 width="612px" height="792px" viewBox="0 0 612 792" enable-background="new 0 0 612 792" xml:space="preserve">
<g>
	<path fill="#E9E9E0" d="M404.193,90H87.024c-8.831,0-15.989,7.158-15.989,21.048v580.023c0,3.771,7.158,10.929,15.989,10.929
		h437.951c8.83,0,15.989-7.158,15.989-10.929v-459.24c0-7.606-1.017-10.054-2.81-11.857L410.991,92.809
		C409.188,91.017,406.739,90,404.193,90z"/>
	<polygon fill="#D9D7CA" points="409.821,91.65 409.821,221.143 539.314,221.143 	"/>
	<path fill="#EA8D13" d="M524.976,702H87.024c-8.831,0-15.989-7.158-15.989-15.988V516.214h469.928v169.798
		C540.964,694.842,533.806,702,524.976,702z"/>
	<g>
		<path fill="#FFFFFF" d="M211.785,615.719l27.944,53.495h-20.764l-17.486-41.539h-1.497l-18.83,41.539h-20.764l27.944-53.495
			l-29.737-56.632h20.469l19.42,44.829h1.497l21.07-44.829h20.469L211.785,615.719z"/>
		<path fill="#FFFFFF" d="M349.692,559.098h18.229v110.116h-18.229v-75.757l-24.655,61.255h-15.835l-24.808-61.255v75.757h-18.229
			V559.098h18.229l32.72,75.31L349.692,559.098z"/>
		<path fill="#FFFFFF" d="M413.788,559.098v96.521h50.654v13.595H395.56V559.098H413.788z"/>
	</g>
	<path fill="#EA8D13" d="M169.393,352.286c-2.798,0-5.596-1.071-7.727-3.202c-4.273-4.273-4.273-11.18,0-15.453l65.571-65.572
		c4.273-4.273,11.18-4.273,15.453,0c4.273,4.273,4.273,11.18,0,15.453l-65.572,65.571
		C174.988,351.215,172.19,352.286,169.393,352.286z"/>
	<path fill="#EA8D13" d="M234.964,417.857c-2.798,0-5.596-1.071-7.727-3.202l-65.571-65.572c-4.273-4.273-4.273-11.18,0-15.453
		c4.273-4.273,11.18-4.273,15.453,0l65.572,65.571c4.273,4.273,4.273,11.18,0,15.453
		C240.56,416.786,237.762,417.857,234.964,417.857z"/>
	<path fill="#EA8D13" d="M366.107,417.857c-2.798,0-5.596-1.071-7.727-3.202c-4.273-4.273-4.273-11.18,0-15.453l65.571-65.571
		c4.273-4.273,11.18-4.273,15.453,0c4.272,4.273,4.272,11.18,0,15.453l-65.571,65.572
		C371.702,416.786,368.905,417.857,366.107,417.857z"/>
	<path fill="#EA8D13" d="M431.679,352.286c-2.798,0-5.596-1.071-7.727-3.202l-65.571-65.571c-4.273-4.273-4.273-11.18,0-15.453
		c4.272-4.273,11.18-4.273,15.453,0l65.571,65.572c4.272,4.273,4.272,11.18,0,15.453
		C437.274,351.215,434.477,352.286,431.679,352.286z"/>
	<path fill="#EA8D13" d="M267.75,439.714c-1.202,0-2.437-0.207-3.639-0.634c-5.694-2.011-8.677-8.251-6.667-13.944l65.571-185.786
		c2.021-5.693,8.229-8.688,13.945-6.666c5.693,2.011,8.677,8.251,6.666,13.945l-65.571,185.786
		C276.471,436.917,272.252,439.714,267.75,439.714z"/>
</g>
</svg>
