<?xml version="1.0" encoding="iso-8859-1"?>
<!-- Generator: Adobe Illustrator 19.0.0, SVG Export Plug-In . SVG Version: 6.00 Build 0)  -->
<svg version="1.1" id="Capa_1" xmlns="http://www.w3.org/2000/svg" xmlns:xlink="http://www.w3.org/1999/xlink" x="0px" y="0px"
	 viewBox="0 0 414.824 414.824" style="enable-background:new 0 0 414.824 414.824;" xml:space="preserve">
<path style="fill:#4DCFE0;" d="M340.637,0H74.188C59.559,0,48.065,11.494,48.065,26.122v373.029c0,5.747,3.657,11.494,9.404,14.106
	c5.747,2.612,12.016,1.567,16.718-2.612l36.571-33.959l38.139,33.959c5.747,5.224,15.151,5.224,20.898,0l37.616-33.959
	l37.616,33.959c5.747,5.224,15.151,5.224,20.898,0l38.139-33.959l36.571,33.959c2.612,2.612,6.792,4.18,10.449,4.18
	c2.09,0,4.18-0.522,6.269-1.567c5.747-2.09,9.404-7.837,9.404-14.106V26.122C366.759,11.494,355.265,0,340.637,0z"/>
<g>
	<path style="fill:#00BBD3;" d="M272.196,158.302H142.629c-8.882,0-15.673,6.792-15.673,15.673s6.792,15.673,15.673,15.673h129.567
		c8.882,0,15.673-6.792,15.673-15.673C287.869,165.094,281.078,158.302,272.196,158.302z"/>
	<path style="fill:#00BBD3;" d="M144.718,126.433c8.882,0,15.673-6.792,15.673-15.673V75.233c0-8.882-6.792-15.673-15.673-15.673
		c-8.882,0-15.673,6.792-15.673,15.673v35.527C129.045,119.641,135.837,126.433,144.718,126.433z"/>
	<path style="fill:#00BBD3;" d="M207.412,126.433c8.882,0,15.673-6.792,15.673-15.673V75.233c0-8.882-6.792-15.673-15.673-15.673
		s-15.673,6.792-15.673,15.673v35.527C191.739,119.641,198.531,126.433,207.412,126.433z"/>
	<path style="fill:#00BBD3;" d="M270.106,126.433c8.882,0,15.673-6.792,15.673-15.673V75.233c0-8.882-6.792-15.673-15.673-15.673
		c-8.882,0-15.673,6.792-15.673,15.673v35.527C254.433,119.641,261.224,126.433,270.106,126.433z"/>
	<path style="fill:#00BBD3;" d="M272.196,215.771H142.629c-8.882,0-15.673,6.792-15.673,15.673s6.792,15.673,15.673,15.673h129.567
		c8.882,0,15.673-6.792,15.673-15.673C287.869,222.563,281.078,215.771,272.196,215.771z"/>
	<path style="fill:#00BBD3;" d="M272.196,273.241H142.629c-8.882,0-15.673,6.792-15.673,15.673c0,8.882,6.792,15.673,15.673,15.673
		h129.567c8.882,0,15.673-6.792,15.673-15.673C287.869,280.033,281.078,273.241,272.196,273.241z"/>
</g>
<g>
</g>
<g>
</g>
<g>
</g>
<g>
</g>
<g>
</g>
<g>
</g>
<g>
</g>
<g>
</g>
<g>
</g>
<g>
</g>
<g>
</g>
<g>
</g>
<g>
</g>
<g>
</g>
<g>
</g>
</svg>
