<?xml version="1.0" encoding="utf-8"?>
<!-- Generator: Adobe Illustrator 16.0.2, SVG Export Plug-In . SVG Version: 6.00 Build 0)  -->
<!DOCTYPE svg PUBLIC "-//W3C//DTD SVG 1.1//EN" "http://www.w3.org/Graphics/SVG/1.1/DTD/svg11.dtd">
<svg version="1.1" id="Layer_1" xmlns="http://www.w3.org/2000/svg" xmlns:xlink="http://www.w3.org/1999/xlink" x="0px" y="0px"
	 width="212.26px" height="192.042px" viewBox="0 0 212.26 192.042" enable-background="new 0 0 212.26 192.042"
	 xml:space="preserve">
<g>
	<path fill-rule="evenodd" clip-rule="evenodd" fill="#B51229" d="M36.131,44.041c-0.038-7.651-0.901-15.41,0.085-22.927
		c1.358-10.357,9.03-15.835,18.328-19.044C58.59,0.672,62.819-0.014,67.192,0c26.458,0.083,52.918-0.107,79.375,0.123
		c9.089,0.079,17.284,3.152,23.952,9.751c3.869,3.829,5.457,8.49,5.574,13.7c0.152,6.819,0.037,13.645,0.037,20.467
		c-0.021,20,0.043,40-0.032,60c-46.608,0.063-93.215-0.129-139.822,0.096C35.945,84.106,36.222,64.073,36.131,44.041z"/>
	<path fill-rule="evenodd" clip-rule="evenodd" fill="#CE2A2A" d="M36.131,44.041c0,20,0,40,0,60c0,7.814,0.196,15.636-0.087,23.44
		c-0.13,3.581,0.559,4.708,4.495,4.675c26.269-0.223,52.54-0.115,78.811-0.115c17.458,0,34.918-0.154,52.374,0.117
		c3.941,0.062,4.626-1.096,4.496-4.677c-0.283-7.805-0.088-15.626-0.088-23.44c0-20,0-40,0-60
		c16.488-0.191,31.846,12.682,35.131,28.477c0.746,3.586,0.828,7.062,0.842,10.6c0.063,15.633-0.378,31.28,0.137,46.897
		c0.561,16.991-10.883,33.591-28.109,37.026c-5.424,1.782-11.02,0.705-16.536,1c-40.954,0-81.904,0-122.851,0
		c-5.538-0.297-11.161,0.781-16.613-1c-17.228-3.436-28.644-20.037-28.113-37.021c0.52-16.613,0.12-33.256,0.112-49.886
		C0.12,60.116,16.149,44.055,36.131,44.041z"/>
	<path fill-rule="evenodd" clip-rule="evenodd" fill="#3F3F3F" d="M44.131,192.042c-5.333,0-10.667,0-16,0c0-8.334,0-16.667,0-25
		c5.241,1.803,10.664,0.707,16,1C44.131,176.042,44.131,184.042,44.131,192.042z"/>
	<path fill-rule="evenodd" clip-rule="evenodd" fill="#3F3F3F" d="M184.131,192.042c-5.334,0-10.666,0-16,0c0-8,0-16,0-24
		c5.336-0.293,10.758,0.803,16-1C184.131,175.375,184.131,183.708,184.131,192.042z"/>
	<path fill-rule="evenodd" clip-rule="evenodd" fill="#F25655" d="M176.131,104.042c0,8.159-0.106,16.321,0.062,24.478
		c0.054,2.636-0.374,3.606-3.368,3.6c-44.462-0.112-88.925-0.112-133.387,0c-2.993,0.007-3.422-0.964-3.368-3.6
		c0.168-8.156,0.062-16.318,0.062-24.478C82.797,104.042,129.464,104.042,176.131,104.042z"/>
	<path fill-rule="evenodd" clip-rule="evenodd" fill="#F25655" d="M68.61,16.041c2.155,0,4.31,0,6.464,0
		c4.941,0,6.273,1.927,5.125,6.733c-0.46,1.927-1.66,1.226-2.604,1.234c-6.298,0.062-12.605-0.166-18.892,0.109
		c-3.531,0.154-2.666-2.116-2.5-3.804c0.163-1.661-1.64-4.624,2.465-4.322C61.966,16.234,65.295,16.042,68.61,16.041z"/>
</g>
</svg>
