<?xml version="1.0" encoding="utf-8"?>
<!-- Generator: Adobe Illustrator 22.1.0, SVG Export Plug-In . SVG Version: 6.00 Build 0)  -->
<svg xmlns="http://www.w3.org/2000/svg" xmlns:xlink="http://www.w3.org/1999/xlink" version="1.1" id="Layer_1" x="0px" y="0px" viewBox="0 0 512 512" style="enable-background:new 0 0 512 512;" xml:space="preserve" width="512" height="512">
<style type="text/css">
	.st0{fill:#FF624B;}
	.st1{fill:#FFC34C;}
	.st2{fill:#F9BB32;}
	.st3{fill:#DB9C2E;}
	.st4{fill:#FF4B34;}
	.st5{fill:#FF9079;}
	.st6{fill:#FCE575;}
	.st7{fill:#FFD551;}
	.st8{fill:#FFF4C1;}
	.st9{fill:#FFB74B;}
	.st10{fill:#EACF32;}
	.st11{fill:#99AF17;}
	.st12{fill:#CCC033;}
	.st13{fill:#FCDA4F;}
	.st14{fill:#FFA730;}
	.st15{fill:#FFEACF;}
	.st16{fill:#FFD59A;}
	.st17{fill:#FFDF74;}
	.st18{fill:#E58D23;}
	.st19{fill:#BF6C0D;}
	.st20{fill:#A56021;}
	.st21{fill:#8C4C17;}
	.st22{fill:#FFEA63;}
	.st23{fill:#FCF9DE;}
</style>
<g>
	<g>
		<path class="st6" d="M486.923,396.943H76.487c-5.523,0-10-4.477-10-10V126.766c0-5.523,4.477-10,10-10h410.436    c5.523,0,10,4.477,10,10v260.177C496.923,392.466,492.446,396.943,486.923,396.943z"/>
	</g>
	<g>
		<path class="st7" d="M125.896,385.061V128.648c0-6.562,5.32-11.882,11.882-11.882H78.369c-6.562,0-11.882,5.32-11.882,11.882    v256.414c0,6.562,5.32,11.882,11.882,11.882h59.409C131.215,396.943,125.896,391.624,125.896,385.061z"/>
	</g>
	<g>
		<path class="st1" d="M66.487,124.899v24.487L264.69,266.423c10.497,6.198,23.533,6.198,34.03,0l198.203-117.037v-24.487    c0-5.436-4.407-9.842-9.842-9.842H76.33C70.894,115.057,66.487,119.463,66.487,124.899z"/>
	</g>
	<g>
		<path class="st7" d="M342.836,240.994l-44.454,26.25c-10.497,6.198-23.533,6.198-34.03,0l-43.629-25.763L71.2,391.003    c-1.862,1.862-0.54,5.045,2.092,5.041l416.835-0.634c2.628-0.004,3.942-3.182,2.083-5.041L342.836,240.994z"/>
	</g>
	<g>
		<path class="st2" d="M125.896,149.386v-24.487c0-5.436,4.406-9.842,9.842-9.842H76.329c-5.436,0-9.842,4.406-9.842,9.842v24.487    L264.69,266.423c10.497,6.198,23.533,6.198,34.03,0l12.689-7.493L125.896,149.386z"/>
	</g>
	<g>
		<path class="st1" d="M133.035,395.953c-4.2-1.832-7.139-6.016-7.139-10.891v-48.754L71.2,391.003    c-0.837,0.837-1.026,1.941-0.746,2.902c0.993,0.89,2.13,1.62,3.382,2.138L133.035,395.953z"/>
	</g>
	<g>
		<path class="st20" d="M174.195,345.33H15.077c-3.313,0-6-2.686-6-6s2.687-6,6-6h159.119c3.313,0,6,2.686,6,6    S177.509,345.33,174.195,345.33z"/>
	</g>
	<g>
		<path class="st20" d="M287.383,375.33H15.077c-3.313,0-6-2.687-6-6s2.687-6,6-6h272.306c3.313,0,6,2.687,6,6    S290.696,375.33,287.383,375.33z"/>
	</g>
	<g>
		<path class="st20" d="M108.58,315.33H15.077c-3.313,0-6-2.686-6-6s2.687-6,6-6h93.503c3.313,0,6,2.686,6,6    S111.893,315.33,108.58,315.33z"/>
	</g>
	<g>
		<circle class="st2" cx="170.157" cy="140.008" r="18.791"/>
	</g>
	<g>
		<circle class="st17" cx="151.366" cy="261.467" r="18.791"/>
	</g>
	<g>
		<path class="st8" d="M473.217,334.488c-3.313,0-6-2.686-6-6V193.064c0-3.314,2.687-6,6-6s6,2.686,6,6v135.424    C479.217,331.802,476.53,334.488,473.217,334.488z"/>
	</g>
</g>
</svg>
