<?xml version="1.0" encoding="utf-8"?>
<!-- Generator: Adobe Illustrator 16.0.2, SVG Export Plug-In . SVG Version: 6.00 Build 0)  -->
<!DOCTYPE svg PUBLIC "-//W3C//DTD SVG 1.1//EN" "http://www.w3.org/Graphics/SVG/1.1/DTD/svg11.dtd">
<svg version="1.1" id="Layer_1" xmlns="http://www.w3.org/2000/svg" xmlns:xlink="http://www.w3.org/1999/xlink" x="0px" y="0px"
	 width="612.002px" height="450.602px" viewBox="-0.002 149.376 612.002 450.602"
	 enable-background="new -0.002 149.376 612.002 450.602" xml:space="preserve">
<g>
	<g>
		<g>
			<path d="M602.075,367.187c-34.347-44.039-78.838-80.466-128.659-105.34c-50.858-25.392-105.571-38.567-162.687-39.258
				c-1.573-0.043-7.889-0.043-9.462,0c-57.114,0.692-111.828,13.866-162.687,39.258c-49.822,24.875-94.31,61.3-128.658,105.34
				c-13.232,16.965-13.232,40.662,0,57.627c34.347,44.039,78.836,80.466,128.658,105.341
				c50.858,25.392,105.571,38.566,162.687,39.257c1.573,0.043,7.889,0.043,9.462,0c57.114-0.691,111.828-13.865,162.687-39.257
				c49.821-24.875,94.311-61.301,128.659-105.341C615.308,407.846,615.308,384.151,602.075,367.187z M149.703,507.879
				c-46.521-23.227-88.068-57.245-120.149-98.377c-6.2-7.95-6.2-19.054,0-27.003c32.08-41.132,73.626-75.15,120.149-98.378
				c13.213-6.596,26.706-12.3,40.448-17.128c-35.355,31.781-57.63,77.838-57.63,129.007c0,51.171,22.276,97.232,57.634,129.012
				C176.414,520.183,162.917,514.477,149.703,507.879z M306,544.58c-81.929,0-148.582-66.653-148.582-148.582
				S224.07,247.417,306,247.417S454.581,314.07,454.581,396S387.929,544.58,306,544.58z M582.444,409.5
				c-32.079,41.132-73.626,75.15-120.148,98.378c-13.197,6.589-26.682,12.268-40.407,17.092
				c35.331-31.779,57.589-77.823,57.589-128.972c0-51.176-22.281-97.239-57.642-129.021c13.746,4.831,27.244,10.542,40.461,17.141
				c46.521,23.228,88.068,57.246,120.149,98.378C588.645,390.447,588.645,401.551,582.444,409.5z"/>
		</g>
	</g>
	<g>
		<g>
			<path d="M306,332.414c-35.061,0-63.584,28.524-63.584,63.584s28.523,63.585,63.584,63.585s63.584-28.524,63.584-63.585
				C369.585,360.938,341.062,332.414,306,332.414z M306,434.688c-21.333,0-38.69-17.355-38.69-38.69
				c0-21.333,17.355-38.688,38.69-38.688c21.333,0,38.689,17.355,38.689,38.688C344.689,417.333,327.332,434.688,306,434.688z"/>
		</g>
	</g>
	<path fill-rule="evenodd" clip-rule="evenodd" d="M571.04,149.376c-0.406,0.428-0.773,0.903-1.225,1.276
		c-72.399,59.912-144.806,119.815-217.21,179.72C280.826,389.76,209.05,449.151,137.27,508.539
		c-27.73,22.944-55.465,45.886-83.198,68.827c-0.672,0.557-1.349,1.108-2.024,1.662c0,0.136,0,0.271,0,0.406
		c5.636,6.813,11.273,13.628,16.993,20.543c0.604-0.441,1.101-0.762,1.553-1.136c59.8-49.475,119.596-98.955,179.395-148.43
		c67.827-56.118,135.661-112.229,203.489-168.347c44.263-36.622,88.519-73.25,132.79-109.861c0.803-0.664,1.758-1.145,2.643-1.711
		c0-0.136,0-0.271,0-0.406c-0.366-0.281-0.801-0.505-1.088-0.852c-5.469-6.611-10.92-13.237-16.375-19.859
		C571.312,149.376,571.176,149.376,571.04,149.376z"/>
</g>
</svg>
