<svg id="Capa_1" enable-background="new 0 0 512 512" height="512" viewBox="0 0 512 512" width="512" xmlns="http://www.w3.org/2000/svg"><g><path d="m365.243 161.528h-218.486c-11.556 0-20.924-9.368-20.924-20.924v-72.093c0-37.777 30.735-68.511 68.511-68.511h123.312c37.777 0 68.511 30.734 68.511 68.511v72.093c0 11.556-9.368 20.924-20.924 20.924zm-197.562-41.848h176.638v-51.169c0-14.702-11.961-26.663-26.663-26.663h-123.312c-14.702 0-26.663 11.961-26.663 26.663z" fill="#f1d333"/><g fill="#e7a52e"><path d="m337.139 41.848h-19.483c14.702 0 26.663 11.961 26.663 26.663v51.169h19.483v-51.169c0-14.702-11.961-26.663-26.663-26.663z"/><path d="m145.316 140.604v-72.093c0-37.777 30.734-68.511 68.511-68.511h-19.483c-37.777 0-68.511 30.734-68.511 68.511v72.093c0 11.556 9.368 20.924 20.924 20.924h19.483c-11.556 0-20.924-9.368-20.924-20.924z"/></g><path d="m463.031 285.59v164.757c0 34.054-27.609 61.653-61.663 61.653h-290.741c-34.054 0-61.653-27.599-61.653-61.653v-164.757c0-34.054 27.599-61.653 61.653-61.653h290.741c34.054 0 61.663 27.599 61.663 61.653z" fill="#b16e3d"/><path d="m162.11 512h-51.484c-34.054 0-61.653-27.599-61.653-61.653v-164.757c0-34.054 27.599-61.653 61.653-61.653h51.484c-34.043 0-61.653 27.599-61.653 61.653v164.757c0 34.054 27.61 61.653 61.653 61.653z" fill="#8b572e"/><path d="m463.031 285.59v111.369c-11.487 10.41-26.731 16.76-43.459 16.76h-327.15c-16.718 0-31.962-6.34-43.449-16.75v-111.379c0-34.054 27.599-61.653 61.653-61.653h290.741c34.055 0 61.664 27.599 61.664 61.653z" fill="#8b572e"/><path d="m419.577 101.639h-327.154c-35.759 0-64.748 28.989-64.748 64.748v158.571c0 35.759 28.989 64.748 64.748 64.748h327.154c35.759 0 64.748-28.989 64.748-64.748v-158.571c0-35.76-28.989-64.748-64.748-64.748z" fill="#b16e3d"/><path d="m131.386 389.707h-38.972c-35.759 0-64.739-28.99-64.739-64.75v-158.573c0-35.759 28.98-64.75 64.739-64.75h38.971c-35.759 0-64.75 28.99-64.75 64.75v158.574c.001 35.759 28.991 64.749 64.751 64.749z" fill="#8b572e"/><path d="m280.416 432.846h-48.832c-18.411 0-33.337-14.925-33.337-33.337v-85.014c0-18.411 14.925-33.337 33.337-33.337h48.832c18.411 0 33.337 14.925 33.337 33.337v85.014c0 18.412-14.926 33.337-33.337 33.337z" fill="#f1d333"/><path d="m248.288 432.842h-16.708c-18.403 0-33.332-14.919-33.332-33.332v-85.015c0-18.413 14.929-33.343 33.332-33.343h16.708c-18.413 0-33.343 14.929-33.343 33.343v85.015c0 18.413 14.929 33.332 33.343 33.332z" fill="#e7a52e"/><path d="m231.584 401.46c-1.076 0-1.95-.875-1.95-1.95v-85.014c0-1.075.875-1.95 1.95-1.95h48.833c1.075 0 1.949.875 1.949 1.95v85.014c0 1.075-.875 1.95-1.949 1.95z" fill="#b16e3d"/></g></svg>