<?xml version="1.0" encoding="utf-8"?>
<!-- Generator: Adobe Illustrator 16.0.2, SVG Export Plug-In . SVG Version: 6.00 Build 0)  -->
<!DOCTYPE svg PUBLIC "-//W3C//DTD SVG 1.1//EN" "http://www.w3.org/Graphics/SVG/1.1/DTD/svg11.dtd">
<svg version="1.1" id="Layer_1" xmlns="http://www.w3.org/2000/svg" xmlns:xlink="http://www.w3.org/1999/xlink" x="0px" y="0px"
	 width="461.11px" height="511.037px" viewBox="0 0 461.11 511.037" enable-background="new 0 0 461.11 511.037"
	 xml:space="preserve">
<g>
	<path fill-rule="evenodd" clip-rule="evenodd" fill="#656D77" d="M321.416,438.212c-2.363-3.033-4.33-6.15-5.442-9.472l0.368-0.21
		l40.177-52.988l-4.616-10.861l-15.814-15.074c-0.085-0.495-0.263-0.997-0.584-1.51c-7.132-3.861-12.516-9.86-18.499-15.127
		c-0.158-0.591-0.528-0.964-1.133-1.093c-0.232,0.078-0.465,0.16-0.695,0.244c-2.514,2.11-2.566,5.295-3.406,8.087
		c-5.886,19.576-11.521,39.229-17.968,58.633c-0.714,2.569-1.258,5.182-2.026,7.737c-9.745,32.391-19.801,64.686-29.648,97.045
		c-0.61,2.006-1.837,4.039-0.379,6.199c5.724,0.019,11.447,0.036,17.171,0.055c2.23-0.903,3.727-2.602,5.233-4.426
		c14.037-16.998,27.623-34.361,41.631-51.385c1.827-2.223,4.473-4.089,4.637-7.41C328.19,443.021,323.985,441.512,321.416,438.212z"
		/>
	<path fill-rule="evenodd" clip-rule="evenodd" fill="#545C66" d="M0,452.082c1.585-4.877,1.29-10.061,2.688-15.02
		c5.829-20.677,21.325-31.635,39.516-40.023c19.578-9.028,39.952-16.312,58.846-26.842c1.609,0.344,2.469,1.593,3.382,2.787
		c12.942,16.925,26.064,33.711,38.991,50.648c3.863,5.062,3.779,5.229-0.838,9.911c-2.338,2.371-4.715,4.704-7.059,7.069
		c-4.147,4.185-4.174,4.461-0.544,9.029c11.286,14.207,22.82,28.215,34.143,42.393c3.946,4.941,8.266,9.587,11.861,14.803
		c1.219,1.769,2.323,3.719-1.281,4.114c-58.008,0.08-115.997,0.019-173.987,0.014c-1.944,0-4.049,0.493-5.699-1.127
		C0.012,490.587,0.006,471.335,0,452.082z"/>
	<path fill-rule="evenodd" clip-rule="evenodd" fill="#ECC6B6" d="M317.389,317.124c-3.214,3.329-1.048,7.875-1.327,11.868
		c0.656,0.936,0.784,1.903,0.181,2.914c-0.423,0.355-0.896,0.435-1.413,0.239c-2.004-3.413-1.09-6.84-0.682-10.104
		c-12.359,12.514-27.025,22.887-43.079,31.343c-11.991,6.471-24.736,10.435-38.333,11.583c-2.383,0.462-4.769,0.492-7.156,0.053
		c-12.032-1.274-23.41-4.789-34.252-10.107c-17.014-8.347-32.319-19.047-45.298-32.945c-0.36-0.646-0.594-1.364-1.079-1.942
		c-21.734-21.953-38.433-47.083-48.37-76.502c-7.182-21.258-9.164-43.169-8.421-65.439c0.652-4.991,3.804-8.803,6.174-12.969
		c7.739-13.604,15.536-27.174,23.461-40.671c3.367-5.734,4.294-5.949,10.436-3.619c25.489,9.667,51.73,16.451,78.815,19.536
		c25.898,2.951,51.478,0.165,76.755-5.785c15.898-3.742,31.591-8.179,46.838-14.103c4.938-1.918,6.297-1.479,9.052,3.038
		c9.973,16.348,19.948,32.694,29.801,49.114c2.792,4.652,3.047,10.209,2.58,15.478c-0.29,3.274-0.424,6.593-0.917,9.861
		c-0.014,0.994-5.413,35.79-17.779,64.06C340.75,290.885,321.118,313.261,317.389,317.124z"/>
	<path fill-rule="evenodd" clip-rule="evenodd" fill="#955353" d="M371.153,197.964c-0.068-0.493-0.257-1.003-0.187-1.475
		c1.961-13.221-2.202-24.442-9.756-35.308c-8.417-12.108-15.609-25.077-23.132-37.791c-1.664-2.814-2.909-3.452-6.195-2.173
		c-25.057,9.753-50.881,16.457-77.625,19.877c-44.716,5.72-86.882-4.362-128.238-19.822c-3.223-1.205-4.508-0.695-6.13,2.134
		c-10.48,18.282-21.135,36.464-31.731,54.679c-2.259-22.479-1.652-44.821,3.843-66.825c6.482-25.958,18.784-48.485,39.083-66.458
		c24.343-21.554,53.484-32.391,84.675-38.735c13.819-2.811,27.778-4.603,41.932-5.26c9.142-0.425,18.279-0.998,27.412-0.745
		c11.616,0.323,23.218,1.192,34.825,1.825c1.956,0.789,3.979,1.271,6.354,1.225c-1.258,2.309-4.087,2.047-5.352,3.891
		c-1.38,0.98-2.76,1.96-4.14,2.94c-1.86,4.304-5.698,6.871-8.831,10.057c-1.479,1.361-2.179,3.155-2.777,5.005
		c0.769,1.696,0.16,2.937-1.288,3.901c-2.512,4.794-1.961,9.967-1.859,15.084c1.609,3.202,2.423,6.487,1.032,9.999
		c0.967,2.748-1.143,7.678,4.861,6.854c3.329-1.841,6.615-2.096,9.829,0.271c4.39,0.945,8.78,1.891,13.171,2.836
		c3.197-0.42,5.575,1.177,7.794,3.166c1.407,0.875,2.813,1.749,4.221,2.624c4.224,0.359,7.127,2.578,8.935,6.341
		c1,1,2,2.001,3,3.002c3.636,2.411,6.729,5.223,7.307,9.893c0.883,1.411,1.766,2.821,2.648,4.232
		c2.362,1.667,2.85,4.163,3.008,6.804c1.321,4.388,2.642,8.776,3.962,13.165c2.089,2.696,2.851,5.583,1.273,8.809
		c1.812,12.299,0.737,24.663,0.836,37c1.083,3.148,0.742,6.146-0.946,9.003c-1.454,4.258-1.105,8.634-0.852,13.003
		c1.873,3.333,1.873,6.666-0.003,9.998C371.589,193.286,372.64,195.799,371.153,197.964z"/>
	<path fill-rule="evenodd" clip-rule="evenodd" fill="#656D78" d="M144.95,320.025c0.384,0.366,0.769,0.731,1.152,1.098
		c1.121,1.995,1.343,4.158,1.206,6.387c-0.038,2.045-0.047,4.09,0.479,6.092c0.389,1.672,0.937,3.305,1.338,4.974
		c0.361,1.885,1.032,3.68,1.624,5.498c0.546,2.564,1.403,5.043,2.138,7.556c0.314,1.372,0.633,2.744,1.087,4.08
		c0.609,2.014,1.309,3.998,1.976,5.992c0.426,1.339,0.86,2.675,1.183,4.043c0.396,2.069,1.206,4.013,1.842,6.01
		c0.432,1.349,0.872,2.695,1.207,4.072c0.606,3.019,1.91,5.825,2.689,8.79c0.31,1.352,0.614,2.705,1.055,4.022
		c0.583,1.988,1.322,3.926,1.901,5.918c0.145,0.45,0.252,0.908,0.354,1.368c0.239,1.199,0.795,2.282,1.249,3.405
		c10.307,34.479,20.873,68.875,31.488,103.257c0.719,2.326,1.9,4.681,1.13,7.28c-6.037-0.003-12.074-0.007-18.111-0.011
		c-16.678-20.786-33.306-41.611-50.104-62.298c-1.841-2.267-1.688-3.46,0.259-5.299c3.871-3.655,7.519-7.548,11.352-11.245
		c1.632-1.574,2.218-2.516,0.433-4.796c-13.264-16.947-26.29-34.08-39.376-51.166c-1.207-1.576-2.305-3.236-3.452-4.857
		c13.397-11.392,26.75-22.84,40.23-34.133c2.645-2.215,4.109-4.544,3.775-8.066C144.805,325.359,144.97,322.684,144.95,320.025z"/>
	<path fill-rule="evenodd" clip-rule="evenodd" fill="#D84453" d="M258.9,509.774c-18.949,0.007-37.899,0.014-56.849,0.02
		c-1.808-1.684-1.578-3.93-1.583-6.062c-0.036-15.453-0.037-30.906-0.009-46.359c0.005-2.342,0.253-4.641,1.115-6.846
		c4.361-11.141,8.798-22.25,13.332-33.321c0.633-1.545,1.448-2.993,2.746-4.113c2.605-1.962,5.673-1.72,8.629-1.622
		c5.449,0.181,10.956-0.773,16.346,0.732c2.253,1.221,2.935,3.529,3.809,5.664c4.099,10.013,8.053,20.084,12.095,30.119
		c1.261,3.134,1.889,6.351,1.887,9.732c-0.011,15.313,0.014,30.627-0.026,45.939C260.387,505.792,260.628,508.038,258.9,509.774z"/>
	<path fill-rule="evenodd" clip-rule="evenodd" fill="#545C66" d="M416.996,396.047c8.014,4.028,16.047,7.933,23.204,13.531
		c11.37,8.894,17.365,20.674,19.702,34.578c2.167,12.886,0.684,25.893,1.034,38.841c0.144,5.323-0.005,10.654-0.02,15.981
		c-11.522-6.271-24.019-2.393-36.041-3.457c-2.906-0.257-6.052,0.651-8.518-1.764c-1.227-2.139-1.055-4.505-1.058-6.819
		c-0.025-27.781-0.034-55.562,0.015-83.342C415.319,400.996,414.841,398.205,416.996,396.047z"/>
	<path fill-rule="evenodd" clip-rule="evenodd" fill="#E6E8E9" d="M258.9,509.774c0.01-17.83,0.023-35.66,0.021-53.49
		c0-1.653,0.063-3.282-0.603-4.908c-5.221-12.777-10.377-25.582-15.553-38.378c-0.575-1.665,0.307-2.948,1.266-4.073
		c6.352-7.463,12.299-15.263,18.826-22.578c0.332-0.372,0.8-0.584,1.275-0.755c6.879,1.186,12.743,5.058,19.228,7.308
		c2.306,0.8,4.544,1.87,6.809,2.829c1.652,0.94,3.851,1.102,4.68,3.234c-1.985,11.306-6.15,21.996-9.412,32.936
		c-7.757,26.017-15.775,51.954-23.688,77.924C260.8,509.807,259.85,509.79,258.9,509.774z"/>
	<path fill-rule="evenodd" clip-rule="evenodd" fill="#E6E8E9" d="M218.033,413.964c-5.061,12.485-10.102,24.979-15.202,37.448
		c-0.794,1.94-0.672,3.915-0.677,5.902c-0.042,17.493-0.072,34.987-0.104,52.48c-0.667,0.023-1.334,0.049-2.002,0.072
		c-4.188-13.265-8.483-26.497-12.544-39.802c-7.225-23.675-14.308-47.393-21.45-71.092c3.964-2.552,8.58-3.687,12.717-5.864
		c4.612-1.85,9.161-3.848,13.725-5.811c1.675-0.721,3.313-1.605,5.226-0.852c7.018,7.269,13.203,15.257,19.703,22.975
		C218.569,410.78,219.126,412.277,218.033,413.964z"/>
	<path fill-rule="evenodd" clip-rule="evenodd" fill="#F5F6F6" d="M294.85,398.963c-1.642-0.678-3.282-1.355-4.924-2.033
		c-4.886-4.06-10.988-5.773-16.59-8.402c-9.229-4.33-19.153-7.08-28.135-12.016c-1.513-0.831-2.833-0.56-4.235,0.072
		c-1.326,0.255-2.418-0.192-3.35-1.117c-1.224-2.348-3.816-2.937-5.75-4.357c-2.385-1.753-3.432,0.231-4.372,2.044
		c-1.096,1.397-2.495,2.236-4.297,2.331c-3.156-1.203-5.829-1.209-6.887,2.791c-0.645,0.791-1.456,1.287-2.481,1.406
		c-3.93-1.045-6.746,1.7-10.092,2.711c-7.656,2.313-14.436,6.462-21.843,9.202c-0.945,0.351-1.765,0.892-2.516,1.55
		c-2.765,2.035-6.418,1.909-9.285,3.97c-1.265,0.908-3.507,0.284-4.936-1.126c-0.065-0.333-0.132-0.666-0.197-0.999
		c1.436-2.642,0.15-4.436-1.869-6c-1.138-1.116-1.338-2.502-1.147-4c2.013-3.911-1.552-6.073-2.809-8.96
		c-0.492-1.315-1.489-2.488-1.146-4.041c1.692-2.715-0.762-4.127-1.872-5.961c-0.51-1.31-1.462-2.494-1.142-4.039
		c2.059-2.839,0.021-4.397-1.877-5.999c-1.121-1.129-1.354-2.505-1.11-4.012c1.201-3.283-0.247-5.713-2.534-7.872
		c-0.478-1.701-1.633-3.22-1.377-5.118c1.46-2.186,0.422-3.657-1.402-4.904c-1.327-1.928-0.549-4.043-0.541-6.09
		c3.689-0.736,6.433,1.453,8.691,3.597c17.789,16.89,38.539,28.113,62.481,33.488c2.793,0.627,5.254,0.323,7.636-1.149
		c2.645,0.008,5.29,0.017,7.935,0.024c4.235,2.379,8.387,1.244,12.667-0.051c9.041-2.735,18.376-4.756,25.38-11.831
		c15.844-8.434,30.329-18.737,43.373-31.962c1.339,4.302,0.104,8.256,0.878,12.014c-4.461,18.156-10.456,35.865-15.783,53.77
		C298.081,390.303,297.423,394.978,294.85,398.963z"/>
	<path fill-rule="evenodd" clip-rule="evenodd" fill="#F5F6F6" d="M224.943,363.929c-0.448,3.77-3.335,3.424-5.67,2.886
		c-13.047-3.009-25.58-7.146-37.362-13.924c-9.09-5.228-17.751-11.003-25.659-17.684c-3.245-2.741-6.434-5.233-10.117-7.214
		c-0.011-2.29-0.021-4.581-0.032-6.87c10.803,10.068,22.14,19.445,34.956,26.892c13.115,7.621,26.754,13.786,42.137,15.102
		C223.797,363.167,224.361,363.647,224.943,363.929z"/>
	<path fill-rule="evenodd" clip-rule="evenodd" fill="#F5F6F6" d="M270.925,352.071c-2.82,6.284-8.963,7.828-14.578,9.858
		c-5.551,2.006-11.377,3.237-16.976,5.124c-3.44,1.159-4.728-1.25-6.493-3.1c2.939-2.088,6.424-0.771,9.651-1.522
		C252.45,360.121,261.907,356.753,270.925,352.071z"/>
	<path fill-rule="evenodd" clip-rule="evenodd" fill="#F5F6F6" d="M165.158,395.988c5.081,1.256,8.941-3.098,13.771-2.998
		c0.255,0.221,0.339,0.441,0.254,0.662c-0.086,0.22-0.171,0.329-0.257,0.329c-4.09,2.18-8.004,4.814-12.871,4.992
		C165.756,397.979,165.457,396.983,165.158,395.988z"/>
	<path fill-rule="evenodd" clip-rule="evenodd" fill="#F5F6F6" d="M159.136,376.029c1.471,1.461,3.316,2.711,4.3,4.448
		c0.858,1.517,1.474,3.838-1.491,4.512C161.009,382.003,160.072,379.016,159.136,376.029z"/>
	<path fill-rule="evenodd" clip-rule="evenodd" fill="#F5F6F6" d="M149.455,344.105c5.092,2.966,5.491,4.209,2.534,7.872
		C151.145,349.354,150.3,346.729,149.455,344.105z"/>
	<path fill-rule="evenodd" clip-rule="evenodd" fill="#F5F6F6" d="M153.1,355.989c2.295-0.223,3.757,0.877,4.178,3.044
		c0.317,1.636-0.521,2.756-2.301,2.955C153.931,360.12,153.372,358.1,153.1,355.989z"/>
	<path fill-rule="evenodd" clip-rule="evenodd" fill="#F5F6F6" d="M163.092,388.989c1.724-0.024,3.365,0.231,3.692,2.288
		c0.25,1.564,0.606,3.377-1.823,3.712C163.928,393.117,163.357,391.101,163.092,388.989z"/>
	<path fill-rule="evenodd" clip-rule="evenodd" fill="#F5F6F6" d="M156.118,366.027c2.584,1.371,6.745,2.247,1.872,5.961
		C157.366,370.001,156.742,368.014,156.118,366.027z"/>
	<path fill-rule="evenodd" clip-rule="evenodd" fill="#F5F6F6" d="M146.676,334.083c1.293-0.01,2.825-0.339,3.131,1.496
		c0.243,1.463,0.419,3.075-1.729,3.408C147.61,337.353,147.144,335.718,146.676,334.083z"/>
	<path fill-rule="evenodd" clip-rule="evenodd" fill="#5C636D" d="M359.786,416.9c-11.92,0-23.84,0.001-35.761,0.002
		c-0.503-5.547,2.357-10.281,3.827-15.325c4.312-14.796,8.903-29.51,13.549-44.794c2.375,2.282,2.319,4.905,3.01,7.134
		c4.971,16.03,9.82,32.098,14.74,48.144C359.641,413.655,360.36,415.183,359.786,416.9z"/>
	<path fill-rule="evenodd" clip-rule="evenodd" fill="#EA5565" d="M237.929,374.851c0.839,0.775,1.761,1.347,2.971,1.218
		c8.063,2.243,15.819,5.179,22.729,10.033c-4.321,7.689-10.962,13.559-16.143,20.574c-1.562,2.115-3.146,4.216-4.719,6.322
		c-6.479,0.002-12.957,0.016-19.435-0.002c-1.835-0.005-3.665-0.077-5.3,0.968c0.275-2.276-1.336-3.605-2.559-5.143
		c-5.854-7.358-12.676-13.93-17.821-21.866c4.477-4.7,10.422-6.348,16.417-7.891c0.619-0.39,1.239-0.779,1.858-1.169
		c1.954-1.9,4.324-2.778,7.02-2.859c1.326-0.731,2.653-1.463,3.98-2.194C230.756,370.465,232.984,370.872,237.929,374.851z"/>
	<path fill-rule="evenodd" clip-rule="evenodd" fill="#F5F6F6" d="M263.629,386.102c-7.734-2.987-15.381-6.174-22.729-10.033
		c0.999-2.079,2.53-2.537,4.447-1.307c8.911,5.72,19.1,8.467,28.774,12.408c4.78,1.948,8.579,5.99,14.14,6.394
		c1.063,0.077,1.563,1.991,1.665,3.367C281.16,393.32,272.395,389.711,263.629,386.102z"/>
	<path fill-rule="evenodd" clip-rule="evenodd" fill="#F5F6F6" d="M214.07,379.064c-5.473,2.63-10.944,5.261-16.417,7.891
		c-6.612,1.357-12.118,5.661-18.728,7.026c0.003-0.33,0.004-0.661,0.003-0.991c2.321-4.307,7.347-4.286,10.939-6.59
		c5.365-3.44,12.307-3.769,17.605-7.921C209.279,377.065,211.942,377.876,214.07,379.064z"/>
	<path fill-rule="evenodd" clip-rule="evenodd" fill="#F5F6F6" d="M237.929,374.851c-3.635-0.845-6.863-3.913-11-2.009
		c1.129-4.327,3.201-5.314,6.084-2.317C234.563,372.137,238.544,370.983,237.929,374.851z"/>
	<path fill-rule="evenodd" clip-rule="evenodd" fill="#F5F6F6" d="M222.948,375.036c-2.138,1.449-4.344,2.732-7.02,2.859
		C216.517,372.669,218.37,371.914,222.948,375.036z"/>
	<path fill-rule="evenodd" clip-rule="evenodd" fill="#545C66" d="M461.11,511.037l-0.161-16.337l-22.758-77.797l-27.645-18.455
		c-0.001-2.458-0.001-4.917-0.002-7.376c-0.002-1.831,0.02-3.67-0.499-5.472c-1.851-3.444-2.909-1.19-3.066,0.674
		c-0.304,3.613-2.021,2.994-4.327,2.061c-6.787-2.748-13.577-5.543-20.163-8.689c-8.815-4.212-18.217-7.443-25.809-13.966
		c-0.836-0.718-1.864-1.542-3.09-0.517c0.61,2.233,1.181,4.479,1.838,6.698c1.265,4.276,2.537,8.551,3.804,12.827l-10.191-1.997
		l-18,38.187l-1.737,26.702c-2.508,3.033-5.033,6.053-7.504,9.115c-14.302,17.721-28.588,35.455-42.88,53.185
		c26.929-0.018,53.859-0.035,80.789-0.054L461.11,511.037z"/>
	<g>
		<path fill-rule="evenodd" clip-rule="evenodd" fill="#22ACCC" d="M446.915,311.011c-1.187,1.779-1.36,3.947-2.239,5.844
			c-0.075,0.161-0.201,0.299-0.303,0.446c-0.798-0.923-1.011,0.033-1.238,0.454c-1.8,3.319-3.771,6.539-5.673,9.797
			c-2.429,4.162-4.938,8.285-7.229,12.516c-3.239,5.984-6.839,11.752-10.167,17.682c-3.387,6.036-7.014,11.945-10.441,17.959
			c-3.119,5.476-6.33,10.898-9.449,16.373c-4.748,8.332-9.624,16.59-14.379,24.919c-4.629,8.108-9.467,16.097-13.965,24.283
			c-0.684,1.244-1.53,2.392-2.205,3.652c-0.57,1.065-0.367,1.591,0.676,2.188c4.564,2.615,9.313,4.898,13.807,7.642
			c0.637,0.389,1.571,0.522,1.529,1.581c-2.619-0.611-4.647-2.389-6.98-3.563c-7.831-3.941-15.111-8.893-23.037-12.671
			c-0.602-0.287-1.086-0.812-1.671-1.147c-1.113-0.638-2.2-1.484-3.408-1.754c-1.427-0.318-1.69,1.518-2.728,2.086
			c-0.275,0.152-0.511,0.339-0.845,0.246c-0.128-0.57,0.266-0.912,0.563-1.301c1.067-1.395,1.055-1.637-0.52-2.465
			c-5.687-2.994-11.232-6.243-16.903-9.268c-3.698-1.973-7.405-3.944-11.019-6.075c-0.746-0.439-1.563-0.85-1.42-1.947
			c1.077-2.153,3.232-3.194,4.971-4.614c9.73-7.949,19.249-16.149,28.879-24.218c8.112-6.797,16.216-13.604,24.299-20.435
			c7.09-5.99,14.22-11.937,21.258-17.99c4.691-4.035,9.461-7.982,14.237-11.92c4.297-3.542,8.404-7.313,12.838-10.689
			c2.767-1.688,4.925-4.11,7.391-6.159c2.66-2.211,5.452-4.266,7.954-6.664c0.12-0.126,0.252-0.237,0.387-0.345
			c1.2-0.723,2.063-1.871,3.254-2.613c-1.418,0.548-2.582,1.504-3.788,2.389c-0.144,0.093-0.297,0.169-0.454,0.236
			c-1.4,0.623-2.629,1.494-3.714,2.574c-3.649,2.678-7.581,4.921-11.356,7.405c-4.964,3.267-9.967,6.475-14.943,9.724
			c-6.375,4.163-12.789,8.268-19.191,12.388c-5.986,3.853-11.893,7.83-17.903,11.645c-11.97,7.598-23.802,15.409-35.692,23.129
			c-10.643,6.909-21.395,13.652-31.9,20.775c-1.738,1.179-3.615,2.146-5.307,3.415c-0.832,0.624-1.172,1.184-1.006,2.305
			c0.605,4.104,1.673,8.11,2.45,12.178c0.313,1.635,0.511,3.289,0.955,4.905c0.188,0.683,0.222,1.487-0.371,2.104
			c-1.075-2.503-1.196-5.231-1.82-7.842c-0.987-4.126-1.777-8.299-2.602-12.462c-0.131-0.661-0.572-0.962-1.028-1.219
			c-7.266-4.092-14.553-8.146-21.819-12.235c-5.235-2.946-10.454-5.922-15.66-8.919c-0.399-0.229-1.11-0.354-1.097-0.891
			c0.02-0.717,0.842-0.903,1.336-1.106c3.049-1.254,6.146-2.389,9.219-3.591c5.463-2.137,10.911-4.313,16.381-6.437
			c5.471-2.125,10.966-4.193,16.44-6.312c4.612-1.786,9.206-3.624,13.818-5.414c4.896-1.901,9.81-3.76,14.706-5.661
			c4.606-1.789,9.199-3.612,13.799-5.417c3.973-1.559,7.961-3.078,11.916-4.678c5.656-2.288,11.387-4.388,17.055-6.65
			c4.532-1.81,9.11-3.524,13.658-5.307c5.68-2.226,11.375-4.41,17.034-6.692c5.031-2.029,10.089-4.025,15.173-5.913
			c7.098-2.638,14.096-5.533,21.225-8.086c1.838-0.658,3.606-1.509,5.422-2.23c0.908-0.361,1.789-0.874,2.832-0.737
			C446.908,310.48,446.912,310.746,446.915,311.011z"/>
		<path fill-rule="evenodd" clip-rule="evenodd" fill="#137372" d="M300.917,428.013c0.458-2.223-0.614-4.246-0.941-6.353
			c-0.716-4.617-1.831-9.175-2.864-13.737c-0.261-1.148,0.694-1.25,1.187-1.576c5.653-3.742,11.354-7.411,17.036-11.107
			c12.191-7.931,24.371-15.879,36.574-23.794c10.074-6.533,20.178-13.021,30.261-19.542c17.64-11.405,35.272-22.82,52.907-34.23
			c1.234-0.874,2.502-1.697,3.75-2.549c0.103-0.039,0.208-0.067,0.316-0.085c0.744-0.219,1.082-0.035,0.775,0.785l0,0
			c-5.326,4.189-10.378,8.709-15.589,13.038c-6.466,5.456-12.933,10.911-19.397,16.369c-9.298,7.852-18.586,15.716-27.895,23.555
			c-8.829,7.438-17.684,14.844-26.52,22.272c-8.794,7.395-17.576,14.801-26.365,22.198c-2.064,1.738-4.137,3.466-6.205,5.197
			c-0.437,1.318-0.092,2.687-0.277,4.037c-1.297,9.469-2.216,18.982-3.412,28.465c-0.398,3.153-0.741,6.36-1.051,9.539
			c-0.392,4.033-0.839,8.086-1.418,12.11c-0.099,0.687-0.285,1.341-1.025,1.635c-1.15-1.4-1.061-3.218-1.381-4.821
			c-0.818-4.103-1.551-8.224-2.498-12.301c-0.69-3.629-1.351-7.265-2.079-10.886c-0.667-3.315-1.447-6.608-2.103-9.926
			C302.154,433.532,301.701,430.738,300.917,428.013z"/>
		<path fill-rule="evenodd" clip-rule="evenodd" fill="#1EA5CA" d="M385.638,456.347c-2.847-2.024-5.963-3.58-9.028-5.229
			c-2.376-1.278-4.665-2.731-7.092-3.901c-1.237-0.597-1.009-1.245-0.542-2.066c1.605-2.821,3.246-5.624,4.863-8.439
			c4.091-7.124,8.157-14.264,12.271-21.375c2.796-4.836,5.676-9.624,8.481-14.454c2.742-4.723,5.425-9.479,8.156-14.209
			c2.323-4.021,4.686-8.02,7.018-12.035c2.705-4.66,5.392-9.33,8.093-13.992c2.239-3.864,4.563-7.682,6.71-11.597
			c2.671-4.871,5.461-9.682,8.219-14.495c2.248-3.921,4.436-7.907,6.92-11.707c1.527-2.333,2.775-4.847,4.21-7.386
			c0.669,0.622,0.289,1.296,0.456,1.84l-0.003,0.009c-1.153,2.248-1.866,4.658-2.587,7.064c-2.258,6.405-4.48,12.823-6.783,19.212
			c-2.081,5.776-4.281,11.51-6.373,17.283c-1.838,5.075-3.578,10.186-5.395,15.269c-2.168,6.067-4.383,12.118-6.557,18.184
			c-1.799,5.023-3.555,10.062-5.355,15.085c-2.148,5.994-4.34,11.974-6.482,17.971c-1.818,5.091-3.581,10.202-5.393,15.296
			c-1.973,5.545-3.987,11.076-5.945,16.627c-0.338,0.959-0.924,0.908-1.583,0.551C389.81,458.708,387.728,457.519,385.638,456.347z"
			/>
		<path fill-rule="evenodd" clip-rule="evenodd" fill="#1EA5CA" d="M310.654,474.25c1.23-1.621,0.715-3.611,0.922-5.384
			c0.463-3.941,0.895-7.91,1.38-11.84c0.487-3.944,0.854-7.92,1.429-11.864c0.439-3.025,1.107-6.059,1.026-9.16
			c-0.066-2.525,0.68-4.969,0.931-7.472c0.279-2.799,0.641-5.612,0.906-8.426c0.061-0.637,0.199-1.214,0.7-1.649
			c0.017,0.799,0.543,1.078,1.192,1.432c9.349,5.096,18.674,10.235,28.002,15.368c0.322,0.178,0.6,0.442,0.929,0.604
			c1.22,0.602,1.366,1.275,0.268,2.187c-0.517,0.428-0.917,0.995-1.369,1.499c-1.099,1.146-2.196,2.295-3.294,3.442
			c-0.826,0.897-1.563,1.89-2.651,2.508c-0.228,0.285-0.454,0.569-0.682,0.854c-0.829,0.896-1.63,1.822-2.622,2.549l-0.01,0.012
			c-0.749,0.979-1.623,1.832-2.586,2.596l-0.012,0.012c-1.002,1.219-2.115,2.33-3.333,3.334l-0.011,0.012
			c-3.803,4.118-7.887,7.959-11.818,11.95c-2.377,2.412-4.783,4.796-7.184,7.186c-0.39,0.388-0.721,0.89-1.268,1.046
			C310.864,475.225,310.21,475.281,310.654,474.25z"/>
	</g>
</g>
</svg>
