<?xml version="1.0" encoding="utf-8"?>
<!-- Generator: Adobe Illustrator 16.0.2, SVG Export Plug-In . SVG Version: 6.00 Build 0)  -->
<!DOCTYPE svg PUBLIC "-//W3C//DTD SVG 1.1//EN" "http://www.w3.org/Graphics/SVG/1.1/DTD/svg11.dtd">
<svg version="1.1" id="Layer_1" xmlns="http://www.w3.org/2000/svg" xmlns:xlink="http://www.w3.org/1999/xlink" x="0px" y="0px"
	 width="428.395px" height="424.061px" viewBox="0 0 428.395 424.061" enable-background="new 0 0 428.395 424.061"
	 xml:space="preserve">
<g>
	<path fill-rule="evenodd" clip-rule="evenodd" fill="#F4C223" d="M428.09,123.719c0.057,44.488,0.139,88.978,0.16,133.466
		c0.021,47.657,0.006,95.313-0.035,142.971c-0.014,15.559-8.217,23.882-23.641,23.886c-127.142,0.026-254.281,0.026-381.422,0
		c-14.691-0.003-23.136-8.563-23.139-23.388c-0.023-91.48-0.011-182.962-0.004-274.442c0-0.832,0.074-1.664,0.114-2.495
		c2.854-1.952,6.111-1.33,9.222-1.331c82.737-0.033,165.475-0.026,248.211-0.026c53.938,0,107.875-0.01,161.813,0.024
		C422.318,122.384,425.406,121.834,428.09,123.719z"/>
	<path fill-rule="evenodd" clip-rule="evenodd" fill="#22ACCC" d="M428.186,123.719c-108.824,0.018-217.65,0.041-326.474,0.049
		c-33.831,0.004-67.661-0.033-101.491-0.051C0.183,94.416-0.093,65.113,0.231,35.817c0.124-11.122,9.76-19.45,21.367-19.517
		c22.812-0.129,45.623-0.081,68.435-0.106c3.116,1.195,2.575,4.001,2.605,6.37c0.128,10.14,0.045,20.282,0.056,30.424
		c0.001,1.662-0.025,3.325,0.014,4.987c0.225,9.544,5.537,15.491,13.858,15.524c8.996,0.037,15.013-6.029,15.124-15.524
		c0.135-11.637-0.035-23.276,0.086-34.913c0.026-2.522-0.653-5.503,2.569-6.924c52.893,0.013,105.786,0.025,158.678,0.039
		c3.305,1.352,2.588,4.359,2.617,6.869c0.139,12.303-0.166,24.611,0.137,36.909c0.264,10.679,10.83,17.003,20.32,12.257
		c6.182-3.092,8.449-8.72,8.566-15.261c0.189-10.639,0.039-21.282,0.064-31.923c0.004-1.662-0.043-3.327,0.148-4.982
		c0.199-1.707,0.574-3.314,2.529-3.883c29.141,0.033,58.279,0.05,87.42,0.107c14.953,0.029,23.578,8.601,23.568,23.537
		C428.375,67.778,428.26,95.748,428.186,123.719z"/>
	<path fill-rule="evenodd" clip-rule="evenodd" fill="#1EA5CA" d="M124.345,16.139c-1.665,1.633-1.132,3.732-1.138,5.678
		c-0.038,12.156,0.025,24.312-0.043,36.467c-0.059,10.322-6.518,16.987-16.239,16.928c-9.369-0.059-15.726-6.765-15.783-16.83
		c-0.069-12.154-0.005-24.311-0.041-36.467c-0.006-1.951,0.479-4.039-1.068-5.721c1.675-1.053,1.188-2.997,1.785-4.488
		c2.986-7.459,9.47-12.102,16.647-11.691c6.637,0.38,12.499,5.592,14.592,13.032C123.365,14.141,123.182,15.41,124.345,16.139z"/>
	<path fill-rule="evenodd" clip-rule="evenodd" fill="#1EA5CA" d="M317.406,16.164c-1.936,1.483-1.357,3.617-1.363,5.549
		c-0.037,12.322,0.076,24.645-0.064,36.965c-0.086,7.564-4.406,13.617-10.846,15.847c-6.328,2.191-13.26,0.245-17.664-4.94
		c-2.613-3.077-3.539-6.664-3.525-10.643c0.047-12.322,0.02-24.645-0.012-36.966c-0.004-1.968,0.4-4.024-0.908-5.798
		c1.682-3.836,2.291-8.105,5.629-11.24c4.17-3.92,8.777-5.957,14.408-4.428c6.158,1.675,10.469,5.5,12.031,11.885
		C315.479,13.977,315.129,15.818,317.406,16.164z"/>
	<path fill-rule="evenodd" clip-rule="evenodd" fill="#22ACCC" d="M309.143,191.222c-1.188,1.779-1.361,3.947-2.24,5.844
		c-0.074,0.161-0.201,0.299-0.303,0.446c-0.797-0.923-1.01,0.033-1.238,0.454c-1.799,3.319-3.77,6.539-5.672,9.797
		c-2.43,4.162-4.938,8.285-7.229,12.516c-3.24,5.984-6.84,11.752-10.168,17.682c-3.387,6.036-7.014,11.945-10.441,17.959
		c-3.119,5.476-6.33,10.898-9.449,16.373c-4.748,8.332-9.623,16.59-14.379,24.919c-4.629,8.108-9.467,16.097-13.965,24.283
		c-0.684,1.244-1.529,2.392-2.205,3.652c-0.57,1.065-0.367,1.591,0.676,2.188c4.564,2.615,9.314,4.898,13.807,7.642
		c0.637,0.389,1.572,0.522,1.529,1.581c-2.619-0.611-4.646-2.389-6.98-3.563c-7.83-3.941-15.111-8.893-23.037-12.671
		c-0.602-0.287-1.086-0.812-1.671-1.147c-1.113-0.638-2.2-1.484-3.408-1.754c-1.427-0.318-1.69,1.518-2.728,2.086
		c-0.275,0.152-0.511,0.339-0.845,0.246c-0.128-0.57,0.266-0.912,0.563-1.301c1.067-1.395,1.055-1.637-0.52-2.465
		c-5.687-2.994-11.232-6.243-16.903-9.268c-3.698-1.973-7.405-3.944-11.019-6.075c-0.746-0.439-1.563-0.85-1.42-1.947
		c1.077-2.153,3.232-3.194,4.971-4.614c9.73-7.949,19.249-16.149,28.879-24.218c8.113-6.797,16.216-13.604,24.298-20.435
		c7.09-5.99,14.221-11.937,21.258-17.99c4.691-4.035,9.461-7.982,14.238-11.92c4.297-3.542,8.404-7.313,12.838-10.689
		c2.766-1.688,4.924-4.11,7.391-6.159c2.66-2.211,5.451-4.266,7.953-6.664c0.121-0.126,0.252-0.237,0.387-0.345
		c1.201-0.723,2.063-1.871,3.254-2.613c-1.418,0.548-2.582,1.504-3.787,2.389c-0.145,0.093-0.297,0.169-0.455,0.236
		c-1.4,0.623-2.629,1.494-3.713,2.574c-3.65,2.678-7.582,4.921-11.357,7.405c-4.963,3.267-9.967,6.475-14.943,9.724
		c-6.375,4.163-12.789,8.268-19.191,12.388c-5.986,3.853-11.893,7.83-17.902,11.645c-11.971,7.598-23.802,15.409-35.693,23.129
		c-10.643,6.909-21.395,13.652-31.9,20.775c-1.738,1.179-3.615,2.146-5.306,3.415c-0.833,0.624-1.172,1.184-1.006,2.305
		c0.605,4.104,1.673,8.11,2.45,12.178c0.313,1.635,0.511,3.289,0.955,4.905c0.188,0.683,0.222,1.487-0.371,2.104
		c-1.075-2.503-1.196-5.231-1.82-7.842c-0.987-4.126-1.777-8.299-2.602-12.462c-0.131-0.661-0.572-0.962-1.028-1.219
		c-7.266-4.092-14.552-8.146-21.819-12.235c-5.235-2.946-10.455-5.922-15.66-8.919c-0.399-0.229-1.11-0.354-1.096-0.891
		c0.019-0.717,0.841-0.903,1.336-1.106c3.049-1.254,6.146-2.389,9.218-3.591c5.463-2.137,10.912-4.313,16.381-6.437
		c5.472-2.125,10.966-4.193,16.441-6.312c4.612-1.786,9.206-3.624,13.818-5.414c4.896-1.901,9.81-3.76,14.706-5.661
		c4.606-1.789,9.199-3.612,13.799-5.417c3.973-1.559,7.961-3.078,11.916-4.678c5.656-2.288,11.386-4.388,17.054-6.65
		c4.533-1.81,9.111-3.524,13.658-5.307c5.68-2.226,11.375-4.41,17.035-6.692c5.031-2.029,10.088-4.025,15.172-5.913
		c7.098-2.638,14.096-5.533,21.225-8.086c1.838-0.658,3.607-1.509,5.422-2.23c0.908-0.361,1.789-0.874,2.832-0.737
		C309.135,190.69,309.139,190.956,309.143,191.222z"/>
	<path fill-rule="evenodd" clip-rule="evenodd" fill="#137372" d="M163.144,308.224c0.458-2.223-0.615-4.246-0.941-6.353
		c-0.716-4.617-1.831-9.175-2.865-13.737c-0.26-1.148,0.695-1.25,1.187-1.576c5.653-3.742,11.354-7.411,17.036-11.107
		c12.191-7.931,24.371-15.879,36.574-23.794c10.074-6.533,20.177-13.021,30.261-19.542c17.639-11.405,35.271-22.82,52.906-34.23
		c1.234-0.874,2.502-1.697,3.75-2.549c0.104-0.039,0.209-0.067,0.316-0.085c0.744-0.219,1.082-0.035,0.775,0.785l0,0
		c-5.326,4.189-10.377,8.709-15.588,13.038c-6.467,5.456-12.934,10.911-19.398,16.369c-9.297,7.852-18.586,15.716-27.895,23.555
		c-8.828,7.438-17.684,14.844-26.519,22.272c-8.794,7.395-17.576,14.801-26.365,22.198c-2.064,1.738-4.137,3.466-6.205,5.197
		c-0.437,1.318-0.092,2.687-0.277,4.037c-1.297,9.469-2.216,18.982-3.412,28.465c-0.398,3.153-0.741,6.36-1.051,9.539
		c-0.392,4.033-0.839,8.086-1.418,12.11c-0.099,0.687-0.285,1.341-1.025,1.635c-1.15-1.4-1.061-3.218-1.381-4.821
		c-0.818-4.103-1.551-8.224-2.498-12.301c-0.69-3.629-1.351-7.265-2.079-10.886c-0.667-3.315-1.447-6.608-2.103-9.926
		C164.381,313.742,163.928,310.948,163.144,308.224z"/>
	<path fill-rule="evenodd" clip-rule="evenodd" fill="#1EA5CA" d="M247.865,336.558c-2.846-2.024-5.963-3.58-9.027-5.229
		c-2.377-1.278-4.666-2.731-7.092-3.901c-1.238-0.597-1.01-1.245-0.543-2.066c1.605-2.821,3.246-5.624,4.863-8.439
		c4.092-7.124,8.158-14.264,12.271-21.375c2.795-4.836,5.676-9.624,8.48-14.454c2.742-4.723,5.426-9.479,8.156-14.209
		c2.324-4.021,4.686-8.02,7.018-12.035c2.705-4.66,5.393-9.33,8.094-13.992c2.238-3.864,4.563-7.682,6.709-11.597
		c2.672-4.871,5.461-9.682,8.219-14.495c2.248-3.921,4.436-7.907,6.92-11.707c1.527-2.333,2.775-4.847,4.211-7.386
		c0.668,0.622,0.289,1.296,0.455,1.84l-0.002,0.009c-1.154,2.248-1.867,4.658-2.588,7.064c-2.258,6.405-4.48,12.823-6.783,19.212
		c-2.08,5.776-4.281,11.51-6.373,17.283c-1.838,5.075-3.578,10.186-5.395,15.269c-2.168,6.067-4.383,12.118-6.557,18.184
		c-1.799,5.023-3.555,10.062-5.355,15.085c-2.148,5.994-4.34,11.974-6.482,17.971c-1.818,5.091-3.58,10.202-5.393,15.296
		c-1.973,5.545-3.986,11.076-5.945,16.627c-0.338,0.959-0.924,0.908-1.582,0.551C252.037,338.919,249.955,337.729,247.865,336.558z"
		/>
	<path fill-rule="evenodd" clip-rule="evenodd" fill="#1EA5CA" d="M172.881,354.46c1.23-1.621,0.715-3.611,0.922-5.384
		c0.463-3.941,0.895-7.91,1.38-11.84c0.487-3.944,0.854-7.92,1.429-11.864c0.439-3.025,1.107-6.059,1.026-9.16
		c-0.066-2.525,0.68-4.969,0.931-7.472c0.279-2.799,0.641-5.612,0.906-8.426c0.061-0.637,0.199-1.214,0.7-1.649
		c0.017,0.799,0.543,1.078,1.192,1.432c9.349,5.096,18.674,10.235,28.002,15.368c0.322,0.178,0.6,0.442,0.929,0.604
		c1.22,0.602,1.366,1.275,0.268,2.187c-0.517,0.428-0.917,0.995-1.369,1.499c-1.099,1.146-2.196,2.295-3.294,3.442
		c-0.826,0.897-1.563,1.89-2.651,2.508c-0.228,0.285-0.454,0.569-0.682,0.854c-0.829,0.896-1.63,1.822-2.622,2.549l-0.01,0.012
		c-0.749,0.979-1.623,1.832-2.586,2.596l-0.012,0.012c-1.002,1.219-2.115,2.33-3.333,3.334l-0.011,0.012
		c-3.803,4.118-7.887,7.959-11.818,11.95c-2.377,2.412-4.783,4.796-7.184,7.186c-0.39,0.388-0.721,0.89-1.268,1.046
		C173.091,355.436,172.438,355.491,172.881,354.46z"/>
	<path fill-rule="evenodd" clip-rule="evenodd" fill="#7FCDD4" d="M172.881,354.46c0.729,1.395,1.248,0.225,1.682-0.204
		c3.854-3.808,7.643-7.682,11.514-11.472c2.633-2.578,5.047-5.381,7.92-7.711c0.003,0.798-0.66,1.156-1.121,1.619
		c-5.922,5.954-11.862,11.893-17.799,17.834c-0.174,0.175-0.333,0.371-0.529,0.518c-0.525,0.391-1.037,1.099-1.709,0.855
		c-0.659-0.238-0.375-1.087-0.498-1.67c-1.064-5.022-2.137-10.044-3.173-15.072c-0.122-0.589-0.042-1.219-0.056-1.829
		c1.324,1.968,1.055,4.357,1.656,6.522C171.729,347.315,172.202,350.917,172.881,354.46z"/>
	<path fill-rule="evenodd" clip-rule="evenodd" fill="#7FCDD4" d="M304.01,204.585c0.369-2.536,0.982-4.981,2.588-7.064
		C305.955,199.956,305.096,202.313,304.01,204.585z"/>
	<path fill-rule="evenodd" clip-rule="evenodd" fill="#7FCDD4" d="M194.007,335.062c0.909-1.313,2.024-2.421,3.333-3.334
		C196.625,333.233,195.514,334.346,194.007,335.062z"/>
	<path fill-rule="evenodd" clip-rule="evenodd" fill="#7FCDD4" d="M197.352,331.716c0.654-1.072,1.529-1.925,2.586-2.596
		C199.476,330.384,198.602,331.236,197.352,331.716z"/>
	<path fill-rule="evenodd" clip-rule="evenodd" fill="#7FCDD4" d="M199.948,329.108c0.695-1.033,1.473-1.982,2.622-2.549
		C202.015,327.737,201.231,328.68,199.948,329.108z"/>
	<path fill-rule="evenodd" clip-rule="evenodd" fill="#7FCDD4" d="M203.251,325.705c0.782-0.942,1.521-1.932,2.651-2.508
		C205.344,324.378,204.621,325.382,203.251,325.705z"/>
	<path fill-rule="evenodd" clip-rule="evenodd" fill="#3BA2A1" d="M286.557,209.073c1.736-2.359,4.299-3.814,6.402-5.777
		c2.598-2.425,5.463-4.561,8.205-6.829c0.295-0.243,0.578-0.458,0.98-0.432c-2.162,2.542-5.012,4.3-7.471,6.507
		c-2.324,2.086-4.754,4.057-7.154,6.058C287.252,208.822,286.879,208.918,286.557,209.073z"/>
	<path fill-rule="evenodd" clip-rule="evenodd" fill="#3BA2A1" d="M302.145,196.035c0.002-0.52-0.324-0.714-0.775-0.785
		c1.324-1.587,3.17-2.342,5.076-3.059C305.283,193.776,303.855,195.058,302.145,196.035z"/>
	<path fill-rule="evenodd" clip-rule="evenodd" fill="#3BA2A1" d="M301.053,195.335c-0.979,1.249-2.324,1.956-3.75,2.549
		C298.305,196.667,299.604,195.89,301.053,195.335z"/>
</g>
</svg>
