<?xml version="1.0" encoding="utf-8"?>
<!-- Generator: Adobe Illustrator 16.0.2, SVG Export Plug-In . SVG Version: 6.00 Build 0)  -->
<!DOCTYPE svg PUBLIC "-//W3C//DTD SVG 1.1//EN" "http://www.w3.org/Graphics/SVG/1.1/DTD/svg11.dtd">
<svg version="1.1" id="Layer_1" xmlns="http://www.w3.org/2000/svg" xmlns:xlink="http://www.w3.org/1999/xlink" x="0px" y="0px"
	 width="439.215px" height="439.102px" viewBox="0 0 439.215 439.102" enable-background="new 0 0 439.215 439.102"
	 xml:space="preserve">
<g>
	<path fill-rule="evenodd" clip-rule="evenodd" fill="#F6B53E" d="M234.002,405.185c-10.709,2.16-21.406,4.386-32.131,6.471
		c-32.34,6.286-64.691,12.517-97.039,18.769c-0.787,0.152-1.576,0.637-2.363-0.004c-0.574-1.063,0.123-1.938,0.504-2.791
		c19.707-44.196,22.699-89.831,12.43-136.817c-4.229-19.343-8.18-38.809-10.893-58.407c-6.994-50.536,20.338-103.771,64.514-127.24
		c1.064-2.293,3.215-3.258,5.291-4.3c17.023-8.538,34.936-13.423,54.102-13.179c4.645,0.059,9.293-0.012,13.939,0.022
		c1.994,0.015,4.01-0.011,5.648,1.43c12.572,2.489,25.047,5.262,36.725,10.825c41.176,19.616,65.465,52.01,74.238,96.658
		c5.906,30.051,10.031,60.504,18.719,89.952c8.416,28.525,22.938,53.813,42.363,76.301c4.699,5.438,4.727,5.479-2.1,6.811
		c-38.242,7.453-76.49,14.878-114.738,22.301c-0.977,0.189-1.979,0.246-2.969,0.365c-3.033,2.185-6.52,2.922-10.139,3.612
		c-15.639,2.982-31.242,6.145-46.883,9.121C240.129,405.672,237.088,406.22,234.002,405.185z"/>
	<path fill-rule="evenodd" clip-rule="evenodd" fill="#EA9D29" d="M248.004,89.138c-5.967,0.002-11.939,0.132-17.904-0.016
		c-21.918-0.545-42.035,5.679-61.076,16.043c0.111-5.215-1.557-10.156-2.424-15.214c-3.68-21.463,9.945-41.764,31.238-46.315
		c21.168-4.525,42.051,8.637,47.17,29.868C246.25,78.656,247.018,83.923,248.004,89.138z"/>
	<path fill-rule="evenodd" clip-rule="evenodd" fill="#EF5546" d="M0,150.225C0.037,96.916,31.676,53.116,76.973,38.328
		c6.48-2.116,6.48-2.116,8.25,4.599c2.279,8.656,2.279,8.657-5.676,11.569c-40,14.645-66.313,54.893-63.316,97.223
		c0.926,13.064,4.244,25.601,10.539,37.178c1.633,3.004,1.807,4.649-1.609,6.617c-10.65,6.133-10.555,6.296-15.617-5.064
		C3.08,175.944,0.133,160.705,0,150.225z"/>
	<path fill-rule="evenodd" clip-rule="evenodd" fill="#EF5546" d="M439.215,111.781c-0.021,7.451-0.42,13.585-1.318,19.695
		c-0.393,2.669-1.271,3.805-4.25,2.925c-3.652-1.079-8.371-0.568-10.945-2.74c-2.783-2.346,0.033-6.869,0.297-10.406
		c3.879-51.683-31.189-92.676-74.852-102.462c-7.494-1.68-15.078-2.803-22.762-2.356c-3.408,0.198-4.766-0.869-4.936-4.281
		c-0.73-14.725-2.16-12.076,10.559-11.796c53.127,1.167,100.156,43.68,107.102,96.284
		C438.832,102.115,439.104,107.574,439.215,111.781z"/>
	<path fill-rule="evenodd" clip-rule="evenodd" fill="#DA9224" d="M234.002,405.185c22.08-4.279,44.158-8.558,66.238-12.836
		c-2.51,2.383-0.781,4.998-0.316,7.473c4.053,21.578-11.467,39.998-33.133,39.259c-14.164-0.483-26.678-11.44-29.834-25.856
		C236.354,410.47,237.15,407.053,234.002,405.185z"/>
	<path fill-rule="evenodd" clip-rule="evenodd" fill="#EF5546" d="M407.133,111.326c-0.203,5.512-0.137,9.651-0.809,13.795
		c-0.473,2.921-1.836,3.595-4.398,2.972c-0.322-0.078-0.66-0.086-0.984-0.16c-3.389-0.771-7.623-0.581-9.926-2.596
		c-2.336-2.044-0.021-6.212,0.039-9.455c0.697-37.274-26-65.704-63.641-67.279c-3.768-0.158-4.941-1.37-5.041-4.807
		c-0.367-12.729-2.623-12.534,11.211-10.993c38.77,4.32,65.988,30.264,72.771,68.451
		C407.02,104.995,406.957,108.866,407.133,111.326z"/>
	<path fill-rule="evenodd" clip-rule="evenodd" fill="#EF5546" d="M32.152,147.37c0.281-36.825,22.588-67.608,54.887-78.419
		c3.26-1.091,5.344-1.215,5.99,2.919c0.563,3.591,2.961,7.529,2.031,10.537c-0.902,2.923-5.898,2.817-9.025,4.21
		c-32.607,14.528-46.891,53.44-31.373,86.318c1.73,3.666,1.027,5.08-2.176,6.904c-10.189,5.801-10.117,5.906-14.494-4.79
		C34.031,165.371,32.322,155.263,32.152,147.37z"/>
	<path fill-rule="evenodd" clip-rule="evenodd" fill="#EF5546" d="M375.016,112.749c0.004,10.056,0.051,9.772-9.813,8.149
		c-5.021-0.827-6.582-2.593-6.432-7.92c0.479-17.042-12.861-31.024-29.891-31.912c-2.869-0.149-3.943-0.827-4.324-3.856
		c-1.625-12.951-0.422-14.164,12.361-11.368C359.377,70.753,375.006,89.995,375.016,112.749z"/>
	<path fill-rule="evenodd" clip-rule="evenodd" fill="#EF5546" d="M64.184,147.16c0.035-21.583,12.582-39.811,30.574-46.809
		c3.451-1.342,5.537-1.426,6.318,2.898c0.588,3.256,2.783,6.502,2.469,9.569c-0.389,3.782-5.197,3.266-7.879,4.975
		c-13.406,8.544-18.961,25.004-12.768,39.758c1.225,2.919,1.209,4.52-1.854,5.788c-1.832,0.758-3.482,1.952-5.229,2.926
		c-5.605,3.132-5.619,3.132-7.896-2.685C65.594,157.636,64.264,151.486,64.184,147.16z"/>
	<path fill-rule="evenodd" clip-rule="evenodd" fill="#F3C56F" d="M171.883,348.071c-1,14.169-4.021,27.14-10.904,39.017
		c-1.598,2.756-3.129,3.694-6.322,1.587c-9.289-6.129-9.326-5.943-4.629-15.702c6.463-13.425,6.58-27.42,3.486-41.666
		c-0.387-1.777-0.697-3.572-1.107-5.344c-0.336-1.447,0.35-2.325,1.605-2.62c3.383-0.793,6.795-1.455,10.199-2.155
		c2.813-0.578,3.863,1.103,4.414,3.45C170.484,332.555,170.832,340.681,171.883,348.071z"/>
</g>
</svg>
