<?xml version="1.0" encoding="utf-8"?>
<!-- Generator: Adobe Illustrator 16.0.2, SVG Export Plug-In . SVG Version: 6.00 Build 0)  -->
<!DOCTYPE svg PUBLIC "-//W3C//DTD SVG 1.1//EN" "http://www.w3.org/Graphics/SVG/1.1/DTD/svg11.dtd">
<svg version="1.1" id="Layer_1" xmlns="http://www.w3.org/2000/svg" xmlns:xlink="http://www.w3.org/1999/xlink" x="0px" y="0px"
	 width="441.669px" height="501.653px" viewBox="0 0 441.669 501.653" enable-background="new 0 0 441.669 501.653"
	 xml:space="preserve">
<path fill-rule="evenodd" clip-rule="evenodd" fill="#BB8557" d="M321.104,154.973c8.602,10.295,6.034,22.633,6.025,34.391
	c-0.006,7.832-4.941,14.458-12.346,16.229c-5.06,1.21-6.017,4.324-6.434,8.386c-1.919,18.669-10.985,33.932-23.152,47.518
	c-6.082,6.792-12.432,13.445-20.205,18.473c-2.121,1.371-2.852,3.409-2.791,5.997c0.156,6.66,0.069,13.324,0.079,19.987
	c0.947,1.095,1.138,2.312,0.591,3.644c-0.241,0.479-0.634,0.752-1.165,0.82c-3.132-1.42-5.723-0.04-7.554,2.187
	c-5.732,6.971-13.367,11.882-19.467,18.496c-4.124,4.471-9.343,7.953-13.751,12.262c-2.461,2.404-4.885,1.241-6.981-0.87
	c-8.051-8.106-16.29-16.001-25.222-23.155c-2.729-2.186-4.502-5.322-7.063-7.728c-1.962-1.842-3.958-3.556-6.444-4.635
	c-0.627-0.422-1.114-0.923-0.988-1.765c2.133-5.613,0.405-11.451,0.996-17.155c2.593-0.83,4.448,0.888,6.458,1.937
	c9.179,4.791,18.483,9.23,28.889,10.682c5.195,0.725,5.867,0.16,6.104-4.961c0.085-1.828,0.032-3.661,0.032-5.492
	c0.001-62.26-0.005-124.519,0.019-186.777c0.001-2.973-0.41-6.008,0.813-8.876c0.892-1.469,2.401-1.729,3.9-1.8
	c18.133-0.866,36.172-2.69,54.175-5.005c9.93-1.276,17.338,2.738,22.722,11.232c7.537,11.892,10.029,25.302,12.181,38.799
	c1.177,7.383,1.873,14.858,2.225,22.348c0.084,1.792-0.043,4.132,2.277,4.438c2.461,0.324,2.477-2.126,3.118-3.775
	C318.935,158.767,318.22,155.945,321.104,154.973z"/>
<path fill-rule="evenodd" clip-rule="evenodd" fill="#2D1D13" d="M321.104,154.973c-0.613,2.569-1.329,5.12-1.811,7.714
	c-0.479,2.578-1.502,4.585-4.457,4.29c-3.004-0.301-3.387-2.628-3.497-5.146c-0.641-14.491-2.262-28.855-6.063-42.895
	c-2.009-7.42-4.694-14.541-9.221-20.901c-4.759-6.687-10.937-10.021-19.221-9.081c-9.574,1.087-19.134,2.356-28.729,3.2
	c-9.93,0.872-19.896,1.327-29.846,1.965c-4.558,2.496-9.41,1.308-14.147,1.016c-15.262-0.942-30.45-2.577-45.633-4.438
	c-10.967-1.345-17.954,3.45-22.985,14.387c-5.627,12.23-8.116,25.276-9.81,38.531c-0.738,5.781-0.67,11.624-1.497,17.378
	c-0.792,5.515-2.579,7.428-5.964,7.086c-3.376-0.341-4.838-3.11-4.508-8.577c0.03-0.512-0.067-0.986-0.214-1.462
	c-2.268-13.284-4.856-26.517-5.816-39.995c-1.567-21.998-0.534-43.681,8.349-64.275c9.912-22.984,27.434-37.932,50.897-45.549
	c34.149-11.085,68.591-11.11,102.501,0.851c32.678,11.526,50.19,35.933,55.766,69.518c4.019,24.209,1.295,48.133-3.322,71.958
	C321.591,152.017,321.359,153.497,321.104,154.973z"/>
<path fill-rule="evenodd" clip-rule="evenodd" fill="#BB8557" d="M113.501,158.039c0.548,1.904,1.195,3.787,1.617,5.718
	c0.509,2.333,1.806,3.486,4.202,3.266c2.255-0.208,2.996-1.686,3.192-3.744c0.854-8.93,1.527-17.886,2.712-26.773
	c1.387-10.407,3.856-20.58,8.11-30.252c1.962-4.462,4.52-8.483,7.955-11.98c4.286-4.363,9.419-6.043,15.423-5.36
	c9.736,1.108,19.475,2.204,29.212,3.304c10.744,1.214,21.538,1.566,32.335,1.901c0.003,67.645,0.01,135.29,0.005,202.935
	c0,6.163-0.444,6.132-6.695,5.341c-13.386-1.694-24.911-7.827-36.337-14.34c0.707-4.255-1.767-6.63-4.845-8.99
	c-17.434-13.37-31.299-29.569-38.787-50.548c-1.826-5.115-3.4-10.388-3.402-15.96c-0.001-3.284-1.362-5.333-4.845-6.427
	c-9.496-2.983-13.128-8.221-13.142-17.976c-0.006-4.985,0.113-9.973-0.032-14.954C110.023,167.84,110.093,162.59,113.501,158.039z"
	/>
<path fill-rule="evenodd" clip-rule="evenodd" fill="#4E4C4C" d="M174.235,305.208c0.371,0.29,0.742,0.58,1.113,0.87
	c1.636,2.487,0.525,4.213-1.56,5.675c-3.686,1.51-4.046,4.162-3.052,7.7c4.927,17.534,9.729,35.103,14.551,52.668
	c6.683,23.926,13.115,47.92,19.869,71.823c4.335,16.292,8.978,32.498,13.371,48.529c3.78-16.274,8.923-32.215,12.831-48.473
	c7.044-23.847,13.348-47.896,19.956-71.862c5.184-17.603,9.739-35.38,14.774-53.024c0.599-2.098,0.538-4.253,0.674-6.391
	c1.545-2.091,2.017-4.916,4.363-6.474c8.758,2.622,16.4,7.604,24.421,11.743c5.073,2.618,10.688,4.49,14.722,8.88
	c-3.754,2.646-2.535,6.826-2.824,10.317c-0.737,8.934,0.558,17.958-1.029,26.894c-0.312,1.756-0.837,2.976-2.298,4.123
	c-5.224,4.104-10.167,8.572-15.479,12.552c-2.18,1.633-2.349,2.662-0.771,4.723c3.838,5.01,7.369,10.256,11.26,15.223
	c2.473,3.156,2.481,5.368-0.444,8.539c-20.851,22.604-41.485,45.408-62.157,68.177c-5.137,5.658-10.21,11.376-15.206,17.16
	c-2.055,2.38-3.616,2.768-5.938,0.147c-13.439-15.176-26.994-30.25-40.543-45.329c-7.109-7.913-14.302-15.754-21.427-23.654
	c-5.563-6.169-11.025-12.432-16.652-18.543c-1.728-1.876-1.565-3.238-0.065-5.164c3.979-5.109,7.705-10.416,11.622-15.575
	c1.765-2.325,2.354-3.912-0.729-5.975c-4.259-2.85-7.8-6.774-12.065-9.611c-6.788-4.515-5.545-11.583-6.064-17.9
	c-0.599-7.286-0.244-14.653-0.225-21.985c0.006-2.166-0.052-4.094-2.939-4.089c11.936-8.742,25.669-14.197,38.624-21.069
	C167.759,304.325,171.12,305.414,174.235,305.208z"/>
<path fill-rule="evenodd" clip-rule="evenodd" fill="#232021" d="M271.127,306.25c-1.307,2.014-0.115,5.729-4.055,5.951
	c-2.285,0.798-4.137,0.543-5.02-2.067c0.076-1.394,0.151-2.788,0.228-4.182C265.229,306.052,268.179,306.15,271.127,306.25z"/>
<path fill-rule="evenodd" clip-rule="evenodd" fill="#E3E3E3" d="M262.053,310.134c1.674,0.689,3.347,1.378,5.02,2.067
	c1.222,1.054,1.729,2.285,1.263,3.933c-5.298,18.734-10.567,37.477-15.846,56.217c-2.16,0.876-2.869,3.086-4.225,4.687
	c-2.375,2.804-4.604,2.856-6.995,0.114c-1.412-1.62-2.66-3.393-4.36-4.75c-5.552-6.868-12.515-12.382-18.467-19.398
	c-6.224,6.57-13.079,12.373-18.502,19.571c-1.649,1.621-3.33,3.215-4.939,4.877c-2.42,2.499-4.496,2.224-6.534-0.508
	c-1.273-1.707-2.483-3.504-4.283-4.749c-5.275-18.716-10.592-37.42-15.796-56.155c-1.2-4.321,3.192-3.776,5.108-5.378
	c2.176-0.555,3.807,0.327,5.349,1.81c9.565,9.193,19.691,17.786,29.123,27.123c1.538,1.523,3.223,2.86,4.907,4.212
	c5.539,4.445,5.711,4.678,11.146-0.134c6.205-5.491,12.339-11.088,18.258-16.888c5.218-5.113,11.117-9.476,16.056-14.881
	c0.774-0.848,1.702-1.61,3-1.542C261.604,310.378,261.843,310.302,262.053,310.134z"/>
<path fill-rule="evenodd" clip-rule="evenodd" fill="#BB8557" d="M261.335,310.361c-13.586,12.679-27.209,25.318-40.719,38.078
	c-2.028,1.915-3.131,1.304-4.863-0.313c-12.259-11.433-24.606-22.77-36.943-34.119c-1.558-1.434-2.864-3.319-5.317-3.345
	c1.846-1.035,1.946-2.771,1.856-4.585c2.278,0.255,3.964,1.533,5.539,3.087c4.81,4.742,10.007,9.227,14.533,14.079
	c6.215,6.661,14.457,11.09,19.623,18.798c1.448,2.161,3.745,2.407,5.817-0.023c5.488-6.438,12.264-11.623,18.581-17.094
	c5.854-5.071,10.376-11.584,17.083-15.673C258.552,308.018,260.465,306.798,261.335,310.361z"/>
<path fill-rule="evenodd" clip-rule="evenodd" fill="#932A20" d="M199.253,372.068c4.978-7.497,12-13.145,17.913-19.796
	c0.731-0.823,1.464-1.071,2.403,0.015c5.812,6.718,12.956,12.234,17.827,19.801c0.692,2.716-0.855,4.853-2.009,6.991
	c-2.225,4.124-2.399,8.347-2.191,12.984c0.772,17.232,1.622,34.495-0.692,51.697c-2.432,12.671-6.492,24.917-9.779,37.364
	c-1.177,4.452-2.478,8.871-3.937,14.074c-3.165-5.213-3.8-10.478-5.125-15.445c-3.189-11.959-7.206-23.7-9.535-35.887
	c-2.15-10.364-1.81-20.869-0.984-31.272c0.687-8.654,0.428-17.271,0.554-25.904c0.043-2.909-1.059-5.512-2.315-8.072
	C200.363,376.544,199.063,374.543,199.253,372.068z"/>
<path fill-rule="evenodd" clip-rule="evenodd" fill="#FEFDFD" d="M199.253,372.068c4.14,5.99,6.526,12.26,6.156,19.911
	c-0.838,17.275-0.902,34.588-1.281,51.887c-5.417-15.987-9.19-32.444-13.854-48.647c-2.194-7.628-4.07-15.347-6.091-23.024
	c3.072-0.374,3.896,2.271,5.108,4.087c1.606,2.408,2.875,2.743,4.877,0.446C195.67,375.006,197.545,373.609,199.253,372.068z"/>
<path fill-rule="evenodd" clip-rule="evenodd" fill="#FDFDFD" d="M232.504,443.761c-0.337-18.059-0.459-36.125-1.12-54.172
	c-0.25-6.833,3.066-11.999,6.013-17.501c2.04-0.008,2.555,1.745,3.552,2.999c3.569,4.481,3.95,4.381,7.435-0.07
	c0.96-1.227,1.264-4.108,4.106-2.666C246.213,396.262,240.079,420.213,232.504,443.761z"/>
<path fill="#211E1F" d="M441.669,499.903c-0.28-2.308-0.444-4.638-0.854-6.924c-5.504-30.735-10.973-61.477-16.622-92.186
	c-1.32-7.178-1.836-14.563-4.391-21.459c-5.657-15.276-17.955-23.523-32.185-29.359c-25.006-10.256-51.52-15.555-77.35-23.104
	c-2.501-0.817-2.812,1.037-3.134,2.679c-0.608,3.103-1.176,6.203-1.138,9.404c0.072,6.163,0.043,12.327,0.008,18.491
	c-0.03,5.28-1.595,9.658-6.295,12.786c-4.01,2.669-7.359,6.256-11.269,9.087c-3.127,2.264-3.299,4.63-1.089,7.6
	c3.58,4.81,6.953,9.772,10.61,14.526c1.919,2.495,2.028,4.841-0.43,7.049c-4.85,4.354-8.777,9.564-13.181,14.332
	c-10.724,11.612-21.222,23.434-31.813,35.17c-10.257,11.363-20.507,22.734-30.701,34.155c-3.438,3.852-3.853,3.643-7.296-0.244
	c-20.636-23.291-41.643-46.248-62.431-69.4c-4.224-4.705-8.616-9.258-12.745-14.051c-2.179-2.529-2.356-4.721-0.277-7.527
	c3.271-4.416,6.493-8.872,9.809-13.256c2.418-3.196,2.572-5.77-0.893-8.494c-3.923-3.085-7.79-6.257-11.619-9.465
	c-2.293-1.922-4.582-3.9-4.813-7.271c-0.387-5.639-1.322-11.227-1.099-16.925c0.195-4.988,0.169-9.996-0.034-14.99
	c-0.103-2.537-0.607-4.884-4.143-3.627c-17.308,4.754-34.659,9.357-51.909,14.31c-13.432,3.856-26.758,8.077-38.718,15.655
	c-10.54,6.68-17.924,15.743-19.031,28.383c-1.89,21.56-6.444,42.694-9.332,64.086C4.95,466.784,1.98,484.151,0,501.653h439.934
	C440.512,501.068,441.096,500.494,441.669,499.903z"/>
</svg>
