<?xml version="1.0" encoding="utf-8"?>
<!-- Generator: Adobe Illustrator 16.0.2, SVG Export Plug-In . SVG Version: 6.00 Build 0)  -->
<!DOCTYPE svg PUBLIC "-//W3C//DTD SVG 1.1//EN" "http://www.w3.org/Graphics/SVG/1.1/DTD/svg11.dtd">
<svg version="1.1" id="Layer_1" xmlns="http://www.w3.org/2000/svg" xmlns:xlink="http://www.w3.org/1999/xlink" x="0px" y="0px"
	 width="455.509px" height="514.944px" viewBox="-706.939 -699.929 455.509 514.944"
	 enable-background="new -706.939 -699.929 455.509 514.944" xml:space="preserve">
<g>
	<path fill="#F4C223" d="M-705.108-699.818c18.311-0.036,36.621-0.104,54.932-0.104c108.372-0.01,216.743-0.006,325.114-0.001
		c1.83,0,3.66,0.069,5.49,0.105c2.547,2.448,1.635,5.632,1.637,8.52c0.052,75.666,0.041,151.332,0.041,226.998
		c-0.001,7.667,0.057,15.333-0.021,22.999c-0.072,7.206-1.624,8.569-8.389,6.558c-15.001-4.463-30.243-6.086-45.896-5.847
		c-28.089,0.433-53.496,8.982-76.347,24.794c-31.524,21.813-51.539,51.663-59.357,89.323c-6.181,29.772-2.953,58.665,9.161,86.558
		c8.501,19.573,20.8,36.364,36.891,50.387c1.35,1.176,2.958,2.315,2.398,4.545c-39.197-0.027-78.394-0.056-117.59-0.083
		c-2.645-0.799-4.604-2.563-6.509-4.469c-33.55-33.576-67.128-67.124-100.67-100.708c-6.585-6.594-12.736-13.604-19.255-20.262
		c-2.225-2.271-3.369-4.89-3.313-8.067c0.027-1.497-0.019-2.997-0.019-4.496c0-122.577-0.008-245.155,0.043-367.732
		C-706.764-693.851-707.735-697.202-705.108-699.818z"/>
	<path fill="#12997D" d="M-374.16-189.46c-6.098-1.551-12.422-1.883-18.482-3.742c-44.749-13.74-73.088-43.154-81.557-89.267
		c-11.641-63.374,31.771-122.104,95.327-131.022c58.995-8.28,115.396,32.621,125.591,91.073c0.596,3.412,1.228,6.818,1.842,10.229
		c0.003,6.883,0.006,13.766,0.008,20.648c-0.328,14.931-4.275,28.964-11.416,41.954c-16.658,30.306-41.455,50.343-75.363,58.559
		c-5.033,1.22-10.231,0.757-15.299,1.591C-360.393-189.443-367.276-189.451-374.16-189.46z"/>
	<g>
		<path fill="#FFFFFF" d="M-371.961-255.231c-3.049,0.618-6.094,1.251-9.146,1.843c-9.208,1.793-18.419,3.564-27.628,5.345
			c-0.224,0.043-0.449,0.182-0.673-0.002c-0.164-0.302,0.035-0.553,0.143-0.793c5.611-12.585,6.463-25.576,3.539-38.954
			c-1.205-5.506-2.329-11.05-3.1-16.63c-1.993-14.389,5.791-29.544,18.365-36.225c0.304-0.654,0.917-0.928,1.507-1.225
			c4.848-2.431,9.948-3.821,15.404-3.752c1.323,0.018,2.646-0.004,3.968,0.006c0.57,0.004,1.143-0.002,1.609,0.406
			c3.58,0.711,7.131,1.496,10.456,3.082c11.723,5.585,18.639,14.811,21.136,27.52c1.681,8.556,2.857,17.226,5.328,25.61
			c2.398,8.122,6.532,15.322,12.064,21.724c1.337,1.548,1.344,1.56-0.599,1.938c-10.888,2.123-21.776,4.235-32.667,6.352
			c-0.279,0.054-0.563,0.069-0.846,0.102c-0.863,0.622-1.854,0.834-2.886,1.029c-4.452,0.849-8.896,1.749-13.347,2.597
			C-370.216-255.093-371.081-254.938-371.961-255.231z"/>
		<path fill="#FFFFFF" d="M-367.974-345.212c-1.699,0-3.398,0.039-5.098-0.002c-6.239-0.155-11.966,1.615-17.39,4.566
			c0.033-1.485-0.441-2.893-0.689-4.332c-1.047-6.109,2.831-11.89,8.895-13.187c6.027-1.285,11.972,2.46,13.43,8.503
			C-368.474-348.194-368.254-346.696-367.974-345.212z"/>
		<path fill="#FFFFFF" d="M-371.961-255.231c6.286-1.218,12.573-2.438,18.859-3.654c-0.714,0.68-0.223,1.426-0.089,2.129
			c1.153,6.145-3.265,11.389-9.434,11.179c-4.033-0.138-7.597-3.259-8.495-7.362C-371.29-253.727-371.065-254.698-371.961-255.231z"
			/>
		<path fill="#FFFFFF" d="M-389.647-271.491c-0.283,4.035-1.144,7.728-3.103,11.105c-0.455,0.787-0.891,1.056-1.801,0.453
			c-2.645-1.744-2.654-1.691-1.318-4.471c1.84-3.821,1.874-7.807,0.993-11.863c-0.111-0.506-0.199-1.015-0.316-1.521
			c-0.095-0.411,0.1-0.661,0.458-0.744c0.963-0.228,1.936-0.413,2.904-0.613c0.802-0.166,1.099,0.313,1.255,0.981
			C-390.044-275.907-389.944-273.597-389.647-271.491z"/>
	</g>
	<path fill="#FFFFFF" d="M-431.335-564.759c-15.922,0-31.846-0.001-47.767,0c-12.44,0-12.43,0.001-12.427,11.748
		c0.003,41.094-0.137,82.188,0.154,123.28c0.042,5.97-1.806,7.442-7.612,7.169c-9.488-0.444-19.02-0.289-28.523-0.043
		c-4.336,0.111-6.413-1.156-6.356-5.582c0.229-17.559,0.398-35.118,0.429-52.677c0.02-11.69-0.339-23.38-0.341-35.072
		c-0.004-14.218,0.07-28.435,0.366-42.647c0.092-4.392-0.996-6.35-6.063-6.276c-18.133,0.258-36.272,0.101-54.283,0.101
		c-0.866-1.92,0.586-2.567,1.41-3.369c25.341-24.64,50.709-49.256,76.078-73.867c1.783-1.73,3.167-4.041,6.197-1.095
		c26.399,25.669,52.907,51.232,79.382,76.827C-430.907-565.762-431.121-565.261-431.335-564.759z"/>
</g>
</svg>
