<?xml version="1.0" encoding="utf-8"?>
<!-- Generator: Adobe Illustrator 16.0.2, SVG Export Plug-In . SVG Version: 6.00 Build 0)  -->
<!DOCTYPE svg PUBLIC "-//W3C//DTD SVG 1.1//EN" "http://www.w3.org/Graphics/SVG/1.1/DTD/svg11.dtd">
<svg version="1.1" id="Layer_1" xmlns="http://www.w3.org/2000/svg" xmlns:xlink="http://www.w3.org/1999/xlink" x="0px" y="0px"
	 width="511px" height="511px" viewBox="0 0 511 511" enable-background="new 0 0 511 511" xml:space="preserve">
<path fill="#FFFFFF" d="M428.753,65.066c-48.405-8.675-92.985-35.111-115.251-50.098c-14.546-9.79-31.466-14.967-48.928-14.967
	s-34.382,5.177-48.924,14.967c-22.269,14.986-66.85,41.423-115.255,50.098c-28.667,5.138-49.478,29.945-49.478,58.982v120.476
	c0,39.797,11.135,78.596,33.096,115.31c17.177,28.725,40.982,56.179,70.748,81.598c50.051,42.745,99.61,65.029,101.692,65.957
	l8.121,3.614l8.117-3.614c2.086-0.928,51.645-23.216,101.691-65.957c29.766-25.419,53.571-52.873,70.748-81.598
	c21.961-36.714,33.096-75.513,33.096-115.31V124.048C478.23,95.012,457.42,70.205,428.753,65.066z M438.293,244.524
	c0,59.333-29.973,115.15-89.092,165.898c-34.366,29.505-69.255,48.733-84.627,56.534c-15.38-7.809-50.265-27.037-84.627-56.534
	c-59.119-50.748-89.092-106.564-89.092-165.898V124.048c0-9.676,6.975-17.949,16.589-19.672
	c55.602-9.965,105.633-39.536,130.506-56.277c7.93-5.341,17.135-8.16,26.624-8.16s18.693,2.819,26.627,8.16
	c24.87,16.741,74.901,46.312,130.507,56.277c9.61,1.723,16.585,9.996,16.585,19.672V244.524z M325.475,294.037
	c0,16.085-6.34,31.355-17.852,43.002c-6.655,6.732-14.53,11.723-23.08,14.76v32.518h-39.938v-32.471
	c-8.515-2.986-16.355-7.883-22.982-14.492c-11.575-11.543-17.949-26.779-17.949-42.893v-7.988h39.934v7.988
	c0,11.299,9.602,20.843,20.967,20.843c11.17,0,20.967-9.938,20.967-21.267c0-8.714-9.579-14.637-29.91-25.193l-0.257-0.133
	c-15.977-8.297-45.711-23.735-45.711-61.454c0-22.721,14.514-42.175,34.943-50.004v-32.518h39.938v32.421
	c6.701,2.507,12.885,6.277,18.191,11.201c10.803,10.023,16.752,23.606,16.752,38.246v4.994h-39.938v-4.994
	c0-8.203-7.614-13.104-14.975-13.104c-8.258,0-14.975,6.175-14.975,13.758c0,10.69,4.971,16.039,24.176,26.012l0.261,0.133
	c11.153,5.793,22.69,11.781,32.093,20.042C318.968,264.727,325.475,278.383,325.475,294.037z"/>
</svg>
