<?xml version="1.0" encoding="utf-8"?>
<!-- Generator: Adobe Illustrator 16.0.2, SVG Export Plug-In . SVG Version: 6.00 Build 0)  -->
<!DOCTYPE svg PUBLIC "-//W3C//DTD SVG 1.1//EN" "http://www.w3.org/Graphics/SVG/1.1/DTD/svg11.dtd">
<svg version="1.1" id="Capa_1" xmlns="http://www.w3.org/2000/svg" xmlns:xlink="http://www.w3.org/1999/xlink" x="0px" y="0px"
	 width="612px" height="792px" viewBox="0 0 612 792" enable-background="new 0 0 612 792" xml:space="preserve">
<g>
	<g>
		<path fill="#FFFFFF" d="M399.411,376.875l23.729-32.43l23.729,32.43H612v-79.204l-4.269-6.149
			c-1.114-1.604-27.855-39.729-78.133-77.751c-60.034-45.4-128.628-71.55-199.692-76.348V90h-47.813v47.423
			c-71.065,4.798-139.658,30.947-199.692,76.348c-50.277,38.023-77.019,76.147-78.133,77.751L0,297.671v79.204h169.911l24.044-32.86
			l24.845,32.86h63.294v231.341c-26.95,4.272-46.86,15.257-64.884,25.201c-20.2,11.146-37.644,20.771-64.21,20.771
			c-24.973,0-39.251-8.426-57.331-19.094C73.984,622.299,46.996,606.375,0,606.375v47.813c33.942,0,51.287,10.234,71.371,22.086
			C91.81,688.332,114.974,702,153,702c38.88,0,64.609-14.194,87.308-26.72c20.514-11.317,38.229-21.093,65.692-21.093
			c33.942,0,51.287,10.234,71.371,22.086C397.81,688.332,420.974,702,459,702c38.88,0,64.609-14.194,87.308-26.72
			c20.515-11.317,38.23-21.093,65.692-21.093v-47.813c-39.776,0-65.816,14.367-88.79,27.043c-20.2,11.145-37.645,20.77-64.21,20.77
			c-24.973,0-39.252-8.426-57.331-19.094c-17.712-10.451-38.962-22.988-71.763-27.231V376.875H399.411z M499.435,250.911
			c33.899,25.397,55.972,51.162,64.753,62.263v15.889H471.13l-33.439-45.702c-20.656-34.982-46.914-67.646-69.183-92.662
			C414.732,200.16,458.577,220.3,499.435,250.911z M177.829,285.086l-32.178,43.977H47.813v-15.906
			c17.259-21.842,86.276-100.699,198.297-122.883C223.891,216.25,197.438,250.269,177.829,285.086z M242.59,329.063l-19.818-26.212
			c25.429-43.194,62.604-85.668,83.73-108.367c21.657,22.028,59.915,63.698,87.442,108.896l-18.793,25.684H242.59z"/>
	</g>
</g>
</svg>
