<?xml version="1.0" encoding="utf-8"?>
<!-- Generator: Adobe Illustrator 16.0.2, SVG Export Plug-In . SVG Version: 6.00 Build 0)  -->
<!DOCTYPE svg PUBLIC "-//W3C//DTD SVG 1.1//EN" "http://www.w3.org/Graphics/SVG/1.1/DTD/svg11.dtd">
<svg version="1.1" id="Layer_1" xmlns="http://www.w3.org/2000/svg" xmlns:xlink="http://www.w3.org/1999/xlink" x="0px" y="0px"
	 width="512px" height="512px" viewBox="0 0 512 512" enable-background="new 0 0 512 512" xml:space="preserve">
<path fill="#FFFFFF" d="M718,148c0-59.551-48.449-108-108-108S502,88.449,502,148s48.449,108,108,108S718,207.551,718,148z"/>
<path fill="#FFFFFF" d="M432.784,148c0-81.605-66.396-148-148-148c-81.605,0-148,66.395-148,148
	c0,50.547,25.48,95.25,64.262,121.965c-36.211,12.492-69.398,33.133-97.281,61.016C55.413,379.332,28.784,443.621,28.784,512h40
	c0-119.102,96.898-216,216-216C366.39,296,432.784,229.605,432.784,148z M176.784,148c0-59.551,48.449-108,108-108
	c59.551,0,108,48.449,108,108s-48.449,108-108,108C225.233,256,176.784,207.55,176.784,148z"/>
<path fill="#FFFFFF" d="M370.5,50.5"/>
<path fill="#FFFFFF" stroke="#FFFFFF" stroke-width="18" stroke-miterlimit="10" d="M394.878,292.766c1.364,0,2.729,0,4.092,0
	c0.807,0.1,1.609,0.198,2.415,0.295c5.536,0.666,11.153,0.933,16.591,2.064c25.477,5.311,46.202,18.395,62.073,38.991
	c11.24,14.588,18.078,31.093,20.451,49.384c0.53,4.107,0.789,8.251,1.172,12.377c0,1.092,0,2.183,0,3.273
	c-0.103,0.939-0.197,1.882-0.309,2.82c-0.661,5.534-0.93,11.153-2.063,16.59c-5.309,25.473-18.386,46.2-38.982,62.073
	c-14.586,11.24-31.088,18.078-49.378,20.453c-4.107,0.533-8.253,0.791-12.381,1.175c-1.092,0-2.183,0-3.272,0
	c-0.873-0.102-1.748-0.198-2.62-0.303c-5.538-0.648-11.156-0.899-16.599-2.016c-23.624-4.843-43.333-16.524-58.948-34.897
	c-13.155-15.476-21.123-33.349-23.783-53.519c-0.524-3.973-0.78-7.979-1.161-11.97c0-1.362,0-2.728,0-4.091
	c0.1-0.871,0.197-1.744,0.303-2.615c0.66-5.469,0.943-11.015,2.051-16.391c4.818-23.408,16.4-42.947,34.543-58.488
	c15.482-13.265,33.393-21.309,53.633-24.021C386.741,293.411,390.819,293.152,394.878,292.766z M465.749,337.036
	c-43.41,42.944-86.738,85.81-130.08,128.688c34.56,31.707,92.278,32.864,128.213-5.587
	C498.877,422.694,494.435,367.58,465.749,337.036z M456.197,327.65c-31.828-28.25-86.788-31.836-123.613,4.357
	c-36.646,36.02-34.667,91.715-6.185,124.055C369.636,413.286,412.904,370.479,456.197,327.65z"/>
</svg>
