<?xml version="1.0" encoding="utf-8"?>
<!-- Generator: Adobe Illustrator 16.0.2, SVG Export Plug-In . SVG Version: 6.00 Build 0)  -->
<!DOCTYPE svg PUBLIC "-//W3C//DTD SVG 1.1//EN" "http://www.w3.org/Graphics/SVG/1.1/DTD/svg11.dtd">
<svg version="1.1" id="Layer_1" xmlns="http://www.w3.org/2000/svg" xmlns:xlink="http://www.w3.org/1999/xlink" x="0px" y="0px"
	 width="512px" height="512px" viewBox="0 0 512 512" enable-background="new 0 0 512 512" xml:space="preserve">
<path fill="none" d="M718,148c0-59.551-48.449-108-108-108S502,88.449,502,148s48.449,108,108,108S718,207.551,718,148z"/>
<path d="M432.784,148c0-81.605-66.395-148-148-148s-148,66.395-148,148c0,50.547,25.48,95.25,64.262,121.965
	c-36.211,12.492-69.398,33.133-97.281,61.016C55.413,379.332,28.784,443.621,28.784,512h40c0-119.102,96.898-216,216-216
	C366.39,296,432.784,229.605,432.784,148z M176.784,148c0-59.551,48.449-108,108-108s108,48.449,108,108s-48.449,108-108,108
	S176.784,207.55,176.784,148z"/>
<path d="M370.5,50.5"/>
<path fill-rule="evenodd" clip-rule="evenodd" stroke="#000000" stroke-width="18" stroke-miterlimit="10" d="M394.878,292.766
	c1.364,0,2.728,0,4.092,0c0.806,0.099,1.609,0.198,2.415,0.295c5.536,0.666,11.153,0.932,16.591,2.064
	c25.476,5.31,46.202,18.394,62.073,38.991c11.24,14.588,18.078,31.093,20.451,49.384c0.53,4.107,0.789,8.251,1.172,12.377
	c0,1.092,0,2.183,0,3.273c-0.103,0.94-0.197,1.882-0.309,2.821c-0.661,5.534-0.929,11.153-2.062,16.59
	c-5.309,25.472-18.386,46.2-38.983,62.073c-14.586,11.24-31.088,18.078-49.378,20.453c-4.107,0.533-8.252,0.791-12.38,1.175
	c-1.092,0-2.183,0-3.273,0c-0.873-0.102-1.748-0.199-2.62-0.303c-5.538-0.648-11.156-0.899-16.599-2.016
	c-23.624-4.842-43.333-16.524-58.948-34.897c-13.155-15.476-21.123-33.349-23.783-53.519c-0.525-3.972-0.781-7.979-1.161-11.969
	c0-1.363,0-2.728,0-4.091c0.1-0.872,0.197-1.745,0.303-2.616c0.66-5.468,0.943-11.014,2.05-16.39
	c4.819-23.408,16.401-42.947,34.543-58.489c15.483-13.264,33.393-21.308,53.633-24.021
	C386.741,293.411,390.819,293.153,394.878,292.766z M465.749,337.036c-43.41,42.945-86.738,85.81-130.08,128.689
	c34.56,31.707,92.278,32.864,128.213-5.587C498.877,422.694,494.435,367.58,465.749,337.036z M456.197,327.65
	c-31.828-28.249-86.788-31.835-123.613,4.358c-36.646,36.02-34.667,91.715-6.185,124.054
	C369.636,413.286,412.904,370.479,456.197,327.65z"/>
</svg>
