<?xml version="1.0"?>
<svg xmlns="http://www.w3.org/2000/svg" id="Layer_1" enable-background="new 0 0 496 496" height="512px" viewBox="0 0 496 496" width="512px"><g><path d="m470 416h-12v-32c0-8.837-7.164-16-16-16h-20v-184h26c7.342 0 13.742-4.997 15.522-12.119 15.13-60.519 14.714-57.469 14.413-61.175-.483-5.976-4.207-10.98-9.387-13.305l-214-96c-4.166-1.869-8.932-1.869-13.098 0-230.711 103.498-216.334 96.154-219.885 100.553-1.284 1.589-2.201 3.332-2.776 5.107-1.945 5.976-1.371 4.578 13.689 64.82 1.781 7.122 8.18 12.119 15.522 12.119h26v184h-20c-8.836 0-16 7.163-16 16v32h-12c-8.836 0-16 7.163-16 16v48c0 8.837 7.164 16 16 16h444c8.836 0 16-7.163 16-16v-48c0-8.836-7.163-16-16-16zm-80-48h-24v-184h24zm-98 0v-184h42v184zm-56 0v-184h24v184zm-74 0v-184h42v184zm86-334.463 139.242 62.463h-278.484zm-193.508 94.463h387.016l-6 24h-375.016zm51.508 56h24v184h-24zm-36 216h356v16h-356zm384 64h-412v-16h412z" data-original="#000000" class="active-path" data-old_color="#000000" fill="#FFFFFF"/></g> </svg>
