<?xml version="1.0" encoding="utf-8"?>
<!-- Generator: Adobe Illustrator 16.0.2, SVG Export Plug-In . SVG Version: 6.00 Build 0)  -->
<!DOCTYPE svg PUBLIC "-//W3C//DTD SVG 1.1//EN" "http://www.w3.org/Graphics/SVG/1.1/DTD/svg11.dtd">
<svg version="1.1" id="Capa_1" xmlns="http://www.w3.org/2000/svg" xmlns:xlink="http://www.w3.org/1999/xlink" x="0px" y="0px"
	 width="612px" height="792px" viewBox="0 0 612 792" enable-background="new 0 0 612 792" xml:space="preserve">
<g>
	<g>
		<path fill="#FFFFFF" d="M540.281,152.156H397.846l11.09,31.782c11.446,32.802,16.596,65.467,16.596,78.187
			c0,23.728-19.303,43.031-43.031,43.031s-43.031-19.303-43.031-43.031c0-12.719,5.149-45.385,16.596-78.187l11.09-31.782H224.719
			c-39.546,0-71.719,32.173-71.719,71.719v90.98c-25.87-6.61-48.802-9.699-62.156-9.699C40.753,305.156,0,345.908,0,396
			s40.753,90.844,90.844,90.844c13.354,0,36.286-3.089,62.156-9.699v90.98c0,39.546,32.173,71.719,71.719,71.719h142.436
			l-11.09-31.782c-11.446-32.802-16.596-65.467-16.596-78.187c0-23.729,19.303-43.031,43.031-43.031s43.031,19.303,43.031,43.031
			c0,12.72-5.149,45.385-16.596,78.187l-11.09,31.782h142.436c39.546,0,71.719-32.173,71.719-71.719v-344.25
			C612,184.329,579.827,152.156,540.281,152.156z M564.188,568.125c0,13.182-10.725,23.906-23.906,23.906h-76.637
			c6.61-25.869,9.699-48.802,9.699-62.156c0-50.092-40.753-90.844-90.844-90.844s-90.844,40.752-90.844,90.844
			c0,13.354,3.089,36.287,9.699,62.156h-76.636c-13.182,0-23.906-10.725-23.906-23.906V411.346l-31.783,11.091
			c-32.801,11.446-65.466,16.595-78.186,16.595c-23.728,0-43.031-19.303-43.031-43.031c0-23.728,19.303-43.031,43.031-43.031
			c12.719,0,45.385,5.148,78.186,16.595l31.783,11.091v-156.78c0-13.182,10.724-23.906,23.906-23.906h76.636
			c-6.61,25.869-9.699,48.802-9.699,62.156c0,50.092,40.753,90.844,90.844,90.844s90.844-40.752,90.844-90.844
			c0-13.354-3.089-36.287-9.699-62.156h76.637c13.182,0,23.906,10.725,23.906,23.906V568.125z"/>
	</g>
</g>
</svg>
