<?xml version="1.0" encoding="utf-8"?>
<!-- Generator: Adobe Illustrator 16.0.2, SVG Export Plug-In . SVG Version: 6.00 Build 0)  -->
<!DOCTYPE svg PUBLIC "-//W3C//DTD SVG 1.1//EN" "http://www.w3.org/Graphics/SVG/1.1/DTD/svg11.dtd">
<svg version="1.1" id="Layer_1" xmlns="http://www.w3.org/2000/svg" xmlns:xlink="http://www.w3.org/1999/xlink" x="0px" y="0px"
	 width="512px" height="511.996px" viewBox="0 0 512 511.996" enable-background="new 0 0 512 511.996" xml:space="preserve">
<g>
	<path fill-rule="evenodd" clip-rule="evenodd" fill="#FFFFFF" d="M411.064,511.998c-103.333,0-206.666,0-310.001,0
		c-0.284-0.167-0.554-0.444-0.856-0.484c-23.187-3.188-39.367-22.894-39.281-48.25c0.327-95.267,0.117-190.534,0.114-285.802
		c-0.002-33.31-0.029-66.621,0.039-99.931c0.057-28.154,19.256-47.402,47.32-47.522c13.49-0.058,26.982-0.117,40.472,0.065
		c3.396,0.045,5.288-0.747,6.717-4.125c1.526-3.609,3.92-6.95,6.395-10.04c7.207-9.001,17.185-13.314,28.082-15.911c44,0,88,0,132,0
		c0.61,0.257,1.197,0.625,1.834,0.755c15.613,3.193,26.694,12.001,33.481,26.458c0.651,1.386,3.194,2.641,4.879,2.667
		c13.987,0.21,28.004-0.378,41.959,0.322c7.148,0.358,14.775,1.614,21.166,4.628c17.704,8.348,25.668,23.333,25.675,42.692
		c0.021,51.3,0.016,102.6,0.015,153.899c0,77.782,0.003,155.563-0.016,233.346c-0.003,14.97-5.199,27.544-16.97,37.233
		C427.318,507.569,419.339,510.051,411.064,511.998z M151.076,59.999c-14.309,0-27.946-0.008-41.584,0.001
		c-12.96,0.01-18.426,5.524-18.426,18.604c-0.003,128.291-0.003,256.583,0,384.875c0,13.077,5.46,18.522,18.48,18.521
		c97.802-0.003,195.602-0.003,293.403-0.002c12.432,0,18.111-5.598,18.112-17.887c0-88.47,0.001-176.942,0.002-265.413
		c0-40.653,0.023-81.307-0.017-121.96c-0.011-10.722-6.012-16.641-16.747-16.731c-4.998-0.042-9.997-0.008-14.994-0.008
		c-9.274,0-18.548,0-28.252,0c0,5.228,0.098,9.861-0.021,14.489c-0.232,9.183-6.287,15.447-15.464,15.46
		c-59.646,0.08-119.293,0.078-178.94,0.005c-9.259-0.01-15.283-6.152-15.53-15.363C150.974,69.95,151.076,65.305,151.076,59.999z
		 M331.063,59.805c0-4.694,0.029-8.841-0.006-12.988c-0.09-10.747-6.012-16.741-16.65-16.808
		c-7.158-0.044-14.315,0.004-21.474,0.004c-31.791-0.003-63.583-0.032-95.375,0.003c-8.38,0.009-14.733,4.166-15.848,11.541
		c-0.896,5.931-0.182,12.105-0.182,18.248C231.373,59.805,280.925,59.805,331.063,59.805z"/>
	<path fill-rule="evenodd" clip-rule="evenodd" fill="#FFFFFF" d="M181.086,120.998c14.315-0.001,28.632-0.048,42.946,0.014
		c11.1,0.048,16.992,5.917,17.02,16.934c0.046,18.644,0.046,37.287,0,55.93c-0.028,11.311-5.891,17.098-17.343,17.112
		c-28.464,0.035-56.929,0.032-85.393,0.001c-11.45-0.012-17.218-5.767-17.241-17.185c-0.038-18.644-0.045-37.288,0.004-55.931
		c0.028-11.026,5.92-16.831,17.061-16.863C152.454,120.967,166.771,120.998,181.086,120.998z M151.304,180.65
		c20.101,0,39.794,0,59.364,0c0-10.063,0-19.772,0-29.402c-19.974,0-39.552,0-59.364,0
		C151.304,161.08,151.304,170.666,151.304,180.65z"/>
	<path fill-rule="evenodd" clip-rule="evenodd" fill="#FFFFFF" d="M181.285,241c14.331-0.001,28.663-0.044,42.995,0.012
		c10.749,0.042,16.733,5.986,16.768,16.71c0.06,18.831,0.055,37.662,0.001,56.492c-0.03,10.749-5.993,16.748-16.71,16.768
		c-28.83,0.047-57.661,0.045-86.49,0c-10.752-0.017-16.726-5.96-16.765-16.708c-0.071-18.999-0.073-37.996,0.005-56.994
		c0.043-10.103,6.126-16.198,16.202-16.259C151.955,240.936,166.619,241,181.285,241z M151.311,300.637c20.069,0,39.756,0,59.353,0
		c0-10.07,0-19.775,0-29.365c-19.971,0-39.541,0-59.353,0C151.311,281.126,151.311,290.71,151.311,300.637z"/>
	<path fill-rule="evenodd" clip-rule="evenodd" fill="#FFFFFF" d="M331.093,121c14.308-0.001,28.616-0.031,42.924,0.01
		c10.221,0.028,16.946,5.957,17.01,14.876c0.063,8.902-6.726,15.083-16.816,15.097c-28.782,0.042-57.564,0.041-86.347,0
		c-10.093-0.015-16.847-6.188-16.761-15.123c0.083-8.713,6.801-14.805,16.567-14.846C302.144,120.954,316.618,121,331.093,121z"/>
	<path fill-rule="evenodd" clip-rule="evenodd" fill="#FFFFFF" d="M330.563,270.996c-14.165,0.002-28.331,0.033-42.497-0.008
		c-10.173-0.031-16.967-6.083-16.964-14.997c0-8.938,6.751-14.969,16.951-14.98c28.998-0.032,57.996-0.086,86.993,0.026
		c11.725,0.046,19.22,10.668,14.755,20.776c-2.769,6.264-7.908,9.188-14.741,9.185C360.228,270.99,345.396,270.995,330.563,270.996z
		"/>
	<path fill-rule="evenodd" clip-rule="evenodd" fill="#FFFFFF" d="M330.917,390.998c-14.331,0-28.664,0.039-42.995-0.014
		c-10.104-0.035-16.912-6.225-16.819-15.138c0.092-8.724,6.816-14.815,16.622-14.832c28.829-0.045,57.659-0.042,86.487-0.003
		c10.085,0.015,16.91,6.239,16.814,15.145c-0.095,8.76-6.772,14.788-16.615,14.827C359.913,391.041,345.415,390.998,330.917,390.998
		z"/>
	<path fill-rule="evenodd" clip-rule="evenodd" fill="#FFFFFF" d="M315.837,210.997c-9.498,0-18.996,0.065-28.493-0.018
		c-9.642-0.085-16.378-6.465-16.241-15.208c0.134-8.546,6.777-14.71,16.196-14.748c19.162-0.075,38.324-0.083,57.486,0
		c9.654,0.042,16.378,6.462,16.241,15.203c-0.135,8.546-6.777,14.671-16.196,14.752
		C335.165,211.061,325.501,210.997,315.837,210.997z"/>
	<path fill-rule="evenodd" clip-rule="evenodd" fill="#FFFFFF" d="M315.839,330.997c-9.5,0-19,0.063-28.5-0.019
		c-9.687-0.083-16.361-6.395-16.236-15.185c0.121-8.55,6.766-14.733,16.179-14.77c19.167-0.077,38.333-0.076,57.499-0.002
		c9.642,0.038,16.382,6.457,16.246,15.204c-0.133,8.584-6.73,14.67-16.188,14.752C335.172,331.061,325.505,330.997,315.839,330.997z
		"/>
	<path fill-rule="evenodd" clip-rule="evenodd" fill="#FFFFFF" d="M315.62,450.998c-9.313,0-18.625,0.046-27.938-0.012
		c-9.764-0.063-16.479-6.115-16.58-14.823c-0.105-8.923,6.663-15.125,16.722-15.149c18.791-0.049,37.583-0.046,56.372-0.001
		c10.126,0.023,16.869,6.115,16.83,15.042c-0.039,8.889-6.807,14.883-16.972,14.934C334.577,451.035,325.098,450.999,315.62,450.998
		z"/>
	<path fill-rule="evenodd" clip-rule="evenodd" fill="#FFFFFF" d="M192.107,384.081c0.037,5.692-5.111,8.565-10.253,6.061
		c-3.429-1.67-7.104-3.104-10.829-3.821c-3.48-0.67-6.631,0.822-7.326,4.797c-0.734,4.204,2.37,5.791,5.615,6.781
		c3.585,1.093,7.326,1.674,10.914,2.751c10.811,3.241,14.71,7.654,15.336,17.047c0.663,9.918-3.638,17.827-12.857,21.53
		c-4.333,1.739-5.671,3.997-5.21,8.292c0.371,3.438-0.516,6.557-4.117,8.101c-4.627,1.988-9.725-1.067-9.397-6.459
		c0.356-5.842-1.725-8.555-7.032-10.734c-3.516-1.444-6.506-4.851-8.977-7.975c-2.729-3.455-1.714-8.032,1.647-10.411
		c3.569-2.524,6.943-1.772,9.499,1.484c3.558,4.531,8.191,5.604,13.531,5c3.467-0.392,5.812-2.146,6.35-5.72
		c0.53-3.519-1.846-5.002-4.647-5.913c-4.654-1.512-9.424-2.691-14.022-4.349c-8.601-3.102-12.771-8.965-12.91-17.637
		c-0.145-8.951,4.208-16.423,12.235-19.341c3.764-1.371,4.759-3.346,4.277-6.842c-0.11-0.802-0.073-1.63-0.056-2.447
		c0.112-5.261,2.681-8.407,6.856-8.415c4.162-0.01,6.953,3.024,6.683,8.415c-0.267,5.301,0.815,8.603,6.621,10.332
		C189.493,376.235,192.082,380.326,192.107,384.081z"/>
</g>
</svg>
