<?xml version="1.0" encoding="utf-8"?>
<!-- Generator: Adobe Illustrator 16.0.2, SVG Export Plug-In . SVG Version: 6.00 Build 0)  -->
<!DOCTYPE svg PUBLIC "-//W3C//DTD SVG 1.1//EN" "http://www.w3.org/Graphics/SVG/1.1/DTD/svg11.dtd">
<svg version="1.1" id="Layer_1" xmlns="http://www.w3.org/2000/svg" xmlns:xlink="http://www.w3.org/1999/xlink" x="0px" y="0px"
	 width="512px" height="512px" viewBox="0 0 512 512" enable-background="new 0 0 512 512" xml:space="preserve">
<path fill="#FFFFFF" d="M452,0H60C26.914,0,0,26.914,0,60v352c0,33.086,26.914,60,60,60h392c33.086,0,60-26.914,60-60V60
	C512,26.914,485.086,0,452,0z M60,40h392c11.027,0,20,8.973,20,20v60H40V60C40,48.973,48.973,40,60,40z M452,432H60
	c-11.027,0-20-8.973-20-20V160h432v252C472,423.027,463.027,432,452,432z M70,80c0-11.047,8.953-20,20-20s20,8.953,20,20
	s-8.953,20-20,20S70,91.047,70,80z M140,80c0-11.047,8.953-20,20-20s20,8.953,20,20s-8.953,20-20,20S140,91.047,140,80z
	 M346.641,185.859L416.785,256l-70.145,70.141l-28.281-28.281L340.215,276H235v-40h105.215l-21.855-21.859L346.641,185.859z
	 M171.785,316H275v40H171.785l21.855,21.859l-28.281,28.281L95.215,336l70.145-70.141l28.281,28.281L171.785,316z"/>
</svg>
