<?xml version="1.0" encoding="utf-8"?>
<!-- Generator: Adobe Illustrator 16.0.2, SVG Export Plug-In . SVG Version: 6.00 Build 0)  -->
<!DOCTYPE svg PUBLIC "-//W3C//DTD SVG 1.1//EN" "http://www.w3.org/Graphics/SVG/1.1/DTD/svg11.dtd">
<svg version="1.1" id="Capa_1" xmlns="http://www.w3.org/2000/svg" xmlns:xlink="http://www.w3.org/1999/xlink" x="0px" y="0px"
	 width="612px" height="792px" viewBox="0 0 612 792" enable-background="new 0 0 612 792" xml:space="preserve">
<g>
	<g>
		<path fill="#FFFFFF" d="M522.375,485.625c-33.328-33.328-72.998-58.001-116.281-72.936
			c46.357-31.929,76.813-85.362,76.813-145.783C482.906,169.36,403.546,90,306,90s-176.906,79.36-176.906,176.906
			c0,60.421,30.456,113.854,76.813,145.783c-43.282,14.935-82.952,39.607-116.281,72.936C31.83,543.422,0,620.265,0,702h47.813
			c0-142.365,115.822-258.188,258.188-258.188S564.188,559.635,564.188,702H612C612,620.265,580.17,543.422,522.375,485.625z
			 M306,396c-71.182,0-129.094-57.911-129.094-129.094S234.818,137.813,306,137.813c71.182,0,129.094,57.911,129.094,129.094
			S377.182,396,306,396z"/>
	</g>
</g>
</svg>
